<?xml version="1.0" encoding="UTF-8" standalone="no"?>
<svg
   xmlns:dc="http://purl.org/dc/elements/1.1/"
   xmlns:cc="http://creativecommons.org/ns#"
   xmlns:rdf="http://www.w3.org/1999/02/22-rdf-syntax-ns#"
   xmlns:svg="http://www.w3.org/2000/svg"
   xmlns="http://www.w3.org/2000/svg"
   xmlns:xlink="http://www.w3.org/1999/xlink"
   xmlns:sodipodi="http://sodipodi.sourceforge.net/DTD/sodipodi-0.dtd"
   xmlns:inkscape="http://www.inkscape.org/namespaces/inkscape"
   height="139.725124pt"
   version="1.1"
   viewBox="0 0 226.08 139.725124"
   width="226.08pt"
   id="svg585"
   sodipodi:docname="batch_levins.svg"
   inkscape:version="1.0.1 (c497b03c, 2020-09-10)">
  <metadata
     id="metadata589">
    <rdf:RDF>
      <cc:Work
         rdf:about="">
        <dc:format>image/svg+xml</dc:format>
        <dc:type
           rdf:resource="http://purl.org/dc/dcmitype/StillImage" />
      </cc:Work>
    </rdf:RDF>
  </metadata>
  <sodipodi:namedview
     pagecolor="#ffffff"
     bordercolor="#666666"
     borderopacity="1"
     objecttolerance="10"
     gridtolerance="10"
     guidetolerance="10"
     inkscape:pageopacity="0"
     inkscape:pageshadow="2"
     inkscape:window-width="1348"
     inkscape:window-height="646"
     id="namedview587"
     showgrid="false"
     showguides="true"
     inkscape:guide-bbox="true"
     inkscape:zoom="1.4166978"
     inkscape:cx="212.9308"
     inkscape:cy="146.23384"
     inkscape:window-x="0"
     inkscape:window-y="23"
     inkscape:window-maximized="0"
     inkscape:current-layer="svg585">
    <sodipodi:guide
       position="282.69967,-9.5657099"
       orientation="0,-1"
       id="guide1342" />
    <sodipodi:guide
       position="-3.7058009,-9.5657098"
       orientation="1,0"
       id="guide1436" />
  </sodipodi:namedview>
  <defs
     id="defs12">
    <rect
       x="43.41081"
       y="169.93744"
       width="224.46565"
       height="56.645813"
       id="rect1440" />
    <rect
       x="23.293606"
       y="163.58464"
       width="311.28727"
       height="50.822412"
       id="rect1248" />
    <style
       type="text/css"
       id="style10">
*{stroke-linecap:butt;stroke-linejoin:round;}
  </style>
  </defs>
  <defs
     id="defs583">
    <clipPath
       id="pdfbc0f82be">
      <rect
         height="105.492469"
         width="175.212"
         x="28.26"
         y="16.767015"
         id="rect580" />
    </clipPath>
  </defs>
  <g
     id="g1858"
     inkscape:export-xdpi="300"
     inkscape:export-ydpi="300">
    <g
       id="PathCollection_1">
      <path
         clip-path="url(#pdfbc0f82be)"
         d="m 42.592594,25.900412 -3.44025,6.8805 h 6.880501 z"
         style="fill:#ffffff;stroke:#000000"
         id="path20" />
      <path
         clip-path="url(#pdfbc0f82be)"
         d="m 147.65774,27.213531 -2.13207,4.26415 h 4.26415 z"
         style="fill:#ffffff;stroke:#000000"
         id="path22" />
      <path
         clip-path="url(#pdfbc0f82be)"
         d="m 140.22737,27.274483 -2.03174,4.063482 h 4.06348 z"
         style="fill:#ffffff;stroke:#000000"
         id="path24" />
      <path
         clip-path="url(#pdfbc0f82be)"
         d="m 140.49287,26.320901 -2.10835,4.216714 h 4.21671 z"
         style="fill:#ffffff;stroke:#000000"
         id="path26" />
      <path
         clip-path="url(#pdfbc0f82be)"
         d="m 145.82772,67.145266 -2.16243,4.324863 h 4.32486 z"
         style="fill:#ffffff;stroke:#000000"
         id="path28" />
      <path
         clip-path="url(#pdfbc0f82be)"
         d="m 184.19859,26.089263 -3.35983,6.719656 h 6.71965 z"
         style="fill:#ffffff;stroke:#000000"
         id="path30" />
      <path
         clip-path="url(#pdfbc0f82be)"
         d="m 103.66042,44.178286 -2.71822,5.436443 h 5.43645 z"
         style="fill:#ffffff;stroke:#000000"
         id="path32" />
      <path
         clip-path="url(#pdfbc0f82be)"
         d="m 42.358892,39.883263 -3.105542,6.211083 h 6.211084 z"
         style="fill:#ffffff;stroke:#000000"
         id="path34" />
      <path
         clip-path="url(#pdfbc0f82be)"
         d="m 42.4446,49.626671 -3.436301,6.872603 h 6.872602 z"
         style="fill:#ffffff;stroke:#000000"
         id="path36" />
      <path
         clip-path="url(#pdfbc0f82be)"
         d="m 42.425202,47.210185 -3.311063,6.622127 h 6.622127 z"
         style="fill:#ffffff;stroke:#000000"
         id="path38" />
      <path
         clip-path="url(#pdfbc0f82be)"
         d="M 42.278256,26.822925 38.926619,33.5262 h 6.703275 z"
         style="fill:#ffffff;stroke:#000000"
         id="path40" />
      <path
         clip-path="url(#pdfbc0f82be)"
         d="m 49.479075,69.186416 -2.810898,5.621797 h 5.621796 z"
         style="fill:#ffffff;stroke:#000000"
         id="path42" />
      <path
         clip-path="url(#pdfbc0f82be)"
         d="m 60.039867,62.891392 -2.582773,5.165546 h 5.165546 z"
         style="fill:#ffffff;stroke:#000000"
         id="path44" />
      <path
         clip-path="url(#pdfbc0f82be)"
         d="m 186.12039,52.803176 -3.93853,7.877061 h 7.87706 z"
         style="fill:#ffffff;stroke:#000000"
         id="path46" />
      <path
         clip-path="url(#pdfbc0f82be)"
         d="m 139.15915,28.915657 -2.33893,4.677848 h 4.67785 z"
         style="fill:#ffffff;stroke:#000000"
         id="path48" />
      <path
         clip-path="url(#pdfbc0f82be)"
         d="m 48.944876,32.36089 -1.803533,3.607065 h 3.607065 z"
         style="fill:#ffffff;stroke:#000000"
         id="path50" />
      <path
         clip-path="url(#pdfbc0f82be)"
         d="m 147.96676,27.569333 -2.31568,4.631354 h 4.63136 z"
         style="fill:#ffffff;stroke:#000000"
         id="path52" />
      <path
         clip-path="url(#pdfbc0f82be)"
         d="m 50.231304,111.37108 -1.868514,3.73702 h 3.737029 z"
         style="fill:#ffffff;stroke:#000000"
         id="path54" />
      <path
         clip-path="url(#pdfbc0f82be)"
         d="m 140.66658,75.753635 -2.33659,4.67319 h 4.67319 z"
         style="fill:#ffffff;stroke:#000000"
         id="path56" />
    </g>
    <g
       id="PathCollection_2">
      <path
         clip-path="url(#pdfbc0f82be)"
         d="m 185.97449,92.554996 3.00767,-6.015343 h -6.01534 z"
         style="fill:#ffffff;stroke:#000000"
         id="path59" />
      <path
         clip-path="url(#pdfbc0f82be)"
         d="m 145.88691,71.459603 2.85284,-5.705672 h -5.70568 z"
         style="fill:#ffffff;stroke:#000000"
         id="path61" />
      <path
         clip-path="url(#pdfbc0f82be)"
         d="M 60.450414,67.383572 62.718465,62.84747 H 58.182364 Z"
         style="fill:#ffffff;stroke:#000000"
         id="path63" />
      <path
         clip-path="url(#pdfbc0f82be)"
         d="m 183.18582,69.4424 2.39492,-4.789826 h -4.78983 z"
         style="fill:#ffffff;stroke:#000000"
         id="path65" />
      <path
         clip-path="url(#pdfbc0f82be)"
         d="M 49.911575,72.98738 53.41222,65.986089 H 46.41093 Z"
         style="fill:#ffffff;stroke:#000000"
         id="path67" />
      <path
         clip-path="url(#pdfbc0f82be)"
         d="m 127.54159,107.52007 1.80472,-3.60943 h -3.60944 z"
         style="fill:#ffffff;stroke:#000000"
         id="path69" />
      <path
         clip-path="url(#pdfbc0f82be)"
         d="m 42.291962,33.803788 3.019723,-6.039445 H 39.27224 Z"
         style="fill:#ffffff;stroke:#000000"
         id="path71" />
      <path
         clip-path="url(#pdfbc0f82be)"
         d="m 49.629927,33.62788 3.238777,-6.477554 H 46.39115 Z"
         style="fill:#ffffff;stroke:#000000"
         id="path73" />
    </g>
    <g
       id="PathCollection_3">
      <path
         clip-path="url(#pdfbc0f82be)"
         d="m 46.330993,76.716171 h 6.220891 V 70.49528 h -6.220891 z"
         style="fill:#ffffff;stroke:#000000"
         id="path76" />
      <path
         clip-path="url(#pdfbc0f82be)"
         d="m 45.700906,65.183123 h 8.10488 v -8.10488 h -8.10488 z"
         style="fill:#ffffff;stroke:#000000"
         id="path78" />
      <path
         clip-path="url(#pdfbc0f82be)"
         d="m 38.77485,51.478127 h 7.19593 v -7.19593 h -7.19593 z"
         style="fill:#ffffff;stroke:#000000"
         id="path80" />
      <path
         clip-path="url(#pdfbc0f82be)"
         d="m 138.29425,65.386218 h 5.68377 v -5.68377 h -5.68377 z"
         style="fill:#ffffff;stroke:#000000"
         id="path82" />
      <path
         clip-path="url(#pdfbc0f82be)"
         d="m 145.34899,55.87037 h 3.95434 v -3.954338 h -3.95434 z"
         style="fill:#ffffff;stroke:#000000"
         id="path84" />
      <path
         clip-path="url(#pdfbc0f82be)"
         d="m 146.16301,47.635602 h 4.14167 v -4.141678 h -4.14167 z"
         style="fill:#ffffff;stroke:#000000"
         id="path86" />
      <path
         clip-path="url(#pdfbc0f82be)"
         d="m 46.791869,53.002875 h 4.933947 v -4.933947 h -4.933947 z"
         style="fill:#ffffff;stroke:#000000"
         id="path88" />
      <path
         clip-path="url(#pdfbc0f82be)"
         d="m 157.10095,56.063057 h 3.75745 v -3.757453 h -3.75745 z"
         style="fill:#ffffff;stroke:#000000"
         id="path90" />
      <path
         clip-path="url(#pdfbc0f82be)"
         d="m 47.340823,89.66003 h 4.07766 v -4.07766 h -4.07766 z"
         style="fill:#ffffff;stroke:#000000"
         id="path92" />
      <path
         clip-path="url(#pdfbc0f82be)"
         d="m 46.134869,51.706134 h 6.978647 v -6.978647 h -6.978647 z"
         style="fill:#ffffff;stroke:#000000"
         id="path94" />
      <path
         clip-path="url(#pdfbc0f82be)"
         d="m 40.755852,82.347508 h 3.406236 v -3.406235 h -3.406236 z"
         style="fill:#ffffff;stroke:#000000"
         id="path96" />
      <path
         clip-path="url(#pdfbc0f82be)"
         d="m 187.01776,73.442261 h 8.55108 v -8.551078 h -8.55108 z"
         style="fill:#ffffff;stroke:#000000"
         id="path98" />
    </g>
    <g
       id="PathCollection_4">
      <defs
         id="defs102">
        <path
           id="m7be1c64e01"
           style="stroke:#1f77b4;stroke-width:1.5;stroke-opacity:0.8"
           d="" />
      </defs>
      <g
         clip-path="url(#pdfbc0f82be)"
         id="g182">
        <use
           style="fill:#1f77b4;fill-opacity:0.8;stroke:#1f77b4;stroke-width:1.5;stroke-opacity:0.8"
           x="42.592594"
           xlink:href="#m7be1c64e01"
           y="29.340662"
           id="use104"
           width="100%"
           height="100%" />
        <use
           style="fill:#1f77b4;fill-opacity:0.8;stroke:#1f77b4;stroke-width:1.5;stroke-opacity:0.8"
           x="185.97449"
           xlink:href="#m7be1c64e01"
           y="89.547325"
           id="use106"
           width="100%"
           height="100%" />
        <use
           style="fill:#1f77b4;fill-opacity:0.8;stroke:#1f77b4;stroke-width:1.5;stroke-opacity:0.8"
           x="49.441437"
           xlink:href="#m7be1c64e01"
           y="73.605728"
           id="use108"
           width="100%"
           height="100%" />
        <use
           style="fill:#1f77b4;fill-opacity:0.8;stroke:#1f77b4;stroke-width:1.5;stroke-opacity:0.8"
           x="147.65775"
           xlink:href="#m7be1c64e01"
           y="29.345606"
           id="use110"
           width="100%"
           height="100%" />
        <use
           style="fill:#1f77b4;fill-opacity:0.8;stroke:#1f77b4;stroke-width:1.5;stroke-opacity:0.8"
           x="140.22737"
           xlink:href="#m7be1c64e01"
           y="29.306225"
           id="use112"
           width="100%"
           height="100%" />
        <use
           style="fill:#1f77b4;fill-opacity:0.8;stroke:#1f77b4;stroke-width:1.5;stroke-opacity:0.8"
           x="140.49287"
           xlink:href="#m7be1c64e01"
           y="28.429258"
           id="use114"
           width="100%"
           height="100%" />
        <use
           style="fill:#1f77b4;fill-opacity:0.8;stroke:#1f77b4;stroke-width:1.5;stroke-opacity:0.8"
           x="145.82771"
           xlink:href="#m7be1c64e01"
           y="69.307693"
           id="use116"
           width="100%"
           height="100%" />
        <use
           style="fill:#1f77b4;fill-opacity:0.8;stroke:#1f77b4;stroke-width:1.5;stroke-opacity:0.8"
           x="184.19859"
           xlink:href="#m7be1c64e01"
           y="29.449091"
           id="use118"
           width="100%"
           height="100%" />
        <use
           style="fill:#1f77b4;fill-opacity:0.8;stroke:#1f77b4;stroke-width:1.5;stroke-opacity:0.8"
           x="49.753345"
           xlink:href="#m7be1c64e01"
           y="61.130684"
           id="use120"
           width="100%"
           height="100%" />
        <use
           style="fill:#1f77b4;fill-opacity:0.8;stroke:#1f77b4;stroke-width:1.5;stroke-opacity:0.8"
           x="42.372814"
           xlink:href="#m7be1c64e01"
           y="47.880161"
           id="use122"
           width="100%"
           height="100%" />
        <use
           style="fill:#1f77b4;fill-opacity:0.8;stroke:#1f77b4;stroke-width:1.5;stroke-opacity:0.8"
           x="103.66042"
           xlink:href="#m7be1c64e01"
           y="46.896507"
           id="use124"
           width="100%"
           height="100%" />
        <use
           style="fill:#1f77b4;fill-opacity:0.8;stroke:#1f77b4;stroke-width:1.5;stroke-opacity:0.8"
           x="42.358891"
           xlink:href="#m7be1c64e01"
           y="42.988804"
           id="use126"
           width="100%"
           height="100%" />
        <use
           style="fill:#1f77b4;fill-opacity:0.8;stroke:#1f77b4;stroke-width:1.5;stroke-opacity:0.8"
           x="141.13614"
           xlink:href="#m7be1c64e01"
           y="62.544334"
           id="use128"
           width="100%"
           height="100%" />
        <use
           style="fill:#1f77b4;fill-opacity:0.8;stroke:#1f77b4;stroke-width:1.5;stroke-opacity:0.8"
           x="145.88692"
           xlink:href="#m7be1c64e01"
           y="68.606766"
           id="use130"
           width="100%"
           height="100%" />
        <use
           style="fill:#1f77b4;fill-opacity:0.8;stroke:#1f77b4;stroke-width:1.5;stroke-opacity:0.8"
           x="60.450413"
           xlink:href="#m7be1c64e01"
           y="65.115524"
           id="use132"
           width="100%"
           height="100%" />
        <use
           style="fill:#1f77b4;fill-opacity:0.8;stroke:#1f77b4;stroke-width:1.5;stroke-opacity:0.8"
           x="183.18582"
           xlink:href="#m7be1c64e01"
           y="67.047485"
           id="use134"
           width="100%"
           height="100%" />
        <use
           style="fill:#1f77b4;fill-opacity:0.8;stroke:#1f77b4;stroke-width:1.5;stroke-opacity:0.8"
           x="147.32616"
           xlink:href="#m7be1c64e01"
           y="53.8932"
           id="use136"
           width="100%"
           height="100%" />
        <use
           style="fill:#1f77b4;fill-opacity:0.8;stroke:#1f77b4;stroke-width:1.5;stroke-opacity:0.8"
           x="148.23384"
           xlink:href="#m7be1c64e01"
           y="45.564762"
           id="use138"
           width="100%"
           height="100%" />
        <use
           style="fill:#1f77b4;fill-opacity:0.8;stroke:#1f77b4;stroke-width:1.5;stroke-opacity:0.8"
           x="49.258842"
           xlink:href="#m7be1c64e01"
           y="50.5359"
           id="use140"
           width="100%"
           height="100%" />
        <use
           style="fill:#1f77b4;fill-opacity:0.8;stroke:#1f77b4;stroke-width:1.5;stroke-opacity:0.8"
           x="42.444599"
           xlink:href="#m7be1c64e01"
           y="53.062973"
           id="use142"
           width="100%"
           height="100%" />
        <use
           style="fill:#1f77b4;fill-opacity:0.8;stroke:#1f77b4;stroke-width:1.5;stroke-opacity:0.8"
           x="42.425201"
           xlink:href="#m7be1c64e01"
           y="50.521248"
           id="use144"
           width="100%"
           height="100%" />
        <use
           style="fill:#1f77b4;fill-opacity:0.8;stroke:#1f77b4;stroke-width:1.5;stroke-opacity:0.8"
           x="42.278255"
           xlink:href="#m7be1c64e01"
           y="30.174562"
           id="use146"
           width="100%"
           height="100%" />
        <use
           style="fill:#1f77b4;fill-opacity:0.8;stroke:#1f77b4;stroke-width:1.5;stroke-opacity:0.8"
           x="158.97968"
           xlink:href="#m7be1c64e01"
           y="54.18433"
           id="use148"
           width="100%"
           height="100%" />
        <use
           style="fill:#1f77b4;fill-opacity:0.8;stroke:#1f77b4;stroke-width:1.5;stroke-opacity:0.8"
           x="49.911575"
           xlink:href="#m7be1c64e01"
           y="69.486732"
           id="use150"
           width="100%"
           height="100%" />
        <use
           style="fill:#1f77b4;fill-opacity:0.8;stroke:#1f77b4;stroke-width:1.5;stroke-opacity:0.8"
           x="49.479076"
           xlink:href="#m7be1c64e01"
           y="71.997314"
           id="use152"
           width="100%"
           height="100%" />
        <use
           style="fill:#1f77b4;fill-opacity:0.8;stroke:#1f77b4;stroke-width:1.5;stroke-opacity:0.8"
           x="60.039867"
           xlink:href="#m7be1c64e01"
           y="65.474167"
           id="use154"
           width="100%"
           height="100%" />
        <use
           style="fill:#1f77b4;fill-opacity:0.8;stroke:#1f77b4;stroke-width:1.5;stroke-opacity:0.8"
           x="49.379654"
           xlink:href="#m7be1c64e01"
           y="87.621201"
           id="use156"
           width="100%"
           height="100%" />
        <use
           style="fill:#1f77b4;fill-opacity:0.8;stroke:#1f77b4;stroke-width:1.5;stroke-opacity:0.8"
           x="49.624191"
           xlink:href="#m7be1c64e01"
           y="48.216812"
           id="use158"
           width="100%"
           height="100%" />
        <use
           style="fill:#1f77b4;fill-opacity:0.8;stroke:#1f77b4;stroke-width:1.5;stroke-opacity:0.8"
           x="127.54159"
           xlink:href="#m7be1c64e01"
           y="105.71535"
           id="use160"
           width="100%"
           height="100%" />
        <use
           style="fill:#1f77b4;fill-opacity:0.8;stroke:#1f77b4;stroke-width:1.5;stroke-opacity:0.8"
           x="186.12039"
           xlink:href="#m7be1c64e01"
           y="56.741707"
           id="use162"
           width="100%"
           height="100%" />
        <use
           style="fill:#1f77b4;fill-opacity:0.8;stroke:#1f77b4;stroke-width:1.5;stroke-opacity:0.8"
           x="139.15915"
           xlink:href="#m7be1c64e01"
           y="31.254581"
           id="use164"
           width="100%"
           height="100%" />
        <use
           style="fill:#1f77b4;fill-opacity:0.8;stroke:#1f77b4;stroke-width:1.5;stroke-opacity:0.8"
           x="42.458969"
           xlink:href="#m7be1c64e01"
           y="80.644386"
           id="use166"
           width="100%"
           height="100%" />
        <use
           style="fill:#1f77b4;fill-opacity:0.8;stroke:#1f77b4;stroke-width:1.5;stroke-opacity:0.8"
           x="42.291962"
           xlink:href="#m7be1c64e01"
           y="30.784065"
           id="use168"
           width="100%"
           height="100%" />
        <use
           style="fill:#1f77b4;fill-opacity:0.8;stroke:#1f77b4;stroke-width:1.5;stroke-opacity:0.8"
           x="49.629929"
           xlink:href="#m7be1c64e01"
           y="30.389103"
           id="use170"
           width="100%"
           height="100%" />
        <use
           style="fill:#1f77b4;fill-opacity:0.8;stroke:#1f77b4;stroke-width:1.5;stroke-opacity:0.8"
           x="48.944878"
           xlink:href="#m7be1c64e01"
           y="34.164425"
           id="use172"
           width="100%"
           height="100%" />
        <use
           style="fill:#1f77b4;fill-opacity:0.8;stroke:#1f77b4;stroke-width:1.5;stroke-opacity:0.8"
           x="147.96677"
           xlink:href="#m7be1c64e01"
           y="29.88501"
           id="use174"
           width="100%"
           height="100%" />
        <use
           style="fill:#1f77b4;fill-opacity:0.8;stroke:#1f77b4;stroke-width:1.5;stroke-opacity:0.8"
           x="191.2933"
           xlink:href="#m7be1c64e01"
           y="69.166725"
           id="use176"
           width="100%"
           height="100%" />
        <use
           style="fill:#1f77b4;fill-opacity:0.8;stroke:#1f77b4;stroke-width:1.5;stroke-opacity:0.8"
           x="50.231304"
           xlink:href="#m7be1c64e01"
           y="113.23959"
           id="use178"
           width="100%"
           height="100%" />
        <use
           style="fill:#1f77b4;fill-opacity:0.8;stroke:#1f77b4;stroke-width:1.5;stroke-opacity:0.8"
           x="140.66658"
           xlink:href="#m7be1c64e01"
           y="78.090233"
           id="use180"
           width="100%"
           height="100%" />
      </g>
    </g>
    <g
       id="PolyCollection_1">
      <path
         clip-path="url(#pdfbc0f82be)"
         d="m 42.278256,46.429394 v 20.388051 l 1.505203,-0.129927 1.505202,-0.23858 1.505203,-0.23858 1.505202,-0.23858 1.505203,-0.07837 1.505202,-0.03184 1.505202,-0.07712 1.505203,-0.209398 1.505202,-0.0552 1.505203,-0.154683 1.505202,-0.165984 1.505203,-0.169297 1.505202,-0.169742 1.505203,-0.187996 1.505202,-0.228528 1.505202,-0.08634 1.505203,-0.16772 1.505202,-0.09059 1.505203,-0.08286 1.505202,-0.04477 1.505203,-0.08214 1.505202,-0.0026 1.505203,-0.106062 1.505202,-0.08631 1.505202,-0.03579 1.505203,-0.155166 1.505202,-0.06796 1.505203,-0.05118 1.505202,0.0052 1.505203,-0.08425 1.505202,-0.0329 1.505203,-0.125081 1.505202,-0.169175 1.505203,-0.05716 1.505202,0.02849 1.505202,9.26e-4 1.505203,0.05783 1.505202,0.0479 1.505201,-0.04378 1.5052,-0.182041 1.50521,0.07578 1.5052,0.04114 1.5052,0.121365 1.5052,-0.02023 1.50521,-0.02565 1.5052,-0.04346 1.5052,0.01722 1.5052,0.108664 1.50521,0.01006 1.5052,0.08073 1.5052,0.07522 1.5052,0.02058 1.50521,-0.05146 1.5052,0.07346 1.5052,0.165553 1.5052,0.06856 1.50521,0.14195 1.5052,0.100409 1.5052,0.100245 1.5052,0.09555 1.50521,0.230881 1.5052,0.102633 1.5052,-0.02547 1.5052,0.136972 1.5052,0.0597 1.50521,0.107866 1.5052,0.136242 1.5052,0.174035 1.5052,0.03871 1.50521,0.0884 1.5052,0.11068 1.5052,0.174191 1.5052,0.143542 1.50521,0.143541 1.5052,0.143542 1.5052,0.143541 1.5052,0.143541 1.50521,0.143542 1.5052,0.143414 1.5052,0.142436 1.5052,0.142436 1.50521,0.142437 1.5052,0.141893 1.5052,0.140584 1.5052,0.140584 1.50521,0.140584 1.5052,0.140584 1.5052,0.140583 1.5052,0.140584 1.50521,0.100404 1.5052,0.144282 1.5052,0.144282 1.5052,0.144281 1.50521,0.144282 1.5052,0.175351 1.5052,0.113213 1.5052,0.144282 1.50521,0.144282 1.5052,0.144282 v -26.132114 0 l -1.5052,0.188415 -1.50521,0.188415 -1.5052,0.153514 -1.5052,0.131073 -1.5052,0.131073 -1.50521,0.139265 -1.5052,0.185402 -1.5052,0.185402 -1.5052,0.185403 -1.50521,0.18677 -1.5052,0.04933 -1.5052,0.222501 -1.5052,0.194714 -1.50521,0.09552 -1.5052,0.09552 -1.5052,0.09552 -1.5052,0.09552 -1.50521,0.096 -1.5052,0.09636 -1.5052,0.108627 -1.5052,0.161618 -1.50521,0.161618 -1.5052,0.162407 -1.5052,0.159418 -1.5052,0.08767 -1.50521,0.162162 -1.5052,0.07019 -1.5052,0.07019 -1.5052,0.07084 -1.50521,0.148136 -1.5052,0.102309 -1.5052,0.194328 -1.5052,0.182167 -1.50521,0.07703 -1.5052,0.04709 -1.5052,0.129538 -1.5052,0.130682 -1.5052,0.136701 -1.50521,0.122329 -1.5052,0.13035 -1.5052,0.129816 -1.5052,0.13051 -1.50521,0.138677 -1.5052,0.116184 -1.5052,0.104862 -1.5052,-0.0071 -1.50521,0.186023 -1.5052,0.03255 -1.5052,0.01976 -1.5052,0.130949 -1.50521,0.08186 -1.5052,-0.0085 -1.5052,0.126286 -1.5052,0.02822 -1.50521,0.03042 -1.5052,0.03855 -1.5052,0.0127 -1.5052,0.0586 -1.50521,0.01131 -1.5052,0.01107 -1.505201,0.0169 -1.505202,0.01366 -1.505203,-0.03208 -1.505202,-0.02804 -1.505202,0.0027 -1.505203,-0.04964 -1.505202,-0.04173 -1.505203,0.01646 -1.505202,-0.04054 -1.505203,-0.02516 -1.505202,0.03894 -1.505203,-0.09095 -1.505202,-0.04729 -1.505203,-0.0352 -1.505202,-0.03466 -1.505202,-0.08721 -1.505203,-0.118732 -1.505202,-0.06048 -1.505203,-0.08947 -1.505202,-0.103591 -1.505203,-0.18627 -1.505202,-0.150247 -1.505203,-0.03294 -1.505202,-0.153001 -1.505202,-0.11059 -1.505203,-0.181962 -1.505202,-0.125189 -1.505203,-0.200945 -1.505202,-0.106141 -1.505203,-0.07752 -1.505202,-0.07666 -1.505203,-0.185511 -1.505202,-0.225475 -1.505202,-0.190782 -1.505203,-0.01693 -1.505202,-0.01574 -1.505203,-0.146033 -1.505202,-0.151476 z"
         style="fill-opacity:0.15"
         id="path185" />
    </g>
    <g
       id="xtick_1">
      <g
         id="line2d_1">
        <defs
           id="defs189">
          <path
             d="M 0,0 V 3.5"
             id="m895ea0373a"
             style="stroke:#000000;stroke-width:0.8" />
        </defs>
        <g
           id="g193">
          <use
             style="stroke:#000000;stroke-width:0.8"
             x="55.609711"
             xlink:href="#m895ea0373a"
             y="122.25948"
             id="use191"
             width="100%"
             height="100%" />
        </g>
      </g>
      <g
         id="text_1">
        <!-- 0.5 -->
        <defs
           id="defs199">
          <path
             d="m 31.78125,66.40625 q -7.609375,0 -11.453125,-7.5 Q 16.5,51.421875 16.5,36.375 q 0,-14.984375 3.828125,-22.484375 3.84375,-7.5 11.453125,-7.5 7.671875,0 11.5,7.5 3.84375,7.5 3.84375,22.484375 0,15.046875 -3.84375,22.53125 -3.828125,7.5 -11.5,7.5 z m 0,7.8125 q 12.265625,0 18.734375,-9.703125 6.46875,-9.6875 6.46875,-28.140625 0,-18.40625 -6.46875,-28.109375 -6.46875,-9.6875 -18.734375,-9.6875 -12.25,0 -18.71875,9.6875 Q 6.59375,17.96875 6.59375,36.375 q 0,18.453125 6.46875,28.140625 6.46875,9.703125 18.71875,9.703125 z"
             id="DejaVuSans-48" />
          <path
             d="M 10.6875,12.40625 H 21 V 0 H 10.6875 Z"
             id="DejaVuSans-46" />
          <path
             d="m 10.796875,72.90625 h 38.71875 v -8.3125 h -29.6875 V 46.734375 q 2.140625,0.734375 4.28125,1.09375 2.15625,0.359375 4.3125,0.359375 Q 40.625,48.1875 47.75,41.5 54.890625,34.8125 54.890625,23.390625 54.890625,11.625 47.5625,5.09375 40.234375,-1.421875 26.90625,-1.421875 q -4.59375,0 -9.359375,0.78125 -4.75,0.78125 -9.828125,2.34375 V 11.625 q 4.390625,-2.390625 9.078125,-3.5625 4.6875,-1.171875 9.90625,-1.171875 8.453125,0 13.375,4.4375 4.9375,4.4375 4.9375,12.0625 0,7.609375 -4.9375,12.046875 -4.921875,4.453125 -13.375,4.453125 -3.953125,0 -7.890625,-0.875 -3.921875,-0.875 -8.015625,-2.734375 z"
             id="DejaVuSans-53" />
        </defs>
        <g
           transform="matrix(0.08,0,0,-0.08,49.248461,135.33823)"
           id="g207">
          <use
             xlink:href="#DejaVuSans-48"
             id="use201"
             x="0"
             y="0"
             width="100%"
             height="100%" />
          <use
             x="63.623047"
             xlink:href="#DejaVuSans-46"
             id="use203"
             y="0"
             width="100%"
             height="100%" />
          <use
             x="95.410156"
             xlink:href="#DejaVuSans-53"
             id="use205"
             y="0"
             width="100%"
             height="100%" />
        </g>
      </g>
    </g>
    <g
       id="xtick_2">
      <g
         id="line2d_2">
        <g
           id="g213">
          <use
             style="stroke:#000000;stroke-width:0.8"
             x="87.258316"
             xlink:href="#m895ea0373a"
             y="122.25948"
             id="use211"
             width="100%"
             height="100%" />
        </g>
      </g>
      <g
         id="text_2">
        <!-- 0.6 -->
        <defs
           id="defs217">
          <path
             d="m 33.015625,40.375 q -6.640625,0 -10.53125,-4.546875 -3.875,-4.53125 -3.875,-12.4375 0,-7.859375 3.875,-12.4375 3.890625,-4.5625 10.53125,-4.5625 6.640625,0 10.515625,4.5625 3.875,4.578125 3.875,12.4375 0,7.90625 -3.875,12.4375 Q 39.65625,40.375 33.015625,40.375 Z M 52.59375,71.296875 V 62.3125 q -3.71875,1.75 -7.5,2.671875 -3.78125,0.9375 -7.5,0.9375 -9.765625,0 -14.921875,-6.59375 -5.140625,-6.59375 -5.875,-19.921875 2.875,4.25 7.21875,6.515625 4.359375,2.265625 9.578125,2.265625 10.984375,0 17.359375,-6.671875 6.375,-6.65625 6.375,-18.125 0,-11.234375 -6.640625,-18.03125 -6.640625,-6.78125 -17.671875,-6.78125 -12.65625,0 -19.34375,9.6875 -6.6875,9.703125 -6.6875,28.109375 0,17.28125 8.203125,27.5625 8.203125,10.28125 22.015625,10.28125 3.71875,0 7.5,-0.734375 3.78125,-0.734375 7.890625,-2.1875 z"
             id="DejaVuSans-54" />
        </defs>
        <g
           transform="matrix(0.08,0,0,-0.08,80.897064,135.33823)"
           id="g225">
          <use
             xlink:href="#DejaVuSans-48"
             id="use219"
             x="0"
             y="0"
             width="100%"
             height="100%" />
          <use
             x="63.623047"
             xlink:href="#DejaVuSans-46"
             id="use221"
             y="0"
             width="100%"
             height="100%" />
          <use
             x="95.410156"
             xlink:href="#DejaVuSans-54"
             id="use223"
             y="0"
             width="100%"
             height="100%" />
        </g>
      </g>
    </g>
    <g
       id="xtick_3">
      <g
         id="line2d_3">
        <g
           id="g231">
          <use
             style="stroke:#000000;stroke-width:0.8"
             x="118.90691"
             xlink:href="#m895ea0373a"
             y="122.25948"
             id="use229"
             width="100%"
             height="100%" />
        </g>
      </g>
      <g
         id="text_3">
        <!-- 0.7 -->
        <defs
           id="defs235">
          <path
             d="m 8.203125,72.90625 h 46.875 V 68.703125 L 28.609375,0 H 18.3125 L 43.21875,64.59375 H 8.203125 Z"
             id="DejaVuSans-55" />
        </defs>
        <g
           transform="matrix(0.08,0,0,-0.08,112.54567,135.33823)"
           id="g243">
          <use
             xlink:href="#DejaVuSans-48"
             id="use237"
             x="0"
             y="0"
             width="100%"
             height="100%" />
          <use
             x="63.623047"
             xlink:href="#DejaVuSans-46"
             id="use239"
             y="0"
             width="100%"
             height="100%" />
          <use
             x="95.410156"
             xlink:href="#DejaVuSans-55"
             id="use241"
             y="0"
             width="100%"
             height="100%" />
        </g>
      </g>
    </g>
    <g
       id="xtick_4">
      <g
         id="line2d_4">
        <g
           id="g249">
          <use
             style="stroke:#000000;stroke-width:0.8"
             x="150.55551"
             xlink:href="#m895ea0373a"
             y="122.25948"
             id="use247"
             width="100%"
             height="100%" />
        </g>
      </g>
      <g
         id="text_4">
        <!-- 0.8 -->
        <defs
           id="defs253">
          <path
             d="m 31.78125,34.625 q -7.03125,0 -11.0625,-3.765625 -4.015625,-3.765625 -4.015625,-10.34375 0,-6.59375 4.015625,-10.359375 4.03125,-3.765625 11.0625,-3.765625 7.03125,0 11.078125,3.78125 4.0625,3.796875 4.0625,10.34375 0,6.578125 -4.03125,10.34375 Q 38.875,34.625 31.78125,34.625 Z m -9.859375,4.1875 Q 15.578125,40.375 12.03125,44.71875 8.5,49.078125 8.5,55.328125 q 0,8.734375 6.21875,13.8125 6.234375,5.078125 17.0625,5.078125 10.890625,0 17.09375,-5.078125 6.203125,-5.078125 6.203125,-13.8125 0,-6.25 -3.546875,-10.609375 Q 48,40.375 41.703125,38.8125 q 7.125,-1.65625 11.09375,-6.5 3.984375,-4.828125 3.984375,-11.796875 0,-10.609375 -6.46875,-16.28125 -6.46875,-5.65625 -18.53125,-5.65625 -12.046875,0 -18.53125,5.65625 -6.46875,5.671875 -6.46875,16.28125 0,6.96875 4,11.796875 4.015625,4.84375 11.140625,6.5 z M 18.3125,54.390625 q 0,-5.65625 3.53125,-8.828125 3.546875,-3.171875 9.9375,-3.171875 6.359375,0 9.9375,3.171875 3.59375,3.171875 3.59375,8.828125 0,5.671875 -3.59375,8.84375 -3.578125,3.171875 -9.9375,3.171875 -6.390625,0 -9.9375,-3.171875 Q 18.3125,60.0625 18.3125,54.390625 Z"
             id="DejaVuSans-56" />
        </defs>
        <g
           transform="matrix(0.08,0,0,-0.08,144.19427,135.33823)"
           id="g261">
          <use
             xlink:href="#DejaVuSans-48"
             id="use255"
             x="0"
             y="0"
             width="100%"
             height="100%" />
          <use
             x="63.623047"
             xlink:href="#DejaVuSans-46"
             id="use257"
             y="0"
             width="100%"
             height="100%" />
          <use
             x="95.410156"
             xlink:href="#DejaVuSans-56"
             id="use259"
             y="0"
             width="100%"
             height="100%" />
        </g>
      </g>
    </g>
    <g
       id="xtick_5">
      <g
         id="line2d_5">
        <g
           id="g267">
          <use
             style="stroke:#000000;stroke-width:0.8"
             x="182.20412"
             xlink:href="#m895ea0373a"
             y="122.25948"
             id="use265"
             width="100%"
             height="100%" />
        </g>
      </g>
      <g
         id="text_5">
        <!-- 0.9 -->
        <defs
           id="defs271">
          <path
             d="M 10.984375,1.515625 V 10.5 Q 14.703125,8.734375 18.5,7.8125 q 3.8125,-0.921875 7.484375,-0.921875 9.765625,0 14.90625,6.5625 5.15625,6.5625 5.890625,19.953125 -2.828125,-4.203125 -7.1875,-6.453125 -4.34375,-2.25 -9.609375,-2.25 -10.9375,0 -17.3125,6.609375 -6.375,6.625 -6.375,18.109375 0,11.21875 6.640625,18 6.640625,6.796875 17.671875,6.796875 12.65625,0 19.3125,-9.703125 6.671875,-9.6875 6.671875,-28.140625 0,-17.234375 -8.1875,-27.515625 -8.171875,-10.28125 -21.984375,-10.28125 -3.71875,0 -7.53125,0.734375 -3.796875,0.734375 -7.90625,2.203125 z m 19.625,30.90625 q 6.640625,0 10.515625,4.53125 3.890625,4.546875 3.890625,12.46875 0,7.859375 -3.890625,12.421875 -3.875,4.5625 -10.515625,4.5625 -6.640625,0 -10.515625,-4.5625 -3.875,-4.5625 -3.875,-12.421875 0,-7.921875 3.875,-12.46875 3.875,-4.53125 10.515625,-4.53125 z"
             id="DejaVuSans-57" />
        </defs>
        <g
           transform="matrix(0.08,0,0,-0.08,175.84287,135.33823)"
           id="g279">
          <use
             xlink:href="#DejaVuSans-48"
             id="use273"
             x="0"
             y="0"
             width="100%"
             height="100%" />
          <use
             x="63.623047"
             xlink:href="#DejaVuSans-46"
             id="use275"
             y="0"
             width="100%"
             height="100%" />
          <use
             x="95.410156"
             xlink:href="#DejaVuSans-57"
             id="use277"
             y="0"
             width="100%"
             height="100%" />
        </g>
      </g>
    </g>
    <g
       id="ytick_1">
      <g
         id="line2d_6">
        <defs
           id="defs334">
          <path
             d="M 0,0 H -3.5"
             id="mbfd3d43f73"
             style="stroke:#000000;stroke-width:0.8" />
        </defs>
        <g
           id="g338">
          <use
             style="stroke:#000000;stroke-width:0.8"
             x="28.26"
             xlink:href="#mbfd3d43f73"
             y="108.22411"
             id="use336"
             width="100%"
             height="100%" />
        </g>
      </g>
      <g
         id="text_7">
        <!-- 0.3 -->
        <defs
           id="defs342">
          <path
             d="M 40.578125,39.3125 Q 47.65625,37.796875 51.625,33 q 3.984375,-4.78125 3.984375,-11.8125 0,-10.78125 -7.421875,-16.703125 -7.421875,-5.90625 -21.09375,-5.90625 -4.578125,0 -9.4375,0.90625 -4.859375,0.90625 -10.03125,2.71875 v 9.515625 q 4.09375,-2.390625 8.96875,-3.609375 4.890625,-1.21875 10.21875,-1.21875 9.265625,0 14.125,3.65625 4.859375,3.65625 4.859375,10.640625 0,6.453125 -4.515625,10.078125 -4.515625,3.640625 -12.5625,3.640625 h -8.5 v 8.109375 h 8.890625 q 7.265625,0 11.125,2.90625 3.859375,2.90625 3.859375,8.375 0,5.609375 -3.984375,8.609375 -3.96875,3.015625 -11.390625,3.015625 -4.0625,0 -8.703125,-0.890625 Q 15.375,64.15625 9.8125,62.3125 v 8.78125 q 5.625,1.5625 10.53125,2.34375 4.90625,0.78125 9.25,0.78125 11.234375,0 17.765625,-5.109375 6.546875,-5.09375 6.546875,-13.78125 0,-6.0625 -3.46875,-10.234375 -3.46875,-4.171875 -9.859375,-5.78125 z"
             id="DejaVuSans-51" />
        </defs>
        <g
           transform="matrix(0.08,0,0,-0.08,8.5375,111.26348)"
           id="g350">
          <use
             xlink:href="#DejaVuSans-48"
             id="use344"
             x="0"
             y="0"
             width="100%"
             height="100%" />
          <use
             x="63.623047"
             xlink:href="#DejaVuSans-46"
             id="use346"
             y="0"
             width="100%"
             height="100%" />
          <use
             x="95.410156"
             xlink:href="#DejaVuSans-51"
             id="use348"
             y="0"
             width="100%"
             height="100%" />
        </g>
      </g>
    </g>
    <g
       id="ytick_2">
      <g
         id="line2d_7">
        <g
           id="g356">
          <use
             style="stroke:#000000;stroke-width:0.8"
             x="28.26"
             xlink:href="#mbfd3d43f73"
             y="84.371864"
             id="use354"
             width="100%"
             height="100%" />
        </g>
      </g>
      <g
         id="text_8">
        <!-- 0.4 -->
        <defs
           id="defs360">
          <path
             d="M 37.796875,64.3125 12.890625,25.390625 h 24.90625 z m -2.59375,8.59375 h 12.40625 V 25.390625 h 10.40625 V 17.1875 H 47.609375 V 0 h -9.8125 V 17.1875 H 4.890625 v 9.515625 z"
             id="DejaVuSans-52" />
        </defs>
        <g
           transform="matrix(0.08,0,0,-0.08,8.5375,87.411242)"
           id="g368">
          <use
             xlink:href="#DejaVuSans-48"
             id="use362"
             x="0"
             y="0"
             width="100%"
             height="100%" />
          <use
             x="63.623047"
             xlink:href="#DejaVuSans-46"
             id="use364"
             y="0"
             width="100%"
             height="100%" />
          <use
             x="95.410156"
             xlink:href="#DejaVuSans-52"
             id="use366"
             y="0"
             width="100%"
             height="100%" />
        </g>
      </g>
    </g>
    <g
       id="ytick_3">
      <g
         id="line2d_8">
        <g
           id="g374">
          <use
             style="stroke:#000000;stroke-width:0.8"
             x="28.26"
             xlink:href="#mbfd3d43f73"
             y="60.519627"
             id="use372"
             width="100%"
             height="100%" />
        </g>
      </g>
      <g
         id="text_9">
        <!-- 0.5 -->
        <g
           transform="matrix(0.08,0,0,-0.08,8.5375,63.559)"
           id="g383">
          <use
             xlink:href="#DejaVuSans-48"
             id="use377"
             x="0"
             y="0"
             width="100%"
             height="100%" />
          <use
             x="63.623047"
             xlink:href="#DejaVuSans-46"
             id="use379"
             y="0"
             width="100%"
             height="100%" />
          <use
             x="95.410156"
             xlink:href="#DejaVuSans-53"
             id="use381"
             y="0"
             width="100%"
             height="100%" />
        </g>
      </g>
    </g>
    <g
       id="ytick_4">
      <g
         id="line2d_9">
        <g
           id="g389">
          <use
             style="stroke:#000000;stroke-width:0.8"
             x="28.26"
             xlink:href="#mbfd3d43f73"
             y="36.667381"
             id="use387"
             width="100%"
             height="100%" />
        </g>
      </g>
      <g
         id="text_10">
        <!-- 0.6 -->
        <g
           transform="matrix(0.08,0,0,-0.08,8.5375,39.706758)"
           id="g398">
          <use
             xlink:href="#DejaVuSans-48"
             id="use392"
             x="0"
             y="0"
             width="100%"
             height="100%" />
          <use
             x="63.623047"
             xlink:href="#DejaVuSans-46"
             id="use394"
             y="0"
             width="100%"
             height="100%" />
          <use
             x="95.410156"
             xlink:href="#DejaVuSans-54"
             id="use396"
             y="0"
             width="100%"
             height="100%" />
        </g>
      </g>
    </g>
    <g
       id="line2d_10">
      <path
         clip-path="url(#pdfbc0f82be)"
         d="m 42.278256,55.862334 1.505203,0.0019 1.505202,0.0018 1.505203,0.0019 1.505202,0.0019 1.505203,0.0018 1.505202,0.0018 1.505202,0.0019 1.505203,0.0019 1.505202,0.0019 1.505203,0.0018 1.505202,0.0019 1.505203,0.0018 1.505202,0.0018 1.505203,0.0019 1.505202,0.0019 1.505202,0.0018 1.505203,0.0018 1.505202,0.0019 1.505203,0.0018 1.505202,0.0019 1.505203,0.0018 1.505202,0.0019 1.505203,0.0018 1.505202,0.0018 1.505202,0.0019 1.505203,0.0019 1.505202,0.0018 1.505203,0.0018 1.505202,0.0019 1.505203,0.0018 1.505202,0.0019 1.505203,0.0019 1.505202,0.0019 1.505203,0.0018 1.505202,0.0018 1.505202,0.0019 1.505203,0.0019 1.505202,0.0018 1.505201,0.0019 1.5052,0.0018 1.50521,0.0018 1.5052,0.0019 1.5052,0.0019 1.5052,0.0019 1.50521,0.0018 1.5052,0.0019 1.5052,0.0018 1.5052,0.0019 1.50521,0.0018 1.5052,0.0019 1.5052,0.0018 1.5052,0.0018 1.50521,0.0019 1.5052,0.0018 1.5052,0.0019 1.5052,0.0018 1.50521,0.0019 1.5052,0.0018 1.5052,0.0019 1.5052,0.0019 1.50521,0.0019 1.5052,0.0018 1.5052,0.0018 1.5052,0.0019 1.5052,0.0018 1.50521,0.0019 1.5052,0.0019 1.5052,0.0019 1.5052,0.0018 1.50521,0.0018 1.5052,0.0019 1.5052,0.0019 1.5052,0.0018 1.50521,0.0019 1.5052,0.0018 1.5052,0.0018 1.5052,0.0019 1.50521,0.0019 1.5052,0.0019 1.5052,0.0018 1.5052,0.0019 1.50521,0.0018 1.5052,0.0019 1.5052,0.0018 1.5052,0.0019 1.50521,0.0018 1.5052,0.0018 1.5052,0.0019 1.5052,0.0019 1.50521,0.0019 1.5052,0.0018 1.5052,0.0019 1.5052,0.0018 1.50521,0.0019 1.5052,0.0018 1.5052,0.0019 1.5052,0.0018 1.50521,0.0018 1.5052,0.0019"
         style="fill:none;stroke:#000000;stroke-width:1.5;stroke-linecap:square"
         id="path465" />
    </g>
    <g
       id="patch_3">
      <path
         d="M 28.26,122.25948 V 16.767015"
         style="fill:none;stroke:#000000;stroke-width:0.8;stroke-linecap:square;stroke-linejoin:miter"
         id="path468" />
    </g>
    <g
       id="patch_4">
      <path
         d="M 203.472,122.25948 V 16.767015"
         style="fill:none;stroke:#000000;stroke-width:0.8;stroke-linecap:square;stroke-linejoin:miter"
         id="path471" />
    </g>
    <g
       id="patch_5">
      <path
         d="M 28.26,122.25948 H 203.472"
         style="fill:none;stroke:#000000;stroke-width:0.8;stroke-linecap:square;stroke-linejoin:miter"
         id="path474" />
    </g>
    <g
       id="patch_6">
      <path
         d="M 28.26,16.767015 H 203.472"
         style="fill:none;stroke:#000000;stroke-width:0.8;stroke-linecap:square;stroke-linejoin:miter"
         id="path477" />
    </g>
    <g
       id="PathCollection_5"
       transform="translate(0,1.5)">
      <defs
         id="defs484">
        <path
           d="M 0,-3.063066 -3.063066,3.063066 H 3.063066 Z"
           id="m1d76861972"
           style="stroke:#000000" />
      </defs>
      <g
         id="g488">
        <use
           style="fill:#ffffff;stroke:#000000"
           x="156.49481"
           xlink:href="#m1d76861972"
           y="96.42292"
           id="use486"
           width="100%"
           height="100%" />
      </g>
    </g>
    <g
       id="text_12"
       transform="translate(0,1.5)">
      <!-- Positive -->
      <defs
         id="defs493">
        <path
           d="M 19.671875,64.796875 V 37.40625 h 12.40625 q 6.890625,0 10.640625,3.5625 3.765625,3.5625 3.765625,10.15625 0,6.546875 -3.765625,10.109375 -3.75,3.5625 -10.640625,3.5625 z M 9.8125,72.90625 h 22.265625 q 12.265625,0 18.53125,-5.546875 6.28125,-5.546875 6.28125,-16.234375 0,-10.796875 -6.28125,-16.3125 -6.265625,-5.515625 -18.53125,-5.515625 H 19.671875 V 0 H 9.8125 Z"
           id="DejaVuSans-80" />
        <path
           d="M 18.3125,70.21875 V 54.6875 h 18.5 v -6.984375 h -18.5 v -29.6875 q 0,-6.6875 1.828125,-8.59375 1.828125,-1.90625 7.453125,-1.90625 H 36.8125 V 0 H 27.59375 Q 17.1875,0 13.234375,3.875 9.28125,7.765625 9.28125,18.015625 v 29.6875 H 2.6875 V 54.6875 h 6.59375 v 15.53125 z"
           id="DejaVuSans-116" />
      </defs>
      <g
         transform="matrix(0.06,0,0,-0.06,167.29481,97.997921)"
         id="g511">
        <use
           xlink:href="#DejaVuSans-80"
           id="use495"
           x="0"
           y="0"
           width="100%"
           height="100%" />
        <path
           d="m 90.865234,48.390625 q -7.21875,0 -11.421875,-5.640625 -4.203125,-5.640625 -4.203125,-15.453125 0,-9.8125 4.171875,-15.453125 4.1875,-5.640625 11.453125,-5.640625 7.1875,0 11.374996,5.65625 4.20313,5.671875 4.20313,15.4375 0,9.71875 -4.20313,15.40625 -4.187496,5.6875 -11.374996,5.6875 z m 0,7.609375 q 11.718746,0 18.406246,-7.625 6.70313,-7.609375 6.70313,-21.078125 0,-13.421875 -6.70313,-21.078125 -6.6875,-7.640625 -18.406246,-7.640625 -11.765625,0 -18.4375,7.640625 -6.65625,7.65625 -6.65625,21.078125 0,13.46875 6.65625,21.078125 Q 79.099609,56 90.865234,56 Z"
           id="use497" />
        <path
           d="m 165.71875,53.078125 v -8.5 Q 161.92187,46.53125 157.8125,47.5 q -4.09375,0.984375 -8.5,0.984375 -6.6875,0 -10.03125,-2.046875 -3.34375,-2.046875 -3.34375,-6.15625 0,-3.125 2.39062,-4.90625 2.39063,-1.78125 9.625,-3.390625 l 3.07813,-0.6875 q 9.5625,-2.046875 13.59375,-5.78125 4.03125,-3.734375 4.03125,-10.421875 0,-7.625 -6.03125,-12.078125 -6.03125,-4.4375 -16.57813,-4.4375 -4.39062,0 -9.15625,0.859375 Q 132.125,0.296875 126.85938,2 v 9.28125 q 4.98437,-2.59375 9.81249,-3.890625 4.82813,-1.28125 9.57813,-1.28125 6.34375,0 9.75,2.171875 3.42187,2.171875 3.42187,6.125 0,3.65625 -2.46875,5.609375 -2.45312,1.953125 -10.8125,3.765625 l -3.125,0.734375 q -8.34375,1.75 -12.0625,5.390625 -3.70312,3.640625 -3.70312,9.984375 0,7.71875 5.46875,11.90625 Q 138.1875,56 148.25,56 q 4.96875,0 9.35937,-0.734375 4.40625,-0.71875 8.10938,-2.1875 z"
           id="use499" />
        <path
           d="m 182.95898,54.6875 h 8.98438 V 0 h -8.98438 z m 0,21.296875 h 8.98438 V 64.59375 h -8.98438 z"
           id="use501" />
        <use
           x="201.32031"
           xlink:href="#DejaVuSans-116"
           id="use503"
           y="0"
           width="100%"
           height="100%" />
        <path
           d="m 249.95117,54.6875 h 8.98438 V 0 h -8.98438 z m 0,21.296875 h 8.98438 V 64.59375 h -8.98438 z"
           id="use505" />
        <path
           d="m 271.29687,54.6875 h 9.51563 L 297.90625,8.796875 315,54.6875 h 9.51562 L 304,0 h -12.20313 z"
           id="use507" />
        <path
           d="m 383.69531,29.59375 v -4.390625 h -41.3125 q 0.59375,-9.28125 5.59375,-14.140625 5,-4.859375 13.9375,-4.859375 5.17188,0 10.03125,1.265625 4.85938,1.265625 9.65625,3.8125 v -8.5 q -4.84375,-2.046875 -9.92187,-3.125 -5.07813,-1.078125 -10.29688,-1.078125 -13.09375,0 -20.73437,7.609375 -7.64063,7.625 -7.64063,20.625 0,13.421875 7.25,21.296875 Q 347.50781,56 359.82031,56 q 11.03125,0 17.45313,-7.109375 6.42187,-7.09375 6.42187,-19.296875 z m -8.98437,2.640625 q -0.0937,7.359375 -4.125,11.75 -4.03125,4.40625 -10.67188,4.40625 -7.51562,0 -12.03125,-4.25 -4.51562,-4.25 -5.20312,-11.96875 z"
           id="use509" />
      </g>
    </g>
    <g
       id="PathCollection_6"
       transform="translate(0,1.5)">
      <defs
         id="defs515">
        <path
           d="M 0,2.784916 2.784916,-2.784916 H -2.784916 Z"
           id="ma5a44738a8"
           style="stroke:#000000" />
      </defs>
      <g
         id="g519">
        <use
           style="fill:#ffffff;stroke:#000000"
           x="156.49481"
           xlink:href="#ma5a44738a8"
           y="105.2298"
           id="use517"
           width="100%"
           height="100%" />
      </g>
    </g>
    <g
       id="text_13"
       transform="translate(0,1.5)">
      <!-- Negative -->
      <defs
         id="defs524">
        <path
           d="M 9.8125,72.90625 H 23.09375 L 55.421875,11.921875 V 72.90625 h 9.5625 V 0 h -13.28125 l -32.3125,60.984375 V 0 H 9.8125 Z"
           id="DejaVuSans-78" />
        <path
           d="m 45.40625,27.984375 q 0,9.765625 -4.03125,15.125 -4.015625,5.375 -11.296875,5.375 -7.21875,0 -11.25,-5.375 -4.03125,-5.359375 -4.03125,-15.125 0,-9.71875 4.03125,-15.09375 4.03125,-5.375 11.25,-5.375 7.28125,0 11.296875,5.375 4.03125,5.375 4.03125,15.09375 z M 54.390625,6.78125 q 0,-13.953125 -6.203125,-20.765625 -6.1875,-6.8125 -18.984375,-6.8125 -4.734375,0 -8.9375,0.703125 -4.203125,0.703125 -8.15625,2.171875 V -9.1875 q 3.953125,-2.140625 7.8125,-3.15625 3.859375,-1.03125 7.859375,-1.03125 8.84375,0 13.234375,4.609375 4.390625,4.609375 4.390625,13.9375 V 9.625 Q 42.625,4.78125 38.28125,2.390625 33.9375,0 27.875,0 17.828125,0 11.671875,7.65625 q -6.15625,7.671875 -6.15625,20.328125 0,12.6875 6.15625,20.34375 Q 17.828125,56 27.875,56 q 6.0625,0 10.40625,-2.390625 4.34375,-2.390625 7.125,-7.21875 V 54.6875 h 8.984375 z"
           id="DejaVuSans-103" />
      </defs>
      <g
         transform="matrix(0.06,0,0,-0.06,167.29481,106.8048)"
         id="g542">
        <use
           xlink:href="#DejaVuSans-78"
           id="use526"
           x="0"
           y="0"
           width="100%"
           height="100%" />
        <path
           d="M 131.00781,29.59375 V 25.203125 H 89.695312 q 0.59375,-9.28125 5.59375,-14.140625 4.999998,-4.859375 13.937498,-4.859375 5.17188,0 10.03125,1.265625 4.85938,1.265625 9.65625,3.8125 v -8.5 q -4.84375,-2.046875 -9.92187,-3.125 -5.07813,-1.078125 -10.29688,-1.078125 -13.093748,0 -20.734373,7.609375 -7.640625,7.625 -7.640625,20.625 0,13.421875 7.25,21.296875 Q 94.820312,56 107.13281,56 q 11.03125,0 17.45313,-7.109375 6.42187,-7.09375 6.42187,-19.296875 z m -8.98437,2.640625 q -0.0937,7.359375 -4.125,11.75 -4.03125,4.40625 -10.67188,4.40625 -7.515623,0 -12.031248,-4.25 -4.515625,-4.25 -5.203125,-11.96875 z"
           id="use528" />
        <use
           x="136.32812"
           xlink:href="#DejaVuSans-103"
           id="use530"
           y="0"
           width="100%"
           height="100%" />
        <path
           d="m 234.08594,27.484375 q -10.89063,0 -15.09375,-2.484375 -4.20313,-2.484375 -4.20313,-8.5 0,-4.78125 3.15625,-7.59375 3.15625,-2.796875 8.5625,-2.796875 7.48438,0 12,5.296875 4.51563,5.296875 4.51563,14.078125 v 2 z m 17.92187,3.71875 V 0 h -8.98437 v 8.296875 q -3.07813,-4.96875 -7.67188,-7.34375 -4.59375,-2.375 -11.23437,-2.375 -8.39063,0 -13.35938,4.71875 -4.95312,4.71875 -4.95312,12.625 0,9.21875 6.17187,13.90625 6.1875,4.6875 18.4375,4.6875 h 12.60938 v 0.890625 q 0,6.203125 -4.07813,9.59375 -4.07812,3.390625 -11.45312,3.390625 -4.6875,0 -9.14063,-1.125 -4.4375,-1.125 -8.53125,-3.375 v 8.3125 q 4.92188,1.90625 9.5625,2.84375 Q 224.02344,56 228.41406,56 q 11.875,0 17.73438,-6.15625 5.85937,-6.140625 5.85937,-18.640625 z"
           id="use532" />
        <use
           x="261.08398"
           xlink:href="#DejaVuSans-116"
           id="use534"
           y="0"
           width="100%"
           height="100%" />
        <path
           d="m 309.71484,54.6875 h 8.98438 V 0 h -8.98438 z m 0,21.296875 h 8.98438 V 64.59375 h -8.98438 z"
           id="use536" />
        <path
           d="m 331.06055,54.6875 h 9.51562 L 357.66992,8.796875 374.76367,54.6875 h 9.51563 L 363.76367,0 h -12.20312 z"
           id="use538" />
        <path
           d="m 443.45898,29.59375 v -4.390625 h -41.3125 q 0.59375,-9.28125 5.59375,-14.140625 5,-4.859375 13.9375,-4.859375 5.17188,0 10.03125,1.265625 4.85938,1.265625 9.65625,3.8125 v -8.5 q -4.84375,-2.046875 -9.92187,-3.125 -5.07813,-1.078125 -10.29688,-1.078125 -13.09375,0 -20.73437,7.609375 -7.64063,7.625 -7.64063,20.625 0,13.421875 7.25,21.296875 Q 407.27148,56 419.58398,56 q 11.03125,0 17.45313,-7.109375 6.42187,-7.09375 6.42187,-19.296875 z m -8.98437,2.640625 q -0.0937,7.359375 -4.125,11.75 -4.03125,4.40625 -10.67188,4.40625 -7.51562,0 -12.03125,-4.25 -4.51562,-4.25 -5.20312,-11.96875 z"
           id="use540" />
      </g>
    </g>
    <g
       id="PathCollection_7"
       transform="translate(0,1.5)">
      <defs
         id="defs546">
        <path
           d="M -3.254293,3.254293 H 3.254293 V -3.254293 H -3.254293 Z"
           id="m1da9566abe"
           style="stroke:#000000" />
      </defs>
      <g
         id="g550">
        <use
           style="fill:#ffffff;stroke:#000000"
           x="156.49481"
           xlink:href="#m1da9566abe"
           y="114.03667"
           id="use548"
           width="100%"
           height="100%" />
      </g>
    </g>
    <g
       id="text_14"
       transform="translate(0,1.5)">
      <!-- Undefined -->
      <defs
         id="defs554">
        <path
           d="m 8.6875,72.90625 h 9.921875 V 28.609375 q 0,-11.71875 4.234375,-16.875 4.25,-5.140625 13.78125,-5.140625 9.46875,0 13.71875,5.140625 4.25,5.15625 4.25,16.875 V 72.90625 H 64.5 V 27.390625 q 0,-14.25 -7.0625,-21.53125 -7.046875,-7.28125 -20.8125,-7.28125 -13.828125,0 -20.890625,7.28125 Q 8.6875,13.140625 8.6875,27.390625 Z"
           id="DejaVuSans-85" />
      </defs>
      <g
         transform="matrix(0.06,0,0,-0.06,167.29481,115.61167)"
         id="g574">
        <use
           xlink:href="#DejaVuSans-85"
           id="use556"
           x="0"
           y="0"
           width="100%"
           height="100%" />
        <path
           d="M 128.08398,33.015625 V 0 h -8.98437 v 32.71875 q 0,7.765625 -3.03125,11.609375 -3.03125,3.859375 -9.07813,3.859375 -7.281246,0 -11.484371,-4.640625 -4.203125,-4.625 -4.203125,-12.640625 V 0 h -9.03125 v 54.6875 h 9.03125 v -8.5 q 3.234375,4.9375 7.59375,7.375 Q 103.27148,56 108.99023,56 q 9.42188,0 14.25,-5.828125 4.84375,-5.828125 4.84375,-17.15625 z"
           id="use558" />
        <path
           d="m 181.97852,46.390625 v 29.59375 h 8.98437 V 0 h -8.98437 v 8.203125 q -2.82813,-4.875 -7.15625,-7.25 -4.3125,-2.375 -10.375,-2.375 -9.90625,0 -16.14063,7.90625 -6.21875,7.921875 -6.21875,20.8125 0,12.890625 6.21875,20.796875 Q 154.54102,56 164.44727,56 q 6.0625,0 10.375,-2.375 4.32812,-2.359375 7.15625,-7.234375 z m -30.60938,-19.09375 q 0,-9.90625 4.07813,-15.546875 4.07812,-5.640625 11.20312,-5.640625 7.125,0 11.21875,5.640625 4.10938,5.640625 4.10938,15.546875 0,9.90625 -4.10938,15.546875 -4.09375,5.640625 -11.21875,5.640625 -7.125,0 -11.20312,-5.640625 -4.07813,-5.640625 -4.07813,-15.546875 z"
           id="use560" />
        <path
           d="m 256.25195,29.59375 v -4.390625 h -41.3125 q 0.59375,-9.28125 5.59375,-14.140625 5,-4.859375 13.9375,-4.859375 5.17188,0 10.03125,1.265625 4.85938,1.265625 9.65625,3.8125 v -8.5 q -4.84375,-2.046875 -9.92187,-3.125 -5.07813,-1.078125 -10.29688,-1.078125 -13.09375,0 -20.73437,7.609375 -7.64063,7.625 -7.64063,20.625 0,13.421875 7.25,21.296875 Q 220.06445,56 232.37695,56 q 11.03125,0 17.45313,-7.109375 6.42187,-7.09375 6.42187,-19.296875 z m -8.98437,2.640625 q -0.0937,7.359375 -4.125,11.75 -4.03125,4.40625 -10.67188,4.40625 -7.51562,0 -12.03125,-4.25 -4.51562,-4.25 -5.20312,-11.96875 z"
           id="use562" />
        <path
           d="M 298.68164,75.984375 V 68.5 h -8.59375 q -4.82812,0 -6.71875,-1.953125 -1.875,-1.953125 -1.875,-7.03125 V 54.6875 h 14.79688 V 47.703125 H 281.49414 V 0 h -9.03125 v 47.703125 h -8.59375 V 54.6875 h 8.59375 V 58.5 q 0,9.125 4.25,13.296875 4.25,4.1875 13.46875,4.1875 z"
           id="use564" />
        <path
           d="m 306.19922,54.6875 h 8.98437 V 0 h -8.98437 z m 0,21.296875 h 8.98437 V 64.59375 h -8.98437 z"
           id="use566" />
        <path
           d="M 379.45117,33.015625 V 0 h -8.98437 v 32.71875 q 0,7.765625 -3.03125,11.609375 -3.03125,3.859375 -9.07813,3.859375 -7.28125,0 -11.48437,-4.640625 -4.20313,-4.625 -4.20313,-12.640625 V 0 h -9.03125 v 54.6875 h 9.03125 v -8.5 q 3.23438,4.9375 7.59375,7.375 4.375,2.4375 10.09375,2.4375 9.42188,0 14.25,-5.828125 4.84375,-5.828125 4.84375,-17.15625 z"
           id="use568" />
        <path
           d="m 444.14258,29.59375 v -4.390625 h -41.3125 q 0.59375,-9.28125 5.59375,-14.140625 5,-4.859375 13.9375,-4.859375 5.17187,0 10.03125,1.265625 4.85937,1.265625 9.65625,3.8125 v -8.5 q -4.84375,-2.046875 -9.92188,-3.125 -5.07812,-1.078125 -10.29687,-1.078125 -13.09375,0 -20.73438,7.609375 -7.64062,7.625 -7.64062,20.625 0,13.421875 7.25,21.296875 Q 407.95508,56 420.26758,56 q 11.03125,0 17.45312,-7.109375 6.42188,-7.09375 6.42188,-19.296875 z m -8.98438,2.640625 q -0.0937,7.359375 -4.125,11.75 -4.03125,4.40625 -10.67187,4.40625 -7.51563,0 -12.03125,-4.25 -4.51563,-4.25 -5.20313,-11.96875 z"
           id="use570" />
        <path
           d="m 494.86914,46.390625 v 29.59375 h 8.98438 V 0 h -8.98438 v 8.203125 q -2.82812,-4.875 -7.15625,-7.25 -4.3125,-2.375 -10.375,-2.375 -9.90625,0 -16.14062,7.90625 -6.21875,7.921875 -6.21875,20.8125 0,12.890625 6.21875,20.796875 Q 467.43164,56 477.33789,56 q 6.0625,0 10.375,-2.375 4.32813,-2.359375 7.15625,-7.234375 z m -30.60937,-19.09375 q 0,-9.90625 4.07812,-15.546875 4.07813,-5.640625 11.20313,-5.640625 7.125,0 11.21875,5.640625 4.10937,5.640625 4.10937,15.546875 0,9.90625 -4.10937,15.546875 -4.09375,5.640625 -11.21875,5.640625 -7.125,0 -11.20313,-5.640625 -4.07812,-5.640625 -4.07812,-15.546875 z"
           id="use572" />
      </g>
    </g>
    <text
       xml:space="preserve"
       id="text1246"
       style="font-size:8px;line-height:1.25;font-family:sans-serif;letter-spacing:0px;white-space:pre;shape-inside:url(#rect1248);"
       transform="translate(61.793187,-22.5)"><tspan
         x="23.292969"
         y="170.66211"><tspan
           style="shape-inside:url(#rect1248)">Levins index [-]</tspan></tspan></text>
    <text
       xml:space="preserve"
       id="text1438"
       style="font-size:8px;line-height:1.25;font-family:sans-serif;letter-spacing:0px;white-space:pre;shape-inside:url(#rect1440);"
       transform="rotate(-90,-6.599982,168.6312)"><tspan
         x="43.410156"
         y="177.01562"><tspan
           style="shape-inside:url(#rect1440)">Carbon use efficiency [-]</tspan></tspan></text>
  </g>
</svg>
