<?xml version="1.0" encoding="UTF-8" standalone="no"?>
<svg
   xmlns:dc="http://purl.org/dc/elements/1.1/"
   xmlns:cc="http://creativecommons.org/ns#"
   xmlns:rdf="http://www.w3.org/1999/02/22-rdf-syntax-ns#"
   xmlns:svg="http://www.w3.org/2000/svg"
   xmlns="http://www.w3.org/2000/svg"
   xmlns:xlink="http://www.w3.org/1999/xlink"
   xmlns:sodipodi="http://sodipodi.sourceforge.net/DTD/sodipodi-0.dtd"
   xmlns:inkscape="http://www.inkscape.org/namespaces/inkscape"
   height="139.725124pt"
   version="1.1"
   viewBox="0 0 226.08 139.725124"
   width="226.08pt"
   id="svg685"
   sodipodi:docname="batch_resp.svg"
   inkscape:version="1.0.1 (c497b03c, 2020-09-10)">
  <metadata
     id="metadata689">
    <rdf:RDF>
      <cc:Work
         rdf:about="">
        <dc:format>image/svg+xml</dc:format>
        <dc:type
           rdf:resource="http://purl.org/dc/dcmitype/StillImage" />
      </cc:Work>
    </rdf:RDF>
  </metadata>
  <sodipodi:namedview
     pagecolor="#ffffff"
     bordercolor="#666666"
     borderopacity="1"
     objecttolerance="10"
     gridtolerance="10"
     guidetolerance="10"
     inkscape:pageopacity="0"
     inkscape:pageshadow="2"
     inkscape:window-width="1388"
     inkscape:window-height="713"
     id="namedview687"
     showgrid="false"
     showguides="true"
     inkscape:guide-bbox="true"
     inkscape:zoom="1.4457457"
     inkscape:cx="121.07317"
     inkscape:cy="156.40283"
     inkscape:window-x="0"
     inkscape:window-y="23"
     inkscape:window-maximized="0"
     inkscape:current-layer="svg685">
    <sodipodi:guide
       position="-1.0375269,-56.886212"
       orientation="1,0"
       id="guide1641" />
    <sodipodi:guide
       position="101.15887,124.16222"
       orientation="0,-1"
       id="guide1657" />
    <sodipodi:guide
       position="263.53182,-10.197504"
       orientation="0,-1"
       id="guide1701" />
  </sodipodi:namedview>
  <defs
     id="defs12">
    <rect
       x="-50.838816"
       y="170.1544"
       width="264.05058"
       height="46.688708"
       id="rect1637" />
    <rect
       x="-20.750537"
       y="164.96677"
       width="277.53843"
       height="62.770374"
       id="rect1631" />
    <style
       type="text/css"
       id="style10">
*{stroke-linecap:butt;stroke-linejoin:round;}
  </style>
    <rect
       x="-50.838818"
       y="170.1544"
       width="264.05057"
       height="46.688709"
       id="rect1637-4" />
    <rect
       x="-50.838818"
       y="170.1544"
       width="264.05057"
       height="46.688709"
       id="rect1668" />
  </defs>
  <defs
     id="defs683">
    <clipPath
       id="p87e3804796">
      <rect
         height="105.492469"
         width="175.212"
         x="28.26"
         y="16.767015"
         id="rect680" />
    </clipPath>
  </defs>
  <g
     id="PathCollection_1">
    <path
       clip-path="url(#p87e3804796)"
       d="m 66.678383,57.159529 -2.8112,5.622401 h 5.622401 z"
       style="fill:#ffffff;stroke:#000000"
       id="path20" />
    <path
       clip-path="url(#p87e3804796)"
       d="m 73.751506,58.905614 -2.807794,5.615588 h 5.615587 z"
       style="fill:#ffffff;stroke:#000000"
       id="path22" />
    <path
       clip-path="url(#p87e3804796)"
       d="m 75.729807,57.235438 -2.808151,5.6163 h 5.616301 z"
       style="fill:#ffffff;stroke:#000000"
       id="path24" />
    <path
       clip-path="url(#p87e3804796)"
       d="m 77.964263,51.811044 -2.81632,5.63264 h 5.63264 z"
       style="fill:#ffffff;stroke:#000000"
       id="path26" />
    <path
       clip-path="url(#p87e3804796)"
       d="m 137.70863,40.100798 -2.42868,4.857363 h 4.85736 z"
       style="fill:#ffffff;stroke:#000000"
       id="path28" />
    <path
       clip-path="url(#p87e3804796)"
       d="m 77.448628,59.062404 -2.79701,5.594019 h 5.594019 z"
       style="fill:#ffffff;stroke:#000000"
       id="path30" />
    <path
       clip-path="url(#p87e3804796)"
       d="M 79.953024,64.752068 77.314097,70.02992 H 82.59195 Z"
       style="fill:#ffffff;stroke:#000000"
       id="path32" />
    <path
       clip-path="url(#p87e3804796)"
       d="m 66.367787,64.338718 -2.801763,5.603526 h 5.603526 z"
       style="fill:#ffffff;stroke:#000000"
       id="path34" />
    <path
       clip-path="url(#p87e3804796)"
       d="m 83.911339,57.299476 -2.716764,5.433528 h 5.433528 z"
       style="fill:#ffffff;stroke:#000000"
       id="path36" />
    <path
       clip-path="url(#p87e3804796)"
       d="m 79.450684,59.953251 -2.713857,5.427714 h 5.427714 z"
       style="fill:#ffffff;stroke:#000000"
       id="path38" />
    <path
       clip-path="url(#p87e3804796)"
       d="m 78.331367,61.361863 -2.800047,5.600094 h 5.600094 z"
       style="fill:#ffffff;stroke:#000000"
       id="path40" />
    <path
       clip-path="url(#p87e3804796)"
       d="m 107.39071,64.828141 -2.46604,4.93209 h 4.93209 z"
       style="fill:#ffffff;stroke:#000000"
       id="path42" />
    <path
       clip-path="url(#p87e3804796)"
       d="m 111.08746,56.276682 -2.52948,5.058961 h 5.05896 z"
       style="fill:#ffffff;stroke:#000000"
       id="path44" />
    <path
       clip-path="url(#p87e3804796)"
       d="m 145.74993,53.239655 -2.53929,5.078577 h 5.07858 z"
       style="fill:#ffffff;stroke:#000000"
       id="path46" />
    <path
       clip-path="url(#p87e3804796)"
       d="m 71.958959,65.395661 -2.789922,5.579843 h 5.579843 z"
       style="fill:#ffffff;stroke:#000000"
       id="path48" />
    <path
       clip-path="url(#p87e3804796)"
       d="m 45.645834,64.74915 -2.841328,5.682657 h 5.682657 z"
       style="fill:#ffffff;stroke:#000000"
       id="path50" />
    <path
       clip-path="url(#p87e3804796)"
       d="m 133.60639,55.485814 -2.2799,4.559786 h 4.55979 z"
       style="fill:#ffffff;stroke:#000000"
       id="path52" />
  </g>
  <g
     id="PathCollection_2">
    <path
       clip-path="url(#p87e3804796)"
       d="m 162.93451,34.233514 2.18302,-4.366035 h -4.36604 z"
       style="fill:#ffffff;stroke:#000000"
       id="path55" />
    <path
       clip-path="url(#p87e3804796)"
       d="m 119.14165,46.9148 2.46452,-4.92904 h -4.92904 z"
       style="fill:#ffffff;stroke:#000000"
       id="path57" />
    <path
       clip-path="url(#p87e3804796)"
       d="m 106.01207,52.37074 2.54691,-5.093817 h -5.09381 z"
       style="fill:#ffffff;stroke:#000000"
       id="path59" />
    <path
       clip-path="url(#p87e3804796)"
       d="m 127.39677,41.716173 2.47213,-4.944257 h -4.94426 z"
       style="fill:#ffffff;stroke:#000000"
       id="path61" />
    <path
       clip-path="url(#p87e3804796)"
       d="m 115.81646,60.701291 2.40418,-4.80835 h -4.80835 z"
       style="fill:#ffffff;stroke:#000000"
       id="path63" />
    <path
       clip-path="url(#p87e3804796)"
       d="m 165.83928,55.602336 2.06446,-4.128918 h -4.12892 z"
       style="fill:#ffffff;stroke:#000000"
       id="path65" />
    <path
       clip-path="url(#p87e3804796)"
       d="m 65.394618,73.658704 2.794337,-5.588673 h -5.588673 z"
       style="fill:#ffffff;stroke:#000000"
       id="path67" />
    <path
       clip-path="url(#p87e3804796)"
       d="M 70.906402,69.09067 73.70444,63.494595 H 68.108364 Z"
       style="fill:#ffffff;stroke:#000000"
       id="path69" />
  </g>
  <g
     id="PathCollection_3">
    <path
       clip-path="url(#p87e3804796)"
       d="m 120.2501,41.960834 h 5.03709 v -5.037089 h -5.03709 z"
       style="fill:#ffffff;stroke:#000000"
       id="path72" />
    <path
       clip-path="url(#p87e3804796)"
       d="m 110.54615,49.052779 h 4.99447 v -4.994471 h -4.99447 z"
       style="fill:#ffffff;stroke:#000000"
       id="path74" />
    <path
       clip-path="url(#p87e3804796)"
       d="m 84.227236,59.056865 h 5.289881 v -5.289881 h -5.289881 z"
       style="fill:#ffffff;stroke:#000000"
       id="path76" />
    <path
       clip-path="url(#p87e3804796)"
       d="m 103.39853,60.690326 h 4.95746 v -4.95745 h -4.95746 z"
       style="fill:#ffffff;stroke:#000000"
       id="path78" />
    <path
       clip-path="url(#p87e3804796)"
       d="m 115.30813,35.363 h 5.2427 v -5.242692 h -5.2427 z"
       style="fill:#ffffff;stroke:#000000"
       id="path80" />
    <path
       clip-path="url(#p87e3804796)"
       d="M 77.478205,60.253823 H 82.78455 V 54.947478 H 77.478205 Z"
       style="fill:#ffffff;stroke:#000000"
       id="path82" />
    <path
       clip-path="url(#p87e3804796)"
       d="m 60.182463,65.159494 h 5.605671 v -5.605671 h -5.605671 z"
       style="fill:#ffffff;stroke:#000000"
       id="path84" />
    <path
       clip-path="url(#p87e3804796)"
       d="m 120.98912,29.922151 h 5.25808 v -5.258075 h -5.25808 z"
       style="fill:#ffffff;stroke:#000000"
       id="path86" />
    <path
       clip-path="url(#p87e3804796)"
       d="m 80.903262,60.668463 h 5.299109 v -5.299109 h -5.299109 z"
       style="fill:#ffffff;stroke:#000000"
       id="path88" />
    <path
       clip-path="url(#p87e3804796)"
       d="m 104.59215,63.959166 h 4.91719 v -4.91719 h -4.91719 z"
       style="fill:#ffffff;stroke:#000000"
       id="path90" />
    <path
       clip-path="url(#p87e3804796)"
       d="m 145.21138,36.018212 h 4.817 v -4.817007 h -4.817 z"
       style="fill:#ffffff;stroke:#000000"
       id="path92" />
  </g>
  <g
     id="PathCollection_4">
    <path
       clip-path="url(#p87e3804796)"
       d="m 34.737958,94.113581 -2.783206,5.566412 h 5.566412 z"
       style="fill:#ffffff;stroke:#000000"
       id="path95" />
    <path
       clip-path="url(#p87e3804796)"
       d="m 22.759428,94.494442 -2.816139,5.632278 h 5.632278 z"
       style="fill:#ffffff;stroke:#000000"
       id="path97" />
    <path
       clip-path="url(#p87e3804796)"
       d="m 25.150617,98.414572 -2.811959,5.623918 h 5.623918 z"
       style="fill:#ffffff;stroke:#000000"
       id="path99" />
    <path
       clip-path="url(#p87e3804796)"
       d="m 24.57369,95.271112 -2.825229,5.650458 h 5.650458 z"
       style="fill:#ffffff;stroke:#000000"
       id="path101" />
    <path
       clip-path="url(#p87e3804796)"
       d="m 68.004109,95.094393 -2.273973,4.547944 h 4.547945 z"
       style="fill:#ffffff;stroke:#000000"
       id="path103" />
    <path
       clip-path="url(#p87e3804796)"
       d="m 45.190654,82.750394 -2.824617,5.649234 h 5.649233 z"
       style="fill:#ffffff;stroke:#000000"
       id="path105" />
    <path
       clip-path="url(#p87e3804796)"
       d="m 60.786382,76.156736 -2.643997,5.287993 h 5.287994 z"
       style="fill:#ffffff;stroke:#000000"
       id="path107" />
    <path
       clip-path="url(#p87e3804796)"
       d="m -31.896754,186.9632 -2.075006,4.15001 h 4.150012 z"
       style="fill:#ffffff;stroke:#000000"
       id="path109" />
    <path
       clip-path="url(#p87e3804796)"
       d="m -31.720047,153.86798 -2.38388,4.76776 h 4.767759 z"
       style="fill:#ffffff;stroke:#000000"
       id="path111" />
    <path
       clip-path="url(#p87e3804796)"
       d="m -22.728438,177.12166 -2.105183,4.21037 h 4.210367 z"
       style="fill:#ffffff;stroke:#000000"
       id="path113" />
    <path
       clip-path="url(#p87e3804796)"
       d="m -44.79456,190.65381 -2.144734,4.28947 h 4.289468 z"
       style="fill:#ffffff;stroke:#000000"
       id="path115" />
    <path
       clip-path="url(#p87e3804796)"
       d="M 19.431305,128.16286 17.142,132.74148 h 4.578611 z"
       style="fill:#ffffff;stroke:#000000"
       id="path117" />
    <path
       clip-path="url(#p87e3804796)"
       d="m 24.55989,127.3698 -2.429652,4.8593 h 4.859304 z"
       style="fill:#ffffff;stroke:#000000"
       id="path119" />
    <path
       clip-path="url(#p87e3804796)"
       d="m 2.70574,147.41731 -2.090545,4.18109 h 4.18109 z"
       style="fill:#ffffff;stroke:#000000"
       id="path121" />
    <path
       clip-path="url(#p87e3804796)"
       d="m 33.800153,87.697392 -2.774943,5.549886 h 5.549885 z"
       style="fill:#ffffff;stroke:#000000"
       id="path123" />
    <path
       clip-path="url(#p87e3804796)"
       d="m 21.01995,121.49349 -2.736585,5.47317 h 5.473171 z"
       style="fill:#ffffff;stroke:#000000"
       id="path125" />
    <path
       clip-path="url(#p87e3804796)"
       d="m 40.341036,86.952826 -2.802755,5.60551 h 5.60551 z"
       style="fill:#ffffff;stroke:#000000"
       id="path127" />
    <path
       clip-path="url(#p87e3804796)"
       d="m 7.322604,163.80259 -1.705732,3.41147 h 3.411463 z"
       style="fill:#ffffff;stroke:#000000"
       id="path129" />
    <path
       clip-path="url(#p87e3804796)"
       d="m 94.32554,87.734424 -2.308505,4.61701 h 4.61701 z"
       style="fill:#ffffff;stroke:#000000"
       id="path131" />
  </g>
  <g
     id="PathCollection_5">
    <path
       clip-path="url(#p87e3804796)"
       d="m 110.47576,81.654743 2.2405,-4.480996 h -4.48099 z"
       style="fill:#ffffff;stroke:#000000"
       id="path134" />
    <path
       clip-path="url(#p87e3804796)"
       d="m 47.798734,113.65998 2.31655,-4.6331 h -4.6331 z"
       style="fill:#ffffff;stroke:#000000"
       id="path136" />
    <path
       clip-path="url(#p87e3804796)"
       d="m 10.411963,151.38076 2.255785,-4.51157 h -4.51157 z"
       style="fill:#ffffff;stroke:#000000"
       id="path138" />
    <path
       clip-path="url(#p87e3804796)"
       d="m 54.123128,109.53829 2.386455,-4.77291 h -4.772909 z"
       style="fill:#ffffff;stroke:#000000"
       id="path140" />
    <path
       clip-path="url(#p87e3804796)"
       d="m 44.414245,110.46169 2.478727,-4.95746 h -4.957455 z"
       style="fill:#ffffff;stroke:#000000"
       id="path142" />
    <path
       clip-path="url(#p87e3804796)"
       d="m 78.109477,113.56512 1.727732,-3.45547 h -3.455465 z"
       style="fill:#ffffff;stroke:#000000"
       id="path144" />
    <path
       clip-path="url(#p87e3804796)"
       d="m -38.370551,136.58379 2.87862,-5.75724 h -5.75724 z"
       style="fill:#ffffff;stroke:#000000"
       id="path146" />
    <path
       clip-path="url(#p87e3804796)"
       d="m -15.092432,118.58309 2.953331,-5.90667 h -5.906662 z"
       style="fill:#ffffff;stroke:#000000"
       id="path148" />
  </g>
  <g
     id="PathCollection_6">
    <path
       clip-path="url(#p87e3804796)"
       d="m -7.604326,178.96567 h 3.714691 v -3.71469 h -3.714691 z"
       style="fill:#ffffff;stroke:#000000"
       id="path151" />
    <path
       clip-path="url(#p87e3804796)"
       d="m 36.279618,129.77689 h 4.68916 v -4.68916 h -4.68916 z"
       style="fill:#ffffff;stroke:#000000"
       id="path153" />
    <path
       clip-path="url(#p87e3804796)"
       d="m -17.56266,146.54316 h 4.866084 v -4.86608 h -4.866084 z"
       style="fill:#ffffff;stroke:#000000"
       id="path155" />
    <path
       clip-path="url(#p87e3804796)"
       d="m 81.245581,78.498743 h 4.834907 v -4.834907 h -4.834907 z"
       style="fill:#ffffff;stroke:#000000"
       id="path157" />
    <path
       clip-path="url(#p87e3804796)"
       d="m 40.474219,106.28632 h 4.96046 v -4.96046 h -4.96046 z"
       style="fill:#ffffff;stroke:#000000"
       id="path159" />
    <path
       clip-path="url(#p87e3804796)"
       d="m 40.410261,101.30411 h 5.302136 v -5.302136 h -5.302136 z"
       style="fill:#ffffff;stroke:#000000"
       id="path161" />
    <path
       clip-path="url(#p87e3804796)"
       d="m -48.690665,163.25273 h 4.967812 v -4.96781 h -4.967812 z"
       style="fill:#ffffff;stroke:#000000"
       id="path163" />
    <path
       clip-path="url(#p87e3804796)"
       d="m 33.903636,116.20279 h 5.048439 v -5.04844 h -5.048439 z"
       style="fill:#ffffff;stroke:#000000"
       id="path165" />
    <path
       clip-path="url(#p87e3804796)"
       d="M 63.649148,101.66049 H 68.04447 V 97.265168 H 63.649148 Z"
       style="fill:#ffffff;stroke:#000000"
       id="path167" />
    <path
       clip-path="url(#p87e3804796)"
       d="m 26.316289,144.55138 h 4.922301 v -4.92231 h -4.922301 z"
       style="fill:#ffffff;stroke:#000000"
       id="path169" />
    <path
       clip-path="url(#p87e3804796)"
       d="m 11.495167,148.561 h 4.415734 v -4.41574 h -4.415734 z"
       style="fill:#ffffff;stroke:#000000"
       id="path171" />
    <path
       clip-path="url(#p87e3804796)"
       d="m 87.999143,85.280353 h 4.797119 v -4.797119 h -4.797119 z"
       style="fill:#ffffff;stroke:#000000"
       id="path173" />
  </g>
  <g
     id="PathCollection_7">
    <defs
       id="defs177">
      <path
         id="ma241a662f0"
         style="stroke:#1f77b4;stroke-width:1.5;stroke-opacity:0.8"
         d="" />
    </defs>
    <g
       clip-path="url(#p87e3804796)"
       id="g251">
      <use
         style="fill:#1f77b4;fill-opacity:0.8;stroke:#1f77b4;stroke-width:1.5;stroke-opacity:0.8"
         x="66.678383"
         xlink:href="#ma241a662f0"
         y="59.97073"
         id="use179"
         width="100%"
         height="100%" />
      <use
         style="fill:#1f77b4;fill-opacity:0.8;stroke:#1f77b4;stroke-width:1.5;stroke-opacity:0.8"
         x="73.751503"
         xlink:href="#ma241a662f0"
         y="61.713409"
         id="use181"
         width="100%"
         height="100%" />
      <use
         style="fill:#1f77b4;fill-opacity:0.8;stroke:#1f77b4;stroke-width:1.5;stroke-opacity:0.8"
         x="75.729805"
         xlink:href="#ma241a662f0"
         y="60.043587"
         id="use183"
         width="100%"
         height="100%" />
      <use
         style="fill:#1f77b4;fill-opacity:0.8;stroke:#1f77b4;stroke-width:1.5;stroke-opacity:0.8"
         x="77.964264"
         xlink:href="#ma241a662f0"
         y="54.627365"
         id="use185"
         width="100%"
         height="100%" />
      <use
         style="fill:#1f77b4;fill-opacity:0.8;stroke:#1f77b4;stroke-width:1.5;stroke-opacity:0.8"
         x="137.70863"
         xlink:href="#ma241a662f0"
         y="42.52948"
         id="use187"
         width="100%"
         height="100%" />
      <use
         style="fill:#1f77b4;fill-opacity:0.8;stroke:#1f77b4;stroke-width:1.5;stroke-opacity:0.8"
         x="77.448631"
         xlink:href="#ma241a662f0"
         y="61.859413"
         id="use189"
         width="100%"
         height="100%" />
      <use
         style="fill:#1f77b4;fill-opacity:0.8;stroke:#1f77b4;stroke-width:1.5;stroke-opacity:0.8"
         x="79.953026"
         xlink:href="#ma241a662f0"
         y="67.390991"
         id="use191"
         width="100%"
         height="100%" />
      <use
         style="fill:#1f77b4;fill-opacity:0.8;stroke:#1f77b4;stroke-width:1.5;stroke-opacity:0.8"
         x="66.36779"
         xlink:href="#ma241a662f0"
         y="67.14048"
         id="use193"
         width="100%"
         height="100%" />
      <use
         style="fill:#1f77b4;fill-opacity:0.8;stroke:#1f77b4;stroke-width:1.5;stroke-opacity:0.8"
         x="83.911339"
         xlink:href="#ma241a662f0"
         y="60.016239"
         id="use195"
         width="100%"
         height="100%" />
      <use
         style="fill:#1f77b4;fill-opacity:0.8;stroke:#1f77b4;stroke-width:1.5;stroke-opacity:0.8"
         x="79.450684"
         xlink:href="#ma241a662f0"
         y="62.667107"
         id="use197"
         width="100%"
         height="100%" />
      <use
         style="fill:#1f77b4;fill-opacity:0.8;stroke:#1f77b4;stroke-width:1.5;stroke-opacity:0.8"
         x="78.331367"
         xlink:href="#ma241a662f0"
         y="64.161911"
         id="use199"
         width="100%"
         height="100%" />
      <use
         style="fill:#1f77b4;fill-opacity:0.8;stroke:#1f77b4;stroke-width:1.5;stroke-opacity:0.8"
         x="107.39071"
         xlink:href="#ma241a662f0"
         y="67.294189"
         id="use201"
         width="100%"
         height="100%" />
      <use
         style="fill:#1f77b4;fill-opacity:0.8;stroke:#1f77b4;stroke-width:1.5;stroke-opacity:0.8"
         x="111.08746"
         xlink:href="#ma241a662f0"
         y="58.806164"
         id="use203"
         width="100%"
         height="100%" />
      <use
         style="fill:#1f77b4;fill-opacity:0.8;stroke:#1f77b4;stroke-width:1.5;stroke-opacity:0.8"
         x="145.74992"
         xlink:href="#ma241a662f0"
         y="55.778942"
         id="use205"
         width="100%"
         height="100%" />
      <use
         style="fill:#1f77b4;fill-opacity:0.8;stroke:#1f77b4;stroke-width:1.5;stroke-opacity:0.8"
         x="71.958961"
         xlink:href="#ma241a662f0"
         y="68.185585"
         id="use207"
         width="100%"
         height="100%" />
      <use
         style="fill:#1f77b4;fill-opacity:0.8;stroke:#1f77b4;stroke-width:1.5;stroke-opacity:0.8"
         x="45.645836"
         xlink:href="#ma241a662f0"
         y="67.590477"
         id="use209"
         width="100%"
         height="100%" />
      <use
         style="fill:#1f77b4;fill-opacity:0.8;stroke:#1f77b4;stroke-width:1.5;stroke-opacity:0.8"
         x="133.60638"
         xlink:href="#ma241a662f0"
         y="57.765705"
         id="use211"
         width="100%"
         height="100%" />
      <use
         style="fill:#1f77b4;fill-opacity:0.8;stroke:#1f77b4;stroke-width:1.5;stroke-opacity:0.8"
         x="162.93451"
         xlink:href="#ma241a662f0"
         y="32.050495"
         id="use213"
         width="100%"
         height="100%" />
      <use
         style="fill:#1f77b4;fill-opacity:0.8;stroke:#1f77b4;stroke-width:1.5;stroke-opacity:0.8"
         x="119.14165"
         xlink:href="#ma241a662f0"
         y="44.450279"
         id="use215"
         width="100%"
         height="100%" />
      <use
         style="fill:#1f77b4;fill-opacity:0.8;stroke:#1f77b4;stroke-width:1.5;stroke-opacity:0.8"
         x="106.01208"
         xlink:href="#ma241a662f0"
         y="49.823833"
         id="use217"
         width="100%"
         height="100%" />
      <use
         style="fill:#1f77b4;fill-opacity:0.8;stroke:#1f77b4;stroke-width:1.5;stroke-opacity:0.8"
         x="127.39677"
         xlink:href="#ma241a662f0"
         y="39.244045"
         id="use219"
         width="100%"
         height="100%" />
      <use
         style="fill:#1f77b4;fill-opacity:0.8;stroke:#1f77b4;stroke-width:1.5;stroke-opacity:0.8"
         x="115.81646"
         xlink:href="#ma241a662f0"
         y="58.297115"
         id="use221"
         width="100%"
         height="100%" />
      <use
         style="fill:#1f77b4;fill-opacity:0.8;stroke:#1f77b4;stroke-width:1.5;stroke-opacity:0.8"
         x="165.83928"
         xlink:href="#ma241a662f0"
         y="53.537876"
         id="use223"
         width="100%"
         height="100%" />
      <use
         style="fill:#1f77b4;fill-opacity:0.8;stroke:#1f77b4;stroke-width:1.5;stroke-opacity:0.8"
         x="65.394615"
         xlink:href="#ma241a662f0"
         y="70.864365"
         id="use225"
         width="100%"
         height="100%" />
      <use
         style="fill:#1f77b4;fill-opacity:0.8;stroke:#1f77b4;stroke-width:1.5;stroke-opacity:0.8"
         x="70.906403"
         xlink:href="#ma241a662f0"
         y="66.292633"
         id="use227"
         width="100%"
         height="100%" />
      <use
         style="fill:#1f77b4;fill-opacity:0.8;stroke:#1f77b4;stroke-width:1.5;stroke-opacity:0.8"
         x="122.76864"
         xlink:href="#ma241a662f0"
         y="39.442291"
         id="use229"
         width="100%"
         height="100%" />
      <use
         style="fill:#1f77b4;fill-opacity:0.8;stroke:#1f77b4;stroke-width:1.5;stroke-opacity:0.8"
         x="113.04338"
         xlink:href="#ma241a662f0"
         y="46.555546"
         id="use231"
         width="100%"
         height="100%" />
      <use
         style="fill:#1f77b4;fill-opacity:0.8;stroke:#1f77b4;stroke-width:1.5;stroke-opacity:0.8"
         x="86.872177"
         xlink:href="#ma241a662f0"
         y="56.411922"
         id="use233"
         width="100%"
         height="100%" />
      <use
         style="fill:#1f77b4;fill-opacity:0.8;stroke:#1f77b4;stroke-width:1.5;stroke-opacity:0.8"
         x="105.87726"
         xlink:href="#ma241a662f0"
         y="58.211601"
         id="use235"
         width="100%"
         height="100%" />
      <use
         style="fill:#1f77b4;fill-opacity:0.8;stroke:#1f77b4;stroke-width:1.5;stroke-opacity:0.8"
         x="117.92948"
         xlink:href="#ma241a662f0"
         y="32.741653"
         id="use237"
         width="100%"
         height="100%" />
      <use
         style="fill:#1f77b4;fill-opacity:0.8;stroke:#1f77b4;stroke-width:1.5;stroke-opacity:0.8"
         x="80.131378"
         xlink:href="#ma241a662f0"
         y="57.600651"
         id="use239"
         width="100%"
         height="100%" />
      <use
         style="fill:#1f77b4;fill-opacity:0.8;stroke:#1f77b4;stroke-width:1.5;stroke-opacity:0.8"
         x="62.985298"
         xlink:href="#ma241a662f0"
         y="62.356659"
         id="use241"
         width="100%"
         height="100%" />
      <use
         style="fill:#1f77b4;fill-opacity:0.8;stroke:#1f77b4;stroke-width:1.5;stroke-opacity:0.8"
         x="123.61816"
         xlink:href="#ma241a662f0"
         y="27.293114"
         id="use243"
         width="100%"
         height="100%" />
      <use
         style="fill:#1f77b4;fill-opacity:0.8;stroke:#1f77b4;stroke-width:1.5;stroke-opacity:0.8"
         x="83.552818"
         xlink:href="#ma241a662f0"
         y="58.018909"
         id="use245"
         width="100%"
         height="100%" />
      <use
         style="fill:#1f77b4;fill-opacity:0.8;stroke:#1f77b4;stroke-width:1.5;stroke-opacity:0.8"
         x="107.05074"
         xlink:href="#ma241a662f0"
         y="61.500572"
         id="use247"
         width="100%"
         height="100%" />
      <use
         style="fill:#1f77b4;fill-opacity:0.8;stroke:#1f77b4;stroke-width:1.5;stroke-opacity:0.8"
         x="147.61989"
         xlink:href="#ma241a662f0"
         y="33.609711"
         id="use249"
         width="100%"
         height="100%" />
    </g>
  </g>
  <g
     id="PolyCollection_1">
    <path
       clip-path="url(#p87e3804796)"
       d="m 28.26,69.87751 v 10.654904 l 1.769818,-0.649345 1.769818,-0.666052 1.769819,-0.707915 1.769818,-0.707915 1.769818,-0.707915 1.769818,-0.698868 1.769818,-0.615791 1.769818,-0.615791 1.769819,-0.615792 1.769818,-0.68023 1.769818,-0.586943 1.769818,-0.640168 1.769818,-0.583703 1.769819,-0.616827 1.769818,-0.580607 1.769818,-0.647834 1.769818,-0.647803 1.769818,-0.647957 1.769818,-0.635273 1.769819,-0.597682 1.769818,-0.505025 1.769818,-0.610663 1.769818,-0.58467 1.769818,-0.595873 1.769819,-0.6208 1.769818,-0.579124 1.769818,-0.525057 1.769818,-0.547858 1.769818,-0.536676 1.769818,-0.430267 1.769819,-0.490519 1.769818,-0.463396 1.769818,-0.473143 1.769818,-0.428863 1.769818,-0.42799 1.769819,-0.42729 1.769818,-0.397736 1.769818,-0.374149 1.769818,-0.404904 1.769818,-0.384194 1.769823,-0.375318 1.76981,-0.414242 1.76982,-0.353133 1.76982,-0.375174 1.76982,-0.325828 1.76982,-0.359542 1.76982,-0.373589 1.76981,-0.343302 1.76982,-0.332172 1.76982,-0.362248 1.76982,-0.336779 1.76981,-0.297235 1.76982,-0.294574 1.76982,-0.320135 1.76982,-0.336418 1.76982,-0.348518 1.76982,-0.420758 1.76981,-0.372426 1.76982,-0.318074 1.76982,-0.318925 1.76982,-0.315998 1.76982,-0.322756 1.76981,-0.316595 1.76982,-0.316458 1.76982,-0.316527 1.76982,-0.327851 1.76982,-0.335469 1.76982,-0.335443 1.76981,-0.336522 1.76982,-0.336122 1.76982,-0.336121 1.76982,-0.342628 1.76982,-0.344918 1.76981,-0.344919 1.76982,-0.344919 1.76982,-0.344918 1.76982,-0.344919 1.76982,-0.344919 1.76982,-0.331684 1.76981,-0.312453 1.76982,-0.312454 1.76982,-0.325768 1.76982,-0.335289 1.76982,-0.335955 1.76981,-0.335992 1.76982,-0.335992 1.76982,-0.335992 1.76982,-0.335992 1.76982,-0.335992 1.76982,-0.335992 1.76981,-0.335991 1.76982,-0.335992 1.76982,-0.337189 1.76982,-0.339869 1.76982,-0.33987 1.76981,-0.33987 1.76982,-0.33987 1.76982,-0.339869 1.76982,-0.336182 v -23.453622 0 l -1.76982,0.663673 -1.76982,0.655547 -1.76982,0.655548 -1.76981,0.655547 -1.76982,0.667937 -1.76982,0.669394 -1.76982,0.669394 -1.76982,0.669394 -1.76981,0.669394 -1.76982,0.669395 -1.76982,0.669394 -1.76982,0.669394 -1.76982,0.669394 -1.76982,0.650048 -1.76981,0.624483 -1.76982,0.624484 -1.76982,0.624574 -1.76982,0.650987 -1.76982,0.676709 -1.76981,0.676709 -1.76982,0.676709 -1.76982,0.676709 -1.76982,0.676854 -1.76982,0.676969 -1.76982,0.676969 -1.76981,0.660979 -1.76982,0.600846 -1.76982,0.585019 -1.76982,0.669592 -1.76982,0.66046 -1.76981,0.664945 -1.76982,0.666292 -1.76982,0.655064 -1.76982,0.676078 -1.76982,0.664902 -1.76982,0.664901 -1.76981,0.664902 -1.76982,0.663583 -1.76982,0.614163 -1.76982,0.614826 -1.76982,0.627129 -1.76981,0.710312 -1.76982,0.710311 -1.76982,0.648745 -1.76982,0.644033 -1.76982,0.644034 -1.76982,0.674019 -1.76981,0.629326 -1.76982,0.626074 -1.76982,0.599636 -1.76982,0.618163 -1.76981,0.640439 -1.76982,0.635907 -1.76982,0.615979 -1.76982,0.63202 -1.76982,0.592374 -1.76982,0.638059 -1.76981,0.588075 -1.769823,0.628183 -1.769818,0.599343 -1.769818,0.600102 -1.769818,0.591115 -1.769818,0.541086 -1.769819,0.576369 -1.769818,0.522929 -1.769818,0.455911 -1.769818,0.479506 -1.769818,0.504019 -1.769819,0.536934 -1.769818,0.513492 -1.769818,0.526056 -1.769818,0.501859 -1.769818,0.420618 -1.769818,0.386215 -1.769819,0.45407 -1.769818,0.425876 -1.769818,0.381191 -1.769818,0.400119 -1.769818,0.452844 -1.769819,0.377634 -1.769818,0.385992 -1.769818,0.421379 -1.769818,0.331742 -1.769818,0.324331 -1.769818,0.39126 -1.769819,0.38007 -1.769818,0.382842 -1.769818,0.368199 -1.769818,0.338758 -1.769818,0.348435 -1.769819,0.376517 -1.769818,0.377244 -1.769818,0.376344 -1.769818,0.329717 -1.769818,0.332711 -1.769818,0.375542 -1.769819,0.31773 -1.769818,0.329025 z"
       style="fill:#a6761d;fill-opacity:0.15"
       id="path254" />
  </g>
  <g
     id="PathCollection_8">
    <defs
       id="defs258">
      <path
         id="m89d23f6c31"
         style="stroke:#ff7f0e;stroke-width:1.5;stroke-opacity:0.8"
         d="" />
    </defs>
    <g
       clip-path="url(#p87e3804796)"
       id="g336">
      <use
         style="fill:#ff7f0e;fill-opacity:0.8;stroke:#ff7f0e;stroke-width:1.5;stroke-opacity:0.8"
         x="34.737957"
         xlink:href="#m89d23f6c31"
         y="96.89679"
         id="use260"
         width="100%"
         height="100%" />
      <use
         style="fill:#ff7f0e;fill-opacity:0.8;stroke:#ff7f0e;stroke-width:1.5;stroke-opacity:0.8"
         x="22.759428"
         xlink:href="#m89d23f6c31"
         y="97.310577"
         id="use262"
         width="100%"
         height="100%" />
      <use
         style="fill:#ff7f0e;fill-opacity:0.8;stroke:#ff7f0e;stroke-width:1.5;stroke-opacity:0.8"
         x="25.150618"
         xlink:href="#m89d23f6c31"
         y="101.22653"
         id="use264"
         width="100%"
         height="100%" />
      <use
         style="fill:#ff7f0e;fill-opacity:0.8;stroke:#ff7f0e;stroke-width:1.5;stroke-opacity:0.8"
         x="24.57369"
         xlink:href="#m89d23f6c31"
         y="98.096344"
         id="use266"
         width="100%"
         height="100%" />
      <use
         style="fill:#ff7f0e;fill-opacity:0.8;stroke:#ff7f0e;stroke-width:1.5;stroke-opacity:0.8"
         x="68.004112"
         xlink:href="#m89d23f6c31"
         y="97.368362"
         id="use268"
         width="100%"
         height="100%" />
      <use
         style="fill:#ff7f0e;fill-opacity:0.8;stroke:#ff7f0e;stroke-width:1.5;stroke-opacity:0.8"
         x="45.190655"
         xlink:href="#m89d23f6c31"
         y="85.575012"
         id="use270"
         width="100%"
         height="100%" />
      <use
         style="fill:#ff7f0e;fill-opacity:0.8;stroke:#ff7f0e;stroke-width:1.5;stroke-opacity:0.8"
         x="60.786381"
         xlink:href="#m89d23f6c31"
         y="78.800735"
         id="use272"
         width="100%"
         height="100%" />
      <use
         style="fill:#ff7f0e;fill-opacity:0.8;stroke:#ff7f0e;stroke-width:1.5;stroke-opacity:0.8"
         x="-1"
         xlink:href="#m89d23f6c31"
         y="152.28955"
         id="use274"
         width="100%"
         height="100%" />
      <use
         style="fill:#ff7f0e;fill-opacity:0.8;stroke:#ff7f0e;stroke-width:1.5;stroke-opacity:0.8"
         x="-1"
         xlink:href="#m89d23f6c31"
         y="150.28558"
         id="use276"
         width="100%"
         height="100%" />
      <use
         style="fill:#ff7f0e;fill-opacity:0.8;stroke:#ff7f0e;stroke-width:1.5;stroke-opacity:0.8"
         x="19.431305"
         xlink:href="#m89d23f6c31"
         y="130.45216"
         id="use278"
         width="100%"
         height="100%" />
      <use
         style="fill:#ff7f0e;fill-opacity:0.8;stroke:#ff7f0e;stroke-width:1.5;stroke-opacity:0.8"
         x="24.559891"
         xlink:href="#m89d23f6c31"
         y="129.79945"
         id="use280"
         width="100%"
         height="100%" />
      <use
         style="fill:#ff7f0e;fill-opacity:0.8;stroke:#ff7f0e;stroke-width:1.5;stroke-opacity:0.8"
         x="2.70574"
         xlink:href="#m89d23f6c31"
         y="149.50786"
         id="use282"
         width="100%"
         height="100%" />
      <use
         style="fill:#ff7f0e;fill-opacity:0.8;stroke:#ff7f0e;stroke-width:1.5;stroke-opacity:0.8"
         x="33.800152"
         xlink:href="#m89d23f6c31"
         y="90.472336"
         id="use284"
         width="100%"
         height="100%" />
      <use
         style="fill:#ff7f0e;fill-opacity:0.8;stroke:#ff7f0e;stroke-width:1.5;stroke-opacity:0.8"
         x="21.019951"
         xlink:href="#m89d23f6c31"
         y="124.23007"
         id="use286"
         width="100%"
         height="100%" />
      <use
         style="fill:#ff7f0e;fill-opacity:0.8;stroke:#ff7f0e;stroke-width:1.5;stroke-opacity:0.8"
         x="40.341038"
         xlink:href="#m89d23f6c31"
         y="89.755585"
         id="use288"
         width="100%"
         height="100%" />
      <use
         style="fill:#ff7f0e;fill-opacity:0.8;stroke:#ff7f0e;stroke-width:1.5;stroke-opacity:0.8"
         x="7.3226042"
         xlink:href="#m89d23f6c31"
         y="165.50833"
         id="use290"
         width="100%"
         height="100%" />
      <use
         style="fill:#ff7f0e;fill-opacity:0.8;stroke:#ff7f0e;stroke-width:1.5;stroke-opacity:0.8"
         x="94.325539"
         xlink:href="#m89d23f6c31"
         y="90.042931"
         id="use292"
         width="100%"
         height="100%" />
      <use
         style="fill:#ff7f0e;fill-opacity:0.8;stroke:#ff7f0e;stroke-width:1.5;stroke-opacity:0.8"
         x="110.47576"
         xlink:href="#m89d23f6c31"
         y="79.414246"
         id="use294"
         width="100%"
         height="100%" />
      <use
         style="fill:#ff7f0e;fill-opacity:0.8;stroke:#ff7f0e;stroke-width:1.5;stroke-opacity:0.8"
         x="47.798733"
         xlink:href="#m89d23f6c31"
         y="111.34344"
         id="use296"
         width="100%"
         height="100%" />
      <use
         style="fill:#ff7f0e;fill-opacity:0.8;stroke:#ff7f0e;stroke-width:1.5;stroke-opacity:0.8"
         x="10.411963"
         xlink:href="#m89d23f6c31"
         y="149.12497"
         id="use298"
         width="100%"
         height="100%" />
      <use
         style="fill:#ff7f0e;fill-opacity:0.8;stroke:#ff7f0e;stroke-width:1.5;stroke-opacity:0.8"
         x="54.123127"
         xlink:href="#m89d23f6c31"
         y="107.15184"
         id="use300"
         width="100%"
         height="100%" />
      <use
         style="fill:#ff7f0e;fill-opacity:0.8;stroke:#ff7f0e;stroke-width:1.5;stroke-opacity:0.8"
         x="44.414246"
         xlink:href="#m89d23f6c31"
         y="107.98296"
         id="use302"
         width="100%"
         height="100%" />
      <use
         style="fill:#ff7f0e;fill-opacity:0.8;stroke:#ff7f0e;stroke-width:1.5;stroke-opacity:0.8"
         x="78.109474"
         xlink:href="#m89d23f6c31"
         y="111.83739"
         id="use304"
         width="100%"
         height="100%" />
      <use
         style="fill:#ff7f0e;fill-opacity:0.8;stroke:#ff7f0e;stroke-width:1.5;stroke-opacity:0.8"
         x="-1"
         xlink:href="#m89d23f6c31"
         y="126.68928"
         id="use306"
         width="100%"
         height="100%" />
      <use
         style="fill:#ff7f0e;fill-opacity:0.8;stroke:#ff7f0e;stroke-width:1.5;stroke-opacity:0.8"
         x="-1"
         xlink:href="#m89d23f6c31"
         y="171.79381"
         id="use308"
         width="100%"
         height="100%" />
      <use
         style="fill:#ff7f0e;fill-opacity:0.8;stroke:#ff7f0e;stroke-width:1.5;stroke-opacity:0.8"
         x="38.624199"
         xlink:href="#m89d23f6c31"
         y="127.4323"
         id="use310"
         width="100%"
         height="100%" />
      <use
         style="fill:#ff7f0e;fill-opacity:0.8;stroke:#ff7f0e;stroke-width:1.5;stroke-opacity:0.8"
         x="-1"
         xlink:href="#m89d23f6c31"
         y="139.72623"
         id="use312"
         width="100%"
         height="100%" />
      <use
         style="fill:#ff7f0e;fill-opacity:0.8;stroke:#ff7f0e;stroke-width:1.5;stroke-opacity:0.8"
         x="-1"
         xlink:href="#m89d23f6c31"
         y="134.38043"
         id="use314"
         width="100%"
         height="100%" />
      <use
         style="fill:#ff7f0e;fill-opacity:0.8;stroke:#ff7f0e;stroke-width:1.5;stroke-opacity:0.8"
         x="83.663033"
         xlink:href="#m89d23f6c31"
         y="76.081291"
         id="use316"
         width="100%"
         height="100%" />
      <use
         style="fill:#ff7f0e;fill-opacity:0.8;stroke:#ff7f0e;stroke-width:1.5;stroke-opacity:0.8"
         x="42.954449"
         xlink:href="#m89d23f6c31"
         y="103.80608"
         id="use318"
         width="100%"
         height="100%" />
      <use
         style="fill:#ff7f0e;fill-opacity:0.8;stroke:#ff7f0e;stroke-width:1.5;stroke-opacity:0.8"
         x="43.061329"
         xlink:href="#m89d23f6c31"
         y="98.653046"
         id="use320"
         width="100%"
         height="100%" />
      <use
         style="fill:#ff7f0e;fill-opacity:0.8;stroke:#ff7f0e;stroke-width:1.5;stroke-opacity:0.8"
         x="-1"
         xlink:href="#m89d23f6c31"
         y="129.31242"
         id="use322"
         width="100%"
         height="100%" />
      <use
         style="fill:#ff7f0e;fill-opacity:0.8;stroke:#ff7f0e;stroke-width:1.5;stroke-opacity:0.8"
         x="-1"
         xlink:href="#m89d23f6c31"
         y="135.00725"
         id="use324"
         width="100%"
         height="100%" />
      <use
         style="fill:#ff7f0e;fill-opacity:0.8;stroke:#ff7f0e;stroke-width:1.5;stroke-opacity:0.8"
         x="36.427856"
         xlink:href="#m89d23f6c31"
         y="113.67857"
         id="use326"
         width="100%"
         height="100%" />
      <use
         style="fill:#ff7f0e;fill-opacity:0.8;stroke:#ff7f0e;stroke-width:1.5;stroke-opacity:0.8"
         x="65.846809"
         xlink:href="#m89d23f6c31"
         y="99.46283"
         id="use328"
         width="100%"
         height="100%" />
      <use
         style="fill:#ff7f0e;fill-opacity:0.8;stroke:#ff7f0e;stroke-width:1.5;stroke-opacity:0.8"
         x="28.777439"
         xlink:href="#m89d23f6c31"
         y="142.09023"
         id="use330"
         width="100%"
         height="100%" />
      <use
         style="fill:#ff7f0e;fill-opacity:0.8;stroke:#ff7f0e;stroke-width:1.5;stroke-opacity:0.8"
         x="13.703034"
         xlink:href="#m89d23f6c31"
         y="146.35313"
         id="use332"
         width="100%"
         height="100%" />
      <use
         style="fill:#ff7f0e;fill-opacity:0.8;stroke:#ff7f0e;stroke-width:1.5;stroke-opacity:0.8"
         x="90.397705"
         xlink:href="#m89d23f6c31"
         y="82.88179"
         id="use334"
         width="100%"
         height="100%" />
    </g>
  </g>
  <g
     id="PolyCollection_2">
    <path
       clip-path="url(#p87e3804796)"
       d="m -46.206759,155.81042 v 30.02773 l 1.582651,-1.26647 1.582652,-1.32665 1.582652,-1.33259 1.582652,-1.3194 1.582651,-1.2615 1.582652,-1.26151 1.582652,-1.2615 1.582652,-1.26151 1.582652,-1.26187 1.582651,-1.26485 1.582652,-1.26484 1.582652,-1.30961 1.582652,-1.2504 1.582651,-1.24909 1.582652,-1.40562 1.582652,-1.42226 1.582652,-1.42247 1.582651,-1.40192 1.582652,-1.25251 1.582652,-1.22441 1.582652,-1.22442 1.582651,-1.22834 1.582652,-1.40039 1.582652,-1.50441 1.582652,-1.31596 1.582651,-1.25821 1.582652,-1.2582 1.582652,-1.25821 1.582652,-1.20911 1.582651,-1.19773 1.582652,-1.36977 1.582652,-1.26928 1.582652,-1.35062 1.582652,-1.30565 1.582651,-1.14992 1.582652,-1.20909 1.582652,-1.2508 1.582652,-1.22541 1.582651,-1.05698 1.582652,-1.13618 1.582652,-1.16064 1.582652,-1.1077 1.582651,-1.10377 1.582652,-1.17342 1.582652,-1.19544 1.582652,-1.21909 1.582651,-1.15855 1.582652,-1.06386 1.582652,-1.26364 1.582652,-1.22299 1.582651,-1.21721 1.582652,-1.0548 1.582652,-1.13028 1.582652,-1.07025 1.582651,-1.1301 1.582652,-1.01085 1.582652,-1.07891 1.582652,-1.05572 1.582652,-1.00134 1.582651,-1.01218 1.582652,-1.11215 1.582652,-1.11606 1.582652,-1.10305 1.582651,-1.03597 1.582652,-0.97169 1.582652,-1.02879 1.582652,-0.96489 1.582651,-0.95013 1.582652,-0.96104 1.582652,-0.92717 1.582652,-1.02251 1.582651,-0.96761 1.582652,-0.995782 1.582652,-0.903066 1.582652,-0.905803 1.582651,-0.902793 1.582652,-0.903341 1.582652,-0.930526 1.582652,-0.925278 1.582651,-0.916684 1.582652,-0.864167 1.582652,-0.879358 1.582652,-0.853005 1.582652,-0.896557 1.582651,-0.901008 1.582652,-0.892829 1.582652,-0.896524 1.582652,-0.898359 1.582651,-0.896579 1.582652,-0.896217 1.582652,-0.896217 1.582652,-0.792206 1.582647,-0.866886 1.58266,-0.868456 1.58265,-0.865323 1.58265,-0.867291 1.58265,-0.869022 1.58265,-0.868342 1.58265,-0.828855 v -24.748157 0 l -1.58265,1.250868 -1.58265,1.250869 -1.58265,1.281785 -1.58265,1.361152 -1.58265,1.361152 -1.58266,1.292779 -1.582647,1.224121 -1.582652,1.224121 -1.582652,1.224121 -1.582652,1.224121 -1.582651,1.224121 -1.582652,1.224121 -1.582652,1.226866 -1.582652,1.414267 -1.582651,1.2916 -1.582652,1.227845 -1.582652,1.227941 -1.582652,1.228534 -1.582652,1.228533 -1.582651,1.22883 -1.582652,1.228838 -1.582652,1.228837 -1.582652,1.228838 -1.582651,1.22915 -1.582652,1.228818 -1.582652,1.316949 -1.582652,1.320114 -1.582651,1.379641 -1.582652,1.347551 -1.582652,1.227429 -1.582652,1.322925 -1.582651,1.230124 -1.582652,1.26986 -1.582652,1.266012 -1.582652,1.251681 -1.582651,1.220764 -1.582652,1.233937 -1.582652,1.185185 -1.582652,1.277151 -1.582651,1.12179 -1.582652,1.22452 -1.582652,1.14642 -1.582652,1.08779 -1.582652,1.15084 -1.582651,1.13548 -1.582652,1.17643 -1.582652,1.12225 -1.582652,1.10541 -1.582651,1.04108 -1.582652,1.08463 -1.582652,0.97857 -1.582652,0.89954 -1.582651,1.01315 -1.582652,0.95902 -1.582652,0.96093 -1.582652,0.85706 -1.582651,0.86895 -1.582652,0.96558 -1.582652,0.77933 -1.582652,0.96609 -1.582651,0.93326 -1.582652,0.95736 -1.582652,0.92102 -1.582652,0.91505 -1.582651,0.85812 -1.582652,0.90959 -1.582652,0.87903 -1.582652,0.90596 -1.582652,0.85263 -1.582651,0.86974 -1.582652,0.84312 -1.582652,0.84311 -1.582652,0.84467 -1.582651,0.88157 -1.582652,0.91713 -1.582652,0.84687 -1.582652,0.81965 -1.582651,0.85624 -1.582652,0.83722 -1.582652,0.83722 -1.582652,0.85698 -1.582651,0.86724 -1.582652,0.86724 -1.582652,0.86724 -1.582652,0.78796 -1.582651,0.78572 -1.582652,0.85527 -1.582652,0.85551 -1.582652,0.8555 -1.582651,0.85551 -1.582652,0.8555 -1.582652,0.85551 -1.582652,0.8555 -1.582652,0.85551 -1.582651,0.8555 -1.582652,0.85582 -1.582652,0.85669 -1.582652,0.81048 z"
       style="fill:#666666;fill-opacity:0.15"
       id="path339" />
  </g>
  <g
     id="xtick_1">
    <g
       id="line2d_1">
      <defs
         id="defs343">
        <path
           d="M 0,0 V 3.5"
           id="ma076ea92ee"
           style="stroke:#000000;stroke-width:0.8" />
      </defs>
      <g
         id="g347">
        <use
           style="stroke:#000000;stroke-width:0.8"
           x="44.188362"
           xlink:href="#ma076ea92ee"
           y="122.25948"
           id="use345"
           width="100%"
           height="100%" />
      </g>
    </g>
    <g
       id="text_1">
      <!-- 1 -->
      <defs
         id="defs351">
        <path
           d="m 12.40625,8.296875 h 16.109375 v 55.625 L 10.984375,60.40625 v 8.984375 l 17.4375,3.515625 H 38.28125 V 8.296875 H 54.390625 V 0 H 12.40625 Z"
           id="DejaVuSans-49" />
      </defs>
      <g
         transform="matrix(0.08,0,0,-0.08,41.643364,135.33823)"
         id="g355">
        <use
           xlink:href="#DejaVuSans-49"
           id="use353"
           x="0"
           y="0"
           width="100%"
           height="100%" />
      </g>
    </g>
  </g>
  <g
     id="xtick_2">
    <g
       id="line2d_2">
      <g
         id="g361">
        <use
           style="stroke:#000000;stroke-width:0.8"
           x="70.735634"
           xlink:href="#ma076ea92ee"
           y="122.25948"
           id="use359"
           width="100%"
           height="100%" />
      </g>
    </g>
    <g
       id="text_2">
      <!-- 10 -->
      <defs
         id="defs365">
        <path
           d="m 31.78125,66.40625 q -7.609375,0 -11.453125,-7.5 Q 16.5,51.421875 16.5,36.375 q 0,-14.984375 3.828125,-22.484375 3.84375,-7.5 11.453125,-7.5 7.671875,0 11.5,7.5 3.84375,7.5 3.84375,22.484375 0,15.046875 -3.84375,22.53125 -3.828125,7.5 -11.5,7.5 z m 0,7.8125 q 12.265625,0 18.734375,-9.703125 6.46875,-9.6875 6.46875,-28.140625 0,-18.40625 -6.46875,-28.109375 -6.46875,-9.6875 -18.734375,-9.6875 -12.25,0 -18.71875,9.6875 Q 6.59375,17.96875 6.59375,36.375 q 0,18.453125 6.46875,28.140625 6.46875,9.703125 18.71875,9.703125 z"
           id="DejaVuSans-48" />
      </defs>
      <g
         transform="matrix(0.08,0,0,-0.08,65.645636,135.33823)"
         id="g371">
        <use
           xlink:href="#DejaVuSans-49"
           id="use367"
           x="0"
           y="0"
           width="100%"
           height="100%" />
        <use
           x="63.623047"
           xlink:href="#DejaVuSans-48"
           id="use369"
           y="0"
           width="100%"
           height="100%" />
      </g>
    </g>
  </g>
  <g
     id="xtick_3">
    <g
       id="line2d_3">
      <g
         id="g377">
        <use
           style="stroke:#000000;stroke-width:0.8"
           x="123.83018"
           xlink:href="#ma076ea92ee"
           y="122.25948"
           id="use375"
           width="100%"
           height="100%" />
      </g>
    </g>
    <g
       id="text_3">
      <!-- 20 -->
      <defs
         id="defs381">
        <path
           d="M 19.1875,8.296875 H 53.609375 V 0 H 7.328125 v 8.296875 q 5.609375,5.8125 15.296875,15.59375 9.703125,9.796875 12.1875,12.640625 4.734375,5.3125 6.609375,9 1.890625,3.6875 1.890625,7.25 0,5.8125 -4.078125,9.46875 -4.078125,3.671875 -10.625,3.671875 -4.640625,0 -9.796875,-1.609375 -5.140625,-1.609375 -11,-4.890625 v 9.96875 Q 13.765625,71.78125 18.9375,73 q 5.1875,1.21875 9.484375,1.21875 11.328125,0 18.0625,-5.671875 6.734375,-5.65625 6.734375,-15.125 0,-4.5 -1.6875,-8.53125 Q 49.859375,40.875 45.40625,35.40625 44.1875,33.984375 37.640625,27.21875 31.109375,20.453125 19.1875,8.296875 Z"
           id="DejaVuSans-50" />
      </defs>
      <g
         transform="matrix(0.08,0,0,-0.08,118.74018,135.33823)"
         id="g387">
        <use
           xlink:href="#DejaVuSans-50"
           id="use383"
           x="0"
           y="0"
           width="100%"
           height="100%" />
        <use
           x="63.623047"
           xlink:href="#DejaVuSans-48"
           id="use385"
           y="0"
           width="100%"
           height="100%" />
      </g>
    </g>
  </g>
  <g
     id="xtick_4">
    <g
       id="line2d_4">
      <g
         id="g393">
        <use
           style="stroke:#000000;stroke-width:0.8"
           x="176.92473"
           xlink:href="#ma076ea92ee"
           y="122.25948"
           id="use391"
           width="100%"
           height="100%" />
      </g>
    </g>
    <g
       id="text_4">
      <!-- 30 -->
      <defs
         id="defs397">
        <path
           d="M 40.578125,39.3125 Q 47.65625,37.796875 51.625,33 q 3.984375,-4.78125 3.984375,-11.8125 0,-10.78125 -7.421875,-16.703125 -7.421875,-5.90625 -21.09375,-5.90625 -4.578125,0 -9.4375,0.90625 -4.859375,0.90625 -10.03125,2.71875 v 9.515625 q 4.09375,-2.390625 8.96875,-3.609375 4.890625,-1.21875 10.21875,-1.21875 9.265625,0 14.125,3.65625 4.859375,3.65625 4.859375,10.640625 0,6.453125 -4.515625,10.078125 -4.515625,3.640625 -12.5625,3.640625 h -8.5 v 8.109375 h 8.890625 q 7.265625,0 11.125,2.90625 3.859375,2.90625 3.859375,8.375 0,5.609375 -3.984375,8.609375 -3.96875,3.015625 -11.390625,3.015625 -4.0625,0 -8.703125,-0.890625 Q 15.375,64.15625 9.8125,62.3125 v 8.78125 q 5.625,1.5625 10.53125,2.34375 4.90625,0.78125 9.25,0.78125 11.234375,0 17.765625,-5.109375 6.546875,-5.09375 6.546875,-13.78125 0,-6.0625 -3.46875,-10.234375 -3.46875,-4.171875 -9.859375,-5.78125 z"
           id="DejaVuSans-51" />
      </defs>
      <g
         transform="matrix(0.08,0,0,-0.08,171.83473,135.33823)"
         id="g403">
        <use
           xlink:href="#DejaVuSans-51"
           id="use399"
           x="0"
           y="0"
           width="100%"
           height="100%" />
        <use
           x="63.623047"
           xlink:href="#DejaVuSans-48"
           id="use401"
           y="0"
           width="100%"
           height="100%" />
      </g>
    </g>
  </g>
  <g
     id="ytick_1">
    <g
       id="line2d_5">
      <defs
         id="defs464">
        <path
           d="M 0,0 H -3.5"
           id="m3b67557ba5"
           style="stroke:#000000;stroke-width:0.8" />
      </defs>
      <g
         id="g468">
        <use
           style="stroke:#000000;stroke-width:0.8"
           x="28.26"
           xlink:href="#m3b67557ba5"
           y="119.2747"
           id="use466"
           width="100%"
           height="100%" />
      </g>
    </g>
    <g
       id="text_6">
      <!-- 1 -->
      <g
         transform="matrix(0.08,0,0,-0.08,16.17,122.31408)"
         id="g473">
        <use
           xlink:href="#DejaVuSans-49"
           id="use471"
           x="0"
           y="0"
           width="100%"
           height="100%" />
      </g>
    </g>
  </g>
  <g
     id="ytick_2">
    <g
       id="line2d_6">
      <g
         id="g479">
        <use
           style="stroke:#000000;stroke-width:0.8"
           x="28.26"
           xlink:href="#m3b67557ba5"
           y="92.140312"
           id="use477"
           width="100%"
           height="100%" />
      </g>
    </g>
    <g
       id="text_7">
      <!-- 10 -->
      <g
         transform="matrix(0.08,0,0,-0.08,11.08,95.179689)"
         id="g486">
        <use
           xlink:href="#DejaVuSans-49"
           id="use482"
           x="0"
           y="0"
           width="100%"
           height="100%" />
        <use
           x="63.623047"
           xlink:href="#DejaVuSans-48"
           id="use484"
           y="0"
           width="100%"
           height="100%" />
      </g>
    </g>
  </g>
  <g
     id="ytick_3">
    <g
       id="line2d_7">
      <g
         id="g492">
        <use
           style="stroke:#000000;stroke-width:0.8"
           x="28.26"
           xlink:href="#m3b67557ba5"
           y="61.990993"
           id="use490"
           width="100%"
           height="100%" />
      </g>
    </g>
    <g
       id="text_8">
      <!-- 20 -->
      <g
         transform="matrix(0.08,0,0,-0.08,11.08,65.030369)"
         id="g499">
        <use
           xlink:href="#DejaVuSans-50"
           id="use495"
           x="0"
           y="0"
           width="100%"
           height="100%" />
        <use
           x="63.623047"
           xlink:href="#DejaVuSans-48"
           id="use497"
           y="0"
           width="100%"
           height="100%" />
      </g>
    </g>
  </g>
  <g
     id="ytick_4">
    <g
       id="line2d_8">
      <g
         id="g505">
        <use
           style="stroke:#000000;stroke-width:0.8"
           x="28.26"
           xlink:href="#m3b67557ba5"
           y="31.841675"
           id="use503"
           width="100%"
           height="100%" />
      </g>
    </g>
    <g
       id="text_9">
      <!-- 30 -->
      <g
         transform="matrix(0.08,0,0,-0.08,11.08,34.88105)"
         id="g512">
        <use
           xlink:href="#DejaVuSans-51"
           id="use508"
           x="0"
           y="0"
           width="100%"
           height="100%" />
        <use
           x="63.623047"
           xlink:href="#DejaVuSans-48"
           id="use510"
           y="0"
           width="100%"
           height="100%" />
      </g>
    </g>
  </g>
  <g
     id="line2d_9">
    <path
       clip-path="url(#p87e3804796)"
       d="m 28.26,74.704955 1.769818,-0.482558 1.769818,-0.482557 1.769819,-0.482557 1.769818,-0.482558 1.769818,-0.482557 1.769818,-0.482557 1.769818,-0.482558 1.769818,-0.482557 1.769819,-0.482557 1.769818,-0.482558 1.769818,-0.482557 1.769818,-0.482557 1.769818,-0.482557 1.769819,-0.482558 1.769818,-0.482557 1.769818,-0.482557 1.769818,-0.482558 1.769818,-0.482557 1.769818,-0.482557 1.769819,-0.482558 1.769818,-0.482557 1.769818,-0.482557 1.769818,-0.482558 1.769818,-0.482557 1.769819,-0.482557 1.769818,-0.482557 1.769818,-0.482558 1.769818,-0.482557 1.769818,-0.482557 1.769818,-0.482558 1.769819,-0.482557 1.769818,-0.482557 1.769818,-0.482558 1.769818,-0.482557 1.769818,-0.482557 1.769819,-0.482558 1.769818,-0.482557 1.769818,-0.482557 1.769818,-0.482557 1.769818,-0.482558 1.769823,-0.482557 1.76981,-0.482557 1.76982,-0.482558 1.76982,-0.482557 1.76982,-0.482557 1.76982,-0.482558 1.76982,-0.482557 1.76981,-0.482557 1.76982,-0.482557 1.76982,-0.482558 1.76982,-0.482557 1.76981,-0.482557 1.76982,-0.482558 1.76982,-0.482557 1.76982,-0.482557 1.76982,-0.482558 1.76982,-0.482557 1.76981,-0.482557 1.76982,-0.482558 1.76982,-0.482557 1.76982,-0.482557 1.76982,-0.482557 1.76981,-0.482558 1.76982,-0.482557 1.76982,-0.482557 1.76982,-0.482558 1.76982,-0.482557 1.76982,-0.482557 1.76981,-0.482558 1.76982,-0.482557 1.76982,-0.482557 1.76982,-0.482558 1.76982,-0.482557 1.76981,-0.482557 1.76982,-0.482557 1.76982,-0.482558 1.76982,-0.482557 1.76982,-0.482557 1.76982,-0.482558 1.76981,-0.482557 1.76982,-0.482557 1.76982,-0.482558 1.76982,-0.482557 1.76982,-0.482557 1.76981,-0.482558 1.76982,-0.482557 1.76982,-0.482557 1.76982,-0.482557 1.76982,-0.482558 1.76982,-0.482557 1.76981,-0.482557 1.76982,-0.482558 1.76982,-0.482557 1.76982,-0.482557 1.76982,-0.482558 1.76981,-0.482557 1.76982,-0.482557 1.76982,-0.482558 1.76982,-0.482557"
       style="fill:none;stroke:#a6761d;stroke-width:1.5;stroke-linecap:square"
       id="path561" />
  </g>
  <g
     id="line2d_10">
    <path
       clip-path="url(#p87e3804796)"
       d="m -1,140.40283 0.690142,-0.4669 1.582651,-1.07072 1.582652,-1.07071 1.582652,-1.07072 1.582652,-1.07072 1.582652,-1.07071 1.582651,-1.07072 1.582652,-1.07071 1.582652,-1.07072 1.582652,-1.07072 1.582651,-1.07071 1.582652,-1.07072 1.582652,-1.07071 1.582652,-1.07072 1.582651,-1.07072 1.582652,-1.07071 1.582652,-1.07072 1.582652,-1.07071 1.582651,-1.07072 1.582652,-1.07072 1.582652,-1.07071 1.582652,-1.07072 1.582651,-1.07072 1.582652,-1.07071 1.582652,-1.07072 1.582652,-1.07071 1.582651,-1.07072 1.582652,-1.07071 1.582652,-1.07072 1.582652,-1.07072 1.582652,-1.07071 1.582651,-1.07072 1.582652,-1.07071 1.582652,-1.07072 1.582652,-1.07072 1.582651,-1.07071 1.582652,-1.07072 1.582652,-1.07072 1.582652,-1.070712 1.582651,-1.070716 1.582652,-1.070716 1.582652,-1.070716 1.582652,-1.070716 1.582651,-1.070716 1.582652,-1.070716 1.582652,-1.070716 1.582652,-1.070716 1.582651,-1.070716 1.582652,-1.070716 1.582652,-1.070716 1.582652,-1.070716 1.582651,-1.070716 1.582652,-1.070717 1.582652,-1.070716 1.582652,-1.070716 1.582652,-1.070716 1.582651,-1.070716 1.582652,-1.070716 1.582652,-1.070716 1.582652,-1.070716 1.582651,-1.070716 1.582652,-1.070716 1.582652,-1.070716 1.582652,-1.070716 1.582647,-1.070716 1.58266,-1.070716 1.58265,-1.070716 1.58265,-1.070716 1.58265,-1.070716 1.58265,-1.070717 1.58265,-1.070716"
       style="fill:none;stroke:#666666;stroke-width:1.5;stroke-linecap:square"
       id="path564" />
  </g>
  <g
     id="patch_3">
    <path
       d="M 28.26,122.25948 V 16.767015"
       style="fill:none;stroke:#000000;stroke-width:0.8;stroke-linecap:square;stroke-linejoin:miter"
       id="path567" />
  </g>
  <g
     id="patch_4">
    <path
       d="M 203.472,122.25948 V 16.767015"
       style="fill:none;stroke:#000000;stroke-width:0.8;stroke-linecap:square;stroke-linejoin:miter"
       id="path570" />
  </g>
  <g
     id="patch_5">
    <path
       d="M 28.26,122.25948 H 203.472"
       style="fill:none;stroke:#000000;stroke-width:0.8;stroke-linecap:square;stroke-linejoin:miter"
       id="path573" />
  </g>
  <g
     id="patch_6">
    <path
       d="M 28.26,16.767015 H 203.472"
       style="fill:none;stroke:#000000;stroke-width:0.8;stroke-linecap:square;stroke-linejoin:miter"
       id="path576" />
  </g>
  <g
     id="PathCollection_9">
    <defs
       id="defs583">
      <path
         d="M 0,-2.333607 -2.333607,2.333607 H 2.333607 Z"
         id="mf71004880b"
         style="stroke:#000000" />
    </defs>
    <g
       id="g587">
      <use
         style="fill:#ffffff;stroke:#000000"
         x="156.49481"
         xlink:href="#mf71004880b"
         y="96.42292"
         id="use585"
         width="100%"
         height="100%" />
    </g>
  </g>
  <g
     id="text_11">
    <!-- Positive -->
    <defs
       id="defs592">
      <path
         d="M 19.671875,64.796875 V 37.40625 h 12.40625 q 6.890625,0 10.640625,3.5625 3.765625,3.5625 3.765625,10.15625 0,6.546875 -3.765625,10.109375 -3.75,3.5625 -10.640625,3.5625 z M 9.8125,72.90625 h 22.265625 q 12.265625,0 18.53125,-5.546875 6.28125,-5.546875 6.28125,-16.234375 0,-10.796875 -6.28125,-16.3125 -6.265625,-5.515625 -18.53125,-5.515625 H 19.671875 V 0 H 9.8125 Z"
         id="DejaVuSans-80" />
      <path
         d="M 2.984375,54.6875 H 12.5 L 29.59375,8.796875 46.6875,54.6875 h 9.515625 L 35.6875,0 H 23.484375 Z"
         id="DejaVuSans-118" />
    </defs>
    <g
       transform="matrix(0.06,0,0,-0.06,167.29481,97.997921)"
       id="g610">
      <use
         xlink:href="#DejaVuSans-80"
         id="use594"
         x="0"
         y="0"
         width="100%"
         height="100%" />
      <path
         d="m 90.865234,48.390625 q -7.21875,0 -11.421875,-5.640625 -4.203125,-5.640625 -4.203125,-15.453125 0,-9.8125 4.171875,-15.453125 4.1875,-5.640625 11.453125,-5.640625 7.1875,0 11.374996,5.65625 4.20313,5.671875 4.20313,15.4375 0,9.71875 -4.20313,15.40625 -4.187496,5.6875 -11.374996,5.6875 z m 0,7.609375 q 11.718746,0 18.406246,-7.625 6.70313,-7.609375 6.70313,-21.078125 0,-13.421875 -6.70313,-21.078125 -6.6875,-7.640625 -18.406246,-7.640625 -11.765625,0 -18.4375,7.640625 -6.65625,7.65625 -6.65625,21.078125 0,13.46875 6.65625,21.078125 Q 79.099609,56 90.865234,56 Z"
         id="use596" />
      <path
         d="m 165.71875,53.078125 v -8.5 Q 161.92187,46.53125 157.8125,47.5 q -4.09375,0.984375 -8.5,0.984375 -6.6875,0 -10.03125,-2.046875 -3.34375,-2.046875 -3.34375,-6.15625 0,-3.125 2.39062,-4.90625 2.39063,-1.78125 9.625,-3.390625 l 3.07813,-0.6875 q 9.5625,-2.046875 13.59375,-5.78125 4.03125,-3.734375 4.03125,-10.421875 0,-7.625 -6.03125,-12.078125 -6.03125,-4.4375 -16.57813,-4.4375 -4.39062,0 -9.15625,0.859375 Q 132.125,0.296875 126.85938,2 v 9.28125 q 4.98437,-2.59375 9.81249,-3.890625 4.82813,-1.28125 9.57813,-1.28125 6.34375,0 9.75,2.171875 3.42187,2.171875 3.42187,6.125 0,3.65625 -2.46875,5.609375 -2.45312,1.953125 -10.8125,3.765625 l -3.125,0.734375 q -8.34375,1.75 -12.0625,5.390625 -3.70312,3.640625 -3.70312,9.984375 0,7.71875 5.46875,11.90625 Q 138.1875,56 148.25,56 q 4.96875,0 9.35937,-0.734375 4.40625,-0.71875 8.10938,-2.1875 z"
         id="use598" />
      <path
         d="m 182.95898,54.6875 h 8.98438 V 0 h -8.98438 z m 0,21.296875 h 8.98438 V 64.59375 h -8.98438 z"
         id="use600" />
      <path
         d="M 219.63281,70.21875 V 54.6875 h 18.5 v -6.984375 h -18.5 v -29.6875 q 0,-6.6875 1.82813,-8.59375 1.82812,-1.90625 7.45312,-1.90625 h 9.21875 V 0 h -9.21875 q -10.40625,0 -14.35937,3.875 -3.95313,3.890625 -3.95313,14.140625 v 29.6875 h -6.59375 V 54.6875 h 6.59375 v 15.53125 z"
         id="use602" />
      <path
         d="m 249.95117,54.6875 h 8.98438 V 0 h -8.98438 z m 0,21.296875 h 8.98438 V 64.59375 h -8.98438 z"
         id="use604" />
      <use
         x="268.3125"
         xlink:href="#DejaVuSans-118"
         id="use606"
         y="0"
         width="100%"
         height="100%" />
      <path
         d="m 383.69531,29.59375 v -4.390625 h -41.3125 q 0.59375,-9.28125 5.59375,-14.140625 5,-4.859375 13.9375,-4.859375 5.17188,0 10.03125,1.265625 4.85938,1.265625 9.65625,3.8125 v -8.5 q -4.84375,-2.046875 -9.92187,-3.125 -5.07813,-1.078125 -10.29688,-1.078125 -13.09375,0 -20.73437,7.609375 -7.64063,7.625 -7.64063,20.625 0,13.421875 7.25,21.296875 Q 347.50781,56 359.82031,56 q 11.03125,0 17.45313,-7.109375 6.42187,-7.09375 6.42187,-19.296875 z m -8.98437,2.640625 q -0.0937,7.359375 -4.125,11.75 -4.03125,4.40625 -10.67188,4.40625 -7.51562,0 -12.03125,-4.25 -4.51562,-4.25 -5.20312,-11.96875 z"
         id="use608" />
    </g>
  </g>
  <g
     id="PathCollection_10">
    <defs
       id="defs614">
      <path
         d="M 0,2.419424 2.419424,-2.419424 H -2.419424 Z"
         id="m5f666d2be7"
         style="stroke:#000000" />
    </defs>
    <g
       id="g618">
      <use
         style="fill:#ffffff;stroke:#000000"
         x="156.49481"
         xlink:href="#m5f666d2be7"
         y="105.2298"
         id="use616"
         width="100%"
         height="100%" />
    </g>
  </g>
  <g
     id="text_12">
    <!-- Negative -->
    <defs
       id="defs623">
      <path
         d="M 9.8125,72.90625 H 23.09375 L 55.421875,11.921875 V 72.90625 h 9.5625 V 0 h -13.28125 l -32.3125,60.984375 V 0 H 9.8125 Z"
         id="DejaVuSans-78" />
      <path
         d="m 45.40625,27.984375 q 0,9.765625 -4.03125,15.125 -4.015625,5.375 -11.296875,5.375 -7.21875,0 -11.25,-5.375 -4.03125,-5.359375 -4.03125,-15.125 0,-9.71875 4.03125,-15.09375 4.03125,-5.375 11.25,-5.375 7.28125,0 11.296875,5.375 4.03125,5.375 4.03125,15.09375 z M 54.390625,6.78125 q 0,-13.953125 -6.203125,-20.765625 -6.1875,-6.8125 -18.984375,-6.8125 -4.734375,0 -8.9375,0.703125 -4.203125,0.703125 -8.15625,2.171875 V -9.1875 q 3.953125,-2.140625 7.8125,-3.15625 3.859375,-1.03125 7.859375,-1.03125 8.84375,0 13.234375,4.609375 4.390625,4.609375 4.390625,13.9375 V 9.625 Q 42.625,4.78125 38.28125,2.390625 33.9375,0 27.875,0 17.828125,0 11.671875,7.65625 q -6.15625,7.671875 -6.15625,20.328125 0,12.6875 6.15625,20.34375 Q 17.828125,56 27.875,56 q 6.0625,0 10.40625,-2.390625 4.34375,-2.390625 7.125,-7.21875 V 54.6875 h 8.984375 z"
         id="DejaVuSans-103" />
    </defs>
    <g
       transform="matrix(0.06,0,0,-0.06,167.29481,106.8048)"
       id="g641">
      <use
         xlink:href="#DejaVuSans-78"
         id="use625"
         x="0"
         y="0"
         width="100%"
         height="100%" />
      <path
         d="M 131.00781,29.59375 V 25.203125 H 89.695312 q 0.59375,-9.28125 5.59375,-14.140625 4.999998,-4.859375 13.937498,-4.859375 5.17188,0 10.03125,1.265625 4.85938,1.265625 9.65625,3.8125 v -8.5 q -4.84375,-2.046875 -9.92187,-3.125 -5.07813,-1.078125 -10.29688,-1.078125 -13.093748,0 -20.734373,7.609375 -7.640625,7.625 -7.640625,20.625 0,13.421875 7.25,21.296875 Q 94.820312,56 107.13281,56 q 11.03125,0 17.45313,-7.109375 6.42187,-7.09375 6.42187,-19.296875 z m -8.98437,2.640625 q -0.0937,7.359375 -4.125,11.75 -4.03125,4.40625 -10.67188,4.40625 -7.515623,0 -12.031248,-4.25 -4.515625,-4.25 -5.203125,-11.96875 z"
         id="use627" />
      <use
         x="136.32812"
         xlink:href="#DejaVuSans-103"
         id="use629"
         y="0"
         width="100%"
         height="100%" />
      <path
         d="m 234.08594,27.484375 q -10.89063,0 -15.09375,-2.484375 -4.20313,-2.484375 -4.20313,-8.5 0,-4.78125 3.15625,-7.59375 3.15625,-2.796875 8.5625,-2.796875 7.48438,0 12,5.296875 4.51563,5.296875 4.51563,14.078125 v 2 z m 17.92187,3.71875 V 0 h -8.98437 v 8.296875 q -3.07813,-4.96875 -7.67188,-7.34375 -4.59375,-2.375 -11.23437,-2.375 -8.39063,0 -13.35938,4.71875 -4.95312,4.71875 -4.95312,12.625 0,9.21875 6.17187,13.90625 6.1875,4.6875 18.4375,4.6875 h 12.60938 v 0.890625 q 0,6.203125 -4.07813,9.59375 -4.07812,3.390625 -11.45312,3.390625 -4.6875,0 -9.14063,-1.125 -4.4375,-1.125 -8.53125,-3.375 v 8.3125 q 4.92188,1.90625 9.5625,2.84375 Q 224.02344,56 228.41406,56 q 11.875,0 17.73438,-6.15625 5.85937,-6.140625 5.85937,-18.640625 z"
         id="use631" />
      <path
         d="M 279.39648,70.21875 V 54.6875 h 18.5 v -6.984375 h -18.5 v -29.6875 q 0,-6.6875 1.82813,-8.59375 1.82812,-1.90625 7.45312,-1.90625 h 9.21875 V 0 h -9.21875 q -10.40625,0 -14.35937,3.875 -3.95313,3.890625 -3.95313,14.140625 v 29.6875 h -6.59375 V 54.6875 h 6.59375 v 15.53125 z"
         id="use633" />
      <path
         d="m 309.71484,54.6875 h 8.98438 V 0 h -8.98438 z m 0,21.296875 h 8.98438 V 64.59375 h -8.98438 z"
         id="use635" />
      <use
         x="328.07617"
         xlink:href="#DejaVuSans-118"
         id="use637"
         y="0"
         width="100%"
         height="100%" />
      <path
         d="m 443.45898,29.59375 v -4.390625 h -41.3125 q 0.59375,-9.28125 5.59375,-14.140625 5,-4.859375 13.9375,-4.859375 5.17188,0 10.03125,1.265625 4.85938,1.265625 9.65625,3.8125 v -8.5 q -4.84375,-2.046875 -9.92187,-3.125 -5.07813,-1.078125 -10.29688,-1.078125 -13.09375,0 -20.73437,7.609375 -7.64063,7.625 -7.64063,20.625 0,13.421875 7.25,21.296875 Q 407.27148,56 419.58398,56 q 11.03125,0 17.45313,-7.109375 6.42187,-7.09375 6.42187,-19.296875 z m -8.98437,2.640625 q -0.0937,7.359375 -4.125,11.75 -4.03125,4.40625 -10.67188,4.40625 -7.51562,0 -12.03125,-4.25 -4.51562,-4.25 -5.20312,-11.96875 z"
         id="use639" />
    </g>
  </g>
  <g
     id="PathCollection_11">
    <defs
       id="defs645">
      <path
         d="m -2.288875,2.288875 h 4.57775 v -4.57775 h -4.57775 z"
         id="m0d12f6b6f8"
         style="stroke:#000000" />
    </defs>
    <g
       id="g649">
      <use
         style="fill:#ffffff;stroke:#000000"
         x="156.49481"
         xlink:href="#m0d12f6b6f8"
         y="114.03667"
         id="use647"
         width="100%"
         height="100%" />
    </g>
  </g>
  <g
     id="text_13">
    <!-- Undefined -->
    <defs
       id="defs654">
      <path
         d="m 8.6875,72.90625 h 9.921875 V 28.609375 q 0,-11.71875 4.234375,-16.875 4.25,-5.140625 13.78125,-5.140625 9.46875,0 13.71875,5.140625 4.25,5.15625 4.25,16.875 V 72.90625 H 64.5 V 27.390625 q 0,-14.25 -7.0625,-21.53125 -7.046875,-7.28125 -20.8125,-7.28125 -13.828125,0 -20.890625,7.28125 Q 8.6875,13.140625 8.6875,27.390625 Z"
         id="DejaVuSans-85" />
      <path
         d="M 37.109375,75.984375 V 68.5 h -8.59375 q -4.828125,0 -6.71875,-1.953125 -1.875,-1.953125 -1.875,-7.03125 V 54.6875 H 34.71875 V 47.703125 H 19.921875 V 0 h -9.03125 V 47.703125 H 2.296875 V 54.6875 h 8.59375 V 58.5 q 0,9.125 4.25,13.296875 4.25,4.1875 13.46875,4.1875 z"
         id="DejaVuSans-102" />
    </defs>
    <g
       transform="matrix(0.06,0,0,-0.06,167.29481,115.61167)"
       id="g674">
      <use
         xlink:href="#DejaVuSans-85"
         id="use656"
         x="0"
         y="0"
         width="100%"
         height="100%" />
      <path
         d="M 128.08398,33.015625 V 0 h -8.98437 v 32.71875 q 0,7.765625 -3.03125,11.609375 -3.03125,3.859375 -9.07813,3.859375 -7.281246,0 -11.484371,-4.640625 -4.203125,-4.625 -4.203125,-12.640625 V 0 h -9.03125 v 54.6875 h 9.03125 v -8.5 q 3.234375,4.9375 7.59375,7.375 Q 103.27148,56 108.99023,56 q 9.42188,0 14.25,-5.828125 4.84375,-5.828125 4.84375,-17.15625 z"
         id="use658" />
      <path
         d="m 181.97852,46.390625 v 29.59375 h 8.98437 V 0 h -8.98437 v 8.203125 q -2.82813,-4.875 -7.15625,-7.25 -4.3125,-2.375 -10.375,-2.375 -9.90625,0 -16.14063,7.90625 -6.21875,7.921875 -6.21875,20.8125 0,12.890625 6.21875,20.796875 Q 154.54102,56 164.44727,56 q 6.0625,0 10.375,-2.375 4.32812,-2.359375 7.15625,-7.234375 z m -30.60938,-19.09375 q 0,-9.90625 4.07813,-15.546875 4.07812,-5.640625 11.20312,-5.640625 7.125,0 11.21875,5.640625 4.10938,5.640625 4.10938,15.546875 0,9.90625 -4.10938,15.546875 -4.09375,5.640625 -11.21875,5.640625 -7.125,0 -11.20312,-5.640625 -4.07813,-5.640625 -4.07813,-15.546875 z"
         id="use660" />
      <path
         d="m 256.25195,29.59375 v -4.390625 h -41.3125 q 0.59375,-9.28125 5.59375,-14.140625 5,-4.859375 13.9375,-4.859375 5.17188,0 10.03125,1.265625 4.85938,1.265625 9.65625,3.8125 v -8.5 q -4.84375,-2.046875 -9.92187,-3.125 -5.07813,-1.078125 -10.29688,-1.078125 -13.09375,0 -20.73437,7.609375 -7.64063,7.625 -7.64063,20.625 0,13.421875 7.25,21.296875 Q 220.06445,56 232.37695,56 q 11.03125,0 17.45313,-7.109375 6.42187,-7.09375 6.42187,-19.296875 z m -8.98437,2.640625 q -0.0937,7.359375 -4.125,11.75 -4.03125,4.40625 -10.67188,4.40625 -7.51562,0 -12.03125,-4.25 -4.51562,-4.25 -5.20312,-11.96875 z"
         id="use662" />
      <use
         x="261.57227"
         xlink:href="#DejaVuSans-102"
         id="use664"
         y="0"
         width="100%"
         height="100%" />
      <path
         d="m 306.19922,54.6875 h 8.98437 V 0 h -8.98437 z m 0,21.296875 h 8.98437 V 64.59375 h -8.98437 z"
         id="use666" />
      <path
         d="M 379.45117,33.015625 V 0 h -8.98437 v 32.71875 q 0,7.765625 -3.03125,11.609375 -3.03125,3.859375 -9.07813,3.859375 -7.28125,0 -11.48437,-4.640625 -4.20313,-4.625 -4.20313,-12.640625 V 0 h -9.03125 v 54.6875 h 9.03125 v -8.5 q 3.23438,4.9375 7.59375,7.375 4.375,2.4375 10.09375,2.4375 9.42188,0 14.25,-5.828125 4.84375,-5.828125 4.84375,-17.15625 z"
         id="use668" />
      <path
         d="m 444.14258,29.59375 v -4.390625 h -41.3125 q 0.59375,-9.28125 5.59375,-14.140625 5,-4.859375 13.9375,-4.859375 5.17187,0 10.03125,1.265625 4.85937,1.265625 9.65625,3.8125 v -8.5 q -4.84375,-2.046875 -9.92188,-3.125 -5.07812,-1.078125 -10.29687,-1.078125 -13.09375,0 -20.73438,7.609375 -7.64062,7.625 -7.64062,20.625 0,13.421875 7.25,21.296875 Q 407.95508,56 420.26758,56 q 11.03125,0 17.45312,-7.109375 6.42188,-7.09375 6.42188,-19.296875 z m -8.98438,2.640625 q -0.0937,7.359375 -4.125,11.75 -4.03125,4.40625 -10.67187,4.40625 -7.51563,0 -12.03125,-4.25 -4.51563,-4.25 -5.20313,-11.96875 z"
         id="use670" />
      <path
         d="m 494.86914,46.390625 v 29.59375 h 8.98438 V 0 h -8.98438 v 8.203125 q -2.82812,-4.875 -7.15625,-7.25 -4.3125,-2.375 -10.375,-2.375 -9.90625,0 -16.14062,7.90625 -6.21875,7.921875 -6.21875,20.8125 0,12.890625 6.21875,20.796875 Q 467.43164,56 477.33789,56 q 6.0625,0 10.375,-2.375 4.32813,-2.359375 7.15625,-7.234375 z m -30.60937,-19.09375 q 0,-9.90625 4.07812,-15.546875 4.07813,-5.640625 11.20313,-5.640625 7.125,0 11.21875,5.640625 4.10937,5.640625 4.10937,15.546875 0,9.90625 -4.10937,15.546875 -4.09375,5.640625 -11.21875,5.640625 -7.125,0 -11.20313,-5.640625 -4.07812,-5.640625 -4.07812,-15.546875 z"
         id="use672" />
    </g>
  </g>
  <text
     xml:space="preserve"
     id="text1629"
     style="font-size:30px;line-height:1.25;font-family:sans-serif;letter-spacing:0px;white-space:pre;shape-inside:url(#rect1631);" />
  <text
     xml:space="preserve"
     id="text1635"
     style="font-size:8px;line-height:1.25;font-family:sans-serif;letter-spacing:0px;white-space:pre;shape-inside:url(#rect1637);"
     transform="rotate(-90,-36.369148,134.5949)"><tspan
       x="-50.837891"
       y="177.23242"><tspan
         style="shape-inside:url(#rect1637)">Production rate [nmol C cell</tspan><tspan
         style="font-size:65%;baseline-shift:super;stroke-linecap:butt;stroke-linejoin:round">-1</tspan><tspan
         style="shape-inside:url(#rect1637)"> h</tspan><tspan
         style="font-size:65%;baseline-shift:super;stroke-linecap:butt;stroke-linejoin:round">-1</tspan><tspan
         style="shape-inside:url(#rect1637)">]</tspan></tspan></text>
  <text
     xml:space="preserve"
     id="text1635-3"
     style="font-size:8px;line-height:1.25;font-family:sans-serif;letter-spacing:0px;white-space:pre;shape-inside:url(#rect1637-4);stroke-linecap:butt;stroke-linejoin:round;"
     transform="translate(99.12233,-28.616564)"><tspan
       x="-50.837891"
       y="177.23242"><tspan
         style="shape-inside:url(#rect1637-4);stroke-linecap:butt;stroke-linejoin:round">Respiration rate [nmol C cell</tspan><tspan
         style="font-size:65%;baseline-shift:super;stroke-linecap:butt;stroke-linejoin:round">-1</tspan><tspan
         style="shape-inside:url(#rect1637-4);stroke-linecap:butt;stroke-linejoin:round"> h</tspan><tspan
         style="font-size:65%;baseline-shift:super;stroke-linecap:butt;stroke-linejoin:round">-1</tspan><tspan
         style="shape-inside:url(#rect1637-4);stroke-linecap:butt;stroke-linejoin:round">]</tspan></tspan></text>
</svg>
