<?xml version="1.0" encoding="UTF-8" standalone="no"?>
<svg
   xmlns:dc="http://purl.org/dc/elements/1.1/"
   xmlns:cc="http://creativecommons.org/ns#"
   xmlns:rdf="http://www.w3.org/1999/02/22-rdf-syntax-ns#"
   xmlns:svg="http://www.w3.org/2000/svg"
   xmlns="http://www.w3.org/2000/svg"
   xmlns:xlink="http://www.w3.org/1999/xlink"
   xmlns:sodipodi="http://sodipodi.sourceforge.net/DTD/sodipodi-0.dtd"
   xmlns:inkscape="http://www.inkscape.org/namespaces/inkscape"
   height="139.725124pt"
   version="1.1"
   viewBox="0 0 226.08 139.725124"
   width="226.08pt"
   id="svg859"
   sodipodi:docname="batch_rate_cue.svg"
   inkscape:version="1.0.1 (c497b03c, 2020-09-10)">
  <metadata
     id="metadata863">
    <rdf:RDF>
      <cc:Work
         rdf:about="">
        <dc:format>image/svg+xml</dc:format>
        <dc:type
           rdf:resource="http://purl.org/dc/dcmitype/StillImage" />
      </cc:Work>
    </rdf:RDF>
  </metadata>
  <sodipodi:namedview
     pagecolor="#ffffff"
     bordercolor="#666666"
     borderopacity="1"
     objecttolerance="10"
     gridtolerance="10"
     guidetolerance="10"
     inkscape:pageopacity="0"
     inkscape:pageshadow="2"
     inkscape:window-width="1208"
     inkscape:window-height="751"
     id="namedview861"
     showgrid="false"
     showguides="true"
     inkscape:guide-bbox="true"
     inkscape:zoom="2.032579"
     inkscape:cx="145.57424"
     inkscape:cy="129.85593"
     inkscape:window-x="0"
     inkscape:window-y="23"
     inkscape:window-maximized="0"
     inkscape:current-layer="svg859"
     inkscape:document-rotation="0">
    <sodipodi:guide
       position="275.70395,-9.4081472"
       orientation="0,-1"
       id="guide2253" />
    <sodipodi:guide
       position="-9.3552239,13.154451"
       orientation="1,0"
       id="guide2255" />
  </sodipodi:namedview>
  <defs
     id="defs12">
    <rect
       x="38.52151"
       y="190.95663"
       width="261.39596"
       height="47.876733"
       id="rect2443" />
    <rect
       x="41.823353"
       y="186.55417"
       width="296.61562"
       height="72.090254"
       id="rect2259" />
    <style
       type="text/css"
       id="style10">
*{stroke-linecap:butt;stroke-linejoin:round;}
  </style>
  </defs>
  <defs
     id="defs857">
    <clipPath
       id="pe766f0bfa8">
      <rect
         height="105.492469"
         width="175.212"
         x="28.26"
         y="16.767015"
         id="rect854" />
    </clipPath>
  </defs>
  <g
     id="g1340"
     inkscape:export-xdpi="300"
     inkscape:export-ydpi="300">
    <g
       id="PathCollection_1">
      <defs
         id="defs21">
        <path
           d="M 0,-3.872983 -3.872983,3.872983 H 3.872983 Z"
           id="m96aae336ca"
           style="stroke:#000000" />
      </defs>
      <g
         clip-path="url(#pe766f0bfa8)"
         id="g25">
        <use
           style="fill:#d95f02;stroke:#000000"
           x="197.12875"
           xlink:href="#m96aae336ca"
           y="72.439133"
           id="use23"
           width="100%"
           height="100%" />
      </g>
    </g>
    <g
       id="PathCollection_2">
      <defs
         id="defs29">
        <path
           d="M 0,-3.872983 -3.872983,3.872983 H 3.872983 Z"
           id="m04c2f8d3e3"
           style="stroke:#000000" />
      </defs>
      <g
         clip-path="url(#pe766f0bfa8)"
         id="g33">
        <use
           style="fill:#1b9e77;stroke:#000000"
           x="131.12892"
           xlink:href="#m04c2f8d3e3"
           y="95.918633"
           id="use31"
           width="100%"
           height="100%" />
      </g>
    </g>
    <g
       id="PathCollection_3">
      <defs
         id="defs37">
        <path
           d="M 0,-3.872983 -3.872983,3.872983 H 3.872983 Z"
           id="m014fc3b81a"
           style="stroke:#000000" />
      </defs>
      <g
         clip-path="url(#pe766f0bfa8)"
         id="g41">
        <use
           style="fill:#66a61e;stroke:#000000"
           x="189.67961"
           xlink:href="#m014fc3b81a"
           y="50.951694"
           id="use39"
           width="100%"
           height="100%" />
      </g>
    </g>
    <g
       id="PathCollection_4">
      <defs
         id="defs45">
        <path
           d="M 0,-3.872983 -3.872983,3.872983 H 3.872983 Z"
           id="meaaed5c682"
           style="stroke:#000000" />
      </defs>
      <g
         clip-path="url(#pe766f0bfa8)"
         id="g49">
        <use
           style="fill:#7570b3;stroke:#000000"
           x="178.32541"
           xlink:href="#meaaed5c682"
           y="108.11578"
           id="use47"
           width="100%"
           height="100%" />
      </g>
    </g>
    <g
       id="PathCollection_5">
      <defs
         id="defs53">
        <path
           d="M 0,-3.872983 -3.872983,3.872983 H 3.872983 Z"
           id="me1b903994c"
           style="stroke:#000000" />
      </defs>
      <g
         clip-path="url(#pe766f0bfa8)"
         id="g57">
        <use
           style="fill:#e7298a;stroke:#000000"
           x="79.137177"
           xlink:href="#me1b903994c"
           y="111.49628"
           id="use55"
           width="100%"
           height="100%" />
      </g>
    </g>
    <g
       id="PathCollection_6">
      <defs
         id="defs61">
        <path
           d="M 0,-3.872983 -3.872983,3.872983 H 3.872983 Z"
           id="md7b1b0a296"
           style="stroke:#000000" />
      </defs>
      <g
         clip-path="url(#pe766f0bfa8)"
         id="g65">
        <use
           style="fill:#e6ab02;stroke:#000000"
           x="96.910187"
           xlink:href="#md7b1b0a296"
           y="115.2807"
           id="use63"
           width="100%"
           height="100%" />
      </g>
    </g>
    <g
       id="PathCollection_7">
      <defs
         id="defs69">
        <path
           d="M 0,3.872983 3.872983,-3.872983 H -3.872983 Z"
           id="me74cab508a"
           style="stroke:#000000" />
      </defs>
      <g
         clip-path="url(#pe766f0bfa8)"
         id="g73">
        <use
           style="fill:#d95f02;stroke:#000000"
           x="144.14293"
           xlink:href="#me74cab508a"
           y="39.553032"
           id="use71"
           width="100%"
           height="100%" />
      </g>
    </g>
    <g
       id="PathCollection_8">
      <defs
         id="defs77">
        <path
           d="M 0,3.872983 3.872983,-3.872983 H -3.872983 Z"
           id="m21762db0c1"
           style="stroke:#000000" />
      </defs>
      <g
         clip-path="url(#pe766f0bfa8)"
         id="g81">
        <use
           style="fill:#1b9e77;stroke:#000000"
           x="73.084305"
           xlink:href="#m21762db0c1"
           y="103.07272"
           id="use79"
           width="100%"
           height="100%" />
      </g>
    </g>
    <g
       id="PathCollection_9">
      <defs
         id="defs85">
        <path
           d="M 0,3.872983 3.872983,-3.872983 H -3.872983 Z"
           id="m9049277b2e"
           style="stroke:#000000" />
      </defs>
      <g
         clip-path="url(#pe766f0bfa8)"
         id="g89">
        <use
           style="fill:#66a61e;stroke:#000000"
           x="134.61002"
           xlink:href="#m9049277b2e"
           y="26.684971"
           id="use87"
           width="100%"
           height="100%" />
      </g>
    </g>
    <g
       id="PathCollection_10">
      <defs
         id="defs93">
        <path
           d="M 0,3.872983 3.872983,-3.872983 H -3.872983 Z"
           id="m6a17b77f53"
           style="stroke:#000000" />
      </defs>
      <g
         clip-path="url(#pe766f0bfa8)"
         id="g97">
        <use
           style="fill:#7570b3;stroke:#000000"
           x="168.44212"
           xlink:href="#m6a17b77f53"
           y="96.65683"
           id="use95"
           width="100%"
           height="100%" />
      </g>
    </g>
    <g
       id="PathCollection_11">
      <defs
         id="defs101">
        <path
           d="M 0,3.872983 3.872983,-3.872983 H -3.872983 Z"
           id="mb594c6ca7d"
           style="stroke:#000000" />
      </defs>
      <g
         clip-path="url(#pe766f0bfa8)"
         id="g105">
        <use
           style="fill:#e7298a;stroke:#000000"
           x="33.585075"
           xlink:href="#mb594c6ca7d"
           y="107.39598"
           id="use103"
           width="100%"
           height="100%" />
      </g>
    </g>
    <g
       id="PathCollection_12">
      <defs
         id="defs109">
        <path
           d="M 0,3.872983 3.872983,-3.872983 H -3.872983 Z"
           id="m2e22e541f9"
           style="stroke:#000000" />
      </defs>
      <g
         clip-path="url(#pe766f0bfa8)"
         id="g111" />
    </g>
    <g
       id="PathCollection_13">
      <defs
         id="defs115">
        <path
           d="M -3.872983,3.872983 H 3.872983 V -3.872983 H -3.872983 Z"
           id="mafe07732c3"
           style="stroke:#000000" />
      </defs>
      <g
         clip-path="url(#pe766f0bfa8)"
         id="g119">
        <use
           style="fill:#d95f02;stroke:#000000"
           x="165.94289"
           xlink:href="#mafe07732c3"
           y="44.761204"
           id="use117"
           width="100%"
           height="100%" />
      </g>
    </g>
    <g
       id="PathCollection_14">
      <defs
         id="defs123">
        <path
           d="M -3.872983,3.872983 H 3.872983 V -3.872983 H -3.872983 Z"
           id="m1e977a93fa"
           style="stroke:#000000" />
      </defs>
      <g
         clip-path="url(#pe766f0bfa8)"
         id="g127">
        <use
           style="fill:#1b9e77;stroke:#000000"
           x="97.942314"
           xlink:href="#m1e977a93fa"
           y="104.43706"
           id="use125"
           width="100%"
           height="100%" />
      </g>
    </g>
    <g
       id="PathCollection_15">
      <defs
         id="defs131">
        <path
           d="M -3.872983,3.872983 H 3.872983 V -3.872983 H -3.872983 Z"
           id="m78a6f27961"
           style="stroke:#000000" />
      </defs>
      <g
         clip-path="url(#pe766f0bfa8)"
         id="g135">
        <use
           style="fill:#66a61e;stroke:#000000"
           x="152.36052"
           xlink:href="#m78a6f27961"
           y="41.714088"
           id="use133"
           width="100%"
           height="100%" />
      </g>
    </g>
    <g
       id="PathCollection_16">
      <defs
         id="defs139">
        <path
           d="M -3.872983,3.872983 H 3.872983 V -3.872983 H -3.872983 Z"
           id="mbad065dc8f"
           style="stroke:#000000" />
      </defs>
      <g
         clip-path="url(#pe766f0bfa8)"
         id="g143">
        <use
           style="fill:#7570b3;stroke:#000000"
           x="175.13144"
           xlink:href="#mbad065dc8f"
           y="100.02795"
           id="use141"
           width="100%"
           height="100%" />
      </g>
    </g>
    <g
       id="PathCollection_17">
      <defs
         id="defs147">
        <path
           d="M -3.872983,3.872983 H 3.872983 V -3.872983 H -3.872983 Z"
           id="m4573e10c11"
           style="stroke:#000000" />
      </defs>
      <g
         clip-path="url(#pe766f0bfa8)"
         id="g151">
        <use
           style="fill:#e7298a;stroke:#000000"
           x="103.83085"
           xlink:href="#m4573e10c11"
           y="111.60816"
           id="use149"
           width="100%"
           height="100%" />
      </g>
    </g>
    <g
       id="PathCollection_18">
      <defs
         id="defs155">
        <path
           d="M -3.872983,3.872983 H 3.872983 V -3.872983 H -3.872983 Z"
           id="m06aba11348"
           style="stroke:#000000" />
      </defs>
      <g
         clip-path="url(#pe766f0bfa8)"
         id="g159">
        <use
           style="fill:#e6ab02;stroke:#000000"
           x="81.936211"
           xlink:href="#m06aba11348"
           y="103.52256"
           id="use157"
           width="100%"
           height="100%" />
      </g>
    </g>
    <g
       id="PathCollection_19">
      <defs
         id="defs163">
        <path
           id="mb0067f72e5"
           style="stroke:#1f77b4;stroke-width:1.5;stroke-opacity:0.8"
           d="" />
      </defs>
      <g
         clip-path="url(#pe766f0bfa8)"
         id="g175">
        <use
           style="fill:#1f77b4;fill-opacity:0.8;stroke:#1f77b4;stroke-width:1.5;stroke-opacity:0.8"
           x="134.61002"
           xlink:href="#mb0067f72e5"
           y="26.684971"
           id="use165"
           width="100%"
           height="100%" />
        <use
           style="fill:#1f77b4;fill-opacity:0.8;stroke:#1f77b4;stroke-width:1.5;stroke-opacity:0.8"
           x="144.14293"
           xlink:href="#mb0067f72e5"
           y="39.553032"
           id="use167"
           width="100%"
           height="100%" />
        <use
           style="fill:#1f77b4;fill-opacity:0.8;stroke:#1f77b4;stroke-width:1.5;stroke-opacity:0.8"
           x="189.67961"
           xlink:href="#mb0067f72e5"
           y="50.951694"
           id="use169"
           width="100%"
           height="100%" />
        <use
           style="fill:#1f77b4;fill-opacity:0.8;stroke:#1f77b4;stroke-width:1.5;stroke-opacity:0.8"
           x="152.36052"
           xlink:href="#mb0067f72e5"
           y="41.714088"
           id="use171"
           width="100%"
           height="100%" />
        <use
           style="fill:#1f77b4;fill-opacity:0.8;stroke:#1f77b4;stroke-width:1.5;stroke-opacity:0.8"
           x="165.94289"
           xlink:href="#mb0067f72e5"
           y="44.761204"
           id="use173"
           width="100%"
           height="100%" />
      </g>
    </g>
    <g
       id="PolyCollection_1">
      <path
         clip-path="url(#pe766f0bfa8)"
         d="m 134.61001,26.684971 v 10.706396 l 0.55626,0.131146 0.55626,0.131145 0.55626,0.131146 0.55625,0.131146 0.55626,0.131145 0.55626,0.131146 0.55626,0.131145 0.55626,0.131146 0.55626,0.131146 0.55626,0.131145 0.55626,0.132077 0.55625,0.137691 0.55626,0.137691 0.55626,0.137691 0.55626,0.137691 0.55626,0.13769 0.55626,0.137691 0.55626,0.137691 0.55625,0.137691 0.55626,0.137691 0.55626,0.137691 0.55626,0.13769 0.55626,0.137691 0.55626,0.137691 0.55626,0.226821 0.55626,0.124793 0.55625,0.124793 0.55626,0.499938 0.55626,0.513284 0.55626,0.513283 0.55626,0.513283 0.55626,0.513284 0.55626,0.513283 0.55625,0.513283 0.55626,0.513284 0.55626,0.513283 0.55626,0.513284 0.55626,0.513283 0.55626,0.513283 0.55626,0.513284 0.55626,0.513283 0.55625,0.513283 0.55626,0.513284 0.55626,0.513283 0.55626,0.513283 0.55626,0.513284 0.55626,0.513283 0.55626,0.513284 0.55625,0.513283 0.55626,0.513283 0.55626,0.513284 0.55626,0.513283 0.55626,0.513283 0.55626,0.513284 0.55626,0.513283 0.55626,0.513283 0.55625,0.513284 0.55626,0.513283 0.55626,0.513283 0.55626,0.513284 0.55626,0.513283 0.55626,0.513284 0.55626,0.513283 0.55625,0.513283 0.55626,0.513284 0.55626,0.513283 0.55626,0.513283 0.55626,0.513284 0.55626,0.513283 0.55626,0.513283 0.55625,0.513284 0.55626,0.513283 0.55626,0.509113 0.55626,0.4843 0.55626,0.484299 0.55626,0.484299 0.55626,0.4843 0.55626,0.484299 0.55625,0.484299 0.55626,0.4843 0.55626,0.484299 0.55626,0.4843 0.55626,0.484299 0.55626,0.484299 0.55626,0.4843 0.55625,0.484299 0.55626,0.4843 0.55626,0.484299 0.55626,0.484299 0.55626,0.4843 0.55626,0.484299 0.55626,0.4843 0.55626,0.484299 0.55625,0.484299 0.55626,0.4843 0.55626,0.484299 0.55626,0.4843 0.55626,0.484299 0.55626,0.484299 v -26.854497 0 l -0.55626,-0.132894 -0.55626,-0.132895 -0.55626,-0.132894 -0.55626,-0.132895 -0.55626,-0.174415 -0.55625,-0.136364 -0.55626,-0.130608 -0.55626,-0.130608 -0.55626,-0.130608 -0.55626,-0.130607 -0.55626,-0.130608 -0.55626,-0.154038 -0.55626,-0.205359 -0.55625,-0.209091 -0.55626,-0.224026 -0.55626,-0.224026 -0.55626,-0.224027 -0.55626,-0.224026 -0.55626,-0.224026 -0.55626,-0.224026 -0.55625,-0.224027 -0.55626,-0.224026 -0.55626,-0.224026 -0.55626,-0.224026 -0.55626,-0.224027 -0.55626,-0.224026 -0.55626,-0.224026 -0.55626,-0.224026 -0.55625,-0.224027 -0.55626,-0.224026 -0.55626,-0.224026 -0.55626,-0.224026 -0.55626,-0.233537 -0.55626,-0.235025 -0.55626,-0.235026 -0.55625,-0.235026 -0.55626,-0.251527 -0.55626,-0.258354 -0.55626,-0.258354 -0.55626,-0.258354 -0.55626,-0.258354 -0.55626,-0.258354 -0.55625,-0.258354 -0.55626,-0.258354 -0.55626,-0.258354 -0.55626,-0.258354 -0.55626,-0.258355 -0.55626,-0.258354 -0.55626,-0.258354 -0.55626,-0.258354 -0.55625,-0.258354 -0.55626,-0.258354 -0.55626,-0.258354 -0.55626,-0.258354 -0.55626,-0.258354 -0.55626,-0.258354 -0.55626,-0.258354 -0.55625,-0.258355 -0.55626,-0.258354 -0.55626,-0.258354 -0.55626,-0.258354 -0.55626,-0.258354 -0.55626,-0.258354 -0.55626,-0.258354 -0.55626,-0.258354 -0.55625,-0.258354 -0.55626,-0.258354 -0.55626,-0.258354 -0.55626,-0.258355 -0.55626,-0.258354 -0.55626,-0.258354 -0.55626,-0.258354 -0.55625,-0.250247 -0.55626,-0.247488 -0.55626,-0.247489 -0.55626,-0.247489 -0.55626,-0.247489 -0.55626,-0.247488 -0.55626,-0.247489 -0.55626,-0.247489 -0.55625,-0.247488 -0.55626,-0.247489 -0.55626,-0.247489 -0.55626,-0.247489 -0.55626,-0.247488 -0.55626,-0.247489 -0.55626,-0.247489 -0.55625,-0.247488 -0.55626,-0.247489 -0.55626,-0.319968 -0.55626,-0.320911 -0.55626,-0.316137 -0.55626,-0.258354 -0.55626,-0.258354 -0.55626,-0.258354 -0.55625,-0.258354 -0.55626,-0.275781 -0.55626,-0.470977 z"
         style="fill:#a6761d;fill-opacity:0.15"
         id="path178" />
    </g>
    <g
       id="PathCollection_20">
      <defs
         id="defs182">
        <path
           id="ma2d686249b"
           style="stroke:#ff7f0e;stroke-width:1.5;stroke-opacity:0.8"
           d="" />
      </defs>
      <g
         clip-path="url(#pe766f0bfa8)"
         id="g210">
        <use
           style="fill:#ff7f0e;fill-opacity:0.8;stroke:#ff7f0e;stroke-width:1.5;stroke-opacity:0.8"
           x="-1"
           xlink:href="#ma2d686249b"
           y="112.40031"
           id="use184"
           width="100%"
           height="100%" />
        <use
           style="fill:#ff7f0e;fill-opacity:0.8;stroke:#ff7f0e;stroke-width:1.5;stroke-opacity:0.8"
           x="168.44212"
           xlink:href="#ma2d686249b"
           y="96.65683"
           id="use186"
           width="100%"
           height="100%" />
        <use
           style="fill:#ff7f0e;fill-opacity:0.8;stroke:#ff7f0e;stroke-width:1.5;stroke-opacity:0.8"
           x="33.585075"
           xlink:href="#ma2d686249b"
           y="107.39598"
           id="use188"
           width="100%"
           height="100%" />
        <use
           style="fill:#ff7f0e;fill-opacity:0.8;stroke:#ff7f0e;stroke-width:1.5;stroke-opacity:0.8"
           x="73.084305"
           xlink:href="#ma2d686249b"
           y="103.07272"
           id="use190"
           width="100%"
           height="100%" />
        <use
           style="fill:#ff7f0e;fill-opacity:0.8;stroke:#ff7f0e;stroke-width:1.5;stroke-opacity:0.8"
           x="96.910187"
           xlink:href="#ma2d686249b"
           y="115.2807"
           id="use192"
           width="100%"
           height="100%" />
        <use
           style="fill:#ff7f0e;fill-opacity:0.8;stroke:#ff7f0e;stroke-width:1.5;stroke-opacity:0.8"
           x="178.32541"
           xlink:href="#ma2d686249b"
           y="108.11578"
           id="use194"
           width="100%"
           height="100%" />
        <use
           style="fill:#ff7f0e;fill-opacity:0.8;stroke:#ff7f0e;stroke-width:1.5;stroke-opacity:0.8"
           x="79.137177"
           xlink:href="#ma2d686249b"
           y="111.49628"
           id="use196"
           width="100%"
           height="100%" />
        <use
           style="fill:#ff7f0e;fill-opacity:0.8;stroke:#ff7f0e;stroke-width:1.5;stroke-opacity:0.8"
           x="131.12892"
           xlink:href="#ma2d686249b"
           y="95.918633"
           id="use198"
           width="100%"
           height="100%" />
        <use
           style="fill:#ff7f0e;fill-opacity:0.8;stroke:#ff7f0e;stroke-width:1.5;stroke-opacity:0.8"
           x="197.12875"
           xlink:href="#ma2d686249b"
           y="72.439133"
           id="use200"
           width="100%"
           height="100%" />
        <use
           style="fill:#ff7f0e;fill-opacity:0.8;stroke:#ff7f0e;stroke-width:1.5;stroke-opacity:0.8"
           x="81.936211"
           xlink:href="#ma2d686249b"
           y="103.52256"
           id="use202"
           width="100%"
           height="100%" />
        <use
           style="fill:#ff7f0e;fill-opacity:0.8;stroke:#ff7f0e;stroke-width:1.5;stroke-opacity:0.8"
           x="175.13144"
           xlink:href="#ma2d686249b"
           y="100.02795"
           id="use204"
           width="100%"
           height="100%" />
        <use
           style="fill:#ff7f0e;fill-opacity:0.8;stroke:#ff7f0e;stroke-width:1.5;stroke-opacity:0.8"
           x="103.83085"
           xlink:href="#ma2d686249b"
           y="111.60816"
           id="use206"
           width="100%"
           height="100%" />
        <use
           style="fill:#ff7f0e;fill-opacity:0.8;stroke:#ff7f0e;stroke-width:1.5;stroke-opacity:0.8"
           x="97.942314"
           xlink:href="#ma2d686249b"
           y="104.43706"
           id="use208"
           width="100%"
           height="100%" />
      </g>
    </g>
    <g
       id="PolyCollection_2">
      <path
         clip-path="url(#pe766f0bfa8)"
         d="m -31.982739,109.93186 v 24.84255 l 2.314258,-0.522 2.314257,-0.52201 2.314257,-0.522 2.314258,-0.522 2.314257,-0.52205 2.314258,-0.52224 2.314257,-0.52224 2.314258,-0.52224 2.314257,-0.52224 2.314258,-0.52225 2.314257,-0.52224 2.314258,-0.52224 2.314257,-0.52224 2.314258,-0.52224 2.314257,-0.52224 2.314258,-0.52225 2.314257,-0.52224 2.314258,-0.52058 2.314257,-0.52241 2.314257,-0.55858 2.314258,-0.4835 2.314257,-0.53438 2.314258,-0.49126 2.314257,-0.3999 2.314258,-0.40477 2.314257,-0.61564 2.314258,-0.6228 2.314257,-0.48937 2.314258,-0.44725 2.314257,-0.44725 2.314258,-0.44724 2.314257,-0.44725 2.314258,-0.36328 2.314257,-0.45649 2.314257,-0.37841 2.314258,-0.33558 2.314257,-0.45686 2.314258,-0.44002 2.314257,-0.36989 2.314258,-0.37255 2.314257,-0.37348 2.314258,-0.43777 2.314257,-0.57574 2.314258,-0.57876 2.314257,-0.53101 2.314258,-0.40667 2.314257,-0.51187 2.314258,-0.41653 2.314257,-0.26878 2.314257,-0.335 2.314258,-0.37988 2.314257,-0.35619 2.314258,-0.31006 2.314257,-0.49258 2.314258,-0.3472 2.314257,-0.26838 2.314258,-0.18188 2.314253,-0.13253 2.31426,-0.23659 2.31426,-0.26816 2.31426,-0.19059 2.31425,-0.14001 2.31426,-0.10049 2.31426,-0.10507 2.31426,-0.0922 2.31425,-0.1009 2.31426,-0.12376 2.31426,-0.14314 2.31426,-0.11332 2.31425,-0.11415 2.31426,-0.11124 2.31426,-0.10222 2.31426,-0.0974 2.31425,-0.0802 2.31426,-0.0449 2.31426,-0.10752 2.31426,-0.10822 2.31425,-0.0715 2.31426,-0.0503 2.31426,-0.0698 2.31426,-0.1213 2.31425,-0.12161 2.31426,-0.12249 2.31426,-0.12249 2.31426,-0.0579 2.31425,-0.0406 2.31426,-0.0406 2.31426,-0.0406 2.31426,-0.092 2.31425,-0.0997 2.31426,-0.10787 2.31426,-0.0797 2.31426,-0.0947 2.31425,-0.0947 2.31426,-0.0947 2.31426,-0.073 2.31425,-0.041 2.31426,-0.12422 2.31426,-0.0352 v -22.519909 0 l -2.31426,0.44435 -2.31426,0.439644 -2.31425,0.563311 -2.31426,0.615522 -2.31426,0.519587 -2.31425,0.572867 -2.31426,0.57886 -2.31426,0.537111 -2.31426,0.480956 -2.31425,0.455098 -2.31426,0.376919 -2.31426,0.376919 -2.31426,0.376919 -2.31425,0.507545 -2.31426,0.516291 -2.31426,0.445942 -2.31426,0.442687 -2.31425,0.414488 -2.31426,0.425902 -2.31426,0.481555 -2.31426,0.429299 -2.31425,0.410337 -2.31426,0.480816 -2.31426,0.376979 -2.31426,0.400935 -2.31425,0.402426 -2.31426,0.380391 -2.31426,0.475417 -2.31426,0.510573 -2.31425,0.411046 -2.31426,0.444147 -2.31426,0.363319 -2.31426,0.376905 -2.31425,0.347295 -2.31426,0.376037 -2.31426,0.373081 -2.31426,0.369847 -2.31425,0.34479 -2.31426,0.390296 -2.31426,0.388156 -2.31426,0.399794 -2.314253,0.35313 -2.314258,0.33496 -2.314257,0.33574 -2.314258,0.38302 -2.314257,0.32997 -2.314258,0.34476 -2.314257,0.33902 -2.314258,0.37261 -2.314257,0.33515 -2.314257,0.25375 -2.314258,0.33005 -2.314257,0.37472 -2.314258,0.3652 -2.314257,0.30396 -2.314258,0.28086 -2.314257,0.28888 -2.314258,0.25517 -2.314257,0.16468 -2.314258,0.2506 -2.314257,0.17153 -2.314258,0.20516 -2.314257,0.2982 -2.314258,0.16883 -2.314257,0.24556 -2.314257,0.14033 -2.314258,0.12647 -2.314257,0.0626 -2.314258,0.15893 -2.314257,0.10588 -2.314258,0.10028 -2.314257,0.10352 -2.314258,0.0921 -2.314257,0.11766 -2.314258,0.0943 -2.314257,0.14366 -2.314258,0.0871 -2.314257,0.0483 -2.314258,0.0483 -2.314257,0.0485 -2.314257,0.0571 -2.314258,0.0922 -2.314257,0.0923 -2.314258,0.0926 -2.314257,0.0926 -2.314258,0.0926 -2.314257,0.0937 -2.314258,0.0937 -2.314257,0.0937 -2.314258,0.0937 -2.314257,0.0937 -2.314258,0.0937 -2.314257,0.0541 -2.314258,0.0938 -2.314257,0.0581 -2.314258,0.10881 -2.314257,0.11536 -2.314257,0.0691 z"
         style="fill:#666666;fill-opacity:0.15"
         id="path213" />
    </g>
    <g
       id="xtick_1">
      <g
         id="line2d_1">
        <defs
           id="defs217">
          <path
             d="M 0,0 V 3.5"
             id="m81a7c2f8ee"
             style="stroke:#000000;stroke-width:0.8" />
        </defs>
        <g
           id="g221">
          <use
             style="stroke:#000000;stroke-width:0.8"
             x="28.26"
             xlink:href="#m81a7c2f8ee"
             y="122.25948"
             id="use219"
             width="100%"
             height="100%" />
        </g>
      </g>
      <g
         id="text_1">
        <!-- 0.3 -->
        <defs
           id="defs227">
          <path
             d="m 31.78125,66.40625 q -7.609375,0 -11.453125,-7.5 Q 16.5,51.421875 16.5,36.375 q 0,-14.984375 3.828125,-22.484375 3.84375,-7.5 11.453125,-7.5 7.671875,0 11.5,7.5 3.84375,7.5 3.84375,22.484375 0,15.046875 -3.84375,22.53125 -3.828125,7.5 -11.5,7.5 z m 0,7.8125 q 12.265625,0 18.734375,-9.703125 6.46875,-9.6875 6.46875,-28.140625 0,-18.40625 -6.46875,-28.109375 -6.46875,-9.6875 -18.734375,-9.6875 -12.25,0 -18.71875,9.6875 Q 6.59375,17.96875 6.59375,36.375 q 0,18.453125 6.46875,28.140625 6.46875,9.703125 18.71875,9.703125 z"
             id="DejaVuSans-48" />
          <path
             d="M 10.6875,12.40625 H 21 V 0 H 10.6875 Z"
             id="DejaVuSans-46" />
          <path
             d="M 40.578125,39.3125 Q 47.65625,37.796875 51.625,33 q 3.984375,-4.78125 3.984375,-11.8125 0,-10.78125 -7.421875,-16.703125 -7.421875,-5.90625 -21.09375,-5.90625 -4.578125,0 -9.4375,0.90625 -4.859375,0.90625 -10.03125,2.71875 v 9.515625 q 4.09375,-2.390625 8.96875,-3.609375 4.890625,-1.21875 10.21875,-1.21875 9.265625,0 14.125,3.65625 4.859375,3.65625 4.859375,10.640625 0,6.453125 -4.515625,10.078125 -4.515625,3.640625 -12.5625,3.640625 h -8.5 v 8.109375 h 8.890625 q 7.265625,0 11.125,2.90625 3.859375,2.90625 3.859375,8.375 0,5.609375 -3.984375,8.609375 -3.96875,3.015625 -11.390625,3.015625 -4.0625,0 -8.703125,-0.890625 Q 15.375,64.15625 9.8125,62.3125 v 8.78125 q 5.625,1.5625 10.53125,2.34375 4.90625,0.78125 9.25,0.78125 11.234375,0 17.765625,-5.109375 6.546875,-5.09375 6.546875,-13.78125 0,-6.0625 -3.46875,-10.234375 -3.46875,-4.171875 -9.859375,-5.78125 z"
             id="DejaVuSans-51" />
        </defs>
        <g
           transform="matrix(0.08,0,0,-0.08,21.89875,135.33823)"
           id="g235">
          <use
             xlink:href="#DejaVuSans-48"
             id="use229"
             x="0"
             y="0"
             width="100%"
             height="100%" />
          <use
             x="63.623047"
             xlink:href="#DejaVuSans-46"
             id="use231"
             y="0"
             width="100%"
             height="100%" />
          <use
             x="95.410156"
             xlink:href="#DejaVuSans-51"
             id="use233"
             y="0"
             width="100%"
             height="100%" />
        </g>
      </g>
    </g>
    <g
       id="xtick_2">
      <g
         id="line2d_2">
        <g
           id="g241">
          <use
             style="stroke:#000000;stroke-width:0.8"
             x="86.664001"
             xlink:href="#m81a7c2f8ee"
             y="122.25948"
             id="use239"
             width="100%"
             height="100%" />
        </g>
      </g>
      <g
         id="text_2">
        <!-- 0.4 -->
        <defs
           id="defs245">
          <path
             d="M 37.796875,64.3125 12.890625,25.390625 h 24.90625 z m -2.59375,8.59375 h 12.40625 V 25.390625 h 10.40625 V 17.1875 H 47.609375 V 0 h -9.8125 V 17.1875 H 4.890625 v 9.515625 z"
             id="DejaVuSans-52" />
        </defs>
        <g
           transform="matrix(0.08,0,0,-0.08,80.30275,135.33823)"
           id="g253">
          <use
             xlink:href="#DejaVuSans-48"
             id="use247"
             x="0"
             y="0"
             width="100%"
             height="100%" />
          <use
             x="63.623047"
             xlink:href="#DejaVuSans-46"
             id="use249"
             y="0"
             width="100%"
             height="100%" />
          <use
             x="95.410156"
             xlink:href="#DejaVuSans-52"
             id="use251"
             y="0"
             width="100%"
             height="100%" />
        </g>
      </g>
    </g>
    <g
       id="xtick_3">
      <g
         id="line2d_3">
        <g
           id="g259">
          <use
             style="stroke:#000000;stroke-width:0.8"
             x="145.06799"
             xlink:href="#m81a7c2f8ee"
             y="122.25948"
             id="use257"
             width="100%"
             height="100%" />
        </g>
      </g>
      <g
         id="text_3">
        <!-- 0.5 -->
        <defs
           id="defs263">
          <path
             d="m 10.796875,72.90625 h 38.71875 v -8.3125 h -29.6875 V 46.734375 q 2.140625,0.734375 4.28125,1.09375 2.15625,0.359375 4.3125,0.359375 Q 40.625,48.1875 47.75,41.5 54.890625,34.8125 54.890625,23.390625 54.890625,11.625 47.5625,5.09375 40.234375,-1.421875 26.90625,-1.421875 q -4.59375,0 -9.359375,0.78125 -4.75,0.78125 -9.828125,2.34375 V 11.625 q 4.390625,-2.390625 9.078125,-3.5625 4.6875,-1.171875 9.90625,-1.171875 8.453125,0 13.375,4.4375 4.9375,4.4375 4.9375,12.0625 0,7.609375 -4.9375,12.046875 -4.921875,4.453125 -13.375,4.453125 -3.953125,0 -7.890625,-0.875 -3.921875,-0.875 -8.015625,-2.734375 z"
             id="DejaVuSans-53" />
        </defs>
        <g
           transform="matrix(0.08,0,0,-0.08,138.70675,135.33823)"
           id="g271">
          <use
             xlink:href="#DejaVuSans-48"
             id="use265"
             x="0"
             y="0"
             width="100%"
             height="100%" />
          <use
             x="63.623047"
             xlink:href="#DejaVuSans-46"
             id="use267"
             y="0"
             width="100%"
             height="100%" />
          <use
             x="95.410156"
             xlink:href="#DejaVuSans-53"
             id="use269"
             y="0"
             width="100%"
             height="100%" />
        </g>
      </g>
    </g>
    <g
       id="xtick_4">
      <g
         id="line2d_4">
        <g
           id="g277">
          <use
             style="stroke:#000000;stroke-width:0.8"
             x="203.472"
             xlink:href="#m81a7c2f8ee"
             y="122.25948"
             id="use275"
             width="100%"
             height="100%" />
        </g>
      </g>
      <g
         id="text_4">
        <!-- 0.6 -->
        <defs
           id="defs281">
          <path
             d="m 33.015625,40.375 q -6.640625,0 -10.53125,-4.546875 -3.875,-4.53125 -3.875,-12.4375 0,-7.859375 3.875,-12.4375 3.890625,-4.5625 10.53125,-4.5625 6.640625,0 10.515625,4.5625 3.875,4.578125 3.875,12.4375 0,7.90625 -3.875,12.4375 Q 39.65625,40.375 33.015625,40.375 Z M 52.59375,71.296875 V 62.3125 q -3.71875,1.75 -7.5,2.671875 -3.78125,0.9375 -7.5,0.9375 -9.765625,0 -14.921875,-6.59375 -5.140625,-6.59375 -5.875,-19.921875 2.875,4.25 7.21875,6.515625 4.359375,2.265625 9.578125,2.265625 10.984375,0 17.359375,-6.671875 6.375,-6.65625 6.375,-18.125 0,-11.234375 -6.640625,-18.03125 -6.640625,-6.78125 -17.671875,-6.78125 -12.65625,0 -19.34375,9.6875 -6.6875,9.703125 -6.6875,28.109375 0,17.28125 8.203125,27.5625 8.203125,10.28125 22.015625,10.28125 3.71875,0 7.5,-0.734375 3.78125,-0.734375 7.890625,-2.1875 z"
             id="DejaVuSans-54" />
        </defs>
        <g
           transform="matrix(0.08,0,0,-0.08,197.11075,135.33823)"
           id="g289">
          <use
             xlink:href="#DejaVuSans-48"
             id="use283"
             x="0"
             y="0"
             width="100%"
             height="100%" />
          <use
             x="63.623047"
             xlink:href="#DejaVuSans-46"
             id="use285"
             y="0"
             width="100%"
             height="100%" />
          <use
             x="95.410156"
             xlink:href="#DejaVuSans-54"
             id="use287"
             y="0"
             width="100%"
             height="100%" />
        </g>
      </g>
    </g>
    <g
       id="ytick_1">
      <g
         id="line2d_5">
        <defs
           id="defs367">
          <path
             d="M 0,0 H -3.5"
             id="m06fcba6ea5"
             style="stroke:#000000;stroke-width:0.8" />
        </defs>
        <g
           id="g371">
          <use
             style="stroke:#000000;stroke-width:0.8"
             x="28.26"
             xlink:href="#m06fcba6ea5"
             y="117.23603"
             id="use369"
             width="100%"
             height="100%" />
        </g>
      </g>
      <g
         id="text_6">
        <!-- 0.01 -->
        <defs
           id="defs375">
          <path
             d="m 12.40625,8.296875 h 16.109375 v 55.625 L 10.984375,60.40625 v 8.984375 l 17.4375,3.515625 H 38.28125 V 8.296875 H 54.390625 V 0 H 12.40625 Z"
             id="DejaVuSans-49" />
        </defs>
        <g
           transform="matrix(0.08,0,0,-0.08,3.4475,120.27541)"
           id="g385">
          <use
             xlink:href="#DejaVuSans-48"
             id="use377"
             x="0"
             y="0"
             width="100%"
             height="100%" />
          <use
             x="63.623047"
             xlink:href="#DejaVuSans-46"
             id="use379"
             y="0"
             width="100%"
             height="100%" />
          <use
             x="95.410156"
             xlink:href="#DejaVuSans-48"
             id="use381"
             y="0"
             width="100%"
             height="100%" />
          <use
             x="159.0332"
             xlink:href="#DejaVuSans-49"
             id="use383"
             y="0"
             width="100%"
             height="100%" />
        </g>
      </g>
    </g>
    <g
       id="ytick_2">
      <g
         id="line2d_6">
        <g
           id="g391">
          <use
             style="stroke:#000000;stroke-width:0.8"
             x="28.26"
             xlink:href="#m06fcba6ea5"
             y="98.398094"
             id="use389"
             width="100%"
             height="100%" />
        </g>
      </g>
      <g
         id="text_7">
        <!-- 0.02 -->
        <defs
           id="defs395">
          <path
             d="M 19.1875,8.296875 H 53.609375 V 0 H 7.328125 v 8.296875 q 5.609375,5.8125 15.296875,15.59375 9.703125,9.796875 12.1875,12.640625 4.734375,5.3125 6.609375,9 1.890625,3.6875 1.890625,7.25 0,5.8125 -4.078125,9.46875 -4.078125,3.671875 -10.625,3.671875 -4.640625,0 -9.796875,-1.609375 -5.140625,-1.609375 -11,-4.890625 v 9.96875 Q 13.765625,71.78125 18.9375,73 q 5.1875,1.21875 9.484375,1.21875 11.328125,0 18.0625,-5.671875 6.734375,-5.65625 6.734375,-15.125 0,-4.5 -1.6875,-8.53125 Q 49.859375,40.875 45.40625,35.40625 44.1875,33.984375 37.640625,27.21875 31.109375,20.453125 19.1875,8.296875 Z"
             id="DejaVuSans-50" />
        </defs>
        <g
           transform="matrix(0.08,0,0,-0.08,3.4475,101.43747)"
           id="g405">
          <use
             xlink:href="#DejaVuSans-48"
             id="use397"
             x="0"
             y="0"
             width="100%"
             height="100%" />
          <use
             x="63.623047"
             xlink:href="#DejaVuSans-46"
             id="use399"
             y="0"
             width="100%"
             height="100%" />
          <use
             x="95.410156"
             xlink:href="#DejaVuSans-48"
             id="use401"
             y="0"
             width="100%"
             height="100%" />
          <use
             x="159.0332"
             xlink:href="#DejaVuSans-50"
             id="use403"
             y="0"
             width="100%"
             height="100%" />
        </g>
      </g>
    </g>
    <g
       id="ytick_3">
      <g
         id="line2d_7">
        <g
           id="g411">
          <use
             style="stroke:#000000;stroke-width:0.8"
             x="28.26"
             xlink:href="#m06fcba6ea5"
             y="73.280838"
             id="use409"
             width="100%"
             height="100%" />
        </g>
      </g>
      <g
         id="text_8">
        <!-- 0.04 -->
        <g
           transform="matrix(0.08,0,0,-0.08,3.4475,76.320212)"
           id="g422">
          <use
             xlink:href="#DejaVuSans-48"
             id="use414"
             x="0"
             y="0"
             width="100%"
             height="100%" />
          <use
             x="63.623047"
             xlink:href="#DejaVuSans-46"
             id="use416"
             y="0"
             width="100%"
             height="100%" />
          <use
             x="95.410156"
             xlink:href="#DejaVuSans-48"
             id="use418"
             y="0"
             width="100%"
             height="100%" />
          <use
             x="159.0332"
             xlink:href="#DejaVuSans-52"
             id="use420"
             y="0"
             width="100%"
             height="100%" />
        </g>
      </g>
    </g>
    <g
       id="ytick_4">
      <g
         id="line2d_8">
        <g
           id="g428">
          <use
             style="stroke:#000000;stroke-width:0.8"
             x="28.26"
             xlink:href="#m06fcba6ea5"
             y="48.163582"
             id="use426"
             width="100%"
             height="100%" />
        </g>
      </g>
      <g
         id="text_9">
        <!-- 0.06 -->
        <g
           transform="matrix(0.08,0,0,-0.08,3.4475,51.202958)"
           id="g439">
          <use
             xlink:href="#DejaVuSans-48"
             id="use431"
             x="0"
             y="0"
             width="100%"
             height="100%" />
          <use
             x="63.623047"
             xlink:href="#DejaVuSans-46"
             id="use433"
             y="0"
             width="100%"
             height="100%" />
          <use
             x="95.410156"
             xlink:href="#DejaVuSans-48"
             id="use435"
             y="0"
             width="100%"
             height="100%" />
          <use
             x="159.0332"
             xlink:href="#DejaVuSans-54"
             id="use437"
             y="0"
             width="100%"
             height="100%" />
        </g>
      </g>
    </g>
    <g
       id="ytick_5">
      <g
         id="line2d_9">
        <g
           id="g445">
          <use
             style="stroke:#000000;stroke-width:0.8"
             x="28.26"
             xlink:href="#m06fcba6ea5"
             y="23.046329"
             id="use443"
             width="100%"
             height="100%" />
        </g>
      </g>
      <g
         id="text_10">
        <!-- 0.08 -->
        <defs
           id="defs449">
          <path
             d="m 31.78125,34.625 q -7.03125,0 -11.0625,-3.765625 -4.015625,-3.765625 -4.015625,-10.34375 0,-6.59375 4.015625,-10.359375 4.03125,-3.765625 11.0625,-3.765625 7.03125,0 11.078125,3.78125 4.0625,3.796875 4.0625,10.34375 0,6.578125 -4.03125,10.34375 Q 38.875,34.625 31.78125,34.625 Z m -9.859375,4.1875 Q 15.578125,40.375 12.03125,44.71875 8.5,49.078125 8.5,55.328125 q 0,8.734375 6.21875,13.8125 6.234375,5.078125 17.0625,5.078125 10.890625,0 17.09375,-5.078125 6.203125,-5.078125 6.203125,-13.8125 0,-6.25 -3.546875,-10.609375 Q 48,40.375 41.703125,38.8125 q 7.125,-1.65625 11.09375,-6.5 3.984375,-4.828125 3.984375,-11.796875 0,-10.609375 -6.46875,-16.28125 -6.46875,-5.65625 -18.53125,-5.65625 -12.046875,0 -18.53125,5.65625 -6.46875,5.671875 -6.46875,16.28125 0,6.96875 4,11.796875 4.015625,4.84375 11.140625,6.5 z M 18.3125,54.390625 q 0,-5.65625 3.53125,-8.828125 3.546875,-3.171875 9.9375,-3.171875 6.359375,0 9.9375,3.171875 3.59375,3.171875 3.59375,8.828125 0,5.671875 -3.59375,8.84375 -3.578125,3.171875 -9.9375,3.171875 -6.390625,0 -9.9375,-3.171875 Q 18.3125,60.0625 18.3125,54.390625 Z"
             id="DejaVuSans-56" />
        </defs>
        <g
           transform="matrix(0.08,0,0,-0.08,3.4475,26.085704)"
           id="g459">
          <use
             xlink:href="#DejaVuSans-48"
             id="use451"
             x="0"
             y="0"
             width="100%"
             height="100%" />
          <use
             x="63.623047"
             xlink:href="#DejaVuSans-46"
             id="use453"
             y="0"
             width="100%"
             height="100%" />
          <use
             x="95.410156"
             xlink:href="#DejaVuSans-48"
             id="use455"
             y="0"
             width="100%"
             height="100%" />
          <use
             x="159.0332"
             xlink:href="#DejaVuSans-56"
             id="use457"
             y="0"
             width="100%"
             height="100%" />
        </g>
      </g>
    </g>
    <g
       id="line2d_10">
      <path
         clip-path="url(#pe766f0bfa8)"
         d="m 134.61001,32.122074 0.55626,0.210664 0.55626,0.210664 0.55626,0.210663 0.55625,0.210664 0.55626,0.210664 0.55626,0.210664 0.55626,0.210664 0.55626,0.210663 0.55626,0.210664 0.55626,0.210664 0.55626,0.210664 0.55625,0.210664 0.55626,0.210663 0.55626,0.210664 0.55626,0.210664 0.55626,0.210664 0.55626,0.210663 0.55626,0.210664 0.55625,0.210664 0.55626,0.210664 0.55626,0.210664 0.55626,0.210663 0.55626,0.210664 0.55626,0.210664 0.55626,0.210664 0.55626,0.210664 0.55625,0.210663 0.55626,0.210664 0.55626,0.210664 0.55626,0.210664 0.55626,0.210664 0.55626,0.210663 0.55626,0.210664 0.55625,0.210664 0.55626,0.210664 0.55626,0.210664 0.55626,0.210663 0.55626,0.210664 0.55626,0.210664 0.55626,0.210664 0.55626,0.210664 0.55625,0.210663 0.55626,0.210664 0.55626,0.210664 0.55626,0.210664 0.55626,0.210664 0.55626,0.210663 0.55626,0.210664 0.55625,0.210664 0.55626,0.210664 0.55626,0.210664 0.55626,0.210663 0.55626,0.210664 0.55626,0.210664 0.55626,0.210664 0.55626,0.210664 0.55625,0.210663 0.55626,0.210664 0.55626,0.210664 0.55626,0.210664 0.55626,0.210664 0.55626,0.210663 0.55626,0.210664 0.55625,0.210664 0.55626,0.210664 0.55626,0.210664 0.55626,0.210663 0.55626,0.210664 0.55626,0.210664 0.55626,0.210664 0.55625,0.210664 0.55626,0.210663 0.55626,0.210664 0.55626,0.210664 0.55626,0.210664 0.55626,0.210664 0.55626,0.210663 0.55626,0.210664 0.55625,0.210664 0.55626,0.210664 0.55626,0.210663 0.55626,0.210664 0.55626,0.210664 0.55626,0.210664 0.55626,0.210664 0.55625,0.210663 0.55626,0.210664 0.55626,0.210664 0.55626,0.210664 0.55626,0.210664 0.55626,0.210663 0.55626,0.210664 0.55626,0.210664 0.55625,0.210664 0.55626,0.210664 0.55626,0.210663 0.55626,0.210664 0.55626,0.210664 0.55626,0.210664"
         style="fill:none;stroke:#a6761d;stroke-width:1.5;stroke-linecap:square"
         id="path509" />
    </g>
    <g
       id="line2d_11">
      <path
         clip-path="url(#pe766f0bfa8)"
         d="m -1,115.59376 1.416866,-0.15964 2.314257,-0.26075 2.314258,-0.26075 2.314257,-0.26074 2.314258,-0.26075 2.314257,-0.26075 2.314257,-0.26075 2.314258,-0.26075 2.314257,-0.26074 2.314258,-0.26075 2.314257,-0.26075 2.314258,-0.26075 2.314257,-0.26075 2.314258,-0.26075 2.314257,-0.26074 2.314258,-0.26075 2.314257,-0.26075 2.314258,-0.26075 2.314257,-0.26075 2.314258,-0.26074 2.314257,-0.26075 2.314257,-0.26075 2.314258,-0.26075 2.314257,-0.26075 2.314258,-0.26075 2.314257,-0.26074 2.314258,-0.26075 2.314257,-0.26075 2.314258,-0.26075 2.314257,-0.26075 2.314258,-0.26074 2.314257,-0.26075 2.314258,-0.26075 2.314257,-0.26075 2.314258,-0.26075 2.314257,-0.26075 2.314257,-0.26074 2.314258,-0.26075 2.314257,-0.26075 2.314258,-0.26075 2.314257,-0.26075 2.314258,-0.26075 2.314257,-0.26074 2.314258,-0.26075 2.314253,-0.26075 2.31426,-0.26075 2.31426,-0.26074 2.31426,-0.26075 2.31425,-0.26075 2.31426,-0.26075 2.31426,-0.26075 2.31426,-0.26075 2.31425,-0.26074 2.31426,-0.26075 2.31426,-0.26075 2.31426,-0.26075 2.31425,-0.26075 2.31426,-0.26074 2.31426,-0.26075 2.31426,-0.26075 2.31425,-0.26075 2.31426,-0.260748 2.31426,-0.260748 2.31426,-0.260748 2.31425,-0.260748 2.31426,-0.260748 2.31426,-0.260749 2.31426,-0.260748 2.31425,-0.260748 2.31426,-0.260748 2.31426,-0.260748 2.31426,-0.260748 2.31425,-0.260749 2.31426,-0.260748 2.31426,-0.260748 2.31426,-0.260748 2.31425,-0.260748 2.31426,-0.260748 2.31426,-0.260748 2.31426,-0.260749 2.31425,-0.260748 2.31426,-0.260748 2.31426,-0.260748 2.31425,-0.260748 2.31426,-0.260748 2.31426,-0.260749"
         style="fill:none;stroke:#666666;stroke-width:1.5;stroke-linecap:square"
         id="path512" />
    </g>
    <g
       id="patch_3">
      <path
         d="M 28.26,122.25948 V 16.767015"
         style="fill:none;stroke:#000000;stroke-width:0.8;stroke-linecap:square;stroke-linejoin:miter"
         id="path515" />
    </g>
    <g
       id="patch_4">
      <path
         d="M 203.472,122.25948 V 16.767015"
         style="fill:none;stroke:#000000;stroke-width:0.8;stroke-linecap:square;stroke-linejoin:miter"
         id="path518" />
    </g>
    <g
       id="patch_5">
      <path
         d="M 28.26,122.25948 H 203.472"
         style="fill:none;stroke:#000000;stroke-width:0.8;stroke-linecap:square;stroke-linejoin:miter"
         id="path521" />
    </g>
    <g
       id="patch_6">
      <path
         d="M 28.26,16.767015 H 203.472"
         style="fill:none;stroke:#000000;stroke-width:0.8;stroke-linecap:square;stroke-linejoin:miter"
         id="path524" />
    </g>
    <g
       id="line2d_12"
       transform="translate(0,18)">
      <path
         d="m 33.66,24.626077 h 12"
         style="fill:none;stroke:#d95f02;stroke-width:1.5;stroke-linecap:square"
         id="path530" />
    </g>
    <g
       id="text_12"
       transform="translate(0,18)">
      <!-- Sugars -->
      <defs
         id="defs543">
        <path
           d="m 53.515625,70.515625 v -9.625 q -5.609375,2.6875 -10.59375,4 -4.984375,1.328125 -9.625,1.328125 -8.046875,0 -12.421875,-3.125 -4.375,-3.125 -4.375,-8.890625 0,-4.84375 2.90625,-7.3125 2.90625,-2.453125 11.015625,-3.96875 L 36.375,41.703125 Q 47.40625,39.59375 52.65625,34.296875 57.90625,29 57.90625,20.125 q 0,-10.609375 -7.109375,-16.078125 -7.09375,-5.46875 -20.8125,-5.46875 -5.171875,0 -11.015625,1.171875 Q 13.140625,0.921875 6.890625,3.21875 V 13.375 q 6,-3.359375 11.765625,-5.078125 5.765625,-1.703125 11.328125,-1.703125 8.4375,0 13.03125,3.3125 4.59375,3.328125 4.59375,9.484375 0,5.359375 -3.296875,8.390625 Q 41.015625,30.8125 33.5,32.328125 L 27.484375,33.5 q -11.03125,2.1875 -15.96875,6.875 -4.921875,4.6875 -4.921875,13.046875 0,9.671875 6.8125,15.234375 6.8125,5.5625 18.765625,5.5625 5.140625,0 10.453125,-0.9375 5.328125,-0.921875 10.890625,-2.765625 z"
           id="DejaVuSans-83" />
        <path
           d="m 45.40625,27.984375 q 0,9.765625 -4.03125,15.125 -4.015625,5.375 -11.296875,5.375 -7.21875,0 -11.25,-5.375 -4.03125,-5.359375 -4.03125,-15.125 0,-9.71875 4.03125,-15.09375 4.03125,-5.375 11.25,-5.375 7.28125,0 11.296875,5.375 4.03125,5.375 4.03125,15.09375 z M 54.390625,6.78125 q 0,-13.953125 -6.203125,-20.765625 -6.1875,-6.8125 -18.984375,-6.8125 -4.734375,0 -8.9375,0.703125 -4.203125,0.703125 -8.15625,2.171875 V -9.1875 q 3.953125,-2.140625 7.8125,-3.15625 3.859375,-1.03125 7.859375,-1.03125 8.84375,0 13.234375,4.609375 4.390625,4.609375 4.390625,13.9375 V 9.625 Q 42.625,4.78125 38.28125,2.390625 33.9375,0 27.875,0 17.828125,0 11.671875,7.65625 q -6.15625,7.671875 -6.15625,20.328125 0,12.6875 6.15625,20.34375 Q 17.828125,56 27.875,56 q 6.0625,0 10.40625,-2.390625 4.34375,-2.390625 7.125,-7.21875 V 54.6875 h 8.984375 z"
           id="DejaVuSans-103" />
      </defs>
      <g
         transform="matrix(0.06,0,0,-0.06,50.46,26.726077)"
         id="g557">
        <use
           xlink:href="#DejaVuSans-83"
           id="use545"
           x="0"
           y="0"
           width="100%"
           height="100%" />
        <path
           d="M 71.976562,21.578125 V 54.6875 h 8.984375 V 21.921875 q 0,-7.765625 3.015625,-11.65625 3.03125,-3.875 9.09375,-3.875 7.265628,0 11.484378,4.640625 4.23437,4.640625 4.23437,12.65625 v 31 h 8.98438 V 0 h -8.98438 V 8.40625 Q 105.52344,3.421875 101.19531,1 96.882812,-1.421875 91.164062,-1.421875 q -9.421875,0 -14.3125,5.859375 -4.875,5.859375 -4.875,17.140625 z M 94.585937,56 Z"
           id="use547" />
        <use
           x="126.85547"
           xlink:href="#DejaVuSans-103"
           id="use549"
           y="0"
           width="100%"
           height="100%" />
        <path
           d="m 224.61328,27.484375 q -10.89062,0 -15.09375,-2.484375 -4.20312,-2.484375 -4.20312,-8.5 0,-4.78125 3.15625,-7.59375 3.15625,-2.796875 8.5625,-2.796875 7.48437,0 12,5.296875 4.51562,5.296875 4.51562,14.078125 v 2 z m 17.92188,3.71875 V 0 h -8.98438 v 8.296875 q -3.07812,-4.96875 -7.67187,-7.34375 -4.59375,-2.375 -11.23438,-2.375 -8.39062,0 -13.35937,4.71875 -4.95313,4.71875 -4.95313,12.625 0,9.21875 6.17188,13.90625 6.1875,4.6875 18.4375,4.6875 h 12.60937 v 0.890625 q 0,6.203125 -4.07812,9.59375 -4.07813,3.390625 -11.45313,3.390625 -4.6875,0 -9.14062,-1.125 -4.4375,-1.125 -8.53125,-3.375 v 8.3125 q 4.92187,1.90625 9.5625,2.84375 Q 214.55078,56 218.94141,56 q 11.875,0 17.73437,-6.15625 5.85938,-6.140625 5.85938,-18.640625 z"
           id="use551" />
        <path
           d="m 292.7207,46.296875 q -1.51562,0.875 -3.29687,1.28125 Q 287.64258,48 285.50195,48 277.87695,48 273.79883,43.046875 269.7207,38.09375 269.7207,28.8125 V 0 h -9.03125 v 54.6875 h 9.03125 v -8.5 q 2.84375,4.984375 7.375,7.390625 Q 281.64258,56 288.14258,56 q 0.92187,0 2.04687,-0.125 1.125,-0.109375 2.48438,-0.359375 z"
           id="use553" />
        <path
           d="m 337.00586,53.078125 v -8.5 q -3.79688,1.953125 -7.90625,2.921875 -4.09375,0.984375 -8.5,0.984375 -6.6875,0 -10.03125,-2.046875 -3.34375,-2.046875 -3.34375,-6.15625 0,-3.125 2.39062,-4.90625 2.39063,-1.78125 9.625,-3.390625 l 3.07813,-0.6875 q 9.5625,-2.046875 13.59375,-5.78125 4.03125,-3.734375 4.03125,-10.421875 0,-7.625 -6.03125,-12.078125 -6.03125,-4.4375 -16.57813,-4.4375 -4.39062,0 -9.15625,0.859375 Q 303.41211,0.296875 298.14648,2 v 9.28125 q 4.98438,-2.59375 9.8125,-3.890625 4.82813,-1.28125 9.57813,-1.28125 6.34375,0 9.75,2.171875 3.42187,2.171875 3.42187,6.125 0,3.65625 -2.46875,5.609375 -2.45312,1.953125 -10.8125,3.765625 l -3.125,0.734375 q -8.34375,1.75 -12.0625,5.390625 -3.70312,3.640625 -3.70312,9.984375 0,7.71875 5.46875,11.90625 Q 309.47461,56 319.53711,56 q 4.96875,0 9.35937,-0.734375 4.40625,-0.71875 8.10938,-2.1875 z"
           id="use555" />
      </g>
    </g>
    <g
       id="line2d_14"
       transform="translate(0,18)">
      <path
         d="m 33.66,33.432952 h 12"
         style="fill:none;stroke:#1b9e77;stroke-width:1.5;stroke-linecap:square"
         id="path560" />
    </g>
    <g
       id="text_13"
       transform="translate(0,18)">
      <!-- Organic acids -->
      <defs
         id="defs573">
        <path
           d="m 39.40625,66.21875 q -10.75,0 -17.078125,-8.015625 -6.3125,-8 -6.3125,-21.828125 0,-13.765625 6.3125,-21.78125 6.328125,-8 17.078125,-8 10.734375,0 17.015625,8 6.28125,8.015625 6.28125,21.78125 0,13.828125 -6.28125,21.828125 -6.28125,8.015625 -17.015625,8.015625 z m 0,8 q 15.328125,0 24.5,-10.28125 9.1875,-10.28125 9.1875,-27.5625 0,-17.234375 -9.1875,-27.515625 -9.171875,-10.28125 -24.5,-10.28125 -15.375,0 -24.59375,10.25 Q 5.609375,19.09375 5.609375,36.375 q 0,17.28125 9.203125,27.5625 9.21875,10.28125 24.59375,10.28125 z"
           id="DejaVuSans-79" />
        <path
           d="m 45.40625,46.390625 v 29.59375 h 8.984375 V 0 H 45.40625 v 8.203125 q -2.828125,-4.875 -7.15625,-7.25 -4.3125,-2.375 -10.375,-2.375 -9.90625,0 -16.140625,7.90625 -6.21875,7.921875 -6.21875,20.8125 0,12.890625 6.21875,20.796875 Q 17.96875,56 27.875,56 q 6.0625,0 10.375,-2.375 4.328125,-2.359375 7.15625,-7.234375 z M 14.796875,27.296875 q 0,-9.90625 4.078125,-15.546875 4.078125,-5.640625 11.203125,-5.640625 7.125,0 11.21875,5.640625 4.109375,5.640625 4.109375,15.546875 0,9.90625 -4.109375,15.546875 -4.09375,5.640625 -11.21875,5.640625 -7.125,0 -11.203125,-5.640625 -4.078125,-5.640625 -4.078125,-15.546875 z"
           id="DejaVuSans-100" />
      </defs>
      <g
         transform="matrix(0.06,0,0,-0.06,50.46,35.532952)"
         id="g601">
        <use
           xlink:href="#DejaVuSans-79"
           id="use575"
           x="0"
           y="0"
           width="100%"
           height="100%" />
        <path
           d="m 119.82031,46.296875 q -1.51562,0.875 -3.29687,1.28125 Q 114.74219,48 112.60156,48 104.97656,48 100.89844,43.046875 96.820312,38.09375 96.820312,28.8125 V 0 h -9.03125 v 54.6875 h 9.03125 v -8.5 q 2.84375,4.984375 7.374998,7.390625 Q 108.74219,56 115.24219,56 q 0.92187,0 2.04687,-0.125 1.125,-0.109375 2.48438,-0.359375 z"
           id="use577" />
        <use
           x="119.80859"
           xlink:href="#DejaVuSans-103"
           id="use579"
           y="0"
           width="100%"
           height="100%" />
        <path
           d="m 217.56641,27.484375 q -10.89063,0 -15.09375,-2.484375 -4.20313,-2.484375 -4.20313,-8.5 0,-4.78125 3.15625,-7.59375 3.15625,-2.796875 8.5625,-2.796875 7.48438,0 12,5.296875 4.51563,5.296875 4.51563,14.078125 v 2 z m 17.92187,3.71875 V 0 h -8.98437 v 8.296875 q -3.07813,-4.96875 -7.67188,-7.34375 -4.59375,-2.375 -11.23437,-2.375 -8.39063,0 -13.35938,4.71875 -4.95312,4.71875 -4.95312,12.625 0,9.21875 6.17187,13.90625 6.1875,4.6875 18.4375,4.6875 h 12.60938 v 0.890625 q 0,6.203125 -4.07813,9.59375 -4.07812,3.390625 -11.45312,3.390625 -4.6875,0 -9.14063,-1.125 -4.4375,-1.125 -8.53125,-3.375 v 8.3125 q 4.92188,1.90625 9.5625,2.84375 Q 207.50391,56 211.89453,56 q 11.875,0 17.73438,-6.15625 5.85937,-6.140625 5.85937,-18.640625 z"
           id="use581" />
        <path
           d="M 299.45508,33.015625 V 0 h -8.98438 v 32.71875 q 0,7.765625 -3.03125,11.609375 -3.03125,3.859375 -9.07812,3.859375 -7.28125,0 -11.48438,-4.640625 -4.20312,-4.625 -4.20312,-12.640625 V 0 h -9.03125 v 54.6875 h 9.03125 v -8.5 q 3.23437,4.9375 7.59375,7.375 4.375,2.4375 10.09375,2.4375 9.42187,0 14.25,-5.828125 4.84375,-5.828125 4.84375,-17.15625 z"
           id="use583" />
        <path
           d="m 317.36523,54.6875 h 8.98438 V 0 h -8.98438 z m 0,21.296875 h 8.98438 V 64.59375 h -8.98438 z"
           id="use585" />
        <path
           d="M 384.50781,52.59375 V 44.1875 q -3.8125,2.109375 -7.64062,3.15625 -3.82813,1.046875 -7.73438,1.046875 -8.75,0 -13.59375,-5.546875 -4.82812,-5.53125 -4.82812,-15.546875 0,-10.015625 4.82812,-15.5625 4.84375,-5.53125 13.59375,-5.53125 3.90625,0 7.73438,1.046875 3.82812,1.046875 7.64062,3.15625 v -8.3125 q -3.76562,-1.75 -7.79687,-2.625 -4.01563,-0.890625 -8.5625,-0.890625 -12.35938,0 -19.64063,7.765625 -7.26562,7.765625 -7.26562,20.953125 0,13.375 7.34375,21.03125 Q 355.94531,56 368.74219,56 q 4.14062,0 8.09375,-0.859375 3.95312,-0.84375 7.67187,-2.546875 z"
           id="use587" />
        <path
           id="use589"
           d="" />
        <path
           d="m 456.77539,27.484375 q -10.89062,0 -15.09375,-2.484375 -4.20312,-2.484375 -4.20312,-8.5 0,-4.78125 3.15625,-7.59375 3.15625,-2.796875 8.5625,-2.796875 7.48437,0 12,5.296875 4.51562,5.296875 4.51562,14.078125 v 2 z m 17.92188,3.71875 V 0 h -8.98438 v 8.296875 q -3.07812,-4.96875 -7.67187,-7.34375 -4.59375,-2.375 -11.23438,-2.375 -8.39062,0 -13.35937,4.71875 -4.95313,4.71875 -4.95313,12.625 0,9.21875 6.17188,13.90625 6.1875,4.6875 18.4375,4.6875 h 12.60937 v 0.890625 q 0,6.203125 -4.07812,9.59375 -4.07813,3.390625 -11.45313,3.390625 -4.6875,0 -9.14062,-1.125 -4.4375,-1.125 -8.53125,-3.375 v 8.3125 q 4.92187,1.90625 9.5625,2.84375 Q 446.71289,56 451.10352,56 q 11.875,0 17.73437,-6.15625 5.85938,-6.140625 5.85938,-18.640625 z"
           id="use591" />
        <path
           d="M 532.55469,52.59375 V 44.1875 q -3.8125,2.109375 -7.64063,3.15625 -3.82812,1.046875 -7.73437,1.046875 -8.75,0 -13.59375,-5.546875 -4.82813,-5.53125 -4.82813,-15.546875 0,-10.015625 4.82813,-15.5625 4.84375,-5.53125 13.59375,-5.53125 3.90625,0 7.73437,1.046875 3.82813,1.046875 7.64063,3.15625 v -8.3125 q -3.76563,-1.75 -7.79688,-2.625 -4.01562,-0.890625 -8.5625,-0.890625 -12.35937,0 -19.64062,7.765625 -7.26563,7.765625 -7.26563,20.953125 0,13.375 7.34375,21.03125 Q 503.99219,56 516.78906,56 q 4.14063,0 8.09375,-0.859375 3.95313,-0.84375 7.67188,-2.546875 z"
           id="use593" />
        <path
           d="m 548.17578,54.6875 h 8.98438 V 0 h -8.98438 z m 0,21.296875 h 8.98438 V 64.59375 h -8.98438 z"
           id="use595" />
        <use
           x="566.53711"
           xlink:href="#DejaVuSans-100"
           id="use597"
           y="0"
           width="100%"
           height="100%" />
        <path
           d="m 674.29492,53.078125 v -8.5 q -3.79687,1.953125 -7.90625,2.921875 -4.09375,0.984375 -8.5,0.984375 -6.6875,0 -10.03125,-2.046875 -3.34375,-2.046875 -3.34375,-6.15625 0,-3.125 2.39063,-4.90625 2.39062,-1.78125 9.625,-3.390625 l 3.07812,-0.6875 q 9.5625,-2.046875 13.59375,-5.78125 4.03125,-3.734375 4.03125,-10.421875 0,-7.625 -6.03125,-12.078125 -6.03125,-4.4375 -16.57812,-4.4375 -4.39063,0 -9.15625,0.859375 Q 640.70117,0.296875 635.43555,2 v 9.28125 q 4.98437,-2.59375 9.8125,-3.890625 4.82812,-1.28125 9.57812,-1.28125 6.34375,0 9.75,2.171875 3.42188,2.171875 3.42188,6.125 0,3.65625 -2.46875,5.609375 -2.45313,1.953125 -10.8125,3.765625 l -3.125,0.734375 q -8.34375,1.75 -12.0625,5.390625 -3.70313,3.640625 -3.70313,9.984375 0,7.71875 5.46875,11.90625 Q 646.76367,56 656.82617,56 q 4.96875,0 9.35938,-0.734375 4.40625,-0.71875 8.10937,-2.1875 z"
           id="use599" />
      </g>
    </g>
    <g
       id="line2d_16"
       transform="translate(0,18)">
      <path
         d="m 33.66,42.239827 h 12"
         style="fill:none;stroke:#66a61e;stroke-width:1.5;stroke-linecap:square"
         id="path604" />
    </g>
    <g
       id="text_14"
       transform="translate(0,18)">
      <!-- Amino acids -->
      <defs
         id="defs617">
        <path
           d="M 34.1875,63.1875 20.796875,26.90625 h 26.8125 z m -5.578125,9.71875 h 11.1875 L 67.578125,0 h -10.25 L 50.6875,18.703125 H 17.828125 L 11.1875,0 H 0.78125 Z"
           id="DejaVuSans-65" />
        <path
           d="M 52,44.1875 Q 55.375,50.25 60.0625,53.125 64.75,56 71.09375,56 q 8.546875,0 13.1875,-5.984375 4.640625,-5.96875 4.640625,-17 V 0 h -9.03125 v 32.71875 q 0,7.859375 -2.796875,11.65625 -2.78125,3.8125 -8.484375,3.8125 -6.984375,0 -11.046875,-4.640625 -4.046875,-4.625 -4.046875,-12.640625 V 0 h -9.03125 v 32.71875 q 0,7.90625 -2.78125,11.6875 -2.78125,3.78125 -8.59375,3.78125 -6.890625,0 -10.953125,-4.65625 -4.046875,-4.65625 -4.046875,-12.625 V 0 h -9.03125 v 54.6875 h 9.03125 v -8.5 q 3.078125,5.03125 7.375,7.421875 Q 29.78125,56 35.6875,56 41.65625,56 45.828125,52.96875 50,49.953125 52,44.1875 Z"
           id="DejaVuSans-109" />
      </defs>
      <g
         transform="matrix(0.06,0,0,-0.06,50.46,44.339827)"
         id="g641">
        <use
           xlink:href="#DejaVuSans-65"
           id="use619"
           x="0"
           y="0"
           width="100%"
           height="100%" />
        <use
           x="68.408203"
           xlink:href="#DejaVuSans-109"
           id="use621"
           y="0"
           width="100%"
           height="100%" />
        <path
           d="m 175.24219,54.6875 h 8.98437 V 0 h -8.98437 z m 0,21.296875 h 8.98437 V 64.59375 h -8.98437 z"
           id="use623" />
        <path
           d="M 248.49414,33.015625 V 0 h -8.98437 v 32.71875 q 0,7.765625 -3.03125,11.609375 -3.03125,3.859375 -9.07813,3.859375 -7.28125,0 -11.48437,-4.640625 -4.20313,-4.625 -4.20313,-12.640625 V 0 h -9.03125 v 54.6875 h 9.03125 v -8.5 q 3.23438,4.9375 7.59375,7.375 4.375,2.4375 10.09375,2.4375 9.42188,0 14.25,-5.828125 4.84375,-5.828125 4.84375,-17.15625 z"
           id="use625" />
        <path
           d="m 287.5918,48.390625 q -7.21875,0 -11.42188,-5.640625 -4.20312,-5.640625 -4.20312,-15.453125 0,-9.8125 4.17187,-15.453125 4.1875,-5.640625 11.45313,-5.640625 7.1875,0 11.375,5.65625 4.20312,5.671875 4.20312,15.4375 0,9.71875 -4.20312,15.40625 -4.1875,5.6875 -11.375,5.6875 z m 0,7.609375 q 11.71875,0 18.40625,-7.625 6.70312,-7.609375 6.70312,-21.078125 0,-13.421875 -6.70312,-21.078125 -6.6875,-7.640625 -18.40625,-7.640625 -11.76563,0 -18.4375,7.640625 -6.65625,7.65625 -6.65625,21.078125 0,13.46875 6.65625,21.078125 Q 275.82617,56 287.5918,56 Z"
           id="use627" />
        <path
           id="use629"
           d="" />
        <path
           d="m 384.23242,27.484375 q -10.89062,0 -15.09375,-2.484375 -4.20312,-2.484375 -4.20312,-8.5 0,-4.78125 3.15625,-7.59375 3.15625,-2.796875 8.5625,-2.796875 7.48437,0 12,5.296875 4.51562,5.296875 4.51562,14.078125 v 2 z m 17.92188,3.71875 V 0 h -8.98438 v 8.296875 q -3.07812,-4.96875 -7.67187,-7.34375 -4.59375,-2.375 -11.23438,-2.375 -8.39062,0 -13.35937,4.71875 -4.95313,4.71875 -4.95313,12.625 0,9.21875 6.17188,13.90625 6.1875,4.6875 18.4375,4.6875 h 12.60937 v 0.890625 q 0,6.203125 -4.07812,9.59375 -4.07813,3.390625 -11.45313,3.390625 -4.6875,0 -9.14062,-1.125 -4.4375,-1.125 -8.53125,-3.375 v 8.3125 q 4.92187,1.90625 9.5625,2.84375 Q 374.16992,56 378.56055,56 q 11.875,0 17.73437,-6.15625 5.85938,-6.140625 5.85938,-18.640625 z"
           id="use631" />
        <path
           d="M 460.01172,52.59375 V 44.1875 q -3.8125,2.109375 -7.64063,3.15625 -3.82812,1.046875 -7.73437,1.046875 -8.75,0 -13.59375,-5.546875 -4.82813,-5.53125 -4.82813,-15.546875 0,-10.015625 4.82813,-15.5625 4.84375,-5.53125 13.59375,-5.53125 3.90625,0 7.73437,1.046875 3.82813,1.046875 7.64063,3.15625 v -8.3125 q -3.76563,-1.75 -7.79688,-2.625 -4.01562,-0.890625 -8.5625,-0.890625 -12.35937,0 -19.64062,7.765625 -7.26563,7.765625 -7.26563,20.953125 0,13.375 7.34375,21.03125 Q 431.44922,56 444.24609,56 q 4.14063,0 8.09375,-0.859375 3.95313,-0.84375 7.67188,-2.546875 z"
           id="use633" />
        <path
           d="m 475.63281,54.6875 h 8.98438 V 0 h -8.98438 z m 0,21.296875 h 8.98438 V 64.59375 h -8.98438 z"
           id="use635" />
        <use
           x="493.99414"
           xlink:href="#DejaVuSans-100"
           id="use637"
           y="0"
           width="100%"
           height="100%" />
        <path
           d="m 601.75195,53.078125 v -8.5 Q 597.95508,46.53125 593.8457,47.5 q -4.09375,0.984375 -8.5,0.984375 -6.6875,0 -10.03125,-2.046875 -3.34375,-2.046875 -3.34375,-6.15625 0,-3.125 2.39063,-4.90625 2.39062,-1.78125 9.625,-3.390625 l 3.07812,-0.6875 q 9.5625,-2.046875 13.59375,-5.78125 4.03125,-3.734375 4.03125,-10.421875 0,-7.625 -6.03125,-12.078125 -6.03125,-4.4375 -16.57812,-4.4375 -4.39063,0 -9.15625,0.859375 Q 568.1582,0.296875 562.89258,2 v 9.28125 q 4.98437,-2.59375 9.8125,-3.890625 4.82812,-1.28125 9.57812,-1.28125 6.34375,0 9.75,2.171875 3.42188,2.171875 3.42188,6.125 0,3.65625 -2.46875,5.609375 -2.45313,1.953125 -10.8125,3.765625 l -3.125,0.734375 q -8.34375,1.75 -12.0625,5.390625 -3.70313,3.640625 -3.70313,9.984375 0,7.71875 5.46875,11.90625 Q 574.2207,56 584.2832,56 q 4.96875,0 9.35938,-0.734375 4.40625,-0.71875 8.10937,-2.1875 z"
           id="use639" />
      </g>
    </g>
    <g
       id="line2d_18"
       transform="translate(0,18)">
      <path
         d="m 33.66,51.046702 h 12"
         style="fill:none;stroke:#7570b3;stroke-width:1.5;stroke-linecap:square"
         id="path644" />
    </g>
    <g
       id="text_15"
       transform="translate(0,18)">
      <!-- Fatty acids -->
      <defs
         id="defs656">
        <path
           d="m 9.8125,72.90625 h 41.890625 v -8.3125 H 19.671875 V 43.109375 h 28.90625 V 34.8125 H 19.671875 V 0 H 9.8125 Z"
           id="DejaVuSans-70" />
      </defs>
      <g
         transform="matrix(0.06,0,0,-0.06,50.46,53.146702)"
         id="g680">
        <use
           xlink:href="#DejaVuSans-70"
           id="use658"
           x="0"
           y="0"
           width="100%"
           height="100%" />
        <path
           d="m 91.660156,27.484375 q -10.890625,0 -15.09375,-2.484375 -4.203125,-2.484375 -4.203125,-8.5 0,-4.78125 3.15625,-7.59375 3.15625,-2.796875 8.5625,-2.796875 7.484375,0 12,5.296875 4.515629,5.296875 4.515629,14.078125 v 2 z m 17.921874,3.71875 V 0 h -8.98437 v 8.296875 q -3.078129,-4.96875 -7.671879,-7.34375 -4.59375,-2.375 -11.234375,-2.375 -8.390625,0 -13.359375,4.71875 -4.953125,4.71875 -4.953125,12.625 0,9.21875 6.171875,13.90625 6.1875,4.6875 18.4375,4.6875 h 12.609379 v 0.890625 q 0,6.203125 -4.078129,9.59375 -4.078125,3.390625 -11.453125,3.390625 -4.6875,0 -9.140625,-1.125 -4.4375,-1.125 -8.53125,-3.375 v 8.3125 q 4.921875,1.90625 9.5625,2.84375 Q 81.597656,56 85.988281,56 q 11.875,0 17.734379,-6.15625 5.85937,-6.140625 5.85937,-18.640625 z"
           id="use660" />
        <path
           d="M 136.9707,70.21875 V 54.6875 h 18.5 v -6.984375 h -18.5 v -29.6875 q 0,-6.6875 1.82813,-8.59375 1.82812,-1.90625 7.45312,-1.90625 h 9.21875 V 0 h -9.21875 q -10.40625,0 -14.35937,3.875 -3.95313,3.890625 -3.95313,14.140625 v 29.6875 H 121.3457 V 54.6875 h 6.59375 v 15.53125 z"
           id="use662" />
        <path
           d="M 176.17969,70.21875 V 54.6875 h 18.5 v -6.984375 h -18.5 v -29.6875 q 0,-6.6875 1.82812,-8.59375 1.82813,-1.90625 7.45313,-1.90625 h 9.21875 V 0 h -9.21875 q -10.40625,0 -14.35938,3.875 -3.95312,3.890625 -3.95312,14.140625 v 29.6875 h -6.59375 V 54.6875 h 6.59375 v 15.53125 z"
           id="use664" />
        <path
           d="m 229.24805,-5.078125 q -3.79688,-9.765625 -7.42188,-12.734375 -3.60937,-2.984375 -9.65625,-2.984375 h -7.1875 v 7.515625 h 5.28125 q 3.70313,0 5.75,1.765625 2.0625,1.75 4.54688,8.296875 l 1.60937,4.09375 -22.10937,53.8125 h 9.51562 L 226.66992,11.921875 243.76367,54.6875 h 9.51563 z"
           id="use666" />
        <path
           id="use668"
           d="" />
        <path
           d="m 322.32422,27.484375 q -10.89063,0 -15.09375,-2.484375 -4.20313,-2.484375 -4.20313,-8.5 0,-4.78125 3.15625,-7.59375 3.15625,-2.796875 8.5625,-2.796875 7.48438,0 12,5.296875 4.51563,5.296875 4.51563,14.078125 v 2 z m 17.92187,3.71875 V 0 h -8.98437 v 8.296875 q -3.07813,-4.96875 -7.67188,-7.34375 -4.59375,-2.375 -11.23437,-2.375 -8.39063,0 -13.35938,4.71875 -4.95312,4.71875 -4.95312,12.625 0,9.21875 6.17187,13.90625 6.1875,4.6875 18.4375,4.6875 h 12.60938 v 0.890625 q 0,6.203125 -4.07813,9.59375 -4.07812,3.390625 -11.45312,3.390625 -4.6875,0 -9.14063,-1.125 -4.4375,-1.125 -8.53125,-3.375 v 8.3125 q 4.92188,1.90625 9.5625,2.84375 Q 312.26172,56 316.65234,56 q 11.875,0 17.73438,-6.15625 5.85937,-6.140625 5.85937,-18.640625 z"
           id="use670" />
        <path
           d="M 398.10352,52.59375 V 44.1875 q -3.8125,2.109375 -7.64063,3.15625 -3.82812,1.046875 -7.73437,1.046875 -8.75,0 -13.59375,-5.546875 -4.82813,-5.53125 -4.82813,-15.546875 0,-10.015625 4.82813,-15.5625 4.84375,-5.53125 13.59375,-5.53125 3.90625,0 7.73437,1.046875 3.82813,1.046875 7.64063,3.15625 v -8.3125 q -3.76563,-1.75 -7.79688,-2.625 -4.01562,-0.890625 -8.5625,-0.890625 -12.35937,0 -19.64062,7.765625 -7.26563,7.765625 -7.26563,20.953125 0,13.375 7.34375,21.03125 Q 369.54102,56 382.33789,56 q 4.14063,0 8.09375,-0.859375 3.95313,-0.84375 7.67188,-2.546875 z"
           id="use672" />
        <path
           d="m 413.72461,54.6875 h 8.98437 V 0 h -8.98437 z m 0,21.296875 h 8.98437 V 64.59375 h -8.98437 z"
           id="use674" />
        <use
           x="432.08594"
           xlink:href="#DejaVuSans-100"
           id="use676"
           y="0"
           width="100%"
           height="100%" />
        <path
           d="m 539.84375,53.078125 v -8.5 Q 536.04687,46.53125 531.9375,47.5 q -4.09375,0.984375 -8.5,0.984375 -6.6875,0 -10.03125,-2.046875 -3.34375,-2.046875 -3.34375,-6.15625 0,-3.125 2.39062,-4.90625 2.39063,-1.78125 9.625,-3.390625 l 3.07813,-0.6875 q 9.5625,-2.046875 13.59375,-5.78125 4.03125,-3.734375 4.03125,-10.421875 0,-7.625 -6.03125,-12.078125 -6.03125,-4.4375 -16.57813,-4.4375 -4.39062,0 -9.15625,0.859375 Q 506.25,0.296875 500.98437,2 v 9.28125 q 4.98438,-2.59375 9.8125,-3.890625 4.82813,-1.28125 9.57813,-1.28125 6.34375,0 9.75,2.171875 3.42187,2.171875 3.42187,6.125 0,3.65625 -2.46875,5.609375 -2.45312,1.953125 -10.8125,3.765625 l -3.125,0.734375 q -8.34375,1.75 -12.0625,5.390625 -3.70312,3.640625 -3.70312,9.984375 0,7.71875 5.46875,11.90625 Q 512.3125,56 522.375,56 q 4.96875,0 9.35937,-0.734375 4.40625,-0.71875 8.10938,-2.1875 z"
           id="use678" />
      </g>
    </g>
    <g
       id="line2d_20"
       transform="translate(0,18)">
      <path
         d="m 33.66,59.853577 h 12"
         style="fill:none;stroke:#e7298a;stroke-width:1.5;stroke-linecap:square"
         id="path683" />
    </g>
    <g
       id="text_16"
       transform="translate(0,18)">
      <!-- Nucleotides -->
      <defs
         id="defs696">
        <path
           d="M 9.8125,72.90625 H 23.09375 L 55.421875,11.921875 V 72.90625 h 9.5625 V 0 h -13.28125 l -32.3125,60.984375 V 0 H 9.8125 Z"
           id="DejaVuSans-78" />
        <path
           d="M 9.421875,75.984375 H 18.40625 V 0 H 9.421875 Z"
           id="DejaVuSans-108" />
      </defs>
      <g
         transform="matrix(0.06,0,0,-0.06,50.46,61.953577)"
         id="g720">
        <use
           xlink:href="#DejaVuSans-78"
           id="use698"
           x="0"
           y="0"
           width="100%"
           height="100%" />
        <path
           d="M 83.304687,21.578125 V 54.6875 h 8.984375 V 21.921875 q 0,-7.765625 3.015625,-11.65625 3.03125,-3.875 9.093753,-3.875 7.26562,0 11.48437,4.640625 4.23438,4.640625 4.23438,12.65625 v 31 h 8.98437 V 0 h -8.98437 V 8.40625 Q 116.85156,3.421875 112.52344,1 q -4.3125,-2.421875 -10.03125,-2.421875 -9.421878,0 -14.312503,5.859375 -4.875,5.859375 -4.875,17.140625 z M 105.91406,56 Z"
           id="use700" />
        <path
           d="M 186.96484,52.59375 V 44.1875 q -3.8125,2.109375 -7.64062,3.15625 -3.82813,1.046875 -7.73438,1.046875 -8.75,0 -13.59375,-5.546875 -4.82812,-5.53125 -4.82812,-15.546875 0,-10.015625 4.82812,-15.5625 4.84375,-5.53125 13.59375,-5.53125 3.90625,0 7.73438,1.046875 3.82812,1.046875 7.64062,3.15625 v -8.3125 q -3.76562,-1.75 -7.79687,-2.625 -4.01563,-0.890625 -8.5625,-0.890625 -12.35938,0 -19.64063,7.765625 -7.26562,7.765625 -7.26562,20.953125 0,13.375 7.34375,21.03125 Q 158.40234,56 171.19922,56 q 4.14062,0 8.09375,-0.859375 3.95312,-0.84375 7.67187,-2.546875 z"
           id="use702" />
        <use
           x="193.16406"
           xlink:href="#DejaVuSans-108"
           id="use704"
           y="0"
           width="100%"
           height="100%" />
        <path
           d="m 277.15039,29.59375 v -4.390625 h -41.3125 q 0.59375,-9.28125 5.59375,-14.140625 5,-4.859375 13.9375,-4.859375 5.17188,0 10.03125,1.265625 4.85938,1.265625 9.65625,3.8125 v -8.5 q -4.84375,-2.046875 -9.92187,-3.125 -5.07813,-1.078125 -10.29688,-1.078125 -13.09375,0 -20.73437,7.609375 -7.64063,7.625 -7.64063,20.625 0,13.421875 7.25,21.296875 Q 240.96289,56 253.27539,56 q 11.03125,0 17.45313,-7.109375 6.42187,-7.09375 6.42187,-19.296875 z m -8.98437,2.640625 q -0.0937,7.359375 -4.125,11.75 -4.03125,4.40625 -10.67188,4.40625 -7.51562,0 -12.03125,-4.25 -4.51562,-4.25 -5.20312,-11.96875 z"
           id="use706" />
        <path
           d="m 313.08008,48.390625 q -7.21875,0 -11.42188,-5.640625 -4.20312,-5.640625 -4.20312,-15.453125 0,-9.8125 4.17187,-15.453125 4.1875,-5.640625 11.45313,-5.640625 7.1875,0 11.375,5.65625 4.20312,5.671875 4.20312,15.4375 0,9.71875 -4.20312,15.40625 -4.1875,5.6875 -11.375,5.6875 z m 0,7.609375 q 11.71875,0 18.40625,-7.625 6.70312,-7.609375 6.70312,-21.078125 0,-13.421875 -6.70312,-21.078125 -6.6875,-7.640625 -18.40625,-7.640625 -11.76563,0 -18.4375,7.640625 -6.65625,7.65625 -6.65625,21.078125 0,13.46875 6.65625,21.078125 6.67187,7.625 18.4375,7.625 z"
           id="use708" />
        <path
           d="M 361.96484,70.21875 V 54.6875 h 18.5 v -6.984375 h -18.5 v -29.6875 q 0,-6.6875 1.82813,-8.59375 1.82812,-1.90625 7.45312,-1.90625 h 9.21875 V 0 h -9.21875 q -10.40625,0 -14.35937,3.875 -3.95313,3.890625 -3.95313,14.140625 v 29.6875 h -6.59375 V 54.6875 h 6.59375 v 15.53125 z"
           id="use710" />
        <path
           d="m 392.2832,54.6875 h 8.98438 V 0 h -8.98438 z m 0,21.296875 h 8.98438 V 64.59375 h -8.98438 z"
           id="use712" />
        <use
           x="410.64453"
           xlink:href="#DejaVuSans-100"
           id="use714"
           y="0"
           width="100%"
           height="100%" />
        <path
           d="m 530.32422,29.59375 v -4.390625 h -41.3125 q 0.59375,-9.28125 5.59375,-14.140625 5,-4.859375 13.9375,-4.859375 5.17187,0 10.03125,1.265625 4.85937,1.265625 9.65625,3.8125 v -8.5 q -4.84375,-2.046875 -9.92188,-3.125 -5.07812,-1.078125 -10.29687,-1.078125 -13.09375,0 -20.73438,7.609375 -7.64062,7.625 -7.64062,20.625 0,13.421875 7.25,21.296875 Q 494.13672,56 506.44922,56 q 11.03125,0 17.45312,-7.109375 6.42188,-7.09375 6.42188,-19.296875 z m -8.98438,2.640625 q -0.0937,7.359375 -4.125,11.75 -4.03125,4.40625 -10.67187,4.40625 -7.51563,0 -12.03125,-4.25 -4.51563,-4.25 -5.20313,-11.96875 z"
           id="use716" />
        <path
           d="m 579.92578,53.078125 v -8.5 q -3.79687,1.953125 -7.90625,2.921875 -4.09375,0.984375 -8.5,0.984375 -6.6875,0 -10.03125,-2.046875 -3.34375,-2.046875 -3.34375,-6.15625 0,-3.125 2.39063,-4.90625 2.39062,-1.78125 9.625,-3.390625 l 3.07812,-0.6875 q 9.5625,-2.046875 13.59375,-5.78125 4.03125,-3.734375 4.03125,-10.421875 0,-7.625 -6.03125,-12.078125 -6.03125,-4.4375 -16.57812,-4.4375 -4.39063,0 -9.15625,0.859375 Q 546.33203,0.296875 541.06641,2 v 9.28125 q 4.98437,-2.59375 9.8125,-3.890625 4.82812,-1.28125 9.57812,-1.28125 6.34375,0 9.75,2.171875 3.42188,2.171875 3.42188,6.125 0,3.65625 -2.46875,5.609375 -2.45313,1.953125 -10.8125,3.765625 l -3.125,0.734375 q -8.34375,1.75 -12.0625,5.390625 -3.70313,3.640625 -3.70313,9.984375 0,7.71875 5.46875,11.90625 Q 552.39453,56 562.45703,56 q 4.96875,0 9.35938,-0.734375 4.40625,-0.71875 8.10937,-2.1875 z"
           id="use718" />
      </g>
    </g>
    <g
       id="line2d_22"
       transform="translate(0,18)">
      <path
         d="m 33.66,68.660452 h 12"
         style="fill:none;stroke:#e6ab02;stroke-width:1.5;stroke-linecap:square"
         id="path723" />
    </g>
    <g
       id="text_17"
       transform="translate(0,18)">
      <!-- Auxins -->
      <defs
         id="defs735">
        <path
           d="M 54.890625,54.6875 35.109375,28.078125 55.90625,0 H 45.3125 L 29.390625,21.484375 13.484375,0 H 2.875 L 24.125,28.609375 4.6875,54.6875 h 10.59375 l 14.5,-19.484375 14.5,19.484375 z"
           id="DejaVuSans-120" />
      </defs>
      <g
         transform="matrix(0.06,0,0,-0.06,50.46,70.760452)"
         id="g749">
        <use
           xlink:href="#DejaVuSans-65"
           id="use737"
           x="0"
           y="0"
           width="100%"
           height="100%" />
        <path
           d="M 76.908203,21.578125 V 54.6875 h 8.984375 V 21.921875 q 0,-7.765625 3.015625,-11.65625 3.03125,-3.875 9.09375,-3.875 7.265627,0 11.484377,4.640625 4.23437,4.640625 4.23437,12.65625 v 31 h 8.98438 V 0 H 113.7207 V 8.40625 Q 110.45508,3.421875 106.12695,1 q -4.3125,-2.421875 -10.031247,-2.421875 -9.421875,0 -14.3125,5.859375 -4.875,5.859375 -4.875,17.140625 z M 99.517578,56 Z"
           id="use739" />
        <use
           x="131.78711"
           xlink:href="#DejaVuSans-120"
           id="use741"
           y="0"
           width="100%"
           height="100%" />
        <path
           d="m 200.38867,54.6875 h 8.98438 V 0 h -8.98438 z m 0,21.296875 h 8.98438 V 64.59375 h -8.98438 z"
           id="use743" />
        <path
           d="M 273.64062,33.015625 V 0 h -8.98437 v 32.71875 q 0,7.765625 -3.03125,11.609375 -3.03125,3.859375 -9.07813,3.859375 -7.28125,0 -11.48437,-4.640625 -4.20313,-4.625 -4.20313,-12.640625 V 0 h -9.03125 v 54.6875 h 9.03125 v -8.5 q 3.23438,4.9375 7.59375,7.375 4.375,2.4375 10.09375,2.4375 9.42188,0 14.25,-5.828125 4.84375,-5.828125 4.84375,-17.15625 z"
           id="use745" />
        <path
           d="m 326.41016,53.078125 v -8.5 q -3.79688,1.953125 -7.90625,2.921875 -4.09375,0.984375 -8.5,0.984375 -6.6875,0 -10.03125,-2.046875 -3.34375,-2.046875 -3.34375,-6.15625 0,-3.125 2.39062,-4.90625 2.39063,-1.78125 9.625,-3.390625 l 3.07813,-0.6875 q 9.5625,-2.046875 13.59375,-5.78125 4.03125,-3.734375 4.03125,-10.421875 0,-7.625 -6.03125,-12.078125 -6.03125,-4.4375 -16.57813,-4.4375 -4.39062,0 -9.15625,0.859375 Q 292.81641,0.296875 287.55078,2 v 9.28125 q 4.98438,-2.59375 9.8125,-3.890625 4.82813,-1.28125 9.57813,-1.28125 6.34375,0 9.75,2.171875 3.42187,2.171875 3.42187,6.125 0,3.65625 -2.46875,5.609375 -2.45312,1.953125 -10.8125,3.765625 l -3.125,0.734375 q -8.34375,1.75 -12.0625,5.390625 -3.70312,3.640625 -3.70312,9.984375 0,7.71875 5.46875,11.90625 Q 298.87891,56 308.94141,56 q 4.96875,0 9.35937,-0.734375 4.40625,-0.71875 8.10938,-2.1875 z"
           id="use747" />
      </g>
    </g>
    <g
       id="line2d_24"
       transform="translate(0,-0.92247336)">
      <path
         d="m 33.66,77.467327 h 12"
         style="fill:none;stroke:#ffffff;stroke-width:1.5;stroke-linecap:square"
         id="path752" />
    </g>
    <g
       id="line2d_26"
       transform="translate(0,-1.2914627)">
      <path
         d="m 33.66,86.274202 h 12"
         style="fill:none;stroke:#ffffff;stroke-width:1.5;stroke-linecap:square"
         id="path786" />
    </g>
    <g
       id="line2d_28">
      <path
         d="m 33.66,95.081077 h 12"
         style="fill:none;stroke:#ffffff;stroke-width:1.5;stroke-linecap:square"
         id="path816" />
    </g>
    <g
       id="g2907"
       transform="translate(0,-1.9058252)">
      <g
         id="line2d_25"
         transform="translate(66,-19.5)">
        <defs
           id="defs756">
          <path
             d="M 0,-3 -3,3 H 3 Z"
             id="m043b091d8c"
             style="stroke:#000000;stroke-linejoin:miter" />
        </defs>
        <g
           id="g760">
          <use
             style="fill-opacity:0;stroke:#000000;stroke-linejoin:miter"
             x="39.66"
             xlink:href="#m043b091d8c"
             y="77.467323"
             id="use758"
             width="100%"
             height="100%" />
        </g>
      </g>
      <g
         id="text_18"
         transform="translate(66,-19.5)">
        <!-- Positive -->
        <defs
           id="defs765">
          <path
             d="M 19.671875,64.796875 V 37.40625 h 12.40625 q 6.890625,0 10.640625,3.5625 3.765625,3.5625 3.765625,10.15625 0,6.546875 -3.765625,10.109375 -3.75,3.5625 -10.640625,3.5625 z M 9.8125,72.90625 h 22.265625 q 12.265625,0 18.53125,-5.546875 6.28125,-5.546875 6.28125,-16.234375 0,-10.796875 -6.28125,-16.3125 -6.265625,-5.515625 -18.53125,-5.515625 H 19.671875 V 0 H 9.8125 Z"
             id="DejaVuSans-80" />
          <path
             d="M 2.984375,54.6875 H 12.5 L 29.59375,8.796875 46.6875,54.6875 h 9.515625 L 35.6875,0 H 23.484375 Z"
             id="DejaVuSans-118" />
        </defs>
        <g
           transform="matrix(0.06,0,0,-0.06,50.46,79.567327)"
           id="g783">
          <use
             xlink:href="#DejaVuSans-80"
             id="use767"
             x="0"
             y="0"
             width="100%"
             height="100%" />
          <path
             d="m 90.865234,48.390625 q -7.21875,0 -11.421875,-5.640625 -4.203125,-5.640625 -4.203125,-15.453125 0,-9.8125 4.171875,-15.453125 4.1875,-5.640625 11.453125,-5.640625 7.1875,0 11.374996,5.65625 4.20313,5.671875 4.20313,15.4375 0,9.71875 -4.20313,15.40625 -4.187496,5.6875 -11.374996,5.6875 z m 0,7.609375 q 11.718746,0 18.406246,-7.625 6.70313,-7.609375 6.70313,-21.078125 0,-13.421875 -6.70313,-21.078125 -6.6875,-7.640625 -18.406246,-7.640625 -11.765625,0 -18.4375,7.640625 -6.65625,7.65625 -6.65625,21.078125 0,13.46875 6.65625,21.078125 Q 79.099609,56 90.865234,56 Z"
             id="use769" />
          <path
             d="m 165.71875,53.078125 v -8.5 Q 161.92187,46.53125 157.8125,47.5 q -4.09375,0.984375 -8.5,0.984375 -6.6875,0 -10.03125,-2.046875 -3.34375,-2.046875 -3.34375,-6.15625 0,-3.125 2.39062,-4.90625 2.39063,-1.78125 9.625,-3.390625 l 3.07813,-0.6875 q 9.5625,-2.046875 13.59375,-5.78125 4.03125,-3.734375 4.03125,-10.421875 0,-7.625 -6.03125,-12.078125 -6.03125,-4.4375 -16.57813,-4.4375 -4.39062,0 -9.15625,0.859375 Q 132.125,0.296875 126.85938,2 v 9.28125 q 4.98437,-2.59375 9.81249,-3.890625 4.82813,-1.28125 9.57813,-1.28125 6.34375,0 9.75,2.171875 3.42187,2.171875 3.42187,6.125 0,3.65625 -2.46875,5.609375 -2.45312,1.953125 -10.8125,3.765625 l -3.125,0.734375 q -8.34375,1.75 -12.0625,5.390625 -3.70312,3.640625 -3.70312,9.984375 0,7.71875 5.46875,11.90625 Q 138.1875,56 148.25,56 q 4.96875,0 9.35937,-0.734375 4.40625,-0.71875 8.10938,-2.1875 z"
             id="use771" />
          <path
             d="m 182.95898,54.6875 h 8.98438 V 0 h -8.98438 z m 0,21.296875 h 8.98438 V 64.59375 h -8.98438 z"
             id="use773" />
          <path
             d="M 219.63281,70.21875 V 54.6875 h 18.5 v -6.984375 h -18.5 v -29.6875 q 0,-6.6875 1.82813,-8.59375 1.82812,-1.90625 7.45312,-1.90625 h 9.21875 V 0 h -9.21875 q -10.40625,0 -14.35937,3.875 -3.95313,3.890625 -3.95313,14.140625 v 29.6875 h -6.59375 V 54.6875 h 6.59375 v 15.53125 z"
             id="use775" />
          <path
             d="m 249.95117,54.6875 h 8.98438 V 0 h -8.98438 z m 0,21.296875 h 8.98438 V 64.59375 h -8.98438 z"
             id="use777" />
          <use
             x="268.3125"
             xlink:href="#DejaVuSans-118"
             id="use779"
             y="0"
             width="100%"
             height="100%" />
          <path
             d="m 383.69531,29.59375 v -4.390625 h -41.3125 q 0.59375,-9.28125 5.59375,-14.140625 5,-4.859375 13.9375,-4.859375 5.17188,0 10.03125,1.265625 4.85938,1.265625 9.65625,3.8125 v -8.5 q -4.84375,-2.046875 -9.92187,-3.125 -5.07813,-1.078125 -10.29688,-1.078125 -13.09375,0 -20.73437,7.609375 -7.64063,7.625 -7.64063,20.625 0,13.421875 7.25,21.296875 Q 347.50781,56 359.82031,56 q 11.03125,0 17.45313,-7.109375 6.42187,-7.09375 6.42187,-19.296875 z m -8.98437,2.640625 q -0.0937,7.359375 -4.125,11.75 -4.03125,4.40625 -10.67188,4.40625 -7.51562,0 -12.03125,-4.25 -4.51562,-4.25 -5.20312,-11.96875 z"
             id="use781" />
        </g>
      </g>
      <g
         id="line2d_27"
         transform="translate(66,-19.5)">
        <defs
           id="defs790">
          <path
             d="M 0,3 3,-3 H -3 Z"
             id="maba3019fd5"
             style="stroke:#000000;stroke-linejoin:miter" />
        </defs>
        <g
           id="g794">
          <use
             style="fill-opacity:0;stroke:#000000;stroke-linejoin:miter"
             x="39.66"
             xlink:href="#maba3019fd5"
             y="86.2742"
             id="use792"
             width="100%"
             height="100%" />
        </g>
      </g>
      <g
         id="text_19"
         transform="translate(66,-19.5)">
        <!-- Negative -->
        <g
           transform="matrix(0.06,0,0,-0.06,50.46,88.374202)"
           id="g813">
          <use
             xlink:href="#DejaVuSans-78"
             id="use797"
             x="0"
             y="0"
             width="100%"
             height="100%" />
          <path
             d="M 131.00781,29.59375 V 25.203125 H 89.695312 q 0.59375,-9.28125 5.59375,-14.140625 4.999998,-4.859375 13.937498,-4.859375 5.17188,0 10.03125,1.265625 4.85938,1.265625 9.65625,3.8125 v -8.5 q -4.84375,-2.046875 -9.92187,-3.125 -5.07813,-1.078125 -10.29688,-1.078125 -13.093748,0 -20.734373,7.609375 -7.640625,7.625 -7.640625,20.625 0,13.421875 7.25,21.296875 Q 94.820312,56 107.13281,56 q 11.03125,0 17.45313,-7.109375 6.42187,-7.09375 6.42187,-19.296875 z m -8.98437,2.640625 q -0.0937,7.359375 -4.125,11.75 -4.03125,4.40625 -10.67188,4.40625 -7.515623,0 -12.031248,-4.25 -4.515625,-4.25 -5.203125,-11.96875 z"
             id="use799" />
          <use
             x="136.32812"
             xlink:href="#DejaVuSans-103"
             id="use801"
             y="0"
             width="100%"
             height="100%" />
          <path
             d="m 234.08594,27.484375 q -10.89063,0 -15.09375,-2.484375 -4.20313,-2.484375 -4.20313,-8.5 0,-4.78125 3.15625,-7.59375 3.15625,-2.796875 8.5625,-2.796875 7.48438,0 12,5.296875 4.51563,5.296875 4.51563,14.078125 v 2 z m 17.92187,3.71875 V 0 h -8.98437 v 8.296875 q -3.07813,-4.96875 -7.67188,-7.34375 -4.59375,-2.375 -11.23437,-2.375 -8.39063,0 -13.35938,4.71875 -4.95312,4.71875 -4.95312,12.625 0,9.21875 6.17187,13.90625 6.1875,4.6875 18.4375,4.6875 h 12.60938 v 0.890625 q 0,6.203125 -4.07813,9.59375 -4.07812,3.390625 -11.45312,3.390625 -4.6875,0 -9.14063,-1.125 -4.4375,-1.125 -8.53125,-3.375 v 8.3125 q 4.92188,1.90625 9.5625,2.84375 Q 224.02344,56 228.41406,56 q 11.875,0 17.73438,-6.15625 5.85937,-6.140625 5.85937,-18.640625 z"
             id="use803" />
          <path
             d="M 279.39648,70.21875 V 54.6875 h 18.5 v -6.984375 h -18.5 v -29.6875 q 0,-6.6875 1.82813,-8.59375 1.82812,-1.90625 7.45312,-1.90625 h 9.21875 V 0 h -9.21875 q -10.40625,0 -14.35937,3.875 -3.95313,3.890625 -3.95313,14.140625 v 29.6875 h -6.59375 V 54.6875 h 6.59375 v 15.53125 z"
             id="use805" />
          <path
             d="m 309.71484,54.6875 h 8.98438 V 0 h -8.98438 z m 0,21.296875 h 8.98438 V 64.59375 h -8.98438 z"
             id="use807" />
          <use
             x="328.07617"
             xlink:href="#DejaVuSans-118"
             id="use809"
             y="0"
             width="100%"
             height="100%" />
          <path
             d="m 443.45898,29.59375 v -4.390625 h -41.3125 q 0.59375,-9.28125 5.59375,-14.140625 5,-4.859375 13.9375,-4.859375 5.17188,0 10.03125,1.265625 4.85938,1.265625 9.65625,3.8125 v -8.5 q -4.84375,-2.046875 -9.92187,-3.125 -5.07813,-1.078125 -10.29688,-1.078125 -13.09375,0 -20.73437,7.609375 -7.64063,7.625 -7.64063,20.625 0,13.421875 7.25,21.296875 Q 407.27148,56 419.58398,56 q 11.03125,0 17.45313,-7.109375 6.42187,-7.09375 6.42187,-19.296875 z m -8.98437,2.640625 q -0.0937,7.359375 -4.125,11.75 -4.03125,4.40625 -10.67188,4.40625 -7.51562,0 -12.03125,-4.25 -4.51562,-4.25 -5.20312,-11.96875 z"
             id="use811" />
        </g>
      </g>
      <g
         id="line2d_29"
         transform="translate(66,-19.5)">
        <defs
           id="defs820">
          <path
             d="M -3,3 H 3 V -3 H -3 Z"
             id="mcea80ab8d4"
             style="stroke:#000000;stroke-linejoin:miter" />
        </defs>
        <g
           id="g824">
          <use
             style="fill-opacity:0;stroke:#000000;stroke-linejoin:miter"
             x="39.66"
             xlink:href="#mcea80ab8d4"
             y="95.081078"
             id="use822"
             width="100%"
             height="100%" />
        </g>
      </g>
      <g
         id="text_20"
         transform="translate(66,-19.5)">
        <!-- Undefined -->
        <defs
           id="defs828">
          <path
             d="m 8.6875,72.90625 h 9.921875 V 28.609375 q 0,-11.71875 4.234375,-16.875 4.25,-5.140625 13.78125,-5.140625 9.46875,0 13.71875,5.140625 4.25,5.15625 4.25,16.875 V 72.90625 H 64.5 V 27.390625 q 0,-14.25 -7.0625,-21.53125 -7.046875,-7.28125 -20.8125,-7.28125 -13.828125,0 -20.890625,7.28125 Q 8.6875,13.140625 8.6875,27.390625 Z"
             id="DejaVuSans-85" />
        </defs>
        <g
           transform="matrix(0.06,0,0,-0.06,50.46,97.181077)"
           id="g848">
          <use
             xlink:href="#DejaVuSans-85"
             id="use830"
             x="0"
             y="0"
             width="100%"
             height="100%" />
          <path
             d="M 128.08398,33.015625 V 0 h -8.98437 v 32.71875 q 0,7.765625 -3.03125,11.609375 -3.03125,3.859375 -9.07813,3.859375 -7.281246,0 -11.484371,-4.640625 -4.203125,-4.625 -4.203125,-12.640625 V 0 h -9.03125 v 54.6875 h 9.03125 v -8.5 q 3.234375,4.9375 7.59375,7.375 Q 103.27148,56 108.99023,56 q 9.42188,0 14.25,-5.828125 4.84375,-5.828125 4.84375,-17.15625 z"
             id="use832" />
          <use
             x="136.57227"
             xlink:href="#DejaVuSans-100"
             id="use834"
             y="0"
             width="100%"
             height="100%" />
          <path
             d="m 256.25195,29.59375 v -4.390625 h -41.3125 q 0.59375,-9.28125 5.59375,-14.140625 5,-4.859375 13.9375,-4.859375 5.17188,0 10.03125,1.265625 4.85938,1.265625 9.65625,3.8125 v -8.5 q -4.84375,-2.046875 -9.92187,-3.125 -5.07813,-1.078125 -10.29688,-1.078125 -13.09375,0 -20.73437,7.609375 -7.64063,7.625 -7.64063,20.625 0,13.421875 7.25,21.296875 Q 220.06445,56 232.37695,56 q 11.03125,0 17.45313,-7.109375 6.42187,-7.09375 6.42187,-19.296875 z m -8.98437,2.640625 q -0.0937,7.359375 -4.125,11.75 -4.03125,4.40625 -10.67188,4.40625 -7.51562,0 -12.03125,-4.25 -4.51562,-4.25 -5.20312,-11.96875 z"
             id="use836" />
          <path
             d="M 298.68164,75.984375 V 68.5 h -8.59375 q -4.82812,0 -6.71875,-1.953125 -1.875,-1.953125 -1.875,-7.03125 V 54.6875 h 14.79688 V 47.703125 H 281.49414 V 0 h -9.03125 v 47.703125 h -8.59375 V 54.6875 h 8.59375 V 58.5 q 0,9.125 4.25,13.296875 4.25,4.1875 13.46875,4.1875 z"
             id="use838" />
          <path
             d="m 306.19922,54.6875 h 8.98437 V 0 h -8.98437 z m 0,21.296875 h 8.98437 V 64.59375 h -8.98437 z"
             id="use840" />
          <path
             d="M 379.45117,33.015625 V 0 h -8.98437 v 32.71875 q 0,7.765625 -3.03125,11.609375 -3.03125,3.859375 -9.07813,3.859375 -7.28125,0 -11.48437,-4.640625 -4.20313,-4.625 -4.20313,-12.640625 V 0 h -9.03125 v 54.6875 h 9.03125 v -8.5 q 3.23438,4.9375 7.59375,7.375 4.375,2.4375 10.09375,2.4375 9.42188,0 14.25,-5.828125 4.84375,-5.828125 4.84375,-17.15625 z"
             id="use842" />
          <path
             d="m 444.14258,29.59375 v -4.390625 h -41.3125 q 0.59375,-9.28125 5.59375,-14.140625 5,-4.859375 13.9375,-4.859375 5.17187,0 10.03125,1.265625 4.85937,1.265625 9.65625,3.8125 v -8.5 q -4.84375,-2.046875 -9.92188,-3.125 -5.07812,-1.078125 -10.29687,-1.078125 -13.09375,0 -20.73438,7.609375 -7.64062,7.625 -7.64062,20.625 0,13.421875 7.25,21.296875 Q 407.95508,56 420.26758,56 q 11.03125,0 17.45312,-7.109375 6.42188,-7.09375 6.42188,-19.296875 z m -8.98438,2.640625 q -0.0937,7.359375 -4.125,11.75 -4.03125,4.40625 -10.67187,4.40625 -7.51563,0 -12.03125,-4.25 -4.51563,-4.25 -5.20313,-11.96875 z"
             id="use844" />
          <use
             x="449.46289"
             xlink:href="#DejaVuSans-100"
             id="use846"
             y="0"
             width="100%"
             height="100%" />
        </g>
      </g>
    </g>
    <text
       xml:space="preserve"
       id="text2257"
       style="font-size:8px;line-height:1.25;font-family:sans-serif;letter-spacing:0px;white-space:pre;shape-inside:url(#rect2259);"
       transform="translate(24.933813,-45.666286)"><tspan
         x="41.824219"
         y="193.63281"><tspan
           style="shape-inside:url(#rect2259);stroke-linecap:butt;stroke-linejoin:round">Carbon use efficiency [-]</tspan></tspan></text>
    <text
       xml:space="preserve"
       id="text2441"
       style="font-size:8px;line-height:1.25;font-family:sans-serif;letter-spacing:0px;white-space:pre;shape-inside:url(#rect2443);"
       transform="rotate(-90,-29.680017,171.15837)"><tspan
         x="38.521484"
         y="198.03516"><tspan
           style="shape-inside:url(#rect2443);stroke-linecap:butt;stroke-linejoin:round">Growth rate [h</tspan><tspan
           style="font-size:65%;baseline-shift:super;stroke-linecap:butt;stroke-linejoin:round">-1</tspan><tspan
           style="shape-inside:url(#rect2443);stroke-linecap:butt;stroke-linejoin:round">]</tspan></tspan></text>
  </g>
</svg>
