<?xml version="1.0" encoding="UTF-8" standalone="no"?>
<svg
   xmlns:dc="http://purl.org/dc/elements/1.1/"
   xmlns:cc="http://creativecommons.org/ns#"
   xmlns:rdf="http://www.w3.org/1999/02/22-rdf-syntax-ns#"
   xmlns:svg="http://www.w3.org/2000/svg"
   xmlns="http://www.w3.org/2000/svg"
   xmlns:xlink="http://www.w3.org/1999/xlink"
   xmlns:sodipodi="http://sodipodi.sourceforge.net/DTD/sodipodi-0.dtd"
   xmlns:inkscape="http://www.inkscape.org/namespaces/inkscape"
   height="201.6pt"
   version="1.1"
   viewBox="0 0 216 201.6"
   width="216pt"
   id="svg2245"
   sodipodi:docname="generic_power_yield_copy.svg"
   inkscape:version="1.0.1 (c497b03c, 2020-09-10)">
  <metadata
     id="metadata2249">
    <rdf:RDF>
      <cc:Work
         rdf:about="">
        <dc:format>image/svg+xml</dc:format>
        <dc:type
           rdf:resource="http://purl.org/dc/dcmitype/StillImage" />
        <dc:title></dc:title>
      </cc:Work>
    </rdf:RDF>
  </metadata>
  <sodipodi:namedview
     pagecolor="#ffffff"
     bordercolor="#666666"
     borderopacity="1"
     objecttolerance="10"
     gridtolerance="10"
     guidetolerance="10"
     inkscape:pageopacity="0"
     inkscape:pageshadow="2"
     inkscape:window-width="1153"
     inkscape:window-height="657"
     id="namedview2247"
     showgrid="false"
     inkscape:zoom="1.1905584"
     inkscape:cx="182.40373"
     inkscape:cy="176.15237"
     inkscape:window-x="0"
     inkscape:window-y="23"
     inkscape:window-maximized="0"
     inkscape:current-layer="svg2245" />
  <defs
     id="defs1881">
    <style
       type="text/css"
       id="style1879">
*{stroke-linecap:butt;stroke-linejoin:round;}
  </style>
    <rect
       x="-156.5325"
       y="260.66064"
       width="198.72823"
       height="68.05761"
       id="rect3862" />
    <rect
       x="-156.5325"
       y="260.66064"
       width="198.72823"
       height="68.05761"
       id="rect2836" />
    <rect
       x="97.373421"
       y="-46.292282"
       width="75.82357"
       height="34.320141"
       id="rect12743" />
    <rect
       x="97.373421"
       y="-46.292282"
       width="75.82357"
       height="34.320141"
       id="rect2839" />
    <rect
       x="118.12514"
       y="-52.677425"
       width="88.593857"
       height="34.320141"
       id="rect12749" />
    <rect
       x="118.12514"
       y="-52.677425"
       width="88.593857"
       height="34.320141"
       id="rect2842" />
  </defs>
  <g
     id="matplotlib.axis_1">
    <g
       id="xtick_1">
      <g
         id="line2d_1">
        <defs
           id="defs1890">
          <path
             d="M 0,0 V 2"
             id="m40ffae875a"
             style="stroke:#000000;stroke-width:0.6" />
        </defs>
        <g
           id="g1894">
          <use
             style="stroke:#000000;stroke-width:0.6"
             x="57.21088"
             xlink:href="#m40ffae875a"
             y="176.39999"
             id="use1892"
             width="100%"
             height="100%" />
        </g>
      </g>
      <g
         id="text_1">
        <!-- 0.3 -->
        <defs
           id="defs1900">
          <path
             d="M 43.09375,32.390625 C 43.09375,38.109375 43,48.75 38.90625,56.984375 34.796875,64.890625 28.203125,67 23.5,67 16.703125,67 10.90625,62.984375 7.90625,56.578125 4.703125,49.859375 3.796875,42.9375 3.796875,32.390625 c 0,-7.21875 0.296875,-16.046875 3.90625,-23.78125 C 11.796875,0.09375 18.703125,-2 23.40625,-2 29.59375,-2 35.59375,1.296875 39,8.203125 c 3.5,7.234375 4.09375,15.15625 4.09375,24.1875 z M 23.40625,4.09375 C 15.796875,4.09375 13.5,12.828125 12.796875,15.734375 11.59375,20.75 11.40625,25.5625 11.40625,33.5 c 0,6.21875 0,13.25 1.890625,18.765625 2.296875,6.421875 6.296875,8.625 10.109375,8.625 7.390625,0 9.796875,-7.421875 10.59375,-10.03125 C 35.5,45.546875 35.5,39.3125 35.5,33.5 35.5,24.15625 35.5,4.09375 23.40625,4.09375 Z"
             id="CMSS17-48" />
          <path
             d="M 17,8 H 9 V 0 h 8 z"
             id="CMSS17-46" />
          <path
             d="M 15.703125,32.1875 H 22.5 c 9.40625,0 12.09375,-8.25 12.09375,-14 0,-7.84375 -4.390625,-14 -11.59375,-14 -5.59375,0 -13.5,2.828125 -18,10.28125 C 4.296875,10.9375 4.296875,10.734375 3.90625,8.328125 8.59375,1.390625 16.203125,-2 23.203125,-2 34.59375,-2 43,7.515625 43,18.09375 43,26.046875 37.5,32.6875 30,35.1875 c 6,3.296875 10.40625,9.5 10.40625,16.703125 C 40.40625,60.296875 32.703125,67 23.296875,67 14.703125,67 8,61.6875 5.203125,55.984375 c 0.703125,-1 2.5,-3.890625 3.390625,-5.390625 2.203125,5.890625 7.90625,10.296875 14.609375,10.296875 5.59375,0 9.296875,-3.703125 9.296875,-9 0,-5.5 -3.5,-11.5 -9.40625,-12.890625 C 22.703125,39 16.5,38.390625 15.703125,38.296875 Z"
             id="CMSS17-51" />
        </defs>
        <g
           transform="matrix(0.09,0,0,-0.09,51.323276,188.02665)"
           id="g1908">
          <use
             transform="scale(0.996264)"
             xlink:href="#CMSS17-48"
             id="use1902"
             x="0"
             y="0"
             width="100%"
             height="100%" />
          <use
             transform="matrix(0.996264,0,0,0.996264,46.843624,0)"
             xlink:href="#CMSS17-46"
             id="use1904"
             x="0"
             y="0"
             width="100%"
             height="100%" />
          <use
             transform="matrix(0.996264,0,0,0.996264,72.867828,0)"
             xlink:href="#CMSS17-51"
             id="use1906"
             x="0"
             y="0"
             width="100%"
             height="100%" />
        </g>
      </g>
    </g>
    <g
       id="xtick_2">
      <g
         id="line2d_2">
        <g
           id="g1914">
          <use
             style="stroke:#000000;stroke-width:0.6"
             x="110.30407"
             xlink:href="#m40ffae875a"
             y="176.39999"
             id="use1912"
             width="100%"
             height="100%" />
        </g>
      </g>
      <g
         id="text_2">
        <!-- 0.4 -->
        <defs
           id="defs1918">
          <path
             d="m 35.203125,17 h 9.09375 v 6.09375 h -9.09375 V 66 H 26.40625 L 2.59375,23.09375 V 17 H 27.296875 V 0 h 7.90625 z m -24.90625,6.09375 C 16.09375,33.421875 27.59375,54.28125 27.59375,61.359375 V 23.09375 Z"
             id="CMSS17-52" />
        </defs>
        <g
           transform="matrix(0.09,0,0,-0.09,104.41646,188.02665)"
           id="g1926">
          <use
             transform="scale(0.996264)"
             xlink:href="#CMSS17-48"
             id="use1920"
             x="0"
             y="0"
             width="100%"
             height="100%" />
          <use
             transform="matrix(0.996264,0,0,0.996264,46.843624,0)"
             xlink:href="#CMSS17-46"
             id="use1922"
             x="0"
             y="0"
             width="100%"
             height="100%" />
          <use
             transform="matrix(0.996264,0,0,0.996264,72.867828,0)"
             xlink:href="#CMSS17-52"
             id="use1924"
             x="0"
             y="0"
             width="100%"
             height="100%" />
        </g>
      </g>
    </g>
    <g
       id="xtick_3">
      <g
         id="line2d_3">
        <g
           id="g1932">
          <use
             style="stroke:#000000;stroke-width:0.6"
             x="151.48634"
             xlink:href="#m40ffae875a"
             y="176.39999"
             id="use1930"
             width="100%"
             height="100%" />
        </g>
      </g>
      <g
         id="text_3">
        <!-- 0.5 -->
        <defs
           id="defs1936">
          <path
             d="m 14.59375,59.59375 h 24.5 V 66 H 7.296875 V 28.59375 H 14 C 15.796875,32.859375 19.5,36 24.296875,36 c 4.5,0 9.5,-4.0625 9.5,-15.703125 C 33.796875,7.84375 26.703125,4.1875 21.5,4.1875 15.09375,4.1875 9.203125,8.140625 6.59375,13.609375 L 3.40625,7.9375 C 8,0.796875 15.5,-2 21.5,-2 c 11.59375,0 20.703125,9.9375 20.703125,22.09375 0,12.453125 -8.109375,22 -17.796875,22 -3.5,0 -6.90625,-1.203125 -9.8125,-3.59375 z"
             id="CMSS17-53" />
        </defs>
        <g
           transform="matrix(0.09,0,0,-0.09,145.59874,188.02665)"
           id="g1944">
          <use
             transform="scale(0.996264)"
             xlink:href="#CMSS17-48"
             id="use1938"
             x="0"
             y="0"
             width="100%"
             height="100%" />
          <use
             transform="matrix(0.996264,0,0,0.996264,46.843624,0)"
             xlink:href="#CMSS17-46"
             id="use1940"
             x="0"
             y="0"
             width="100%"
             height="100%" />
          <use
             transform="matrix(0.996264,0,0,0.996264,72.867828,0)"
             xlink:href="#CMSS17-53"
             id="use1942"
             x="0"
             y="0"
             width="100%"
             height="100%" />
        </g>
      </g>
    </g>
    <g
       id="xtick_4">
      <g
         id="line2d_4">
        <g
           id="g1950">
          <use
             style="stroke:#000000;stroke-width:0.6"
             x="185.1347"
             xlink:href="#m40ffae875a"
             y="176.39999"
             id="use1948"
             width="100%"
             height="100%" />
        </g>
      </g>
      <g
         id="text_4">
        <!-- 0.6 -->
        <defs
           id="defs1954">
          <path
             d="M 39,64.984375 C 34.796875,66.6875 31.796875,67 29,67 16,67 3.90625,53.25 3.90625,31.609375 3.90625,4.1875 15.40625,-2 23.59375,-2 c 4.5,0 9,1.390625 13.3125,6.390625 C 41.296875,9.671875 43,14.0625 43,21.75 43,34.109375 36.90625,45.09375 27.796875,45.09375 21.203125,45.09375 15.5,41.59375 12,37.203125 c 1,14.203125 7.59375,23.6875 17.09375,23.6875 2.609375,0 6,-0.40625 9.90625,-2.140625 z M 12.09375,21.4375 c 0,0.796875 0,1.296875 0.109375,2.796875 C 12.203125,32.015625 16.703125,39 24,39 28.703125,39 31.09375,36.5 32.90625,33.40625 35,29.515625 35.09375,25.828125 35.09375,21.75 c 0,-3.890625 0,-7.78125 -2.296875,-11.78125 C 30.90625,6.890625 28.40625,4.1875 23.59375,4.1875 c -9.5,0 -11.09375,13.265625 -11.5,17.25 z"
             id="CMSS17-54" />
        </defs>
        <g
           transform="matrix(0.09,0,0,-0.09,179.2471,188.02665)"
           id="g1962">
          <use
             transform="scale(0.996264)"
             xlink:href="#CMSS17-48"
             id="use1956"
             x="0"
             y="0"
             width="100%"
             height="100%" />
          <use
             transform="matrix(0.996264,0,0,0.996264,46.843624,0)"
             xlink:href="#CMSS17-46"
             id="use1958"
             x="0"
             y="0"
             width="100%"
             height="100%" />
          <use
             transform="matrix(0.996264,0,0,0.996264,72.867828,0)"
             xlink:href="#CMSS17-54"
             id="use1960"
             x="0"
             y="0"
             width="100%"
             height="100%" />
        </g>
      </g>
    </g>
    <g
       id="text_5">
      <!-- $\textnormal{Growth yield}\,\, [\,\textnormal{-}\,]$ -->
      <defs
         id="defs1980">
        <path
           d="m 62.09375,19.65625 c 0,3.828125 0.3125,4.34375 6.5,4.34375 v 2.59375 c -2.390625,-0.203125 -7.796875,-0.203125 -10.5,-0.203125 C 55.296875,26.390625 47.5,26.5 43.703125,26.59375 V 24 h 3 C 55.296875,24 55.5,22.875 55.5,19.25 v -6.65625 c 0,-11.09375 -13,-12 -16.09375,-12 -10.3125,0 -27.203125,7.15625 -27.203125,33.453125 0,26.296875 16.59375,33.34375 26.296875,33.34375 11.296875,0 19.5,-9.875 21.40625,-23.875 0.1875,-1.203125 0.1875,-1.40625 1.09375,-1.40625 1.09375,0 1.09375,0.203125 1.09375,2.015625 v 23.859375 c 0,1.8125 -0.09375,1.90625 -0.6875,1.90625 -0.40625,0 -0.5,-0.09375 -1.203125,-1.296875 l -4.40625,-8.453125 C 50.90625,66.390625 44.90625,70 37.203125,70 20.09375,70 4.59375,54.796875 4.59375,34.046875 4.59375,13.40625 19.796875,-2 37.40625,-2 c 8.09375,0 16,2.890625 19.09375,8.640625 1.703125,-4.125 4.5,-6.953125 5,-6.953125 0.5,0 0.59375,0.109375 0.59375,1.90625 z"
           id="CMR17-71" />
        <path
           d="m 15,23.703125 c 0,9.640625 4.09375,18.6875 11.59375,18.6875 0.703125,0 1.40625,-0.09375 2.109375,-0.40625 0,0 -2.203125,-0.703125 -2.203125,-3.3125 0,-2.40625 1.90625,-3.40625 3.40625,-3.40625 1.1875,0 3.390625,0.703125 3.390625,3.515625 0,3.203125 -3.203125,5.21875 -6.59375,5.21875 -7.609375,0 -10.90625,-7.4375 -11.90625,-10.953125 h -0.09375 V 44 L 3.09375,42.890625 V 40.28125 c 5.90625,0 6.8125,-0.59375 6.8125,-5.421875 V 6.921875 C 9.90625,3.09375 9.5,2.59375 3.09375,2.59375 V 0 c 2.40625,0.1875 7,0.1875 9.609375,0.1875 2.890625,0 8,0 10.703125,-0.1875 v 2.59375 c -7.203125,0 -8.40625,0 -8.40625,4.515625 z"
           id="CMR17-114" />
        <path
           d="M 43.09375,21.1875 C 43.09375,34 33.796875,44 22.90625,44 12,44 2.703125,34 2.703125,21.1875 2.703125,8.59375 12,-1 22.90625,-1 c 10.890625,0 20.1875,9.59375 20.1875,22.1875 z M 22.90625,0.796875 c -4.703125,0 -8.703125,2.796875 -11,6.703125 -2.5,4.5 -2.8125,10.09375 -2.8125,14.5 0,4.1875 0.203125,9.390625 2.8125,13.890625 2,3.296875 5.890625,6.5 11,6.5 4.5,0 8.296875,-2.5 10.6875,-6 C 36.703125,31.6875 36.703125,25.09375 36.703125,22 36.703125,18.09375 36.5,12.09375 33.796875,7.296875 31,2.6875 26.703125,0.796875 22.90625,0.796875 Z"
           id="CMR17-111" />
        <path
           d="m 58.203125,34.15625 c 2,5.9375 6,6.140625 7.5,6.234375 V 43 c -2,-0.109375 -4,-0.203125 -6,-0.203125 -1.90625,0 -6.203125,0 -7.90625,0.203125 V 40.390625 C 54.90625,40.1875 56.59375,38.375 56.59375,35.875 c 0,-0.703125 -0.1875,-1.609375 -0.390625,-2.3125 L 46.796875,6.21875 36.59375,35.875 c -0.1875,0.703125 -0.5,1.5 -0.5,1.90625 0,2.609375 3.40625,2.609375 5,2.609375 V 43 c -2.296875,-0.203125 -6.5,-0.203125 -8.890625,-0.203125 -2.5,0 -5.109375,0 -7.40625,0.203125 v -2.609375 c 5.5,0 5.5,-0.203125 7.609375,-6.53125 l -9.203125,-26.9375 -9.90625,29.046875 c -0.5,1.3125 -0.5,1.515625 -0.5,1.8125 0,2.609375 3.40625,2.609375 5,2.609375 V 43 C 15.40625,42.796875 11.203125,42.796875 8.703125,42.796875 6.5,42.796875 3.09375,42.796875 1,43 v -2.609375 c 4.40625,0 5.5,-0.296875 6.59375,-3.625 L 19.90625,0.59375 C 20.296875,-0.703125 20.59375,-1 21.40625,-1 22.09375,-1 22.5,-0.8125 23,0.6875 L 33.296875,31.046875 43.703125,0.6875 c 0.5,-1.5 0.890625,-1.6875 1.59375,-1.6875 0.796875,0 1.109375,0.296875 1.5,1.59375 z"
           id="CMR17-119" />
        <path
           d="m 15.09375,40.390625 h 14 V 43 h -14 V 62 H 13.296875 C 13.09375,51.4375 9.59375,42.1875 1.09375,41.984375 v -1.59375 H 9.796875 V 12.15625 c 0,-1.921875 0,-13.15625 11.609375,-13.15625 5.890625,0 9.296875,5.8125 9.296875,13.25 v 5.734375 H 28.90625 V 12.34375 C 28.90625,5.421875 26.203125,0.796875 22,0.796875 c -2.90625,0 -6.90625,2 -6.90625,11.15625 z"
           id="CMR17-116" />
        <path
           d="M 41.5,30.53125 C 41.5,35.65625 40.5,44 28.703125,44 20.5,44 16.5,37.375 15.296875,34.046875 h -0.09375 V 69 L 3.296875,67.890625 v -2.59375 c 5.90625,0 6.796875,-0.59375 6.796875,-5.25 v -53.125 C 10.09375,3.09375 9.703125,2.59375 3.296875,2.59375 V 0 c 2.40625,0.1875 6.796875,0.1875 9.40625,0.1875 2.59375,0 7.09375,0 9.5,-0.1875 V 2.59375 C 15.796875,2.59375 15.40625,3 15.40625,6.921875 V 26.21875 C 15.40625,35.453125 21,42.390625 28,42.390625 c 7.40625,0 8.203125,-6.625 8.203125,-11.453125 V 6.921875 c 0,-3.828125 -0.40625,-4.328125 -6.796875,-4.328125 V 0 c 2.390625,0.1875 6.796875,0.1875 9.390625,0.1875 2.609375,0 7.109375,0 9.5,-0.1875 V 2.59375 C 41.90625,2.59375 41.5,3 41.5,6.921875 Z"
           id="CMR17-104" />
        <path
           d="m 39,34.109375 c 2.5,6.1875 7,6.28125 8.40625,6.28125 V 43 C 45.5,42.890625 43,42.796875 41.09375,42.796875 c -2.09375,0 -5.390625,0 -7.390625,0.203125 V 40.390625 C 37.5,40.09375 37.59375,37.25 37.59375,36.4375 c 0,-1 -0.1875,-1.515625 -0.6875,-2.71875 L 26,6.390625 14.09375,35.9375 c -0.5,1.21875 -0.5,1.921875 -0.5,2.03125 0,2.21875 2.3125,2.421875 4.703125,2.421875 V 43 C 15.90625,42.796875 11.59375,42.796875 9.09375,42.796875 c -2.6875,0 -5.890625,0 -8.09375,0.203125 v -2.609375 c 5.40625,0 6,-0.5 7.296875,-3.75 l 14.90625,-37.125 c -4.5,-11.9375 -7.109375,-18.921875 -13.40625,-18.921875 -1.09375,0 -3.59375,0.296875 -5.390625,2.125 2.296875,0.203125 3.296875,1.625 3.296875,3.34375 0,1.71875 -1.203125,3.234375 -3.203125,3.234375 -2.203125,0 -3.296875,-1.515625 -3.296875,-3.34375 0,-4.046875 4.09375,-6.953125 8.59375,-6.953125 5.796875,0 9.40625,5.640625 11.40625,10.703125 z"
           id="CMR17-121" />
        <path
           d="M 15.5,61.890625 C 15.5,64.09375 13.703125,66 11.40625,66 9.203125,66 7.296875,64.1875 7.296875,61.890625 c 0,-2.203125 1.796875,-4.09375 4.109375,-4.09375 2.1875,0 4.09375,1.796875 4.09375,4.09375 z m -11.703125,-19 v -2.59375 c 5.609375,0 6.40625,-0.609375 6.40625,-5.4375 V 6.921875 C 10.203125,3.09375 9.796875,2.59375 3.40625,2.59375 V 0 c 2.390625,0.1875 6.6875,0.1875 9.1875,0.1875 2.40625,0 6.5,0 8.8125,-0.1875 v 2.59375 c -5.90625,0 -6.109375,0.609375 -6.109375,4.21875 V 44 Z"
           id="CMR17-105" />
        <path
           d="M 38.09375,23.484375 C 38.5,23.890625 38.5,24.09375 38.5,25.09375 38.5,35.171875 33.09375,44 21.703125,44 c -10.609375,0 -19,-10.015625 -19,-22.21875 C 2.703125,8.65625 12.203125,-1 22.796875,-1 34,-1 38.40625,9.671875 38.40625,11.796875 38.40625,12.5 37.796875,12.5 37.59375,12.5 c -0.6875,0 -0.796875,-0.203125 -1.1875,-1.421875 C 34.203125,4.21875 28.703125,0.796875 23.5,0.796875 19.203125,0.796875 14.90625,3.21875 12.203125,7.65625 9.09375,12.796875 9.09375,18.75 9.09375,23.484375 Z M 9.203125,25 C 9.90625,39.234375 17.59375,42.390625 21.59375,42.390625 28.40625,42.390625 33,36.0625 33.09375,25 Z"
           id="CMR17-101" />
        <path
           d="M 15.296875,69 3.40625,67.890625 v -2.59375 c 5.890625,0 6.796875,-0.59375 6.796875,-5.375 V 6.859375 C 10.203125,3.09375 9.796875,2.59375 3.40625,2.59375 V 0 c 2.390625,0.1875 6.796875,0.1875 9.296875,0.1875 2.59375,0 7,0 9.390625,-0.1875 v 2.59375 c -6.390625,0 -6.796875,0.390625 -6.796875,4.265625 z"
           id="CMR17-108" />
        <path
           d="m 29.203125,67.890625 v -2.59375 c 5.890625,0 6.796875,-0.59375 6.796875,-5.25 v -23 C 35.59375,37.546875 31.5,44 23.40625,44 13.203125,44 3.296875,34.8125 3.296875,21.5 3.296875,8.265625 12.59375,-1 22.40625,-1 c 8.5,0 12.890625,6.640625 13.390625,7.34375 V -1 L 47.90625,-0.203125 V 2.40625 c -5.90625,0 -6.8125,0.609375 -6.8125,5.453125 V 69 Z M 35.796875,11.90625 C 35.796875,8.875 34,6.140625 31.703125,4.125 28.296875,1.09375 24.90625,0.59375 23,0.59375 c -2.90625,0 -13.296875,1.515625 -13.296875,20.796875 0,19.796875 11.59375,21 14.203125,21 4.59375,0 8.296875,-2.625 10.59375,-6.25 1.296875,-2.125 1.296875,-2.4375 1.296875,-4.25 z"
           id="CMR17-100" />
        <path
           d="m 23.5,-25 v 3.5 H 14.09375 V 71.484375 H 23.5 V 75 H 10.59375 V -25 Z"
           id="CMR17-91" />
        <path
           d="M 25.5,19.59375 V 24 H 0.40625 v -4.40625 z"
           id="CMR17-45" />
        <path
           d="M 14.296875,75 H 1.40625 v -3.515625 h 9.390625 V -21.5 H 1.40625 V -25 h 12.890625 z"
           id="CMR17-93" />
      </defs>
      <g
         transform="matrix(0.09,0,0,-0.09,77.122326,200.49489)"
         id="g2010">
        <use
           transform="scale(0.996264)"
           xlink:href="#CMR17-71"
           id="use1982"
           x="0"
           y="0"
           width="100%"
           height="100%" />
        <use
           transform="matrix(0.996264,0,0,0.996264,72.355346,0)"
           xlink:href="#CMR17-114"
           id="use1984"
           x="0"
           y="0"
           width="100%"
           height="100%" />
        <use
           transform="matrix(0.996264,0,0,0.996264,107.63611,0)"
           xlink:href="#CMR17-111"
           id="use1986"
           x="0"
           y="0"
           width="100%"
           height="100%" />
        <use
           transform="matrix(0.996264,0,0,0.996264,150.72414,0)"
           xlink:href="#CMR17-119"
           id="use1988"
           x="0"
           y="0"
           width="100%"
           height="100%" />
        <use
           transform="matrix(0.996264,0,0,0.996264,217.23402,0)"
           xlink:href="#CMR17-116"
           id="use1990"
           x="0"
           y="0"
           width="100%"
           height="100%" />
        <use
           transform="matrix(0.996264,0,0,0.996264,252.51478,0)"
           xlink:href="#CMR17-104"
           id="use1992"
           x="0"
           y="0"
           width="100%"
           height="100%" />
        <use
           transform="matrix(0.996264,0,0,0.996264,333.48612,0)"
           xlink:href="#CMR17-121"
           id="use1994"
           x="0"
           y="0"
           width="100%"
           height="100%" />
        <use
           transform="matrix(0.996264,0,0,0.996264,381.77904,0)"
           xlink:href="#CMR17-105"
           id="use1996"
           x="0"
           y="0"
           width="100%"
           height="100%" />
        <use
           transform="matrix(0.996264,0,0,0.996264,406.6501,0)"
           xlink:href="#CMR17-101"
           id="use1998"
           x="0"
           y="0"
           width="100%"
           height="100%" />
        <use
           transform="matrix(0.996264,0,0,0.996264,447.13576,0)"
           xlink:href="#CMR17-108"
           id="use2000"
           x="0"
           y="0"
           width="100%"
           height="100%" />
        <use
           transform="matrix(0.996264,0,0,0.996264,472.00682,0)"
           xlink:href="#CMR17-100"
           id="use2002"
           x="0"
           y="0"
           width="100%"
           height="100%" />
        <use
           transform="matrix(0.996264,0,0,0.996264,556.11099,0)"
           xlink:href="#CMR17-91"
           id="use2004"
           x="0"
           y="0"
           width="100%"
           height="100%" />
        <use
           transform="matrix(0.996264,0,0,0.996264,597.58646,0)"
           xlink:href="#CMR17-45"
           id="use2006"
           x="0"
           y="0"
           width="100%"
           height="100%" />
        <use
           transform="matrix(0.996264,0,0,0.996264,644.26683,0)"
           xlink:href="#CMR17-93"
           id="use2008"
           x="0"
           y="0"
           width="100%"
           height="100%" />
      </g>
    </g>
  </g>
  <g
     id="matplotlib.axis_2">
    <g
       id="ytick_1">
      <g
         id="line2d_5">
        <defs
           id="defs2015">
          <path
             d="M 0,0 H -3.5"
             id="m92db114229"
             style="stroke:#000000;stroke-width:0.8" />
        </defs>
        <g
           id="g2019">
          <use
             style="stroke:#000000;stroke-width:0.8"
             x="27"
             xlink:href="#m92db114229"
             y="169.48146"
             id="use2017"
             width="100%"
             height="100%" />
        </g>
      </g>
      <g
         id="text_6">
        <!-- $10^{-5}$ -->
        <defs
           id="defs2026">
          <path
             d="M 26.59375,63.796875 C 26.59375,65.890625 26.5,66 25.09375,66 21.203125,61.359375 15.296875,59.890625 9.703125,59.6875 c -0.296875,0 -0.796875,0 -0.90625,-0.1875 C 8.703125,59.296875 8.703125,59.09375 8.703125,57 11.796875,57 17,57.59375 21,59.984375 v -52.6875 c 0,-3.5 -0.203125,-4.703125 -8.796875,-4.703125 h -3 V 0 C 14,0.09375 19,0.1875 23.796875,0.1875 28.59375,0.1875 33.59375,0.09375 38.40625,0 v 2.59375 h -3 c -8.609375,0 -8.8125,1.09375 -8.8125,4.703125 z"
             id="CMR17-49" />
          <path
             d="m 42,31.84375 c 0,6.125 -0.09375,16.578125 -4.296875,24.609375 C 34,63.484375 28.09375,66 22.90625,66 18.09375,66 12,63.78125 8.203125,56.5625 4.203125,49.015625 3.796875,39.671875 3.796875,31.84375 3.796875,26.109375 3.90625,17.375 7,9.734375 11.296875,-0.609375 19,-2 22.90625,-2 27.5,-2 34.5,-0.109375 38.59375,9.4375 41.59375,16.375 42,24.5 42,31.84375 Z m -19.09375,-32.25 C 16.5,-0.40625 12.703125,5.125 11.296875,12.75 c -1.09375,5.9375 -1.09375,14.578125 -1.09375,20.203125 0,7.734375 0,14.15625 1.296875,20.28125 1.90625,8.546875 7.5,11.15625 11.40625,11.15625 4.09375,0 9.390625,-2.71875 11.296875,-10.953125 C 35.5,47.71875 35.59375,40.984375 35.59375,32.953125 c 0,-6.53125 0,-14.578125 -1.1875,-20.5 -2.109375,-10.953125 -8,-12.859375 -11.5,-12.859375 z"
             id="CMR17-48" />
          <path
             d="m 65.90625,23 c 1.6875,0 3.5,0 3.5,2 0,2 -1.8125,2 -3.5,2 H 11.796875 c -1.703125,0 -3.5,0 -3.5,-2 0,-2 1.796875,-2 3.5,-2 z"
             id="CMSY10-0" />
          <path
             d="m 11.40625,58.59375 c 1,-0.40625 5.09375,-1.703125 9.296875,-1.703125 9.296875,0 14.390625,5 17.296875,7.796875 C 38,65.484375 38,66 37.40625,66 c -0.109375,0 -0.3125,0 -1.109375,-0.40625 -3.5,-1.5 -7.59375,-2.59375 -12.59375,-2.59375 -3,0 -7.5,0.359375 -12.40625,2.484375 C 10.203125,66 10,66 9.90625,66 9.40625,66 9.296875,65.890625 9.296875,63.90625 V 34.859375 c 0,-1.84375 0,-2.359375 1,-2.359375 0.5,0 0.703125,0.203125 1.203125,0.921875 C 14.703125,38.046875 19.09375,40 24.09375,40 c 3.5,0 11,-2.265625 11,-19.796875 0,-3.21875 0,-9.015625 -3,-13.609375 -2.5,-4.109375 -6.390625,-6.203125 -10.6875,-6.203125 -6.609375,0 -13.3125,4.59375 -15.109375,12.296875 C 6.703125,12.59375 7.5,12.390625 7.90625,12.390625 c 1.296875,0 3.796875,0.703125 3.796875,3.796875 C 11.703125,18.890625 9.796875,20 7.90625,20 5.59375,20 4.09375,18.59375 4.09375,15.796875 4.09375,7.09375 11,-2 21.59375,-2 c 10.3125,0 20.109375,8.890625 20.109375,21.796875 0,12.296875 -7.796875,21.796875 -17.5,21.796875 -5.109375,0 -9.40625,-1.90625 -12.796875,-5.59375 z"
             id="CMR17-53" />
        </defs>
        <g
           transform="matrix(0.09,0,0,-0.09,1.375567,172.59478)"
           id="g2036">
          <use
             transform="scale(0.996264)"
             xlink:href="#CMR17-49"
             id="use2028"
             x="0"
             y="0"
             width="100%"
             height="100%" />
          <use
             transform="matrix(0.996264,0,0,0.996264,45.690477,0)"
             xlink:href="#CMR17-48"
             id="use2030"
             x="0"
             y="0"
             width="100%"
             height="100%" />
          <use
             transform="matrix(0.697382,0,0,0.697382,91.380954,36.153639)"
             xlink:href="#CMSY10-0"
             id="use2032"
             x="0"
             y="0"
             width="100%"
             height="100%" />
          <use
             transform="matrix(0.697382,0,0,0.697382,145.62195,36.153639)"
             xlink:href="#CMR17-53"
             id="use2034"
             x="0"
             y="0"
             width="100%"
             height="100%" />
        </g>
      </g>
    </g>
    <g
       id="ytick_2">
      <g
         id="line2d_6">
        <g
           id="g2042">
          <use
             style="stroke:#000000;stroke-width:0.8"
             x="27"
             xlink:href="#m92db114229"
             y="140.09291"
             id="use2040"
             width="100%"
             height="100%" />
        </g>
      </g>
      <g
         id="text_7">
        <!-- $10^{-4}$ -->
        <defs
           id="defs2046">
          <path
             d="M 33.59375,64.796875 C 33.59375,66.890625 33.5,67 31.703125,67 L 2,19.59375 V 17 H 27.796875 V 7.1875 c 0,-3.59375 -0.203125,-4.59375 -7.203125,-4.59375 H 18.703125 V 0 c 3.203125,0.1875 8.59375,0.1875 12,0.1875 3.390625,0 8.796875,0 12,-0.1875 v 2.59375 h -1.90625 c -7,0 -7.203125,1 -7.203125,4.59375 V 17 h 10.203125 v 2.59375 H 33.59375 Z m -5.5,-6.625 V 19.59375 H 4 Z"
             id="CMR17-52" />
        </defs>
        <g
           transform="matrix(0.09,0,0,-0.09,1.375567,143.20623)"
           id="g2056">
          <use
             transform="scale(0.996264)"
             xlink:href="#CMR17-49"
             id="use2048"
             x="0"
             y="0"
             width="100%"
             height="100%" />
          <use
             transform="matrix(0.996264,0,0,0.996264,45.690477,0)"
             xlink:href="#CMR17-48"
             id="use2050"
             x="0"
             y="0"
             width="100%"
             height="100%" />
          <use
             transform="matrix(0.697382,0,0,0.697382,91.380954,36.153639)"
             xlink:href="#CMSY10-0"
             id="use2052"
             x="0"
             y="0"
             width="100%"
             height="100%" />
          <use
             transform="matrix(0.697382,0,0,0.697382,145.62195,36.153639)"
             xlink:href="#CMR17-52"
             id="use2054"
             x="0"
             y="0"
             width="100%"
             height="100%" />
        </g>
      </g>
    </g>
    <g
       id="ytick_3">
      <g
         id="line2d_7">
        <g
           id="g2062">
          <use
             style="stroke:#000000;stroke-width:0.8"
             x="27"
             xlink:href="#m92db114229"
             y="110.70435"
             id="use2060"
             width="100%"
             height="100%" />
        </g>
      </g>
      <g
         id="text_8">
        <!-- $10^{-3}$ -->
        <defs
           id="defs2066">
          <path
             d="M 22.09375,34 C 31,34 34.90625,26.140625 34.90625,17.09375 34.90625,5.03125 28.5,0.390625 22.703125,0.390625 c -5.296875,0 -13.90625,2.625 -16.609375,10.40625 0.5,-0.203125 1,-0.203125 1.5,-0.203125 2.40625,0 4.203125,1.59375 4.203125,4.203125 C 11.796875,17.6875 9.59375,19 7.59375,19 5.90625,19 3.296875,18.1875 3.296875,14.484375 3.296875,5.234375 12.296875,-2 22.90625,-2 34,-2 42.5,6.75 42.5,16.984375 42.5,26.84375 34.5,34 25,35.09375 32.59375,36.671875 39.90625,43.375 39.90625,52.390625 39.90625,60.25 32,66 23,66 13.90625,66 5.90625,60.34375 5.90625,52.296875 c 0,-3.5 2.59375,-4.109375 3.890625,-4.109375 2.109375,0 3.90625,1.296875 3.90625,3.90625 C 13.703125,54.6875 11.90625,56 9.796875,56 9.40625,56 8.90625,56 8.5,55.796875 c 2.90625,6.6875 10.796875,7.890625 14.296875,7.890625 3.5,0 10.109375,-1.71875 10.109375,-11.390625 0,-2.8125 -0.40625,-7.75 -3.8125,-12.078125 -3,-3.828125 -6.390625,-4.03125 -9.6875,-4.328125 -0.5,0 -2.8125,-0.203125 -3.203125,-0.203125 C 15.5,35.59375 15.09375,35.5 15.09375,34.796875 15.09375,34.09375 15.203125,34 17.203125,34 Z"
             id="CMR17-51" />
        </defs>
        <g
           transform="matrix(0.09,0,0,-0.09,1.375567,113.81768)"
           id="g2076">
          <use
             transform="scale(0.996264)"
             xlink:href="#CMR17-49"
             id="use2068"
             x="0"
             y="0"
             width="100%"
             height="100%" />
          <use
             transform="matrix(0.996264,0,0,0.996264,45.690477,0)"
             xlink:href="#CMR17-48"
             id="use2070"
             x="0"
             y="0"
             width="100%"
             height="100%" />
          <use
             transform="matrix(0.697382,0,0,0.697382,91.380954,36.153639)"
             xlink:href="#CMSY10-0"
             id="use2072"
             x="0"
             y="0"
             width="100%"
             height="100%" />
          <use
             transform="matrix(0.697382,0,0,0.697382,145.62195,36.153639)"
             xlink:href="#CMR17-51"
             id="use2074"
             x="0"
             y="0"
             width="100%"
             height="100%" />
        </g>
      </g>
    </g>
    <g
       id="ytick_4">
      <g
         id="line2d_8">
        <g
           id="g2082">
          <use
             style="stroke:#000000;stroke-width:0.8"
             x="27"
             xlink:href="#m92db114229"
             y="81.315811"
             id="use2080"
             width="100%"
             height="100%" />
        </g>
      </g>
      <g
         id="text_9">
        <!-- $10^{-2}$ -->
        <defs
           id="defs2086">
          <path
             d="M 41.703125,15.46875 H 39.90625 c -1,-7.078125 -1.8125,-8.28125 -2.203125,-8.875 C 37.203125,5.796875 30,5.796875 28.59375,5.796875 H 9.40625 C 13,9.6875 20,16.765625 28.5,24.9375 34.59375,30.71875 41.703125,37.5 41.703125,47.390625 41.703125,59.1875 32.296875,66 21.796875,66 c -11,0 -17.703125,-9.703125 -17.703125,-18.703125 0,-3.90625 2.90625,-4.40625 4.109375,-4.40625 1,0 4,0.59375 4,4.09375 C 12.203125,50.09375 9.59375,51 8.203125,51 7.59375,51 7,50.890625 6.59375,50.6875 c 1.90625,8.5 7.703125,12.703125 13.8125,12.703125 8.6875,0 14.390625,-6.890625 14.390625,-16 0,-8.6875 -5.09375,-16.171875 -10.796875,-22.65625 L 4.09375,2.296875 V 0 h 35.203125 z"
             id="CMR17-50" />
        </defs>
        <g
           transform="matrix(0.09,0,0,-0.09,1.375567,84.429134)"
           id="g2096">
          <use
             transform="scale(0.996264)"
             xlink:href="#CMR17-49"
             id="use2088"
             x="0"
             y="0"
             width="100%"
             height="100%" />
          <use
             transform="matrix(0.996264,0,0,0.996264,45.690477,0)"
             xlink:href="#CMR17-48"
             id="use2090"
             x="0"
             y="0"
             width="100%"
             height="100%" />
          <use
             transform="matrix(0.697382,0,0,0.697382,91.380954,36.153639)"
             xlink:href="#CMSY10-0"
             id="use2092"
             x="0"
             y="0"
             width="100%"
             height="100%" />
          <use
             transform="matrix(0.697382,0,0,0.697382,145.62195,36.153639)"
             xlink:href="#CMR17-50"
             id="use2094"
             x="0"
             y="0"
             width="100%"
             height="100%" />
        </g>
      </g>
    </g>
    <g
       id="ytick_5">
      <g
         id="line2d_9">
        <g
           id="g2102">
          <use
             style="stroke:#000000;stroke-width:0.8"
             x="27"
             xlink:href="#m92db114229"
             y="51.927261"
             id="use2100"
             width="100%"
             height="100%" />
        </g>
      </g>
      <g
         id="text_10">
        <!-- $10^{-1}$ -->
        <g
           transform="matrix(0.09,0,0,-0.09,1.375567,55.040585)"
           id="g2113">
          <use
             transform="scale(0.996264)"
             xlink:href="#CMR17-49"
             id="use2105"
             x="0"
             y="0"
             width="100%"
             height="100%" />
          <use
             transform="matrix(0.996264,0,0,0.996264,45.690477,0)"
             xlink:href="#CMR17-48"
             id="use2107"
             x="0"
             y="0"
             width="100%"
             height="100%" />
          <use
             transform="matrix(0.697382,0,0,0.697382,91.380954,36.153639)"
             xlink:href="#CMSY10-0"
             id="use2109"
             x="0"
             y="0"
             width="100%"
             height="100%" />
          <use
             transform="matrix(0.697382,0,0,0.697382,145.62195,36.153639)"
             xlink:href="#CMR17-49"
             id="use2111"
             x="0"
             y="0"
             width="100%"
             height="100%" />
        </g>
      </g>
    </g>
    <g
       id="ytick_6" />
    <g
       id="ytick_7" />
    <g
       id="ytick_8" />
    <g
       id="ytick_9" />
    <g
       id="ytick_10" />
    <g
       id="ytick_11" />
    <g
       id="ytick_12" />
    <g
       id="ytick_13" />
    <g
       id="ytick_14" />
    <g
       id="ytick_15" />
    <g
       id="ytick_16" />
    <g
       id="ytick_17" />
    <g
       id="ytick_18" />
    <g
       id="ytick_19" />
    <g
       id="ytick_20" />
    <g
       id="ytick_21" />
    <g
       id="ytick_22" />
    <g
       id="ytick_23" />
    <g
       id="ytick_24" />
    <g
       id="ytick_25" />
    <g
       id="ytick_26" />
    <g
       id="ytick_27" />
    <g
       id="ytick_28" />
    <g
       id="ytick_29" />
    <g
       id="ytick_30" />
    <g
       id="ytick_31" />
    <g
       id="ytick_32" />
    <g
       id="ytick_33" />
    <g
       id="ytick_34" />
    <g
       id="ytick_35" />
    <g
       id="ytick_36" />
    <g
       id="ytick_37" />
    <g
       id="ytick_38" />
    <g
       id="ytick_39" />
    <g
       id="ytick_40" />
    <g
       id="ytick_41" />
    <g
       id="ytick_42" />
    <g
       id="ytick_43" />
    <g
       id="ytick_44" />
    <g
       id="ytick_45" />
    <g
       id="ytick_46" />
    <g
       id="ytick_47" />
    <g
       id="ytick_48" />
    <g
       id="text_11">
      <!-- $\textnormal{Growth power}\, \mathrm{[\Delta G\, C\textnormal{-} mol^{-1}h^{-1}]}$ -->
      <defs
         id="defs2164">
        <path
           d="m 22,-17.40625 c -6.40625,0 -6.796875,0.40625 -6.796875,4.375 V 5.9375 C 18.09375,1.703125 22.296875,-1 27.59375,-1 c 10,0 20.109375,8.859375 20.109375,22.59375 C 47.703125,34.3125 39,44 28.703125,44 22.703125,44 17.796875,40.671875 15,36.640625 V 44 L 3.09375,42.890625 v -2.625 c 5.90625,0 6.8125,-0.59375 6.8125,-5.453125 v -47.84375 c 0,-3.859375 -0.40625,-4.375 -6.8125,-4.375 V -20 c 2.40625,0.1875 6.8125,0.1875 9.40625,0.1875 2.59375,0 7.09375,0 9.5,-0.1875 z m -6.796875,48.890625 c 0,1.421875 0,3.53125 3.890625,7.28125 C 19.59375,39.15625 23,42.1875 28,42.1875 35.296875,42.1875 41.296875,33 41.296875,21.5 41.296875,9.984375 34.90625,0.59375 27,0.59375 23.40625,0.59375 19.5,2.3125 16.5,7.046875 15.203125,9.28125 15.203125,9.875 15.203125,11.5 Z"
           id="CMR17-112" />
        <path
           d="M 40.59375,69.296875 C 39.796875,71 39.40625,71 38.59375,71 c -1.1875,0 -1.296875,-0.203125 -2,-1.609375 L 4.203125,1.6875 C 4.09375,1.5 3.703125,0.59375 3.703125,0.5 3.703125,0.09375 3.796875,0 5.59375,0 H 71.5 c 1.796875,0 1.90625,0.09375 1.90625,0.5 0,0.09375 -0.40625,1 -0.5,1.1875 z M 36.09375,63.375 63.796875,5.59375 h -55.5 z"
           id="CMR17-1" />
        <path
           d="m 62.09375,67.984375 c 0,1.8125 -0.09375,1.90625 -0.6875,1.90625 -0.40625,0 -0.5,-0.09375 -1.203125,-1.296875 l -4.40625,-8.453125 C 50.90625,66.390625 44.90625,70 37.203125,70 20.09375,70 4.59375,54.796875 4.59375,34.046875 4.59375,13.078125 20.09375,-2 37.296875,-2 52.59375,-2 62.09375,11.578125 62.09375,23.15625 c 0,1.015625 0,1.421875 -0.890625,1.421875 -0.796875,0 -0.796875,-0.3125 -0.90625,-1.21875 C 59.5,9.25 49.5,0.59375 38.703125,0.59375 c -10.203125,0 -26.5,7.25 -26.5,33.453125 0,26.296875 16.59375,33.34375 26.296875,33.34375 11.296875,0 19.5,-9.875 21.40625,-23.875 0.1875,-1.21875 0.1875,-1.40625 1.09375,-1.40625 1.09375,0 1.09375,0.1875 1.09375,2.015625 z"
           id="CMR17-67" />
        <path
           d="M 67.59375,30.53125 C 67.59375,35.5625 66.703125,44 54.796875,44 48,44 43.296875,39.375 41.5,33.953125 H 41.40625 C 40.203125,42.1875 34.296875,44 28.703125,44 c -7.90625,0 -12,-6.125 -13.5,-10.15625 H 15.09375 V 44 L 3.296875,42.890625 V 40.28125 c 5.90625,0 6.796875,-0.59375 6.796875,-5.421875 V 6.921875 C 10.09375,3.09375 9.703125,2.59375 3.296875,2.59375 V 0 c 2.40625,0.1875 6.796875,0.1875 9.40625,0.1875 2.59375,0 7.09375,0 9.5,-0.1875 V 2.59375 C 15.796875,2.59375 15.40625,3 15.40625,6.921875 V 26.21875 C 15.40625,35.453125 21,42.390625 28,42.390625 c 7.40625,0 8.203125,-6.625 8.203125,-11.453125 V 6.921875 c 0,-3.828125 -0.40625,-4.328125 -6.796875,-4.328125 V 0 c 2.390625,0.1875 6.796875,0.1875 9.390625,0.1875 2.609375,0 7.109375,0 9.5,-0.1875 V 2.59375 C 41.90625,2.59375 41.5,3 41.5,6.921875 V 26.21875 c 0,9.234375 5.59375,16.171875 12.59375,16.171875 7.40625,0 8.203125,-6.625 8.203125,-11.453125 V 6.921875 C 62.296875,3.09375 61.90625,2.59375 55.5,2.59375 V 0 c 2.40625,0.1875 6.796875,0.1875 9.40625,0.1875 2.59375,0 7.09375,0 9.5,-0.1875 V 2.59375 C 68,2.59375 67.59375,3 67.59375,6.921875 Z"
           id="CMR17-109" />
      </defs>
      <g
         transform="matrix(0,-0.09,-0.09,0,-4.866027,165.32561)"
         id="g2216">
        <use
           transform="scale(0.996264)"
           xlink:href="#CMR17-71"
           id="use2166"
           x="0"
           y="0"
           width="100%"
           height="100%" />
        <use
           transform="matrix(0.996264,0,0,0.996264,72.355346,0)"
           xlink:href="#CMR17-114"
           id="use2168"
           x="0"
           y="0"
           width="100%"
           height="100%" />
        <use
           transform="matrix(0.996264,0,0,0.996264,107.63611,0)"
           xlink:href="#CMR17-111"
           id="use2170"
           x="0"
           y="0"
           width="100%"
           height="100%" />
        <use
           transform="matrix(0.996264,0,0,0.996264,150.72414,0)"
           xlink:href="#CMR17-119"
           id="use2172"
           x="0"
           y="0"
           width="100%"
           height="100%" />
        <use
           transform="matrix(0.996264,0,0,0.996264,217.23402,0)"
           xlink:href="#CMR17-116"
           id="use2174"
           x="0"
           y="0"
           width="100%"
           height="100%" />
        <use
           transform="matrix(0.996264,0,0,0.996264,252.51478,0)"
           xlink:href="#CMR17-104"
           id="use2176"
           x="0"
           y="0"
           width="100%"
           height="100%" />
        <use
           transform="matrix(0.996264,0,0,0.996264,333.48612,0)"
           xlink:href="#CMR17-112"
           id="use2178"
           x="0"
           y="0"
           width="100%"
           height="100%" />
        <use
           transform="matrix(0.996264,0,0,0.996264,386.98393,0)"
           xlink:href="#CMR17-111"
           id="use2180"
           x="0"
           y="0"
           width="100%"
           height="100%" />
        <use
           transform="matrix(0.996264,0,0,0.996264,430.07195,0)"
           xlink:href="#CMR17-119"
           id="use2182"
           x="0"
           y="0"
           width="100%"
           height="100%" />
        <use
           transform="matrix(0.996264,0,0,0.996264,493.97938,0)"
           xlink:href="#CMR17-101"
           id="use2184"
           x="0"
           y="0"
           width="100%"
           height="100%" />
        <use
           transform="matrix(0.996264,0,0,0.996264,534.46504,0)"
           xlink:href="#CMR17-114"
           id="use2186"
           x="0"
           y="0"
           width="100%"
           height="100%" />
        <use
           transform="matrix(0.996264,0,0,0.996264,586.35021,0)"
           xlink:href="#CMR17-91"
           id="use2188"
           x="0"
           y="0"
           width="100%"
           height="100%" />
        <use
           transform="matrix(0.996264,0,0,0.996264,611.22127,0)"
           xlink:href="#CMR17-1"
           id="use2190"
           x="0"
           y="0"
           width="100%"
           height="100%" />
        <use
           transform="matrix(0.996264,0,0,0.996264,688.14086,0)"
           xlink:href="#CMR17-71"
           id="use2192"
           x="0"
           y="0"
           width="100%"
           height="100%" />
        <use
           transform="matrix(0.996264,0,0,0.996264,777.10061,0)"
           xlink:href="#CMR17-67"
           id="use2194"
           x="0"
           y="0"
           width="100%"
           height="100%" />
        <use
           transform="matrix(0.996264,0,0,0.996264,843.61049,0)"
           xlink:href="#CMR17-45"
           id="use2196"
           x="0"
           y="0"
           width="100%"
           height="100%" />
        <use
           transform="matrix(0.996264,0,0,0.996264,873.68646,0)"
           xlink:href="#CMR17-109"
           id="use2198"
           x="0"
           y="0"
           width="100%"
           height="100%" />
        <use
           transform="matrix(0.996264,0,0,0.996264,950.60605,0)"
           xlink:href="#CMR17-111"
           id="use2200"
           x="0"
           y="0"
           width="100%"
           height="100%" />
        <use
           transform="matrix(0.996264,0,0,0.996264,996.29653,0)"
           xlink:href="#CMR17-108"
           id="use2202"
           x="0"
           y="0"
           width="100%"
           height="100%" />
        <use
           transform="matrix(0.697382,0,0,0.697382,1021.1676,36.153639)"
           xlink:href="#CMSY10-0"
           id="use2204"
           x="0"
           y="0"
           width="100%"
           height="100%" />
        <use
           transform="matrix(0.697382,0,0,0.697382,1075.4086,36.153639)"
           xlink:href="#CMR17-49"
           id="use2206"
           x="0"
           y="0"
           width="100%"
           height="100%" />
        <use
           transform="matrix(0.996264,0,0,0.996264,1107.8899,0)"
           xlink:href="#CMR17-104"
           id="use2208"
           x="0"
           y="0"
           width="100%"
           height="100%" />
        <use
           transform="matrix(0.697382,0,0,0.697382,1158.7853,36.153639)"
           xlink:href="#CMSY10-0"
           id="use2210"
           x="0"
           y="0"
           width="100%"
           height="100%" />
        <use
           transform="matrix(0.697382,0,0,0.697382,1213.0263,36.153639)"
           xlink:href="#CMR17-49"
           id="use2212"
           x="0"
           y="0"
           width="100%"
           height="100%" />
        <use
           transform="matrix(0.996264,0,0,0.996264,1245.5076,0)"
           xlink:href="#CMR17-93"
           id="use2214"
           x="0"
           y="0"
           width="100%"
           height="100%" />
      </g>
    </g>
  </g>
  <rect
     style="fill:#f2f2f2;stroke:#000000;stroke-width:0.828975;stroke-linecap:butt;stroke-linejoin:round"
     id="rect3842"
     width="48.25288"
     height="63.754688"
     x="139.53226"
     y="31.110544" />
  <g
     id="line2d_10">
    <path
       clip-path="url(#pd91ff5f2d6)"
       d="m 34.609091,169.48145 61.099798,-8.84683 25.874521,-5.17507 14.43809,-3.67176 9.23786,-2.84805 6.42567,-2.32702 4.73051,-1.96747 3.62902,-1.7043 5.20314,-2.84804 3.55159,-2.32703 2.57892,-1.96747 2.7698,-2.47806 1.96319,-2.07428 1.87259,-2.32702 1.62845,-2.41535 1.34934,-2.40016 1.21974,-2.62735 1.09074,-2.90727 0.9274,-3.12857 0.80363,-3.53228 0.66145,-3.94924 0.52672,-4.54205 0.37662,-5.24697 0.19991,-5.962887 -0.01,-6.356991 -0.22707,-6.071412 -0.41548,-5.325048 -0.57199,-4.548616 -0.71043,-3.908383 -0.84151,-3.409679 -0.97147,-3.022207 -1.10489,-2.718761 -1.24553,-2.47873 -1.39695,-2.287042 -1.56359,-2.133749 -1.74912,-2.010018 -1.9584,-1.910124 -2.19577,-1.828688 -2.46702,-1.762241 -2.77675,-1.706801 -3.13128,-1.65997 -3.53714,-1.619432 -4.00114,-1.583142 -4.53275,-1.55003 -5.14062,-1.518454 -5.83595,-1.487449 -0.85068,-0.199411 v 0"
       style="fill:none;stroke:#000000;stroke-width:2;stroke-linecap:square"
       id="path2220" />
  </g>
  <g
     id="line2d_11">
    <path
       clip-path="url(#pd91ff5f2d6)"
       d="M 27,31.110545 H 194.4"
       style="fill:none;stroke:#000000;stroke-width:1.5;stroke-dasharray:5.55, 2.4;stroke-dashoffset:0"
       id="path2223" />
  </g>
  <g
     id="patch_3">
    <path
       d="M 27,176.4 V 24.192"
       style="fill:none;stroke:#000000;stroke-width:0.8;stroke-linecap:square;stroke-linejoin:miter"
       id="path2226" />
  </g>
  <g
     id="patch_4">
    <path
       d="M 194.4,176.4 V 24.192"
       style="fill:none;stroke:#000000;stroke-width:0.8;stroke-linecap:square;stroke-linejoin:miter"
       id="path2229" />
  </g>
  <g
     id="patch_5">
    <path
       d="M 27,176.4 H 194.4"
       style="fill:none;stroke:#000000;stroke-width:0.8;stroke-linecap:square;stroke-linejoin:miter"
       id="path2232" />
  </g>
  <g
     id="patch_6">
    <path
       d="M 27,24.192 H 194.4"
       style="fill:none;stroke:#000000;stroke-width:0.8;stroke-linecap:square;stroke-linejoin:miter"
       id="path2235" />
  </g>
  <defs
     id="defs2243">
    <clipPath
       id="pd91ff5f2d6">
      <rect
         height="152.208"
         width="167.4"
         x="27"
         y="24.192"
         id="rect2240" />
    </clipPath>
  </defs>
  <rect
     style="fill:#000000;stroke:#000000;stroke-width:0.84075;stroke-linecap:butt;stroke-linejoin:round"
     id="rect3823-3"
     width="4.0834565"
     height="4.7640324"
     x="184.83412"
     y="91.523483" />
  <text
     xml:space="preserve"
     id="text3860"
     style="font-size:7px;line-height:1.25;font-family:sans-serif;letter-spacing:0px;white-space:pre;shape-inside:url(#rect3862);stroke-linecap:butt;stroke-linejoin:round;"
     transform="translate(298.48076,-212.61558)"><tspan
       x="-156.5332"
       y="266.96544"><tspan
         style="font-style:normal;font-variant:normal;font-weight:normal;font-stretch:normal;font-size:7px;font-family:Arial;-inkscape-font-specification:Arial;stroke-linecap:butt;stroke-linejoin:round">Functional
</tspan></tspan><tspan
       x="-156.5332"
       y="275.82735"><tspan
         style="font-style:normal;font-variant:normal;font-weight:normal;font-stretch:normal;font-size:7px;font-family:Arial;-inkscape-font-specification:Arial;stroke-linecap:butt;stroke-linejoin:round">Control
</tspan></tspan><tspan
       x="-156.5332"
       y="284.68925"><tspan
         style="font-style:normal;font-variant:normal;font-weight:normal;font-stretch:normal;font-size:7px;font-family:Arial;-inkscape-font-specification:Arial;stroke-linecap:butt;stroke-linejoin:round">Region
</tspan></tspan><tspan
       x="-156.5332"
       y="293.55116"><tspan
         style="font-style:normal;font-variant:normal;font-weight:normal;font-stretch:normal;font-size:7px;font-family:Arial;-inkscape-font-specification:Arial;stroke-linecap:butt;stroke-linejoin:round">(FCR)</tspan></tspan></text>
  <rect
     style="fill:#000000;stroke:#000000;stroke-width:0.798712;stroke-linecap:butt;stroke-linejoin:round"
     id="rect3823"
     width="3.8792834"
     height="4.5258307"
     x="137.29445"
     y="28.850727" />
  <text
     xml:space="preserve"
     id="text12741"
     style="font-size:8px;line-height:1.25;font-family:sans-serif;letter-spacing:0px;white-space:pre;shape-inside:url(#rect12743);stroke-linecap:butt;stroke-linejoin:round;"
     transform="translate(45.074448,80.07083)"><tspan
       x="97.373047"
       y="-39.214844"><tspan
         style="shape-inside:url(#rect12743);stroke-linecap:butt;stroke-linejoin:round">i</tspan></tspan></text>
  <text
     xml:space="preserve"
     id="text12747"
     style="font-size:8px;line-height:1.25;font-family:sans-serif;letter-spacing:0px;white-space:pre;shape-inside:url(#rect12749);stroke-linecap:butt;stroke-linejoin:round;"
     transform="translate(59.537306,136.0371)"><tspan
       x="118.125"
       y="-45.599609"><tspan
         style="shape-inside:url(#rect12749);stroke-linecap:butt;stroke-linejoin:round">ii</tspan></tspan></text>
</svg>
