<?xml version="1.0" encoding="utf-8" standalone="no"?>
<!DOCTYPE svg PUBLIC "-//W3C//DTD SVG 1.1//EN"
  "http://www.w3.org/Graphics/SVG/1.1/DTD/svg11.dtd">
<!-- Created with matplotlib (https://matplotlib.org/) -->
<svg height="251.2pt" version="1.1" viewBox="0 0 155.250138 251.2" width="155.250138pt" xmlns="http://www.w3.org/2000/svg" xmlns:xlink="http://www.w3.org/1999/xlink">
 <defs>
  <style type="text/css">
*{stroke-linecap:butt;stroke-linejoin:round;}
  </style>
 </defs>
 <g id="figure_1">
  <g id="patch_1">
   <path d="M 0 251.2 
L 155.250138 251.2 
L 155.250138 0 
L 0 0 
z
" style="fill:#ffffff;"/>
  </g>
  <g id="axes_1">
   <g id="patch_2">
    <path d="M 19.406267 219.8 
L 139.725124 219.8 
L 139.725124 30.144 
L 19.406267 30.144 
z
" style="fill:#ffffff;"/>
   </g>
   <g id="patch_3">
    <path clip-path="url(#p6ff9885cf9)" d="M 23.416896 206.568186 
L 55.501924 206.568186 
L 55.501924 205.130776 
L 23.416896 205.130776 
L 23.416896 206.568186 
z
" style="fill:#0e630e;stroke:#222222;stroke-linejoin:miter;stroke-width:1.5;"/>
   </g>
   <g id="patch_4">
    <path clip-path="url(#p6ff9885cf9)" d="M 63.523181 206.568186 
L 95.60821 206.568186 
L 95.60821 205.619501 
L 63.523181 205.619501 
L 63.523181 206.568186 
z
" style="fill:#b16a8c;stroke:#222222;stroke-linejoin:miter;stroke-width:1.5;"/>
   </g>
   <g id="patch_5">
    <path clip-path="url(#p6ff9885cf9)" d="M 103.629467 206.568186 
L 135.714496 206.568186 
L 135.714496 205.641844 
L 103.629467 205.641844 
L 103.629467 206.568186 
z
" style="fill:#ffffff;stroke:#222222;stroke-linejoin:miter;stroke-width:1.5;"/>
   </g>
   <g id="matplotlib.axis_1">
    <g id="xtick_1">
     <g id="line2d_1">
      <defs>
       <path d="M 0 0 
L 0 3.5 
" id="mf7d287c2ea" style="stroke:#000000;stroke-width:0.8;"/>
      </defs>
      <g>
       <use style="stroke:#000000;stroke-width:0.8;" x="39.45941" xlink:href="#mf7d287c2ea" y="219.8"/>
      </g>
     </g>
     <g id="text_1">
      <!-- positive -->
      <defs>
       <path d="M 18.109375 8.203125 
L 18.109375 -20.796875 
L 9.078125 -20.796875 
L 9.078125 54.6875 
L 18.109375 54.6875 
L 18.109375 46.390625 
Q 20.953125 51.265625 25.265625 53.625 
Q 29.59375 56 35.59375 56 
Q 45.5625 56 51.78125 48.09375 
Q 58.015625 40.1875 58.015625 27.296875 
Q 58.015625 14.40625 51.78125 6.484375 
Q 45.5625 -1.421875 35.59375 -1.421875 
Q 29.59375 -1.421875 25.265625 0.953125 
Q 20.953125 3.328125 18.109375 8.203125 
z
M 48.6875 27.296875 
Q 48.6875 37.203125 44.609375 42.84375 
Q 40.53125 48.484375 33.40625 48.484375 
Q 26.265625 48.484375 22.1875 42.84375 
Q 18.109375 37.203125 18.109375 27.296875 
Q 18.109375 17.390625 22.1875 11.75 
Q 26.265625 6.109375 33.40625 6.109375 
Q 40.53125 6.109375 44.609375 11.75 
Q 48.6875 17.390625 48.6875 27.296875 
z
" id="DejaVuSans-112"/>
       <path d="M 30.609375 48.390625 
Q 23.390625 48.390625 19.1875 42.75 
Q 14.984375 37.109375 14.984375 27.296875 
Q 14.984375 17.484375 19.15625 11.84375 
Q 23.34375 6.203125 30.609375 6.203125 
Q 37.796875 6.203125 41.984375 11.859375 
Q 46.1875 17.53125 46.1875 27.296875 
Q 46.1875 37.015625 41.984375 42.703125 
Q 37.796875 48.390625 30.609375 48.390625 
z
M 30.609375 56 
Q 42.328125 56 49.015625 48.375 
Q 55.71875 40.765625 55.71875 27.296875 
Q 55.71875 13.875 49.015625 6.21875 
Q 42.328125 -1.421875 30.609375 -1.421875 
Q 18.84375 -1.421875 12.171875 6.21875 
Q 5.515625 13.875 5.515625 27.296875 
Q 5.515625 40.765625 12.171875 48.375 
Q 18.84375 56 30.609375 56 
z
" id="DejaVuSans-111"/>
       <path d="M 44.28125 53.078125 
L 44.28125 44.578125 
Q 40.484375 46.53125 36.375 47.5 
Q 32.28125 48.484375 27.875 48.484375 
Q 21.1875 48.484375 17.84375 46.4375 
Q 14.5 44.390625 14.5 40.28125 
Q 14.5 37.15625 16.890625 35.375 
Q 19.28125 33.59375 26.515625 31.984375 
L 29.59375 31.296875 
Q 39.15625 29.25 43.1875 25.515625 
Q 47.21875 21.78125 47.21875 15.09375 
Q 47.21875 7.46875 41.1875 3.015625 
Q 35.15625 -1.421875 24.609375 -1.421875 
Q 20.21875 -1.421875 15.453125 -0.5625 
Q 10.6875 0.296875 5.421875 2 
L 5.421875 11.28125 
Q 10.40625 8.6875 15.234375 7.390625 
Q 20.0625 6.109375 24.8125 6.109375 
Q 31.15625 6.109375 34.5625 8.28125 
Q 37.984375 10.453125 37.984375 14.40625 
Q 37.984375 18.0625 35.515625 20.015625 
Q 33.0625 21.96875 24.703125 23.78125 
L 21.578125 24.515625 
Q 13.234375 26.265625 9.515625 29.90625 
Q 5.8125 33.546875 5.8125 39.890625 
Q 5.8125 47.609375 11.28125 51.796875 
Q 16.75 56 26.8125 56 
Q 31.78125 56 36.171875 55.265625 
Q 40.578125 54.546875 44.28125 53.078125 
z
" id="DejaVuSans-115"/>
       <path d="M 9.421875 54.6875 
L 18.40625 54.6875 
L 18.40625 0 
L 9.421875 0 
z
M 9.421875 75.984375 
L 18.40625 75.984375 
L 18.40625 64.59375 
L 9.421875 64.59375 
z
" id="DejaVuSans-105"/>
       <path d="M 18.3125 70.21875 
L 18.3125 54.6875 
L 36.8125 54.6875 
L 36.8125 47.703125 
L 18.3125 47.703125 
L 18.3125 18.015625 
Q 18.3125 11.328125 20.140625 9.421875 
Q 21.96875 7.515625 27.59375 7.515625 
L 36.8125 7.515625 
L 36.8125 0 
L 27.59375 0 
Q 17.1875 0 13.234375 3.875 
Q 9.28125 7.765625 9.28125 18.015625 
L 9.28125 47.703125 
L 2.6875 47.703125 
L 2.6875 54.6875 
L 9.28125 54.6875 
L 9.28125 70.21875 
z
" id="DejaVuSans-116"/>
       <path d="M 2.984375 54.6875 
L 12.5 54.6875 
L 29.59375 8.796875 
L 46.6875 54.6875 
L 56.203125 54.6875 
L 35.6875 0 
L 23.484375 0 
z
" id="DejaVuSans-118"/>
       <path d="M 56.203125 29.59375 
L 56.203125 25.203125 
L 14.890625 25.203125 
Q 15.484375 15.921875 20.484375 11.0625 
Q 25.484375 6.203125 34.421875 6.203125 
Q 39.59375 6.203125 44.453125 7.46875 
Q 49.3125 8.734375 54.109375 11.28125 
L 54.109375 2.78125 
Q 49.265625 0.734375 44.1875 -0.34375 
Q 39.109375 -1.421875 33.890625 -1.421875 
Q 20.796875 -1.421875 13.15625 6.1875 
Q 5.515625 13.8125 5.515625 26.8125 
Q 5.515625 40.234375 12.765625 48.109375 
Q 20.015625 56 32.328125 56 
Q 43.359375 56 49.78125 48.890625 
Q 56.203125 41.796875 56.203125 29.59375 
z
M 47.21875 32.234375 
Q 47.125 39.59375 43.09375 43.984375 
Q 39.0625 48.390625 32.421875 48.390625 
Q 24.90625 48.390625 20.390625 44.140625 
Q 15.875 39.890625 15.1875 32.171875 
z
" id="DejaVuSans-101"/>
      </defs>
      <g transform="translate(23.76941 232.87875)scale(0.08 -0.08)">
       <use xlink:href="#DejaVuSans-112"/>
       <use x="63.476562" xlink:href="#DejaVuSans-111"/>
       <use x="124.658203" xlink:href="#DejaVuSans-115"/>
       <use x="176.757812" xlink:href="#DejaVuSans-105"/>
       <use x="204.541016" xlink:href="#DejaVuSans-116"/>
       <use x="243.75" xlink:href="#DejaVuSans-105"/>
       <use x="271.533203" xlink:href="#DejaVuSans-118"/>
       <use x="330.712891" xlink:href="#DejaVuSans-101"/>
      </g>
     </g>
    </g>
    <g id="xtick_2">
     <g id="line2d_2">
      <g>
       <use style="stroke:#000000;stroke-width:0.8;" x="79.565696" xlink:href="#mf7d287c2ea" y="219.8"/>
      </g>
     </g>
     <g id="text_2">
      <!-- negative -->
      <defs>
       <path d="M 54.890625 33.015625 
L 54.890625 0 
L 45.90625 0 
L 45.90625 32.71875 
Q 45.90625 40.484375 42.875 44.328125 
Q 39.84375 48.1875 33.796875 48.1875 
Q 26.515625 48.1875 22.3125 43.546875 
Q 18.109375 38.921875 18.109375 30.90625 
L 18.109375 0 
L 9.078125 0 
L 9.078125 54.6875 
L 18.109375 54.6875 
L 18.109375 46.1875 
Q 21.34375 51.125 25.703125 53.5625 
Q 30.078125 56 35.796875 56 
Q 45.21875 56 50.046875 50.171875 
Q 54.890625 44.34375 54.890625 33.015625 
z
" id="DejaVuSans-110"/>
       <path d="M 45.40625 27.984375 
Q 45.40625 37.75 41.375 43.109375 
Q 37.359375 48.484375 30.078125 48.484375 
Q 22.859375 48.484375 18.828125 43.109375 
Q 14.796875 37.75 14.796875 27.984375 
Q 14.796875 18.265625 18.828125 12.890625 
Q 22.859375 7.515625 30.078125 7.515625 
Q 37.359375 7.515625 41.375 12.890625 
Q 45.40625 18.265625 45.40625 27.984375 
z
M 54.390625 6.78125 
Q 54.390625 -7.171875 48.1875 -13.984375 
Q 42 -20.796875 29.203125 -20.796875 
Q 24.46875 -20.796875 20.265625 -20.09375 
Q 16.0625 -19.390625 12.109375 -17.921875 
L 12.109375 -9.1875 
Q 16.0625 -11.328125 19.921875 -12.34375 
Q 23.78125 -13.375 27.78125 -13.375 
Q 36.625 -13.375 41.015625 -8.765625 
Q 45.40625 -4.15625 45.40625 5.171875 
L 45.40625 9.625 
Q 42.625 4.78125 38.28125 2.390625 
Q 33.9375 0 27.875 0 
Q 17.828125 0 11.671875 7.65625 
Q 5.515625 15.328125 5.515625 27.984375 
Q 5.515625 40.671875 11.671875 48.328125 
Q 17.828125 56 27.875 56 
Q 33.9375 56 38.28125 53.609375 
Q 42.625 51.21875 45.40625 46.390625 
L 45.40625 54.6875 
L 54.390625 54.6875 
z
" id="DejaVuSans-103"/>
       <path d="M 34.28125 27.484375 
Q 23.390625 27.484375 19.1875 25 
Q 14.984375 22.515625 14.984375 16.5 
Q 14.984375 11.71875 18.140625 8.90625 
Q 21.296875 6.109375 26.703125 6.109375 
Q 34.1875 6.109375 38.703125 11.40625 
Q 43.21875 16.703125 43.21875 25.484375 
L 43.21875 27.484375 
z
M 52.203125 31.203125 
L 52.203125 0 
L 43.21875 0 
L 43.21875 8.296875 
Q 40.140625 3.328125 35.546875 0.953125 
Q 30.953125 -1.421875 24.3125 -1.421875 
Q 15.921875 -1.421875 10.953125 3.296875 
Q 6 8.015625 6 15.921875 
Q 6 25.140625 12.171875 29.828125 
Q 18.359375 34.515625 30.609375 34.515625 
L 43.21875 34.515625 
L 43.21875 35.40625 
Q 43.21875 41.609375 39.140625 45 
Q 35.0625 48.390625 27.6875 48.390625 
Q 23 48.390625 18.546875 47.265625 
Q 14.109375 46.140625 10.015625 43.890625 
L 10.015625 52.203125 
Q 14.9375 54.109375 19.578125 55.046875 
Q 24.21875 56 28.609375 56 
Q 40.484375 56 46.34375 49.84375 
Q 52.203125 43.703125 52.203125 31.203125 
z
" id="DejaVuSans-97"/>
      </defs>
      <g transform="translate(62.070696 232.87875)scale(0.08 -0.08)">
       <use xlink:href="#DejaVuSans-110"/>
       <use x="63.378906" xlink:href="#DejaVuSans-101"/>
       <use x="124.902344" xlink:href="#DejaVuSans-103"/>
       <use x="188.378906" xlink:href="#DejaVuSans-97"/>
       <use x="249.658203" xlink:href="#DejaVuSans-116"/>
       <use x="288.867188" xlink:href="#DejaVuSans-105"/>
       <use x="316.650391" xlink:href="#DejaVuSans-118"/>
       <use x="375.830078" xlink:href="#DejaVuSans-101"/>
      </g>
     </g>
    </g>
    <g id="xtick_3">
     <g id="line2d_3">
      <g>
       <use style="stroke:#000000;stroke-width:0.8;" x="119.671981" xlink:href="#mf7d287c2ea" y="219.8"/>
      </g>
     </g>
     <g id="text_3">
      <!-- undefined -->
      <defs>
       <path d="M 8.5 21.578125 
L 8.5 54.6875 
L 17.484375 54.6875 
L 17.484375 21.921875 
Q 17.484375 14.15625 20.5 10.265625 
Q 23.53125 6.390625 29.59375 6.390625 
Q 36.859375 6.390625 41.078125 11.03125 
Q 45.3125 15.671875 45.3125 23.6875 
L 45.3125 54.6875 
L 54.296875 54.6875 
L 54.296875 0 
L 45.3125 0 
L 45.3125 8.40625 
Q 42.046875 3.421875 37.71875 1 
Q 33.40625 -1.421875 27.6875 -1.421875 
Q 18.265625 -1.421875 13.375 4.4375 
Q 8.5 10.296875 8.5 21.578125 
z
M 31.109375 56 
z
" id="DejaVuSans-117"/>
       <path d="M 45.40625 46.390625 
L 45.40625 75.984375 
L 54.390625 75.984375 
L 54.390625 0 
L 45.40625 0 
L 45.40625 8.203125 
Q 42.578125 3.328125 38.25 0.953125 
Q 33.9375 -1.421875 27.875 -1.421875 
Q 17.96875 -1.421875 11.734375 6.484375 
Q 5.515625 14.40625 5.515625 27.296875 
Q 5.515625 40.1875 11.734375 48.09375 
Q 17.96875 56 27.875 56 
Q 33.9375 56 38.25 53.625 
Q 42.578125 51.265625 45.40625 46.390625 
z
M 14.796875 27.296875 
Q 14.796875 17.390625 18.875 11.75 
Q 22.953125 6.109375 30.078125 6.109375 
Q 37.203125 6.109375 41.296875 11.75 
Q 45.40625 17.390625 45.40625 27.296875 
Q 45.40625 37.203125 41.296875 42.84375 
Q 37.203125 48.484375 30.078125 48.484375 
Q 22.953125 48.484375 18.875 42.84375 
Q 14.796875 37.203125 14.796875 27.296875 
z
" id="DejaVuSans-100"/>
       <path d="M 37.109375 75.984375 
L 37.109375 68.5 
L 28.515625 68.5 
Q 23.6875 68.5 21.796875 66.546875 
Q 19.921875 64.59375 19.921875 59.515625 
L 19.921875 54.6875 
L 34.71875 54.6875 
L 34.71875 47.703125 
L 19.921875 47.703125 
L 19.921875 0 
L 10.890625 0 
L 10.890625 47.703125 
L 2.296875 47.703125 
L 2.296875 54.6875 
L 10.890625 54.6875 
L 10.890625 58.5 
Q 10.890625 67.625 15.140625 71.796875 
Q 19.390625 75.984375 28.609375 75.984375 
z
" id="DejaVuSans-102"/>
      </defs>
      <g transform="translate(99.546356 232.87875)scale(0.08 -0.08)">
       <use xlink:href="#DejaVuSans-117"/>
       <use x="63.378906" xlink:href="#DejaVuSans-110"/>
       <use x="126.757812" xlink:href="#DejaVuSans-100"/>
       <use x="190.234375" xlink:href="#DejaVuSans-101"/>
       <use x="251.757812" xlink:href="#DejaVuSans-102"/>
       <use x="286.962891" xlink:href="#DejaVuSans-105"/>
       <use x="314.746094" xlink:href="#DejaVuSans-110"/>
       <use x="378.125" xlink:href="#DejaVuSans-101"/>
       <use x="439.648438" xlink:href="#DejaVuSans-100"/>
      </g>
     </g>
    </g>
   </g>
   <g id="matplotlib.axis_2">
    <g id="ytick_1">
     <g id="line2d_4">
      <defs>
       <path d="M 0 0 
L -3.5 0 
" id="m1bc390af65" style="stroke:#000000;stroke-width:0.8;"/>
      </defs>
      <g>
       <use style="stroke:#000000;stroke-width:0.8;" x="19.406267" xlink:href="#m1bc390af65" y="206.568186"/>
      </g>
     </g>
    </g>
    <g id="ytick_2">
     <g id="line2d_5">
      <g>
       <use style="stroke:#000000;stroke-width:0.8;" x="19.406267" xlink:href="#m1bc390af65" y="184.515163"/>
      </g>
     </g>
    </g>
    <g id="ytick_3">
     <g id="line2d_6">
      <g>
       <use style="stroke:#000000;stroke-width:0.8;" x="19.406267" xlink:href="#m1bc390af65" y="162.46214"/>
      </g>
     </g>
    </g>
    <g id="ytick_4">
     <g id="line2d_7">
      <g>
       <use style="stroke:#000000;stroke-width:0.8;" x="19.406267" xlink:href="#m1bc390af65" y="140.409116"/>
      </g>
     </g>
    </g>
    <g id="ytick_5">
     <g id="line2d_8">
      <g>
       <use style="stroke:#000000;stroke-width:0.8;" x="19.406267" xlink:href="#m1bc390af65" y="118.356093"/>
      </g>
     </g>
    </g>
    <g id="ytick_6">
     <g id="line2d_9">
      <g>
       <use style="stroke:#000000;stroke-width:0.8;" x="19.406267" xlink:href="#m1bc390af65" y="96.30307"/>
      </g>
     </g>
    </g>
    <g id="ytick_7">
     <g id="line2d_10">
      <g>
       <use style="stroke:#000000;stroke-width:0.8;" x="19.406267" xlink:href="#m1bc390af65" y="74.250047"/>
      </g>
     </g>
    </g>
    <g id="ytick_8">
     <g id="line2d_11">
      <g>
       <use style="stroke:#000000;stroke-width:0.8;" x="19.406267" xlink:href="#m1bc390af65" y="52.197023"/>
      </g>
     </g>
    </g>
    <g id="ytick_9">
     <g id="line2d_12">
      <g>
       <use style="stroke:#000000;stroke-width:0.8;" x="19.406267" xlink:href="#m1bc390af65" y="30.144"/>
      </g>
     </g>
    </g>
   </g>
   <g id="line2d_13">
    <path clip-path="url(#p6ff9885cf9)" d="M 39.45941 206.568186 
L 39.45941 206.568186 
" style="fill:none;stroke:#222222;stroke-linecap:square;stroke-width:1.5;"/>
   </g>
   <g id="line2d_14">
    <path clip-path="url(#p6ff9885cf9)" d="M 39.45941 205.130776 
L 39.45941 203.870085 
" style="fill:none;stroke:#222222;stroke-linecap:square;stroke-width:1.5;"/>
   </g>
   <g id="line2d_15">
    <path clip-path="url(#p6ff9885cf9)" d="M 31.438153 206.568186 
L 47.480667 206.568186 
" style="fill:none;stroke:#222222;stroke-linecap:square;stroke-width:1.5;"/>
   </g>
   <g id="line2d_16">
    <path clip-path="url(#p6ff9885cf9)" d="M 31.438153 203.870085 
L 47.480667 203.870085 
" style="fill:none;stroke:#222222;stroke-linecap:square;stroke-width:1.5;"/>
   </g>
   <g id="line2d_17">
    <path clip-path="url(#p6ff9885cf9)" d="M 79.565696 206.568186 
L 79.565696 206.568186 
" style="fill:none;stroke:#222222;stroke-linecap:square;stroke-width:1.5;"/>
   </g>
   <g id="line2d_18">
    <path clip-path="url(#p6ff9885cf9)" d="M 79.565696 205.619501 
L 79.565696 204.927705 
" style="fill:none;stroke:#222222;stroke-linecap:square;stroke-width:1.5;"/>
   </g>
   <g id="line2d_19">
    <path clip-path="url(#p6ff9885cf9)" d="M 71.544439 206.568186 
L 87.586953 206.568186 
" style="fill:none;stroke:#222222;stroke-linecap:square;stroke-width:1.5;"/>
   </g>
   <g id="line2d_20">
    <path clip-path="url(#p6ff9885cf9)" d="M 71.544439 204.927705 
L 87.586953 204.927705 
" style="fill:none;stroke:#222222;stroke-linecap:square;stroke-width:1.5;"/>
   </g>
   <g id="line2d_21">
    <path clip-path="url(#p6ff9885cf9)" d="M 119.671981 206.568186 
L 119.671981 206.568186 
" style="fill:none;stroke:#222222;stroke-linecap:square;stroke-width:1.5;"/>
   </g>
   <g id="line2d_22">
    <path clip-path="url(#p6ff9885cf9)" d="M 119.671981 205.641844 
L 119.671981 204.577505 
" style="fill:none;stroke:#222222;stroke-linecap:square;stroke-width:1.5;"/>
   </g>
   <g id="line2d_23">
    <path clip-path="url(#p6ff9885cf9)" d="M 111.650724 206.568186 
L 127.693238 206.568186 
" style="fill:none;stroke:#222222;stroke-linecap:square;stroke-width:1.5;"/>
   </g>
   <g id="line2d_24">
    <path clip-path="url(#p6ff9885cf9)" d="M 111.650724 204.577505 
L 127.693238 204.577505 
" style="fill:none;stroke:#222222;stroke-linecap:square;stroke-width:1.5;"/>
   </g>
   <g id="line2d_25">
    <path clip-path="url(#p6ff9885cf9)" d="M 23.416896 205.489685 
L 55.501924 205.489685 
" style="fill:none;stroke:#222222;stroke-linecap:square;stroke-width:1.5;"/>
   </g>
   <g id="line2d_26">
    <path clip-path="url(#p6ff9885cf9)" d="M 63.523181 205.933547 
L 95.60821 205.933547 
" style="fill:none;stroke:#222222;stroke-linecap:square;stroke-width:1.5;"/>
   </g>
   <g id="line2d_27">
    <path clip-path="url(#p6ff9885cf9)" d="M 103.629467 206.568186 
L 135.714496 206.568186 
" style="fill:none;stroke:#222222;stroke-linecap:square;stroke-width:1.5;"/>
   </g>
   <g id="patch_6">
    <path d="M 19.406267 219.8 
L 19.406267 30.144 
" style="fill:none;stroke:#000000;stroke-linecap:square;stroke-linejoin:miter;stroke-width:0.8;"/>
   </g>
   <g id="patch_7">
    <path d="M 139.725124 219.8 
L 139.725124 30.144 
" style="fill:none;stroke:#000000;stroke-linecap:square;stroke-linejoin:miter;stroke-width:0.8;"/>
   </g>
   <g id="patch_8">
    <path d="M 19.406267 219.8 
L 139.725124 219.8 
" style="fill:none;stroke:#000000;stroke-linecap:square;stroke-linejoin:miter;stroke-width:0.8;"/>
   </g>
   <g id="patch_9">
    <path d="M 19.406267 30.144 
L 139.725124 30.144 
" style="fill:none;stroke:#000000;stroke-linecap:square;stroke-linejoin:miter;stroke-width:0.8;"/>
   </g>
   <g id="PathCollection_1">
    <defs>
     <path d="M 0 1.5 
C 0.397805 1.5 0.77937 1.341951 1.06066 1.06066 
C 1.341951 0.77937 1.5 0.397805 1.5 0 
C 1.5 -0.397805 1.341951 -0.77937 1.06066 -1.06066 
C 0.77937 -1.341951 0.397805 -1.5 0 -1.5 
C -0.397805 -1.5 -0.77937 -1.341951 -1.06066 -1.06066 
C -1.341951 -0.77937 -1.5 -0.397805 -1.5 0 
C -1.5 0.397805 -1.341951 0.77937 -1.06066 1.06066 
C -0.77937 1.341951 -0.397805 1.5 0 1.5 
z
" id="C0_0_a34c2e663f"/>
    </defs>
    <g clip-path="url(#p6ff9885cf9)">
     <use x="38.003084" xlink:href="#C0_0_a34c2e663f" y="206.568186"/>
    </g>
    <g clip-path="url(#p6ff9885cf9)">
     <use x="36.460503" xlink:href="#C0_0_a34c2e663f" y="205.303102"/>
    </g>
    <g clip-path="url(#p6ff9885cf9)">
     <use x="37.342447" xlink:href="#C0_0_a34c2e663f" y="204.728672"/>
    </g>
    <g clip-path="url(#p6ff9885cf9)">
     <use x="35.695846" xlink:href="#C0_0_a34c2e663f" y="204.620597"/>
    </g>
    <g clip-path="url(#p6ff9885cf9)">
     <use x="39.616169" xlink:href="#C0_0_a34c2e663f" y="205.350595"/>
    </g>
    <g clip-path="url(#p6ff9885cf9)">
     <use x="41.168504" xlink:href="#C0_0_a34c2e663f" y="205.786472"/>
    </g>
    <g clip-path="url(#p6ff9885cf9)">
     <use x="37.005615" xlink:href="#C0_0_a34c2e663f" y="203.870085"/>
    </g>
    <g clip-path="url(#p6ff9885cf9)">
     <use x="37.563334" xlink:href="#C0_0_a34c2e663f" y="205.114284"/>
    </g>
    <g clip-path="url(#p6ff9885cf9)">
     <use x="37.586546" xlink:href="#C0_0_a34c2e663f" y="205.169537"/>
    </g>
    <g clip-path="url(#p6ff9885cf9)">
     <use x="41.374121" xlink:href="#C0_0_a34c2e663f" y="206.568186"/>
    </g>
    <g clip-path="url(#p6ff9885cf9)">
     <use x="35.714288" xlink:href="#C0_0_a34c2e663f" y="205.947525"/>
    </g>
    <g clip-path="url(#p6ff9885cf9)">
     <use x="40.265038" xlink:href="#C0_0_a34c2e663f" y="206.568186"/>
    </g>
    <g clip-path="url(#p6ff9885cf9)">
     <use x="42.352874" xlink:href="#C0_0_a34c2e663f" y="206.568186"/>
    </g>
    <g clip-path="url(#p6ff9885cf9)">
     <use x="43.388368" xlink:href="#C0_0_a34c2e663f" y="205.147268"/>
    </g>
    <g clip-path="url(#p6ff9885cf9)">
     <use x="37.848583" xlink:href="#C0_0_a34c2e663f" y="205.489685"/>
    </g>
    <g clip-path="url(#p6ff9885cf9)">
     <use x="41.774898" xlink:href="#C0_0_a34c2e663f" y="206.568186"/>
    </g>
    <g clip-path="url(#p6ff9885cf9)">
     <use x="36.873977" xlink:href="#C0_0_a34c2e663f" y="206.568186"/>
    </g>
    <g clip-path="url(#p6ff9885cf9)">
     <use x="37.10563" xlink:href="#C0_0_a34c2e663f" y="206.01793"/>
    </g>
    <g clip-path="url(#p6ff9885cf9)">
     <use x="35.904086" xlink:href="#C0_0_a34c2e663f" y="204.573142"/>
    </g>
   </g>
   <g id="PathCollection_2">
    <defs>
     <path d="M 0 1.5 
C 0.397805 1.5 0.77937 1.341951 1.06066 1.06066 
C 1.341951 0.77937 1.5 0.397805 1.5 0 
C 1.5 -0.397805 1.341951 -0.77937 1.06066 -1.06066 
C 0.77937 -1.341951 0.397805 -1.5 0 -1.5 
C -0.397805 -1.5 -0.77937 -1.341951 -1.06066 -1.06066 
C -1.341951 -0.77937 -1.5 -0.397805 -1.5 0 
C -1.5 0.397805 -1.341951 0.77937 -1.06066 1.06066 
C -0.77937 1.341951 -0.397805 1.5 0 1.5 
z
" id="C1_0_e4787e2588"/>
    </defs>
    <g clip-path="url(#p6ff9885cf9)">
     <use x="77.038486" xlink:href="#C1_0_e4787e2588" y="204.927705"/>
    </g>
    <g clip-path="url(#p6ff9885cf9)">
     <use x="78.87664" xlink:href="#C1_0_e4787e2588" y="206.568186"/>
    </g>
    <g clip-path="url(#p6ff9885cf9)">
     <use x="79.839888" xlink:href="#C1_0_e4787e2588" y="206.568186"/>
    </g>
    <g clip-path="url(#p6ff9885cf9)">
     <use x="80.201331" xlink:href="#C1_0_e4787e2588" y="205.702179"/>
    </g>
    <g clip-path="url(#p6ff9885cf9)">
     <use x="79.798511" xlink:href="#C1_0_e4787e2588" y="205.969954"/>
    </g>
    <g clip-path="url(#p6ff9885cf9)">
     <use x="80.864597" xlink:href="#C1_0_e4787e2588" y="205.371469"/>
    </g>
    <g clip-path="url(#p6ff9885cf9)">
     <use x="75.707422" xlink:href="#C1_0_e4787e2588" y="206.568186"/>
    </g>
    <g clip-path="url(#p6ff9885cf9)">
     <use x="82.817853" xlink:href="#C1_0_e4787e2588" y="205.89714"/>
    </g>
   </g>
   <g id="PathCollection_3">
    <defs>
     <path d="M 0 1.5 
C 0.397805 1.5 0.77937 1.341951 1.06066 1.06066 
C 1.341951 0.77937 1.5 0.397805 1.5 0 
C 1.5 -0.397805 1.341951 -0.77937 1.06066 -1.06066 
C 0.77937 -1.341951 0.397805 -1.5 0 -1.5 
C -0.397805 -1.5 -0.77937 -1.341951 -1.06066 -1.06066 
C -1.341951 -0.77937 -1.5 -0.397805 -1.5 0 
C -1.5 0.397805 -1.341951 0.77937 -1.06066 1.06066 
C -0.77937 1.341951 -0.397805 1.5 0 1.5 
z
" id="C2_0_d1f82f1e84"/>
    </defs>
    <g clip-path="url(#p6ff9885cf9)">
     <use x="119.325016" xlink:href="#C2_0_d1f82f1e84" y="206.568186"/>
    </g>
    <g clip-path="url(#p6ff9885cf9)">
     <use x="118.186603" xlink:href="#C2_0_d1f82f1e84" y="206.568186"/>
    </g>
    <g clip-path="url(#p6ff9885cf9)">
     <use x="119.450419" xlink:href="#C2_0_d1f82f1e84" y="206.568186"/>
    </g>
    <g clip-path="url(#p6ff9885cf9)">
     <use x="120.432198" xlink:href="#C2_0_d1f82f1e84" y="205.730347"/>
    </g>
    <g clip-path="url(#p6ff9885cf9)">
     <use x="120.891727" xlink:href="#C2_0_d1f82f1e84" y="205.602581"/>
    </g>
    <g clip-path="url(#p6ff9885cf9)">
     <use x="119.206185" xlink:href="#C2_0_d1f82f1e84" y="206.568186"/>
    </g>
    <g clip-path="url(#p6ff9885cf9)">
     <use x="121.877896" xlink:href="#C2_0_d1f82f1e84" y="205.654932"/>
    </g>
    <g clip-path="url(#p6ff9885cf9)">
     <use x="119.72541" xlink:href="#C2_0_d1f82f1e84" y="206.568186"/>
    </g>
    <g clip-path="url(#p6ff9885cf9)">
     <use x="120.449838" xlink:href="#C2_0_d1f82f1e84" y="206.568186"/>
    </g>
    <g clip-path="url(#p6ff9885cf9)">
     <use x="118.339317" xlink:href="#C2_0_d1f82f1e84" y="206.568186"/>
    </g>
    <g clip-path="url(#p6ff9885cf9)">
     <use x="119.545041" xlink:href="#C2_0_d1f82f1e84" y="204.577505"/>
    </g>
    <g clip-path="url(#p6ff9885cf9)">
     <use x="117.009181" xlink:href="#C2_0_d1f82f1e84" y="204.838317"/>
    </g>
   </g>
   <g id="text_4">
    <!-- Auxins -->
    <defs>
     <path d="M 34.1875 63.1875 
L 20.796875 26.90625 
L 47.609375 26.90625 
z
M 28.609375 72.90625 
L 39.796875 72.90625 
L 67.578125 0 
L 57.328125 0 
L 50.6875 18.703125 
L 17.828125 18.703125 
L 11.1875 0 
L 0.78125 0 
z
" id="DejaVuSans-65"/>
     <path d="M 54.890625 54.6875 
L 35.109375 28.078125 
L 55.90625 0 
L 45.3125 0 
L 29.390625 21.484375 
L 13.484375 0 
L 2.875 0 
L 24.125 28.609375 
L 4.6875 54.6875 
L 15.28125 54.6875 
L 29.78125 35.203125 
L 44.28125 54.6875 
z
" id="DejaVuSans-120"/>
    </defs>
    <g transform="translate(62.854758 24.144)scale(0.1 -0.1)">
     <use xlink:href="#DejaVuSans-65"/>
     <use x="68.408203" xlink:href="#DejaVuSans-117"/>
     <use x="131.787109" xlink:href="#DejaVuSans-120"/>
     <use x="190.966797" xlink:href="#DejaVuSans-105"/>
     <use x="218.75" xlink:href="#DejaVuSans-110"/>
     <use x="282.128906" xlink:href="#DejaVuSans-115"/>
    </g>
   </g>
  </g>
 </g>
 <defs>
  <clipPath id="p6ff9885cf9">
   <rect height="189.656" width="120.318857" x="19.406267" y="30.144"/>
  </clipPath>
 </defs>
</svg>
