<?xml version="1.0" encoding="utf-8" standalone="no"?>
<!DOCTYPE svg PUBLIC "-//W3C//DTD SVG 1.1//EN"
  "http://www.w3.org/Graphics/SVG/1.1/DTD/svg11.dtd">
<!-- Created with matplotlib (https://matplotlib.org/) -->
<svg height="139.725124pt" version="1.1" viewBox="0 0 154.08 139.725124" width="154.08pt" xmlns="http://www.w3.org/2000/svg" xmlns:xlink="http://www.w3.org/1999/xlink">
 <defs>
  <style type="text/css">
*{stroke-linecap:butt;stroke-linejoin:round;}
  </style>
 </defs>
 <g id="figure_1">
  <g id="patch_1">
   <path d="M 0 139.725124 
L 154.08 139.725124 
L 154.08 0 
L 0 0 
z
" style="fill:#ffffff;"/>
  </g>
  <g id="axes_1">
   <g id="patch_2">
    <path d="M 19.26 122.259484 
L 114.7896 122.259484 
L 114.7896 16.767015 
L 19.26 16.767015 
z
" style="fill:#ffffff;"/>
   </g>
   <g id="PathCollection_1">
    <path clip-path="url(#p568b13be49)" d="M 36.860088 121.70426 
L 34.904673 121.70426 
L 32.919448 121.70426 
L 30.951624 121.70426 
L 29.217417 121.70426 
L 29.171746 121.70426 
L 27.359082 117.550539 
L 26.214761 113.850664 
L 25.737188 112.04303 
L 24.861223 108.082547 
L 24.070595 103.282793 
L 24.070595 103.282793 
L 24.068334 103.189908 
L 24.068334 99.05776 
L 24.068334 95.217463 
L 24.068334 91.654014 
L 24.068334 88.299579 
L 24.068334 85.108402 
L 24.068334 82.047976 
L 24.068334 79.094272 
L 24.068334 76.228953 
L 24.068334 73.43766 
L 24.068334 70.708904 
L 24.068334 65.403153 
L 24.068334 62.811897 
L 24.068334 57.724765 
L 24.068334 52.736152 
L 24.068334 47.818707 
L 24.068334 42.950834 
L 24.068334 38.115004 
L 24.068334 30.890056 
L 24.068334 26.075174 
L 24.068334 18.830226 
L 24.068334 9.083211 
L 24.068334 -0.817688 
L 24.068334 -10.924939 
L 24.068334 -21.286647 
L 24.068334 -34.66641 
L 24.068334 -41.200396 
L 24.143102 -34.66641 
L 24.317381 -21.286647 
L 24.471813 -10.924939 
L 24.642237 -0.817688 
L 24.831848 9.083211 
L 25.044843 18.830226 
L 25.223258 26.075174 
L 25.352756 30.890056 
L 25.565686 38.115004 
L 25.722166 42.950834 
L 25.737188 43.391172 
L 25.884132 47.818707 
L 26.060155 52.736152 
L 26.253525 57.724765 
L 26.467324 62.811897 
L 26.58304 65.403153 
L 26.834866 70.708904 
L 26.97225 73.43766 
L 27.118225 76.228953 
L 27.273552 79.094272 
L 27.359082 80.638436 
L 27.435576 82.047976 
L 27.6044 85.108402 
L 27.784358 88.299579 
L 27.97575 91.654014 
L 27.97575 91.654014 
L 28.178092 95.217463 
L 28.178092 95.217463 
L 28.389076 99.05776 
L 28.389076 99.05776 
L 28.389076 99.05776 
L 28.601927 103.282793 
L 28.601927 103.282793 
L 29.217417 105.484143 
L 30.042325 108.082547 
L 30.951624 110.513627 
L 32.477388 113.850664 
L 32.919448 114.734341 
L 34.904673 118.101604 
L 36.860088 120.648236 
L 37.822975 121.70426 
z
" style="fill:#fefefe;"/>
   </g>
   <g id="PathCollection_2">
    <path clip-path="url(#p568b13be49)" d="M 77.08998 121.70426 
L 75.960518 121.70426 
L 74.832398 121.70426 
L 73.714483 121.70426 
L 72.612397 121.70426 
L 71.529716 121.70426 
L 69.430608 121.70426 
L 68.416244 121.70426 
L 66.459538 121.70426 
L 64.597934 121.70426 
L 62.828353 121.70426 
L 61.14655 121.70426 
L 59.547801 121.70426 
L 57.29483 121.70426 
L 55.882745 121.70426 
L 53.888342 121.70426 
L 51.438765 121.70426 
L 49.20214 121.70426 
L 47.153156 121.70426 
L 45.270044 121.70426 
L 43.121142 121.70426 
L 41.171363 121.70426 
L 39.058389 121.70426 
L 37.822975 121.70426 
L 36.860088 120.648236 
L 34.904673 118.101604 
L 32.919448 114.734341 
L 32.477388 113.850664 
L 30.951624 110.513627 
L 30.042325 108.082547 
L 29.217417 105.484143 
L 28.601927 103.282793 
L 28.601927 103.282793 
L 28.389076 99.05776 
L 28.389076 99.05776 
L 28.389076 99.05776 
L 28.178092 95.217463 
L 28.178092 95.217463 
L 27.97575 91.654014 
L 27.97575 91.654014 
L 27.784358 88.299579 
L 27.6044 85.108402 
L 27.435576 82.047976 
L 27.359082 80.638436 
L 27.273552 79.094272 
L 27.118225 76.228953 
L 26.97225 73.43766 
L 26.834866 70.708904 
L 26.58304 65.403153 
L 26.467324 62.811897 
L 26.253525 57.724765 
L 26.060155 52.736152 
L 25.884132 47.818707 
L 25.737188 43.391172 
L 25.722166 42.950834 
L 25.565686 38.115004 
L 25.352756 30.890056 
L 25.223258 26.075174 
L 25.044843 18.830226 
L 24.831848 9.083211 
L 24.642237 -0.817688 
L 24.471813 -10.924939 
L 24.317381 -21.286647 
L 24.143102 -34.66641 
L 24.068334 -41.200396 
L 24.068334 -48.603798 
L 24.068334 -66.192148 
L 24.068334 -88.113306 
L 24.068334 -111.823741 
L 24.068334 -141.549795 
L 24.068334 -179.081508 
L 24.068334 -222.014644 
L 24.068334 -283.999997 
L 24.068334 -360.091375 
L 24.068334 -476.426552 
L 25.737188 -476.426552 
L 27.359082 -476.426552 
L 29.217417 -476.426552 
L 30.951624 -476.426552 
L 32.919448 -476.426552 
L 34.826403 -476.426552 
L 34.904673 -459.926081 
L 35.387212 -360.091375 
L 35.918103 -283.999997 
L 36.513384 -222.014644 
L 36.860088 -194.393037 
L 37.054661 -179.081508 
L 37.65136 -141.549795 
L 38.244942 -111.823741 
L 38.823553 -88.113306 
L 39.058389 -79.970909 
L 39.460296 -66.192148 
L 40.064884 -48.603798 
L 40.622658 -34.66641 
L 41.171363 -22.727483 
L 41.238028 -21.286647 
L 41.769947 -10.924939 
L 42.354648 -0.817688 
L 43.002845 9.083211 
L 43.121142 10.71418 
L 43.713213 18.830226 
L 44.304454 26.075174 
L 44.733311 30.890056 
L 45.270044 36.424705 
L 45.434142 38.115004 
L 45.939027 42.950834 
L 46.489575 47.818707 
L 47.094276 52.736152 
L 47.153156 53.185419 
L 47.745449 57.724765 
L 48.471409 62.811897 
L 48.868608 65.403153 
L 49.20214 67.4633 
L 49.725783 70.708904 
L 50.194864 73.43766 
L 50.700602 76.228953 
L 51.248128 79.094272 
L 51.438765 80.054918 
L 51.825393 82.047976 
L 52.446276 85.108402 
L 53.12674 88.299579 
L 53.874817 91.654014 
L 53.874817 91.654014 
L 53.888342 91.714431 
L 54.660159 95.217463 
L 54.660159 95.217463 
L 55.520251 99.05776 
L 55.520251 99.05776 
L 55.520251 99.05776 
L 55.882745 100.747082 
L 56.42566 103.282793 
L 56.42566 103.282793 
L 57.29483 104.273688 
L 59.547801 106.677695 
L 60.972179 108.082547 
L 61.14655 108.248644 
L 62.828353 109.826569 
L 64.597934 111.384398 
L 66.459538 112.926958 
L 67.605435 113.850664 
L 68.416244 114.5207 
L 69.430608 115.362208 
L 71.529716 117.048662 
L 72.612397 117.896548 
L 73.714483 118.749952 
L 74.832398 119.611151 
L 75.960518 120.48295 
L 77.08998 121.368889 
L 77.489179 121.70426 
z
" style="fill:#f5f5f5;"/>
   </g>
   <g id="PathCollection_3">
    <path clip-path="url(#p568b13be49)" d="M 162.945707 121.70426 
L 108.13707 121.70426 
L 81.694378 121.70426 
L 81.694378 121.70426 
L 81.143755 121.70426 
L 81.143755 121.70426 
L 81.143755 121.70426 
L 80.290849 121.70426 
L 80.290849 121.70426 
L 79.287 121.70426 
L 79.287 121.70426 
L 78.2066 121.70426 
L 77.489179 121.70426 
L 77.08998 121.368889 
L 75.960518 120.48295 
L 74.832398 119.611151 
L 73.714483 118.749952 
L 72.612397 117.896548 
L 71.529716 117.048662 
L 69.430608 115.362208 
L 68.416244 114.5207 
L 67.605435 113.850664 
L 66.459538 112.926958 
L 64.597934 111.384398 
L 62.828353 109.826569 
L 61.14655 108.248644 
L 60.972179 108.082547 
L 59.547801 106.677695 
L 57.29483 104.273688 
L 56.42566 103.282793 
L 56.42566 103.282793 
L 55.882745 100.747082 
L 55.520251 99.05776 
L 55.520251 99.05776 
L 55.520251 99.05776 
L 54.660159 95.217463 
L 54.660159 95.217463 
L 53.888342 91.714431 
L 53.874817 91.654014 
L 53.874817 91.654014 
L 53.12674 88.299579 
L 52.446276 85.108402 
L 51.825393 82.047976 
L 51.438765 80.054918 
L 51.248128 79.094272 
L 50.700602 76.228953 
L 50.194864 73.43766 
L 49.725783 70.708904 
L 49.20214 67.4633 
L 48.868608 65.403153 
L 48.471409 62.811897 
L 47.745449 57.724765 
L 47.153156 53.185419 
L 47.094276 52.736152 
L 46.489575 47.818707 
L 45.939027 42.950834 
L 45.434142 38.115004 
L 45.270044 36.424705 
L 44.733311 30.890056 
L 44.304454 26.075174 
L 43.713213 18.830226 
L 43.121142 10.71418 
L 43.002845 9.083211 
L 42.354648 -0.817688 
L 41.769947 -10.924939 
L 41.238028 -21.286647 
L 41.171363 -22.727483 
L 40.622658 -34.66641 
L 40.064884 -48.603798 
L 39.460296 -66.192148 
L 39.058389 -79.970909 
L 38.823553 -88.113306 
L 38.244942 -111.823741 
L 37.65136 -141.549795 
L 37.054661 -179.081508 
L 36.860088 -194.393037 
L 36.513384 -222.014644 
L 35.918103 -283.999997 
L 35.387212 -360.091375 
L 34.904673 -459.926081 
L 34.826403 -476.426552 
L 34.904673 -476.426552 
L 36.860088 -476.426552 
L 39.058389 -476.426552 
L 41.171363 -476.426552 
L 43.121142 -476.426552 
L 45.270044 -476.426552 
L 47.153156 -476.426552 
L 48.165421 -476.426552 
L 49.103431 -360.091375 
L 49.20214 -351.39052 
L 49.966726 -283.999997 
L 50.928501 -222.014644 
L 51.438765 -196.750076 
L 51.79238 -179.081508 
L 52.731872 -141.549795 
L 53.663521 -111.823741 
L 53.888342 -105.803752 
L 54.540464 -88.113306 
L 55.50519 -66.192148 
L 55.882745 -58.852007 
L 56.406181 -48.603798 
L 57.222186 -34.66641 
L 57.29483 -33.557634 
L 58.086333 -21.286647 
L 58.843403 -10.924939 
L 59.547801 -2.309927 
L 59.666802 -0.817688 
L 60.538096 9.083211 
L 61.14655 15.251503 
L 61.493109 18.830226 
L 62.265093 26.075174 
L 62.823719 30.890056 
L 62.828353 30.927566 
L 63.691064 38.115004 
L 64.328076 42.950834 
L 64.597934 44.868136 
L 64.99493 47.818707 
L 65.707809 52.736152 
L 66.459538 57.492755 
L 66.494267 57.724765 
L 67.310894 62.811897 
L 67.758325 65.403153 
L 68.416244 68.962871 
L 68.727106 70.708904 
L 69.242995 73.43766 
L 69.430608 74.386768 
L 69.772099 76.228953 
L 70.331599 79.094272 
L 70.943786 82.047976 
L 71.529716 84.716812 
L 71.609781 85.108402 
L 72.288944 88.299579 
L 72.612397 89.756835 
L 73.01439 91.654014 
L 73.01439 91.654014 
L 73.714483 94.839446 
L 73.793188 95.217463 
L 73.793188 95.217463 
L 74.601394 99.05776 
L 74.601394 99.05776 
L 74.601394 99.05776 
L 74.832398 100.17703 
L 75.435915 103.282793 
L 75.435915 103.282793 
L 75.960518 103.991868 
L 77.08998 105.583906 
L 78.2066 107.210369 
L 78.753311 108.082547 
L 79.287 108.900203 
L 79.287 108.900203 
L 80.290849 110.671699 
L 80.290849 110.671699 
L 81.143755 112.529037 
L 81.143755 112.529037 
L 81.143755 112.529037 
L 81.500056 113.850664 
L 81.694378 114.575381 
L 81.694378 114.575381 
L 108.13707 116.960026 
L 162.945707 119.693424 
L 250.651175 121.70426 
z
" style="fill:#dcdcdc;"/>
   </g>
   <g id="PathCollection_4">
    <path clip-path="url(#p568b13be49)" d="M 330.236314 121.70426 
L 250.651175 121.70426 
L 162.945707 119.693424 
L 108.13707 116.960026 
L 81.694378 114.575381 
L 81.694378 114.575381 
L 81.500056 113.850664 
L 81.143755 112.529037 
L 81.143755 112.529037 
L 81.143755 112.529037 
L 80.290849 110.671699 
L 79.287 108.900203 
L 79.287 108.900203 
L 78.753311 108.082547 
L 78.2066 107.210369 
L 77.08998 105.583906 
L 75.960518 103.991868 
L 75.435915 103.282793 
L 75.435915 103.282793 
L 74.832398 100.17703 
L 74.601394 99.05776 
L 74.601394 99.05776 
L 74.601394 99.05776 
L 73.793188 95.217463 
L 73.793188 95.217463 
L 73.714483 94.839446 
L 73.01439 91.654014 
L 73.01439 91.654014 
L 72.612397 89.756835 
L 72.288944 88.299579 
L 71.609781 85.108402 
L 71.529716 84.716812 
L 70.943786 82.047976 
L 70.331599 79.094272 
L 69.772099 76.228953 
L 69.430608 74.386768 
L 69.242995 73.43766 
L 68.727106 70.708904 
L 68.416244 68.962871 
L 67.758325 65.403153 
L 67.310894 62.811897 
L 66.494267 57.724765 
L 66.459538 57.492755 
L 65.707809 52.736152 
L 64.99493 47.818707 
L 64.597934 44.868136 
L 64.328076 42.950834 
L 63.691064 38.115004 
L 62.828353 30.927566 
L 62.823719 30.890056 
L 62.265093 26.075174 
L 61.493109 18.830226 
L 61.14655 15.251503 
L 60.538096 9.083211 
L 59.666802 -0.817688 
L 59.547801 -2.309927 
L 58.843403 -10.924939 
L 58.086333 -21.286647 
L 57.29483 -33.557634 
L 57.222186 -34.66641 
L 56.406181 -48.603798 
L 55.882745 -58.852007 
L 55.50519 -66.192148 
L 54.540464 -88.113306 
L 53.888342 -105.803752 
L 53.663521 -111.823741 
L 52.731872 -141.549795 
L 51.79238 -179.081508 
L 51.438765 -196.750076 
L 50.928501 -222.014644 
L 49.966726 -283.999997 
L 49.20214 -351.39052 
L 49.103431 -360.091375 
L 48.165421 -476.426552 
L 49.20214 -476.426552 
L 51.438765 -476.426552 
L 53.888342 -476.426552 
L 55.882745 -476.426552 
L 57.29483 -476.426552 
L 59.399655 -476.426552 
L 59.547801 -460.784654 
L 60.487772 -360.091375 
L 61.14655 -310.496751 
L 61.493262 -283.999997 
L 62.582601 -222.014644 
L 62.828353 -211.150302 
L 63.536361 -179.081508 
L 64.581745 -141.549795 
L 64.597934 -141.07062 
L 65.553901 -111.823741 
L 66.459538 -88.995381 
L 66.49292 -88.113306 
L 67.461661 -66.192148 
L 68.383639 -48.603798 
L 68.416244 -48.053449 
L 69.177581 -34.66641 
L 69.430608 -30.703898 
L 70.000924 -21.286647 
L 70.706185 -10.924939 
L 71.477201 -0.817688 
L 71.529716 -0.190603 
L 72.257112 9.083211 
L 72.612397 13.164265 
L 73.084207 18.830226 
L 73.714483 25.687782 
L 73.747992 26.075174 
L 74.191022 30.890056 
L 74.832398 37.294932 
L 74.908848 38.115004 
L 75.391662 42.950834 
L 75.916675 47.818707 
L 75.960518 48.200727 
L 76.43406 52.736152 
L 77.000923 57.724765 
L 77.08998 58.454766 
L 77.563236 62.811897 
L 77.86488 65.403153 
L 78.2066 68.154783 
L 78.479781 70.708904 
L 78.791802 73.43766 
L 79.130008 76.228953 
L 79.287 77.461719 
L 79.287 77.461719 
L 79.453678 79.094272 
L 79.772116 82.047976 
L 80.123954 85.108402 
L 80.290849 86.487116 
L 80.290849 86.487116 
L 80.448238 88.299579 
L 80.75578 91.654014 
L 80.75578 91.654014 
L 81.103067 95.217463 
L 81.103067 95.217463 
L 81.143755 95.626645 
L 81.143755 95.626645 
L 81.143755 95.626645 
L 81.324517 99.05776 
L 81.324517 99.05776 
L 81.55213 103.282793 
L 81.55213 103.282793 
L 81.694378 103.987621 
L 81.694378 103.987621 
L 108.13707 107.184884 
L 120.157449 108.082547 
L 162.945707 110.911919 
L 257.140608 113.850664 
L 330.236314 115.869255 
L 330.236314 121.70426 
z
" style="fill:#b3b3b3;"/>
   </g>
   <g id="PathCollection_5">
    <path clip-path="url(#p568b13be49)" d="M 330.236314 115.869255 
L 257.140608 113.850664 
L 162.945707 110.911919 
L 120.157449 108.082547 
L 108.13707 107.184884 
L 81.694378 103.987621 
L 81.55213 103.282793 
L 81.324517 99.05776 
L 81.324517 99.05776 
L 81.324517 99.05776 
L 81.143755 95.626645 
L 81.143755 95.626645 
L 81.143755 95.626645 
L 81.103067 95.217463 
L 81.103067 95.217463 
L 80.75578 91.654014 
L 80.75578 91.654014 
L 80.448238 88.299579 
L 80.290849 86.487116 
L 80.290849 86.487116 
L 80.123954 85.108402 
L 79.772116 82.047976 
L 79.453678 79.094272 
L 79.287 77.461719 
L 79.287 77.461719 
L 79.130008 76.228953 
L 78.791802 73.43766 
L 78.479781 70.708904 
L 78.2066 68.154783 
L 77.86488 65.403153 
L 77.563236 62.811897 
L 77.08998 58.454766 
L 77.000923 57.724765 
L 76.43406 52.736152 
L 75.960518 48.200727 
L 75.916675 47.818707 
L 75.391662 42.950834 
L 74.908848 38.115004 
L 74.832398 37.294932 
L 74.191022 30.890056 
L 73.747992 26.075174 
L 73.714483 25.687782 
L 73.084207 18.830226 
L 72.612397 13.164265 
L 72.257112 9.083211 
L 71.529716 -0.190603 
L 71.477201 -0.817688 
L 70.706185 -10.924939 
L 70.000924 -21.286647 
L 69.430608 -30.703898 
L 69.177581 -34.66641 
L 68.416244 -48.053449 
L 68.383639 -48.603798 
L 67.461661 -66.192148 
L 66.49292 -88.113306 
L 66.459538 -88.995381 
L 65.553901 -111.823741 
L 64.597934 -141.07062 
L 64.581745 -141.549795 
L 63.536361 -179.081508 
L 62.828353 -211.150302 
L 62.582601 -222.014644 
L 61.493262 -283.999997 
L 61.14655 -310.496751 
L 60.487772 -360.091375 
L 59.547801 -460.784654 
L 59.399655 -476.426552 
L 59.547801 -476.426552 
L 61.14655 -476.426552 
L 62.828353 -476.426552 
L 64.597934 -476.426552 
L 66.459538 -476.426552 
L 68.13779 -476.426552 
L 68.416244 -446.684664 
L 69.201699 -360.091375 
L 69.430608 -342.045449 
L 70.13225 -283.999997 
L 71.150513 -222.014644 
L 71.529716 -204.15113 
L 72.030245 -179.081508 
L 72.612397 -155.562358 
L 72.945481 -141.549795 
L 73.714483 -115.033689 
L 73.802812 -111.823741 
L 74.574171 -88.113306 
L 74.832398 -81.351021 
L 75.374282 -66.192148 
L 75.960518 -52.139082 
L 76.095777 -48.603798 
L 76.698772 -34.66641 
L 77.08998 -26.674664 
L 77.325544 -21.286647 
L 77.829988 -10.924939 
L 78.2066 -3.959602 
L 78.352427 -0.817688 
L 78.860027 9.083211 
L 79.287 16.516417 
L 79.287 16.516417 
L 79.394751 18.830226 
L 79.763502 26.075174 
L 80.0294 30.890056 
L 80.290849 35.276822 
L 80.290849 35.276822 
L 80.412597 38.115004 
L 80.636096 42.950834 
L 80.878786 47.818707 
L 81.143755 52.72474 
L 81.143755 52.72474 
L 81.143755 52.72474 
L 81.144078 52.736152 
L 81.294751 57.724765 
L 81.463024 62.811897 
L 81.555162 65.403153 
L 81.694378 69.054029 
L 81.694378 69.054029 
L 84.033044 70.708904 
L 88.139807 73.43766 
L 92.59277 76.228953 
L 97.451729 79.094272 
L 102.791173 82.047976 
L 108.13707 84.82027 
L 108.936379 85.108402 
L 118.235302 88.299579 
L 128.704442 91.654014 
L 128.704442 91.654014 
L 140.593801 95.217463 
L 140.593801 95.217463 
L 154.185468 99.05776 
L 154.185468 99.05776 
L 154.185468 99.05776 
L 162.945707 101.481578 
L 174.272075 103.282793 
L 174.272075 103.282793 
L 300.128103 108.082547 
L 330.236314 109.041089 
L 330.236314 113.850664 
L 330.236314 115.869255 
z
" style="fill:#818181;"/>
   </g>
   <g id="PathCollection_6">
    <path clip-path="url(#p568b13be49)" d="M 330.236314 109.041089 
L 300.128103 108.082547 
L 174.272075 103.282793 
L 174.272075 103.282793 
L 162.945707 101.481578 
L 154.185468 99.05776 
L 154.185468 99.05776 
L 154.185468 99.05776 
L 140.593801 95.217463 
L 140.593801 95.217463 
L 128.704442 91.654014 
L 128.704442 91.654014 
L 118.235302 88.299579 
L 108.936379 85.108402 
L 108.13707 84.82027 
L 102.791173 82.047976 
L 97.451729 79.094272 
L 92.59277 76.228953 
L 88.139807 73.43766 
L 84.033044 70.708904 
L 81.694378 69.054029 
L 81.694378 69.054029 
L 81.555162 65.403153 
L 81.463024 62.811897 
L 81.294751 57.724765 
L 81.144078 52.736152 
L 81.143755 52.72474 
L 81.143755 52.72474 
L 81.143755 52.72474 
L 80.878786 47.818707 
L 80.636096 42.950834 
L 80.412597 38.115004 
L 80.290849 35.276822 
L 80.290849 35.276822 
L 80.0294 30.890056 
L 79.763502 26.075174 
L 79.394751 18.830226 
L 79.287 16.516417 
L 79.287 16.516417 
L 78.860027 9.083211 
L 78.352427 -0.817688 
L 78.2066 -3.959602 
L 77.829988 -10.924939 
L 77.325544 -21.286647 
L 77.08998 -26.674664 
L 76.698772 -34.66641 
L 76.095777 -48.603798 
L 75.960518 -52.139082 
L 75.374282 -66.192148 
L 74.832398 -81.351021 
L 74.574171 -88.113306 
L 73.802812 -111.823741 
L 73.714483 -115.033689 
L 72.945481 -141.549795 
L 72.612397 -155.562358 
L 72.030245 -179.081508 
L 71.529716 -204.15113 
L 71.150513 -222.014644 
L 70.13225 -283.999997 
L 69.430608 -342.045449 
L 69.201699 -360.091375 
L 68.416244 -446.684664 
L 68.13779 -476.426552 
L 68.416244 -476.426552 
L 69.430608 -476.426552 
L 71.529716 -476.426552 
L 72.612397 -476.426552 
L 73.714483 -476.426552 
L 74.832398 -476.426552 
L 75.960518 -476.426552 
L 77.08998 -476.426552 
L 78.2066 -476.426552 
L 78.586593 -476.426552 
L 79.245305 -360.091375 
L 79.287 -354.839423 
L 79.287 -354.839423 
L 79.744942 -283.999997 
L 80.290849 -222.079919 
L 80.290849 -222.079919 
L 80.291267 -222.014644 
L 80.640871 -179.081508 
L 81.02813 -141.549795 
L 81.143755 -132.371675 
L 81.143755 -132.371675 
L 81.143755 -132.371675 
L 81.281018 -111.823741 
L 81.471216 -88.113306 
L 81.681503 -66.192148 
L 81.694378 -65.027739 
L 81.694378 -65.027739 
L 88.446394 -48.603798 
L 95.042135 -34.66641 
L 102.265182 -21.286647 
L 108.13707 -11.632515 
L 108.760476 -10.924939 
L 118.502417 -0.817688 
L 129.18413 9.083211 
L 141.004105 18.830226 
L 150.777178 26.075174 
L 157.808448 30.890056 
L 162.945707 34.16799 
L 173.652517 38.115004 
L 187.804276 42.950834 
L 203.130232 47.818707 
L 219.856511 52.736152 
L 238.283055 57.724765 
L 258.818082 62.811897 
L 270.046489 65.403153 
L 294.892169 70.708904 
L 308.759296 73.43766 
L 323.805278 76.228953 
L 330.236314 77.361277 
L 330.236314 79.094272 
L 330.236314 82.047976 
L 330.236314 85.108402 
L 330.236314 88.299579 
L 330.236314 91.654014 
L 330.236314 95.217463 
L 330.236314 99.05776 
L 330.236314 103.282793 
L 330.236314 108.082547 
L 330.236314 109.041089 
z
" style="fill:#353535;"/>
   </g>
   <g id="PathCollection_7">
    <path clip-path="url(#p568b13be49)" d="M 30.239099 105.562626 
L 27.719178 110.602468 
L 32.759019 110.602468 
z
" style="fill:#e41a1c;stroke:#000000;"/>
    <path clip-path="url(#p568b13be49)" d="M 32.984743 105.294178 
L 30.196374 110.870916 
L 35.773112 110.870916 
z
" style="fill:#e41a1c;stroke:#000000;"/>
    <path clip-path="url(#p568b13be49)" d="M 34.226222 105.078383 
L 31.222058 111.086711 
L 37.230386 111.086711 
z
" style="fill:#e41a1c;stroke:#000000;"/>
    <path clip-path="url(#p568b13be49)" d="M 35.768547 105.460525 
L 33.146525 110.704569 
L 38.390569 110.704569 
z
" style="fill:#e41a1c;stroke:#000000;"/>
    <path clip-path="url(#p568b13be49)" d="M 53.029232 78.990199 
L 49.971456 85.105753 
L 56.087009 85.105753 
z
" style="fill:#e41a1c;stroke:#000000;"/>
    <path clip-path="url(#p568b13be49)" d="M 49.110931 106.394353 
L 47.422737 109.770741 
L 50.799125 109.770741 
z
" style="fill:#e41a1c;stroke:#000000;"/>
    <path clip-path="url(#p568b13be49)" d="M 32.49554 97.85049 
L 31.288271 100.26503 
L 33.70281 100.26503 
z
" style="fill:#e41a1c;stroke:#000000;"/>
    <path clip-path="url(#p568b13be49)" d="M 32.984743 106.076307 
L 30.978503 110.088787 
L 34.990983 110.088787 
z
" style="fill:#e41a1c;stroke:#000000;"/>
    <path clip-path="url(#p568b13be49)" d="M 38.406352 101.086205 
L 36.209764 105.479381 
L 40.602941 105.479381 
z
" style="fill:#e41a1c;stroke:#000000;"/>
    <path clip-path="url(#p568b13be49)" d="M 37.037443 101.276553 
L 35.031203 105.289033 
L 39.043683 105.289033 
z
" style="fill:#e41a1c;stroke:#000000;"/>
    <path clip-path="url(#p568b13be49)" d="M 36.576319 105.162787 
L 33.656559 111.002307 
L 39.496079 111.002307 
z
" style="fill:#e41a1c;stroke:#000000;"/>
    <path clip-path="url(#p568b13be49)" d="M 40.037319 84.994281 
L 36.73202 91.604878 
L 43.342618 91.604878 
z
" style="fill:#e41a1c;stroke:#000000;"/>
    <path clip-path="url(#p568b13be49)" d="M 42.895282 89.154014 
L 40.395282 94.154014 
L 45.395282 94.154014 
z
" style="fill:#e41a1c;stroke:#000000;"/>
    <path clip-path="url(#p568b13be49)" d="M 70.722624 86.18416 
L 68.607204 90.414999 
L 72.838043 90.414999 
z
" style="fill:#e41a1c;stroke:#000000;"/>
    <path clip-path="url(#p568b13be49)" d="M 30.102438 104.002106 
L 26.021997 112.162988 
L 34.182879 112.162988 
z
" style="fill:#e41a1c;stroke:#000000;"/>
    <path clip-path="url(#p568b13be49)" d="M 32.304206 107.726879 
L 31.948538 108.438215 
L 32.659875 108.438215 
z
" style="fill:#e41a1c;stroke:#000000;"/>
    <path clip-path="url(#p568b13be49)" d="M 30.856759 107.7687 
L 30.542912 108.396394 
L 31.170606 108.396394 
z
" style="fill:#e41a1c;stroke:#000000;"/>
    <path clip-path="url(#p568b13be49)" d="M 41.71272 66.819816 
L 37.823632 74.597991 
L 45.601807 74.597991 
z
" style="fill:#e41a1c;stroke:#000000;"/>
    <path clip-path="url(#p568b13be49)" d="M 27.00938 73.754079 
L 24.534507 78.703827 
L 29.484254 78.703827 
z
" style="fill:#e41a1c;stroke:#000000;"/>
   </g>
   <g id="PathCollection_8">
    <path clip-path="url(#p568b13be49)" d="M 65.556134 56.723342 
L 67.059464 53.716683 
L 64.052804 53.716683 
z
" style="fill:#e41a1c;stroke:#000000;"/>
    <path clip-path="url(#p568b13be49)" d="M 50.538701 86.519961 
L 51.950261 83.696842 
L 49.127142 83.696842 
z
" style="fill:#e41a1c;stroke:#000000;"/>
    <path clip-path="url(#p568b13be49)" d="M 44.274387 92.748318 
L 45.36869 90.559711 
L 43.180083 90.559711 
z
" style="fill:#e41a1c;stroke:#000000;"/>
    <path clip-path="url(#p568b13be49)" d="M 54.802928 86.429386 
L 56.123912 83.787417 
L 53.481943 83.787417 
z
" style="fill:#e41a1c;stroke:#000000;"/>
    <path clip-path="url(#p568b13be49)" d="M 41.067328 85.233882 
L 44.253234 78.862069 
L 37.881421 78.862069 
z
" style="fill:#e41a1c;stroke:#000000;"/>
    <path clip-path="url(#p568b13be49)" d="M 63.941006 51.004613 
L 67.126912 44.6328 
L 60.7551 44.6328 
z
" style="fill:#e41a1c;stroke:#000000;"/>
    <path clip-path="url(#p568b13be49)" d="M 32.918601 110.567502 
L 35.403555 105.597592 
L 30.433646 105.597592 
z
" style="fill:#e41a1c;stroke:#000000;"/>
    <path clip-path="url(#p568b13be49)" d="M 38.223689 110.506387 
L 40.647529 105.658707 
L 35.799849 105.658707 
z
" style="fill:#e41a1c;stroke:#000000;"/>
   </g>
   <g id="PathCollection_9">
    <path clip-path="url(#p568b13be49)" d="M 48.679432 89.673443 
L 51.427158 89.673443 
L 51.427158 86.925716 
L 48.679432 86.925716 
z
" style="fill:#e41a1c;stroke:#000000;"/>
    <path clip-path="url(#p568b13be49)" d="M 51.389946 89.139222 
L 53.069232 89.139222 
L 53.069232 87.459937 
L 51.389946 87.459937 
z
" style="fill:#e41a1c;stroke:#000000;"/>
    <path clip-path="url(#p568b13be49)" d="M 43.494228 100.024714 
L 45.428136 100.024714 
L 45.428136 98.090806 
L 43.494228 98.090806 
z
" style="fill:#e41a1c;stroke:#000000;"/>
    <path clip-path="url(#p568b13be49)" d="M 44.588152 89.72874 
L 47.446473 89.72874 
L 47.446473 86.870419 
L 44.588152 86.870419 
z
" style="fill:#e41a1c;stroke:#000000;"/>
    <path clip-path="url(#p568b13be49)" d="M 53.687969 96.236041 
L 55.725124 96.236041 
L 55.725124 94.198886 
L 53.687969 94.198886 
z
" style="fill:#e41a1c;stroke:#000000;"/>
    <path clip-path="url(#p568b13be49)" d="M 35.56216 99.502451 
L 36.451541 99.502451 
L 36.451541 98.613069 
L 35.56216 98.613069 
z
" style="fill:#e41a1c;stroke:#000000;"/>
    <path clip-path="url(#p568b13be49)" d="M 41.443301 109.246592 
L 43.771391 109.246592 
L 43.771391 106.918502 
L 41.443301 106.918502 
z
" style="fill:#e41a1c;stroke:#000000;"/>
    <path clip-path="url(#p568b13be49)" d="M 58.430267 95.975751 
L 59.946843 95.975751 
L 59.946843 94.459176 
L 58.430267 94.459176 
z
" style="fill:#e41a1c;stroke:#000000;"/>
    <path clip-path="url(#p568b13be49)" d="M 31.284894 77.311773 
L 33.450534 77.311773 
L 33.450534 75.146133 
L 31.284894 75.146133 
z
" style="fill:#e41a1c;stroke:#000000;"/>
    <path clip-path="url(#p568b13be49)" d="M 36.847728 100.07388 
L 38.879969 100.07388 
L 38.879969 98.04164 
L 36.847728 98.04164 
z
" style="fill:#e41a1c;stroke:#000000;"/>
    <path clip-path="url(#p568b13be49)" d="M 26.46524 87.598381 
L 31.4452 87.598381 
L 31.4452 82.618422 
L 26.46524 82.618422 
z
" style="fill:#e41a1c;stroke:#000000;"/>
    <path clip-path="url(#p568b13be49)" d="M 73.890531 73.69212 
L 74.399452 73.69212 
L 74.399452 73.1832 
L 73.890531 73.1832 
z
" style="fill:#e41a1c;stroke:#000000;"/>
   </g>
   <g id="matplotlib.axis_1">
    <g id="xtick_1">
     <g id="line2d_1">
      <defs>
       <path d="M 0 0 
L 0 3.5 
" id="m9581ac5b09" style="stroke:#000000;stroke-width:0.8;"/>
      </defs>
      <g>
       <use style="stroke:#000000;stroke-width:0.8;" x="30.498776" xlink:href="#m9581ac5b09" y="122.259484"/>
      </g>
     </g>
     <g id="text_1">
      <!-- 1 -->
      <defs>
       <path d="M 12.40625 8.296875 
L 28.515625 8.296875 
L 28.515625 63.921875 
L 10.984375 60.40625 
L 10.984375 69.390625 
L 28.421875 72.90625 
L 38.28125 72.90625 
L 38.28125 8.296875 
L 54.390625 8.296875 
L 54.390625 0 
L 12.40625 0 
z
" id="DejaVuSans-49"/>
      </defs>
      <g transform="translate(27.953776 135.338234)scale(0.08 -0.08)">
       <use xlink:href="#DejaVuSans-49"/>
      </g>
     </g>
    </g>
    <g id="xtick_2">
     <g id="line2d_2">
      <g>
       <use style="stroke:#000000;stroke-width:0.8;" x="58.595718" xlink:href="#m9581ac5b09" y="122.259484"/>
      </g>
     </g>
     <g id="text_2">
      <!-- 2 -->
      <defs>
       <path d="M 19.1875 8.296875 
L 53.609375 8.296875 
L 53.609375 0 
L 7.328125 0 
L 7.328125 8.296875 
Q 12.9375 14.109375 22.625 23.890625 
Q 32.328125 33.6875 34.8125 36.53125 
Q 39.546875 41.84375 41.421875 45.53125 
Q 43.3125 49.21875 43.3125 52.78125 
Q 43.3125 58.59375 39.234375 62.25 
Q 35.15625 65.921875 28.609375 65.921875 
Q 23.96875 65.921875 18.8125 64.3125 
Q 13.671875 62.703125 7.8125 59.421875 
L 7.8125 69.390625 
Q 13.765625 71.78125 18.9375 73 
Q 24.125 74.21875 28.421875 74.21875 
Q 39.75 74.21875 46.484375 68.546875 
Q 53.21875 62.890625 53.21875 53.421875 
Q 53.21875 48.921875 51.53125 44.890625 
Q 49.859375 40.875 45.40625 35.40625 
Q 44.1875 33.984375 37.640625 27.21875 
Q 31.109375 20.453125 19.1875 8.296875 
z
" id="DejaVuSans-50"/>
      </defs>
      <g transform="translate(56.050718 135.338234)scale(0.08 -0.08)">
       <use xlink:href="#DejaVuSans-50"/>
      </g>
     </g>
    </g>
    <g id="xtick_3">
     <g id="line2d_3">
      <g>
       <use style="stroke:#000000;stroke-width:0.8;" x="86.692659" xlink:href="#m9581ac5b09" y="122.259484"/>
      </g>
     </g>
     <g id="text_3">
      <!-- 3 -->
      <defs>
       <path d="M 40.578125 39.3125 
Q 47.65625 37.796875 51.625 33 
Q 55.609375 28.21875 55.609375 21.1875 
Q 55.609375 10.40625 48.1875 4.484375 
Q 40.765625 -1.421875 27.09375 -1.421875 
Q 22.515625 -1.421875 17.65625 -0.515625 
Q 12.796875 0.390625 7.625 2.203125 
L 7.625 11.71875 
Q 11.71875 9.328125 16.59375 8.109375 
Q 21.484375 6.890625 26.8125 6.890625 
Q 36.078125 6.890625 40.9375 10.546875 
Q 45.796875 14.203125 45.796875 21.1875 
Q 45.796875 27.640625 41.28125 31.265625 
Q 36.765625 34.90625 28.71875 34.90625 
L 20.21875 34.90625 
L 20.21875 43.015625 
L 29.109375 43.015625 
Q 36.375 43.015625 40.234375 45.921875 
Q 44.09375 48.828125 44.09375 54.296875 
Q 44.09375 59.90625 40.109375 62.90625 
Q 36.140625 65.921875 28.71875 65.921875 
Q 24.65625 65.921875 20.015625 65.03125 
Q 15.375 64.15625 9.8125 62.3125 
L 9.8125 71.09375 
Q 15.4375 72.65625 20.34375 73.4375 
Q 25.25 74.21875 29.59375 74.21875 
Q 40.828125 74.21875 47.359375 69.109375 
Q 53.90625 64.015625 53.90625 55.328125 
Q 53.90625 49.265625 50.4375 45.09375 
Q 46.96875 40.921875 40.578125 39.3125 
z
" id="DejaVuSans-51"/>
      </defs>
      <g transform="translate(84.147659 135.338234)scale(0.08 -0.08)">
       <use xlink:href="#DejaVuSans-51"/>
      </g>
     </g>
    </g>
    <g id="xtick_4">
     <g id="line2d_4">
      <g>
       <use style="stroke:#000000;stroke-width:0.8;" x="114.7896" xlink:href="#m9581ac5b09" y="122.259484"/>
      </g>
     </g>
     <g id="text_4">
      <!-- 4 -->
      <defs>
       <path d="M 37.796875 64.3125 
L 12.890625 25.390625 
L 37.796875 25.390625 
z
M 35.203125 72.90625 
L 47.609375 72.90625 
L 47.609375 25.390625 
L 58.015625 25.390625 
L 58.015625 17.1875 
L 47.609375 17.1875 
L 47.609375 0 
L 37.796875 0 
L 37.796875 17.1875 
L 4.890625 17.1875 
L 4.890625 26.703125 
z
" id="DejaVuSans-52"/>
      </defs>
      <g transform="translate(112.2446 135.338234)scale(0.08 -0.08)">
       <use xlink:href="#DejaVuSans-52"/>
      </g>
     </g>
    </g>
    <g id="text_5">
     <!-- $k_E [h^{-1}]$ -->
     <defs>
      <path d="M 18.3125 75.984375 
L 27.296875 75.984375 
L 18.703125 31.6875 
L 49.515625 54.6875 
L 61.1875 54.6875 
L 26.8125 28.515625 
L 51.90625 0 
L 41.015625 0 
L 17.671875 26.703125 
L 12.5 0 
L 3.515625 0 
z
" id="DejaVuSans-Oblique-107"/>
      <path d="M 16.890625 72.90625 
L 62.984375 72.90625 
L 61.375 64.59375 
L 25.09375 64.59375 
L 20.90625 43.015625 
L 55.71875 43.015625 
L 54.109375 34.71875 
L 19.28125 34.71875 
L 14.203125 8.296875 
L 51.3125 8.296875 
L 49.703125 0 
L 2.6875 0 
z
" id="DejaVuSans-Oblique-69"/>
      <path d="M 8.59375 75.984375 
L 29.296875 75.984375 
L 29.296875 69 
L 17.578125 69 
L 17.578125 -6.203125 
L 29.296875 -6.203125 
L 29.296875 -13.1875 
L 8.59375 -13.1875 
z
" id="DejaVuSans-91"/>
      <path d="M 55.71875 33.015625 
L 49.3125 0 
L 40.28125 0 
L 46.6875 32.671875 
Q 47.125 34.96875 47.359375 36.71875 
Q 47.609375 38.484375 47.609375 39.5 
Q 47.609375 43.609375 45.015625 45.890625 
Q 42.4375 48.1875 37.796875 48.1875 
Q 30.5625 48.1875 25.265625 43.296875 
Q 19.96875 38.421875 18.40625 30.328125 
L 12.5 0 
L 3.515625 0 
L 18.3125 75.984375 
L 27.296875 75.984375 
L 21.484375 46.09375 
Q 24.90625 50.6875 30.21875 53.34375 
Q 35.546875 56 41.40625 56 
Q 48.640625 56 52.609375 52.09375 
Q 56.59375 48.1875 56.59375 41.109375 
Q 56.59375 39.359375 56.375 37.359375 
Q 56.15625 35.359375 55.71875 33.015625 
z
" id="DejaVuSans-Oblique-104"/>
      <path d="M 10.59375 35.5 
L 73.1875 35.5 
L 73.1875 27.203125 
L 10.59375 27.203125 
z
" id="DejaVuSans-8722"/>
      <path d="M 30.421875 75.984375 
L 30.421875 -13.1875 
L 9.71875 -13.1875 
L 9.71875 -6.203125 
L 21.390625 -6.203125 
L 21.390625 69 
L 9.71875 69 
L 9.71875 75.984375 
z
" id="DejaVuSans-93"/>
     </defs>
     <g transform="translate(52.6248 147.898234)scale(0.08 -0.08)">
      <use transform="translate(0 0.684375)" xlink:href="#DejaVuSans-Oblique-107"/>
      <use transform="translate(57.910156 -15.721875)scale(0.7)" xlink:href="#DejaVuSans-Oblique-69"/>
      <use transform="translate(104.873047 0.684375)" xlink:href="#DejaVuSans-91"/>
      <use transform="translate(143.886719 0.684375)" xlink:href="#DejaVuSans-Oblique-104"/>
      <use transform="translate(214.713333 38.965625)scale(0.7)" xlink:href="#DejaVuSans-8722"/>
      <use transform="translate(273.365677 38.965625)scale(0.7)" xlink:href="#DejaVuSans-49"/>
      <use transform="translate(320.636185 0.684375)" xlink:href="#DejaVuSans-93"/>
     </g>
    </g>
   </g>
   <g id="matplotlib.axis_2">
    <g id="ytick_1">
     <g id="line2d_5">
      <defs>
       <path d="M 0 0 
L -3.5 0 
" id="m94348f2208" style="stroke:#000000;stroke-width:0.8;"/>
      </defs>
      <g>
       <use style="stroke:#000000;stroke-width:0.8;" x="19.26" xlink:href="#m94348f2208" y="122.259484"/>
      </g>
     </g>
     <g id="text_6">
      <!-- 1.0 -->
      <defs>
       <path d="M 10.6875 12.40625 
L 21 12.40625 
L 21 0 
L 10.6875 0 
z
" id="DejaVuSans-46"/>
       <path d="M 31.78125 66.40625 
Q 24.171875 66.40625 20.328125 58.90625 
Q 16.5 51.421875 16.5 36.375 
Q 16.5 21.390625 20.328125 13.890625 
Q 24.171875 6.390625 31.78125 6.390625 
Q 39.453125 6.390625 43.28125 13.890625 
Q 47.125 21.390625 47.125 36.375 
Q 47.125 51.421875 43.28125 58.90625 
Q 39.453125 66.40625 31.78125 66.40625 
z
M 31.78125 74.21875 
Q 44.046875 74.21875 50.515625 64.515625 
Q 56.984375 54.828125 56.984375 36.375 
Q 56.984375 17.96875 50.515625 8.265625 
Q 44.046875 -1.421875 31.78125 -1.421875 
Q 19.53125 -1.421875 13.0625 8.265625 
Q 6.59375 17.96875 6.59375 36.375 
Q 6.59375 54.828125 13.0625 64.515625 
Q 19.53125 74.21875 31.78125 74.21875 
z
" id="DejaVuSans-48"/>
      </defs>
      <g transform="translate(-0.4625 125.298859)scale(0.08 -0.08)">
       <use xlink:href="#DejaVuSans-49"/>
       <use x="63.623047" xlink:href="#DejaVuSans-46"/>
       <use x="95.410156" xlink:href="#DejaVuSans-48"/>
      </g>
     </g>
    </g>
    <g id="ytick_2">
     <g id="line2d_6">
      <g>
       <use style="stroke:#000000;stroke-width:0.8;" x="19.26" xlink:href="#m94348f2208" y="95.886366"/>
      </g>
     </g>
     <g id="text_7">
      <!-- 1.5 -->
      <defs>
       <path d="M 10.796875 72.90625 
L 49.515625 72.90625 
L 49.515625 64.59375 
L 19.828125 64.59375 
L 19.828125 46.734375 
Q 21.96875 47.46875 24.109375 47.828125 
Q 26.265625 48.1875 28.421875 48.1875 
Q 40.625 48.1875 47.75 41.5 
Q 54.890625 34.8125 54.890625 23.390625 
Q 54.890625 11.625 47.5625 5.09375 
Q 40.234375 -1.421875 26.90625 -1.421875 
Q 22.3125 -1.421875 17.546875 -0.640625 
Q 12.796875 0.140625 7.71875 1.703125 
L 7.71875 11.625 
Q 12.109375 9.234375 16.796875 8.0625 
Q 21.484375 6.890625 26.703125 6.890625 
Q 35.15625 6.890625 40.078125 11.328125 
Q 45.015625 15.765625 45.015625 23.390625 
Q 45.015625 31 40.078125 35.4375 
Q 35.15625 39.890625 26.703125 39.890625 
Q 22.75 39.890625 18.8125 39.015625 
Q 14.890625 38.140625 10.796875 36.28125 
z
" id="DejaVuSans-53"/>
      </defs>
      <g transform="translate(-0.4625 98.925741)scale(0.08 -0.08)">
       <use xlink:href="#DejaVuSans-49"/>
       <use x="63.623047" xlink:href="#DejaVuSans-46"/>
       <use x="95.410156" xlink:href="#DejaVuSans-53"/>
      </g>
     </g>
    </g>
    <g id="ytick_3">
     <g id="line2d_7">
      <g>
       <use style="stroke:#000000;stroke-width:0.8;" x="19.26" xlink:href="#m94348f2208" y="69.513249"/>
      </g>
     </g>
     <g id="text_8">
      <!-- 2.0 -->
      <g transform="translate(-0.4625 72.552624)scale(0.08 -0.08)">
       <use xlink:href="#DejaVuSans-50"/>
       <use x="63.623047" xlink:href="#DejaVuSans-46"/>
       <use x="95.410156" xlink:href="#DejaVuSans-48"/>
      </g>
     </g>
    </g>
    <g id="ytick_4">
     <g id="line2d_8">
      <g>
       <use style="stroke:#000000;stroke-width:0.8;" x="19.26" xlink:href="#m94348f2208" y="43.140132"/>
      </g>
     </g>
     <g id="text_9">
      <!-- 2.5 -->
      <g transform="translate(-0.4625 46.179507)scale(0.08 -0.08)">
       <use xlink:href="#DejaVuSans-50"/>
       <use x="63.623047" xlink:href="#DejaVuSans-46"/>
       <use x="95.410156" xlink:href="#DejaVuSans-53"/>
      </g>
     </g>
    </g>
    <g id="ytick_5">
     <g id="line2d_9">
      <g>
       <use style="stroke:#000000;stroke-width:0.8;" x="19.26" xlink:href="#m94348f2208" y="16.767015"/>
      </g>
     </g>
     <g id="text_10">
      <!-- 3.0 -->
      <g transform="translate(-0.4625 19.80639)scale(0.08 -0.08)">
       <use xlink:href="#DejaVuSans-51"/>
       <use x="63.623047" xlink:href="#DejaVuSans-46"/>
       <use x="95.410156" xlink:href="#DejaVuSans-48"/>
      </g>
     </g>
    </g>
    <g id="text_11">
     <!-- y_{EV} [-] -->
     <defs>
      <path d="M 32.171875 -5.078125 
Q 28.375 -14.84375 24.75 -17.8125 
Q 21.140625 -20.796875 15.09375 -20.796875 
L 7.90625 -20.796875 
L 7.90625 -13.28125 
L 13.1875 -13.28125 
Q 16.890625 -13.28125 18.9375 -11.515625 
Q 21 -9.765625 23.484375 -3.21875 
L 25.09375 0.875 
L 2.984375 54.6875 
L 12.5 54.6875 
L 29.59375 11.921875 
L 46.6875 54.6875 
L 56.203125 54.6875 
z
" id="DejaVuSans-121"/>
      <path d="M 50.984375 -16.609375 
L 50.984375 -23.578125 
L -0.984375 -23.578125 
L -0.984375 -16.609375 
z
" id="DejaVuSans-95"/>
      <path d="M 51.125 -9.28125 
L 51.125 -16.3125 
L 48.09375 -16.3125 
Q 35.9375 -16.3125 31.8125 -12.6875 
Q 27.6875 -9.078125 27.6875 1.703125 
L 27.6875 13.375 
Q 27.6875 20.75 25.046875 23.578125 
Q 22.40625 26.421875 15.484375 26.421875 
L 12.5 26.421875 
L 12.5 33.40625 
L 15.484375 33.40625 
Q 22.46875 33.40625 25.078125 36.203125 
Q 27.6875 39.015625 27.6875 46.296875 
L 27.6875 58.015625 
Q 27.6875 68.796875 31.8125 72.390625 
Q 35.9375 75.984375 48.09375 75.984375 
L 51.125 75.984375 
L 51.125 69 
L 47.796875 69 
Q 40.921875 69 38.8125 66.84375 
Q 36.71875 64.703125 36.71875 57.8125 
L 36.71875 45.703125 
Q 36.71875 38.03125 34.5 34.5625 
Q 32.28125 31.109375 26.90625 29.890625 
Q 32.328125 28.5625 34.515625 25.09375 
Q 36.71875 21.625 36.71875 14.015625 
L 36.71875 1.90625 
Q 36.71875 -4.984375 38.8125 -7.125 
Q 40.921875 -9.28125 47.796875 -9.28125 
z
" id="DejaVuSans-123"/>
      <path d="M 9.8125 72.90625 
L 55.90625 72.90625 
L 55.90625 64.59375 
L 19.671875 64.59375 
L 19.671875 43.015625 
L 54.390625 43.015625 
L 54.390625 34.71875 
L 19.671875 34.71875 
L 19.671875 8.296875 
L 56.78125 8.296875 
L 56.78125 0 
L 9.8125 0 
z
" id="DejaVuSans-69"/>
      <path d="M 28.609375 0 
L 0.78125 72.90625 
L 11.078125 72.90625 
L 34.1875 11.53125 
L 57.328125 72.90625 
L 67.578125 72.90625 
L 39.796875 0 
z
" id="DejaVuSans-86"/>
      <path d="M 12.5 -9.28125 
L 15.921875 -9.28125 
Q 22.75 -9.28125 24.828125 -7.171875 
Q 26.90625 -5.078125 26.90625 1.90625 
L 26.90625 14.015625 
Q 26.90625 21.625 29.09375 25.09375 
Q 31.296875 28.5625 36.71875 29.890625 
Q 31.296875 31.109375 29.09375 34.5625 
Q 26.90625 38.03125 26.90625 45.703125 
L 26.90625 57.8125 
Q 26.90625 64.75 24.828125 66.875 
Q 22.75 69 15.921875 69 
L 12.5 69 
L 12.5 75.984375 
L 15.578125 75.984375 
Q 27.734375 75.984375 31.8125 72.390625 
Q 35.890625 68.796875 35.890625 58.015625 
L 35.890625 46.296875 
Q 35.890625 39.015625 38.515625 36.203125 
Q 41.15625 33.40625 48.09375 33.40625 
L 51.125 33.40625 
L 51.125 26.421875 
L 48.09375 26.421875 
Q 41.15625 26.421875 38.515625 23.578125 
Q 35.890625 20.75 35.890625 13.375 
L 35.890625 1.703125 
Q 35.890625 -9.078125 31.8125 -12.6875 
Q 27.734375 -16.3125 15.578125 -16.3125 
L 12.5 -16.3125 
z
" id="DejaVuSans-125"/>
      <path id="DejaVuSans-32"/>
      <path d="M 4.890625 31.390625 
L 31.203125 31.390625 
L 31.203125 23.390625 
L 4.890625 23.390625 
z
" id="DejaVuSans-45"/>
     </defs>
     <g transform="translate(-6.34875 90.070124)rotate(-90)scale(0.08 -0.08)">
      <use xlink:href="#DejaVuSans-121"/>
      <use x="59.179688" xlink:href="#DejaVuSans-95"/>
      <use x="109.179688" xlink:href="#DejaVuSans-123"/>
      <use x="172.802734" xlink:href="#DejaVuSans-69"/>
      <use x="235.986328" xlink:href="#DejaVuSans-86"/>
      <use x="304.394531" xlink:href="#DejaVuSans-125"/>
      <use x="368.017578" xlink:href="#DejaVuSans-32"/>
      <use x="399.804688" xlink:href="#DejaVuSans-91"/>
      <use x="438.818359" xlink:href="#DejaVuSans-45"/>
      <use x="474.902344" xlink:href="#DejaVuSans-93"/>
     </g>
    </g>
   </g>
   <g id="patch_3">
    <path d="M 19.26 122.259484 
L 19.26 16.767015 
" style="fill:none;stroke:#000000;stroke-linecap:square;stroke-linejoin:miter;stroke-width:0.8;"/>
   </g>
   <g id="patch_4">
    <path d="M 114.7896 122.259484 
L 114.7896 16.767015 
" style="fill:none;stroke:#000000;stroke-linecap:square;stroke-linejoin:miter;stroke-width:0.8;"/>
   </g>
   <g id="patch_5">
    <path d="M 19.26 122.259484 
L 114.7896 122.259484 
" style="fill:none;stroke:#000000;stroke-linecap:square;stroke-linejoin:miter;stroke-width:0.8;"/>
   </g>
   <g id="patch_6">
    <path d="M 19.26 16.767015 
L 114.7896 16.767015 
" style="fill:none;stroke:#000000;stroke-linecap:square;stroke-linejoin:miter;stroke-width:0.8;"/>
   </g>
  </g>
  <g id="axes_2">
   <g id="patch_7">
    <path clip-path="url(#pdc4f2cb69b)" d="M 120.7602 122.259484 
L 120.7602 104.677406 
L 120.7602 34.349093 
L 120.7602 16.767015 
L 126.034823 16.767015 
L 126.034823 34.349093 
L 126.034823 104.677406 
L 126.034823 122.259484 
z
" style="fill:#ffffff;stroke:#ffffff;stroke-linejoin:miter;stroke-width:0.01;"/>
   </g>
   <g id="QuadMesh_1">
    <path clip-path="url(#pdc4f2cb69b)" d="M 120.7602 122.259484 
L 126.034823 122.259484 
L 126.034823 104.677406 
L 120.7602 104.677406 
L 120.7602 122.259484 
" style="fill:#fefefe;"/>
    <path clip-path="url(#pdc4f2cb69b)" d="M 120.7602 104.677406 
L 126.034823 104.677406 
L 126.034823 87.095327 
L 120.7602 87.095327 
L 120.7602 104.677406 
" style="fill:#f5f5f5;"/>
    <path clip-path="url(#pdc4f2cb69b)" d="M 120.7602 87.095327 
L 126.034823 87.095327 
L 126.034823 69.513249 
L 120.7602 69.513249 
L 120.7602 87.095327 
" style="fill:#dcdcdc;"/>
    <path clip-path="url(#pdc4f2cb69b)" d="M 120.7602 69.513249 
L 126.034823 69.513249 
L 126.034823 51.931171 
L 120.7602 51.931171 
L 120.7602 69.513249 
" style="fill:#b3b3b3;"/>
    <path clip-path="url(#pdc4f2cb69b)" d="M 120.7602 51.931171 
L 126.034823 51.931171 
L 126.034823 34.349093 
L 120.7602 34.349093 
L 120.7602 51.931171 
" style="fill:#818181;"/>
    <path clip-path="url(#pdc4f2cb69b)" d="M 120.7602 34.349093 
L 126.034823 34.349093 
L 126.034823 16.767015 
L 120.7602 16.767015 
L 120.7602 34.349093 
" style="fill:#353535;"/>
   </g>
   <g id="matplotlib.axis_3"/>
   <g id="matplotlib.axis_4">
    <g id="ytick_6">
     <g id="line2d_10">
      <defs>
       <path d="M 0 0 
L 3.5 0 
" id="m6ec151579b" style="stroke:#000000;stroke-width:0.8;"/>
      </defs>
      <g>
       <use style="stroke:#000000;stroke-width:0.8;" x="126.034823" xlink:href="#m6ec151579b" y="122.259484"/>
      </g>
     </g>
     <g id="text_12">
      <!-- 0.005 -->
      <g transform="translate(133.034823 125.298859)scale(0.08 -0.08)">
       <use xlink:href="#DejaVuSans-48"/>
       <use x="63.623047" xlink:href="#DejaVuSans-46"/>
       <use x="95.410156" xlink:href="#DejaVuSans-48"/>
       <use x="159.033203" xlink:href="#DejaVuSans-48"/>
       <use x="222.65625" xlink:href="#DejaVuSans-53"/>
      </g>
     </g>
    </g>
    <g id="ytick_7">
     <g id="line2d_11">
      <g>
       <use style="stroke:#000000;stroke-width:0.8;" x="126.034823" xlink:href="#m6ec151579b" y="104.677406"/>
      </g>
     </g>
     <g id="text_13">
      <!-- 0.010 -->
      <g transform="translate(133.034823 107.716781)scale(0.08 -0.08)">
       <use xlink:href="#DejaVuSans-48"/>
       <use x="63.623047" xlink:href="#DejaVuSans-46"/>
       <use x="95.410156" xlink:href="#DejaVuSans-48"/>
       <use x="159.033203" xlink:href="#DejaVuSans-49"/>
       <use x="222.65625" xlink:href="#DejaVuSans-48"/>
      </g>
     </g>
    </g>
    <g id="ytick_8">
     <g id="line2d_12">
      <g>
       <use style="stroke:#000000;stroke-width:0.8;" x="126.034823" xlink:href="#m6ec151579b" y="87.095327"/>
      </g>
     </g>
     <g id="text_14">
      <!-- 0.050 -->
      <g transform="translate(133.034823 90.134702)scale(0.08 -0.08)">
       <use xlink:href="#DejaVuSans-48"/>
       <use x="63.623047" xlink:href="#DejaVuSans-46"/>
       <use x="95.410156" xlink:href="#DejaVuSans-48"/>
       <use x="159.033203" xlink:href="#DejaVuSans-53"/>
       <use x="222.65625" xlink:href="#DejaVuSans-48"/>
      </g>
     </g>
    </g>
    <g id="ytick_9">
     <g id="line2d_13">
      <g>
       <use style="stroke:#000000;stroke-width:0.8;" x="126.034823" xlink:href="#m6ec151579b" y="69.513249"/>
      </g>
     </g>
     <g id="text_15">
      <!-- 0.100 -->
      <g transform="translate(133.034823 72.552624)scale(0.08 -0.08)">
       <use xlink:href="#DejaVuSans-48"/>
       <use x="63.623047" xlink:href="#DejaVuSans-46"/>
       <use x="95.410156" xlink:href="#DejaVuSans-49"/>
       <use x="159.033203" xlink:href="#DejaVuSans-48"/>
       <use x="222.65625" xlink:href="#DejaVuSans-48"/>
      </g>
     </g>
    </g>
    <g id="ytick_10">
     <g id="line2d_14">
      <g>
       <use style="stroke:#000000;stroke-width:0.8;" x="126.034823" xlink:href="#m6ec151579b" y="51.931171"/>
      </g>
     </g>
     <g id="text_16">
      <!-- 0.150 -->
      <g transform="translate(133.034823 54.970546)scale(0.08 -0.08)">
       <use xlink:href="#DejaVuSans-48"/>
       <use x="63.623047" xlink:href="#DejaVuSans-46"/>
       <use x="95.410156" xlink:href="#DejaVuSans-49"/>
       <use x="159.033203" xlink:href="#DejaVuSans-53"/>
       <use x="222.65625" xlink:href="#DejaVuSans-48"/>
      </g>
     </g>
    </g>
    <g id="ytick_11">
     <g id="line2d_15">
      <g>
       <use style="stroke:#000000;stroke-width:0.8;" x="126.034823" xlink:href="#m6ec151579b" y="34.349093"/>
      </g>
     </g>
     <g id="text_17">
      <!-- 0.200 -->
      <g transform="translate(133.034823 37.388468)scale(0.08 -0.08)">
       <use xlink:href="#DejaVuSans-48"/>
       <use x="63.623047" xlink:href="#DejaVuSans-46"/>
       <use x="95.410156" xlink:href="#DejaVuSans-50"/>
       <use x="159.033203" xlink:href="#DejaVuSans-48"/>
       <use x="222.65625" xlink:href="#DejaVuSans-48"/>
      </g>
     </g>
    </g>
    <g id="ytick_12">
     <g id="line2d_16">
      <g>
       <use style="stroke:#000000;stroke-width:0.8;" x="126.034823" xlink:href="#m6ec151579b" y="16.767015"/>
      </g>
     </g>
     <g id="text_18">
      <!-- 0.300 -->
      <g transform="translate(133.034823 19.80639)scale(0.08 -0.08)">
       <use xlink:href="#DejaVuSans-48"/>
       <use x="63.623047" xlink:href="#DejaVuSans-46"/>
       <use x="95.410156" xlink:href="#DejaVuSans-51"/>
       <use x="159.033203" xlink:href="#DejaVuSans-48"/>
       <use x="222.65625" xlink:href="#DejaVuSans-48"/>
      </g>
     </g>
    </g>
   </g>
   <g id="patch_8">
    <path d="M 120.7602 122.259484 
L 120.7602 104.677406 
L 120.7602 34.349093 
L 120.7602 16.767015 
L 126.034823 16.767015 
L 126.034823 34.349093 
L 126.034823 104.677406 
L 126.034823 122.259484 
z
" style="fill:none;stroke:#000000;stroke-linejoin:miter;stroke-width:0.8;"/>
   </g>
  </g>
 </g>
 <defs>
  <clipPath id="p568b13be49">
   <rect height="105.492469" width="95.5296" x="19.26" y="16.767015"/>
  </clipPath>
  <clipPath id="pdc4f2cb69b">
   <rect height="105.492469" width="5.274623" x="120.7602" y="16.767015"/>
  </clipPath>
 </defs>
</svg>
